<?xml version="1.0" encoding="UTF-8" standalone="no"?>
<svg
   xmlns:dc="http://purl.org/dc/elements/1.1/"
   xmlns:cc="http://creativecommons.org/ns#"
   xmlns:rdf="http://www.w3.org/1999/02/22-rdf-syntax-ns#"
   xmlns:svg="http://www.w3.org/2000/svg"
   xmlns="http://www.w3.org/2000/svg"
   xmlns:sodipodi="http://sodipodi.sourceforge.net/DTD/sodipodi-0.dtd"
   xmlns:inkscape="http://www.inkscape.org/namespaces/inkscape"
   version="1.1"
   id="svg36"
   width="4100"
   height="3178.6667"
   viewBox="0 0 4100 3178.6667"
   sodipodi:docname="COST.svg"
   inkscape:version="1.0.2 (e86c870879, 2021-01-15, custom)">
  <metadata
     id="metadata42">
    <rdf:RDF>
      <cc:Work
         rdf:about="">
        <dc:format>image/svg+xml</dc:format>
        <dc:type
           rdf:resource="http://purl.org/dc/dcmitype/StillImage" />
        <dc:title></dc:title>
      </cc:Work>
    </rdf:RDF>
  </metadata>
  <defs
     id="defs40" />
  <sodipodi:namedview
     pagecolor="#ffffff"
     bordercolor="#666666"
     borderopacity="1"
     objecttolerance="10"
     gridtolerance="10"
     guidetolerance="10"
     inkscape:pageopacity="0"
     inkscape:pageshadow="2"
     inkscape:window-width="2560"
     inkscape:window-height="1377"
     id="namedview38"
     showgrid="false"
     inkscape:zoom="0.3628665"
     inkscape:cx="1952.2089"
     inkscape:cy="1625.6828"
     inkscape:window-x="-8"
     inkscape:window-y="-8"
     inkscape:window-maximized="1"
     inkscape:current-layer="g44" />
  <g
     inkscape:groupmode="layer"
     inkscape:label="Image"
     id="g44">
    <g
       id="g327">
      <path
         id="path244"
         style="fill:#000000;stroke-width:1.33333"
         d="M 910.66016 1793.2148 C 875.51364 1792.841 840.47092 1805.4563 813.51367 1831.1445 C 785.10247 1858.2183 771.84949 1898.7696 777.27539 1942.0176 C 781.12819 1972.7269 793.08635 1997.1238 814.18555 2017.3223 C 834.25765 2036.5377 856.4496 2047.3913 884.7793 2051.8457 C 889.11715 2052.5277 901.96732 2052.8704 913.33398 2052.6074 C 930.00881 2052.2216 936.50097 2051.4799 946.94922 2048.7695 C 968.7435 2043.1155 987.59263 2032.2396 1010.0781 2012.3438 L 1017.8613 2005.457 L 1002.0469 1989.0098 C 993.34901 1979.9645 985.88002 1972.4225 985.44922 1972.25 C 985.0184 1972.0775 980.76667 1975.2612 976 1979.3242 C 951.66237 2000.0692 931.6818 2007.5618 904.55078 2006.1191 C 856.75226 2003.5772 823.94353 1969.8596 824.01953 1923.3516 C 824.05653 1900.6105 830.50884 1883.4854 844.89844 1867.9434 C 855.61414 1856.3694 865.52887 1849.7928 879.94141 1844.6953 C 890.24277 1841.0519 892.92925 1840.6602 908 1840.6152 C 921.84171 1840.573 926.36099 1841.093 934.66602 1843.6875 C 949.1044 1848.1982 963.17065 1855.9689 975.02344 1865.9824 L 985.37891 1874.7305 L 1002.127 1858.9805 L 1018.875 1843.2305 L 1008.4375 1833.2188 C 981.0581 1806.9525 945.80668 1793.5887 910.66016 1793.2148 z M 1850.1699 1793.8711 C 1839.6723 1793.9491 1829.6744 1794.7423 1823.5293 1796.2891 C 1768.6013 1810.1148 1730.2094 1853.2671 1723.832 1908.3496 C 1717.843 1960.0779 1742.6961 2009.9098 1787.7754 2036.5566 C 1798.4146 2042.8455 1818.6572 2049.9659 1831.334 2051.8809 C 1844.5194 2053.8726 1875.1144 2052.4821 1887.334 2049.3359 C 1909.286 2043.684 1931.1531 2030.3089 1948.4336 2011.9629 C 1963.6829 1995.7733 1973.5869 1977.715 1978.9629 1956.2988 C 1983.2004 1939.4177 1983.1891 1908.333 1978.9395 1891.3945 C 1967.6246 1846.2987 1931.1881 1809.3031 1886 1797.0273 C 1877.9883 1794.8509 1863.6668 1793.7701 1850.1699 1793.8711 z M 1436 1798.2246 L 1436 1923.1758 L 1436 2048.127 L 1483.666 2047.5117 C 1514.8341 2047.1095 1533.6408 2046.3295 1538 2045.2578 C 1562.0409 2039.347 1582.3523 2020.2272 1589.668 1996.6191 C 1591.8927 1989.4401 1592.5499 1984.0917 1592.4609 1973.8965 C 1592.2242 1946.7094 1581.9018 1929.0406 1557.9688 1914.8633 L 1549.9355 1910.1055 L 1556.2461 1904.2031 C 1569.9751 1891.3613 1575.4307 1877.4909 1574.332 1858.2227 C 1573.7547 1848.0969 1572.9659 1844.9992 1568.8262 1836.623 C 1560.2879 1819.3468 1543.0085 1806.559 1521.6602 1801.7148 C 1515.2521 1800.2607 1501.6456 1799.4652 1474.334 1798.9492 L 1436 1798.2246 z M 2710.666 1798.248 L 2710.666 1923.0723 L 2710.666 2047.8965 L 2734.666 2047.8965 L 2758.666 2047.8965 L 2758.666 1995.4395 L 2758.666 1942.9805 L 2778.334 1942.0977 C 2801.678 1941.0502 2811.7969 1938.8846 2824.4824 1932.2188 C 2853.0271 1917.2188 2865.5288 1885.3638 2857.0508 1849.2305 C 2853.1492 1832.6019 2838.7708 1814.5882 2823.7246 1807.4766 C 2809.7619 1800.8771 2800.101 1799.7019 2753.666 1798.9473 L 2710.666 1798.248 z M 2584.666 1798.5176 L 2556.123 1883.541 C 2540.4237 1930.3037 2527.2116 1968.9962 2526.7637 1969.5234 C 2526.3157 1970.0507 2513.0666 1931.8007 2497.3203 1884.5234 L 2468.6895 1798.5645 L 2445.2832 1798.5645 L 2421.877 1798.5645 L 2400.7207 1920.8965 C 2389.0847 1988.1799 2379.2912 2044.2812 2378.959 2045.5645 L 2378.959 2045.5547 C 2378.4006 2047.7112 2380.1277 2047.8887 2401.7383 2047.8887 L 2425.1211 2047.8887 L 2425.8906 2044.2227 C 2426.3133 2042.2061 2432.3761 2007.5561 2439.3652 1967.2227 C 2446.3542 1926.8894 2452.2102 1893.4296 2452.377 1892.8691 C 2452.5437 1892.3084 2464.3707 1926.9584 2478.6602 1969.8691 L 2504.6406 2047.8887 L 2525.9863 2047.8887 L 2547.334 2047.8887 L 2573.334 1970.5742 C 2587.634 1928.0515 2599.6333 1893.25 2600 1893.25 C 2600.3667 1893.24 2605.9836 1924.586 2612.4824 1962.9004 C 2618.9811 2001.2148 2624.8954 2036.0118 2625.625 2040.2285 L 2626.9512 2047.8945 L 2650.1094 2047.8945 L 2673.2676 2047.8945 L 2672.4277 2043.7031 C 2671.9666 2041.3977 2662.5008 1985.449 2651.3926 1919.3711 L 2631.1973 1799.2285 L 2607.9316 1798.873 L 2584.666 1798.5176 z M 3128.666 1798.5625 L 3103.4805 1798.8965 L 3078.293 1799.2305 L 3030.4961 1923.2305 C 3004.209 1991.4267 2982.7009 2047.3711 2982.6855 2047.5605 C 2982.6855 2047.7437 2993.9225 2047.8906 3007.666 2047.8906 L 3032.666 2047.8906 L 3043.1777 2021.2285 L 3053.6895 1994.5645 L 3103.8438 1994.5879 L 3154 1994.6113 L 3164.0195 2020.9219 L 3174.0371 2047.2305 L 3199.1406 2047.5938 C 3214.4677 2047.8155 3224.0646 2047.4673 3223.7871 2046.6992 C 3223.5373 2046.0072 3202.0333 1989.8937 3176 1922.002 L 3128.666 1798.5625 z M 1060 1798.5645 L 1060 1923.2305 L 1060 2047.8965 L 1118.666 2047.8965 L 1177.334 2047.8965 L 1177.334 2024.5645 L 1177.334 2001.2305 L 1142.666 2001.2305 L 1108 2001.2305 L 1108 1899.8965 L 1108 1798.5645 L 1084 1798.5645 L 1060 1798.5645 z M 1211.8047 1798.5645 L 1212.3828 1889.5645 C 1213.0115 1988.3736 1213.3254 1992.9025 1220.6074 2008.8086 C 1230.4076 2030.2149 1250.5385 2045.691 1275.5664 2051.0605 C 1294.2859 2055.0765 1319.4688 2053.0088 1334.6777 2046.207 C 1356.2769 2036.5474 1373.6992 2015.5478 1378.7676 1993.0645 C 1379.9178 1987.9617 1380.5434 1958.9159 1380.9395 1892.2305 L 1381.4961 1798.5645 L 1357.4668 1798.5645 L 1333.4375 1798.5645 L 1333.0527 1889.5645 C 1332.6156 1992.7104 1333.2114 1987.0839 1321.6289 1997.2793 C 1313.8799 2004.1003 1303.9649 2007.1407 1292.4805 2006.2188 C 1275.9453 2004.8914 1264.3653 1994.6582 1261.3555 1978.7148 C 1260.5244 1974.3123 1260 1938.064 1260 1885.0488 L 1260 1798.5645 L 1235.9023 1798.5645 L 1211.8047 1798.5645 z M 2028 1798.5645 L 2028 1923.2305 L 2028 2047.8965 L 2086.666 2047.8965 L 2145.334 2047.8965 L 2145.334 2024.5645 L 2145.334 2001.2305 L 2110.666 2001.2305 L 2076 2001.2305 L 2076 1899.8965 L 2076 1798.5645 L 2052 1798.5645 L 2028 1798.5645 z M 2163.9551 1798.5645 L 2167.2617 1805.0918 C 2169.0808 1808.6817 2185.5912 1840.5022 2203.9512 1875.8047 L 2237.334 1939.9902 L 2237.334 1993.9434 L 2237.334 2047.8965 L 2261.334 2047.8965 L 2285.334 2047.8965 L 2285.334 1994.0215 L 2285.334 1940.1445 L 2321.8145 1869.6875 L 2358.2949 1799.2305 L 2333.4863 1798.8672 C 2311.4167 1798.5434 2308.4934 1798.7539 2307.0195 1800.7695 C 2306.1082 1802.0157 2295.6654 1821.9231 2283.8145 1845.0078 C 2264.2577 1883.1027 2262.0987 1886.7467 2260.4316 1884.4668 C 2259.4213 1883.0852 2248.8806 1863.1923 2237.0078 1840.2598 L 2215.4199 1798.5645 L 2189.6875 1798.5645 L 2163.9551 1798.5645 z M 2902.666 1798.5645 L 2902.666 1923.2305 L 2902.666 2047.8965 L 2926 2047.8965 L 2949.334 2047.8965 L 2949.334 1923.2305 L 2949.334 1798.5645 L 2926 1798.5645 L 2902.666 1798.5645 z M 1852.4375 1840.0352 C 1858.0584 1840.0052 1863.7222 1840.5599 1869.334 1841.7461 C 1896.9727 1847.5884 1919.8739 1867.7721 1930.4141 1895.5762 C 1933.4321 1903.5371 1933.8302 1906.6226 1933.9102 1922.5645 C 1933.9872 1938.116 1933.5639 1941.893 1930.7988 1950.334 C 1923.0348 1974.0352 1903.4843 1993.9102 1879.8457 2002.1309 C 1866.6015 2006.7369 1847.32 2007.5777 1834 2004.1309 C 1816.9949 1999.7306 1807.1791 1994.2435 1794.8105 1982.2207 C 1785.351 1973.0259 1779.5167 1963.7702 1775.1348 1951.002 C 1772.1033 1942.1686 1771.5364 1938.2078 1771.4434 1925.2305 C 1771.3149 1907.2807 1773.0028 1899.2924 1780.0293 1884.5645 C 1792.9797 1857.4204 1822.0846 1840.1952 1852.4375 1840.0352 z M 1484 1844.9121 L 1496.3691 1845.4531 C 1516.9773 1846.3545 1526.5367 1852.9349 1527.7051 1867.0254 C 1528.8508 1880.8405 1522.6174 1889.8283 1509.1094 1893.8398 C 1505.2993 1894.9712 1498.0921 1895.8965 1493.0918 1895.8965 L 1484 1895.8965 L 1484 1870.4043 L 1484 1844.9121 z M 2758.666 1845.2305 L 2770.2246 1845.2305 C 2799.6185 1845.2305 2811.4374 1851.7303 2812.8906 1868.6934 C 2813.8141 1879.4743 2809.8014 1887.1368 2800.8066 1891.7656 C 2795.2489 1894.6258 2792.2325 1895.1072 2776.5625 1895.6387 L 2758.666 1896.2461 L 2758.666 1870.7383 L 2758.666 1845.2305 z M 3104.1504 1866.2734 C 3104.834 1867.0296 3116.5465 1897.0849 3134.7891 1944.8965 L 3135.9336 1947.8965 L 3103.8242 1947.8965 C 3073.8067 1947.8965 3071.7711 1947.7458 3072.5703 1945.5645 C 3083.2436 1916.4313 3103.5048 1865.559 3104.1504 1866.2734 z M 1484 1938.5605 L 1493.666 1938.5742 C 1524.7114 1938.6062 1541.8443 1948.0856 1545.457 1967.2305 C 1548.0917 1981.1922 1540.4641 1993.6047 1526.6309 1997.8652 C 1522.1977 1999.2306 1512.3998 2000.4068 1501.666 2000.8613 L 1484 2001.6094 L 1484 1970.0859 L 1484 1938.5605 z M 1183.5625 2212.1719 C 1174.019 2212.0911 1163.8445 2213.3265 1157.1035 2215.6934 C 1140.3924 2221.5609 1125.6166 2234.7069 1118.2461 2250.2656 C 1114.2902 2258.6164 1114.0044 2260.1887 1114.0664 2273.2305 C 1114.1411 2288.8513 1116.0538 2295.1898 1124.8281 2308.9062 C 1130.8476 2318.3163 1148.2842 2335.7219 1167.2695 2351.2715 C 1203.0203 2380.5526 1210.4165 2388.7226 1211.5449 2400.1758 C 1213.0733 2415.6884 1192.982 2428.8404 1175.1172 2424.0215 C 1166.3552 2421.658 1157.2646 2414.5263 1149.7832 2404.1465 C 1145.9973 2398.8939 1142.6624 2393.8856 1142.373 2393.0176 C 1142.0566 2392.0683 1133.8185 2396.4197 1121.6992 2403.9355 L 1101.5508 2416.4297 L 1104.2969 2421.8301 C 1117.4563 2447.7137 1137.6356 2464.5296 1162 2469.916 C 1188.8573 2475.8533 1219.4805 2468.634 1237.4688 2452.123 C 1255.5518 2435.525 1262.8173 2409.0513 1256.2227 2383.7891 C 1251.3828 2365.2487 1240.9007 2352.6199 1206.1445 2323.4473 C 1164.4004 2288.4094 1158.7839 2282.1327 1160.584 2272.5371 C 1161.7378 2266.3868 1168.9717 2260.3147 1176.4883 2259.1875 C 1188.5477 2257.3791 1198.2738 2261.7555 1210.7656 2274.6055 L 1219.5312 2283.623 L 1236.9961 2268.209 L 1254.459 2252.7969 L 1248.8965 2246.1836 C 1235.8303 2230.6493 1216.0491 2217.7563 1199.1816 2213.7793 C 1194.7871 2212.7432 1189.2886 2212.2203 1183.5625 2212.1719 z M 1452.8066 2217.1641 L 1432.7539 2217.5312 L 1412.6992 2217.8965 L 1390.7207 2296.3438 C 1378.6326 2339.4895 1368.46 2373.9909 1368.1152 2373.0117 C 1367.7704 2372.0327 1359.6503 2336.7312 1350.0703 2294.5645 L 1332.6523 2217.8965 L 1308.8379 2217.5332 C 1290.002 2217.2446 1285.1515 2217.522 1285.6328 2218.8652 C 1285.9675 2219.7991 1298.7707 2275.9145 1314.0859 2343.5645 L 1341.9336 2466.5645 L 1364.7168 2466.5645 L 1387.502 2466.5645 L 1409.2383 2388.8965 C 1429.1099 2317.8952 1433.0733 2304.6933 1433.3477 2308.5645 C 1433.3996 2309.2978 1443.4845 2344.9965 1455.7598 2387.8965 L 1478.0781 2465.8965 L 1501.3203 2465.8965 L 1524.5605 2465.8965 L 1552.25 2343.2305 C 1567.4786 2275.7638 1579.9517 2219.8132 1579.9688 2218.8965 C 1579.9923 2217.6259 1574.4826 2217.2305 1556.7754 2217.2305 L 1533.5508 2217.2305 L 1531.4941 2226.2305 C 1530.3629 2231.1805 1522.4007 2266.6028 1513.7988 2304.9453 C 1505.1971 2343.2878 1497.7781 2373.8878 1497.3125 2372.9453 C 1496.8469 2372.0028 1486.6426 2336.5657 1474.6367 2294.1973 L 1452.8066 2217.1641 z M 1902 2217.1855 L 1873.4551 2302.207 C 1857.7558 2348.9697 1844.5455 2387.6623 1844.0977 2388.1895 C 1843.6497 2388.7169 1830.3986 2350.4669 1814.6523 2303.1895 L 1786.0234 2217.2305 L 1762.6172 2217.2305 L 1739.209 2217.2305 L 1718.0527 2339.5645 C 1706.4167 2406.8478 1696.6253 2462.9471 1696.293 2464.2305 C 1695.7393 2466.3814 1697.4816 2466.5566 1719.0723 2466.5566 L 1742.4551 2466.5566 L 1743.2227 2462.8906 C 1743.6454 2460.8739 1749.7101 2426.2239 1756.6992 2385.8906 C 1763.6883 2345.5573 1769.5422 2312.0976 1769.709 2311.5371 C 1769.8757 2310.9764 1781.7046 2345.6264 1795.9941 2388.5371 L 1821.9746 2466.5566 L 1843.3203 2466.5566 L 1864.666 2466.5566 L 1890.666 2389.2441 C 1904.966 2346.7215 1916.9674 2311.918 1917.334 2311.918 C 1917.7007 2311.9115 1923.3176 2343.254 1929.8164 2381.5684 C 1936.315 2419.8828 1942.2294 2454.6799 1942.959 2458.8965 L 1944.2852 2466.5645 L 1967.4434 2466.5645 L 1990.5996 2466.5645 L 1989.7617 2462.373 C 1989.3006 2460.0675 1979.8349 2404.1169 1968.7266 2338.0391 L 1948.5293 2217.8965 L 1925.2656 2217.541 L 1902 2217.1855 z M 2898 2217.1855 L 2869.4551 2302.207 C 2853.7558 2348.9697 2840.5455 2387.6623 2840.0977 2388.1895 C 2839.6497 2388.7169 2826.3986 2350.4669 2810.6523 2303.1895 L 2782.0234 2217.2305 L 2758.6172 2217.2305 L 2735.209 2217.2305 L 2714.0527 2339.5645 C 2702.4167 2406.8478 2692.6253 2462.9471 2692.293 2464.2305 C 2691.7393 2466.3814 2693.4816 2466.5566 2715.0723 2466.5566 L 2738.4551 2466.5566 L 2739.2227 2462.8906 C 2739.6454 2460.8739 2745.7101 2426.2239 2752.6992 2385.8906 C 2759.6883 2345.5573 2765.5422 2312.0976 2765.709 2311.5371 C 2765.8757 2310.9764 2777.7046 2345.6264 2791.9941 2388.5371 L 2817.9746 2466.5566 L 2839.3203 2466.5566 L 2860.666 2466.5566 L 2886.666 2389.2441 C 2900.966 2346.7215 2912.9674 2311.918 2913.334 2311.918 C 2913.7007 2311.908 2919.3176 2343.254 2925.8164 2381.5684 C 2932.315 2419.8828 2938.2294 2454.6799 2938.959 2458.8965 L 2940.2852 2466.5645 L 2963.4434 2466.5645 L 2986.5996 2466.5645 L 2985.7617 2462.373 C 2985.3006 2460.0675 2975.8349 2404.1169 2964.7266 2338.0391 L 2944.5293 2217.8965 L 2921.2656 2217.541 L 2898 2217.1855 z M 2578 2217.2285 L 2552.8145 2217.5625 L 2527.627 2217.8965 L 2479.8301 2341.8965 C 2453.5421 2410.0949 2432.0296 2466.0425 2432.0156 2466.2285 C 2432.0056 2466.4118 2443.25 2466.5586 2457 2466.5586 L 2482 2466.5586 L 2492.5117 2439.8945 L 2503.0215 2413.2305 L 2553.1777 2413.2539 L 2603.334 2413.2793 L 2613.3516 2439.5879 L 2623.3711 2465.8965 L 2648.4727 2466.2598 C 2663.7998 2466.4816 2673.3985 2466.1334 2673.1211 2465.3652 C 2672.8712 2464.6732 2651.3674 2408.5597 2625.334 2340.668 L 2578 2217.2285 z M 1614.666 2217.2305 L 1614.666 2341.8965 L 1614.666 2466.5645 L 1638 2466.5645 L 1661.334 2466.5645 L 1661.334 2341.8965 L 1661.334 2217.2305 L 1638 2217.2305 L 1614.666 2217.2305 z M 2101.334 2217.2305 L 2101.334 2240.5645 L 2101.334 2263.8965 L 2123.334 2263.8965 L 2145.334 2263.8965 L 2145.334 2365.2305 L 2145.334 2466.5645 L 2169.334 2466.5645 L 2193.334 2466.5645 L 2193.334 2365.2305 L 2193.334 2263.8965 L 2216.666 2263.8965 L 2240 2263.8965 L 2240 2240.5645 L 2240 2217.2305 L 2170.666 2217.2305 L 2101.334 2217.2305 z M 2273.334 2217.2305 L 2273.334 2341.8965 L 2273.334 2466.5645 L 2341.334 2466.5645 L 2409.334 2466.5645 L 2409.334 2443.2305 L 2409.334 2419.8965 L 2364.666 2419.8965 L 2320 2419.8965 L 2320 2387.2305 L 2320 2354.5645 L 2364.666 2354.5645 L 2409.334 2354.5645 L 2409.334 2331.2305 L 2409.334 2307.8965 L 2364.666 2307.8965 L 2320 2307.8965 L 2320 2285.8965 L 2320 2263.8965 L 2364.666 2263.8965 L 2409.334 2263.8965 L 2409.334 2240.5645 L 2409.334 2217.2305 L 2341.334 2217.2305 L 2273.334 2217.2305 z M 2553.4844 2284.9395 C 2554.168 2285.6956 2565.8803 2315.7529 2584.123 2363.5645 L 2585.2676 2366.5645 L 2553.1582 2366.5645 C 2523.1408 2366.5645 2521.1031 2366.4118 2521.9023 2364.2305 C 2532.5757 2335.0973 2552.8388 2284.2251 2553.4844 2284.9395 z " />
      <path
         style="fill:#ff0000;stroke-width:2.75583"
         d="m 840.3372,1753.1522 c -25.76705,-5.9154 -80.33257,-18.3242 -121.25671,-27.5751 -153.49261,-34.697 -156.98761,-35.897 -165.76983,-56.9158 -3.59167,-8.5961 -3.48506,-10.3287 1.12225,-18.2386 2.80002,-4.8071 10.29808,-11.6234 16.66236,-15.1473 9.47132,-5.2442 11.57142,-7.8621 11.57142,-14.4242 0,-15.2898 57.91989,-81.916 74.92122,-86.1831 3.56388,-0.8944 12.74847,-7.6685 20.41022,-15.0534 15.85991,-15.287 44.8799,-28.749 76.54893,-35.5102 15.66728,-3.3449 28.308,-3.7654 62.36555,-2.0746 23.49349,1.1663 56.35681,1.6017 73.02961,0.9674 62.19012,-2.3657 179.39038,-0.9036 203.93178,2.5442 38.7241,5.4404 74.019,13.3605 101.3359,22.7399 l 25.0661,8.6065 5.6949,-7.7075 c 11.7184,-15.8599 116.7661,-166.0855 132.812,-189.9305 9.1796,-13.6414 31.1687,-46.8138 48.8647,-73.7166 56.2255,-85.4781 121.0724,-159.7271 189.1661,-216.593 17.4307,-14.5566 59.595,-50.71346 93.6984,-80.34863 103.3325,-89.79376 98.3608,-86.21973 119.9382,-86.21973 14.4838,0 37.9026,9.43545 49.5456,19.96203 8.092,7.31602 18.4068,12.04719 60.2253,27.62391 109.0466,40.6182 175.853,74.16689 222.2478,111.60782 9.8521,7.9508 30.1845,22.1394 45.1831,31.5303 43.8472,27.4535 78.0004,53.9773 111.8994,86.9025 30.4461,29.5715 32.6672,31.1394 56.4946,39.8793 38.7973,14.2309 112.701,50.8786 141.7261,70.2796 30.7882,20.5795 52.3848,40.97 65.8825,62.2029 5.2994,8.3364 18.6543,24.7891 29.6775,36.5616 36.9683,39.4811 51.0201,69.916 51.4399,111.4145 l 0.2563,25.3415 33.4573,33.377 33.4573,33.377 35.1502,-10.4717 35.1501,-10.4718 18.9543,-21.3704 c 14.0459,-15.8364 19.3653,-24.0483 20.5417,-31.7117 3.7884,-24.6785 12.9375,-58.1432 19.6431,-71.8489 7.8354,-16.0148 26.5827,-30.8129 39.0362,-30.8129 4.7637,0 16.1896,-9.6964 41.4869,-35.2075 56.2995,-56.7753 106.7823,-94.4872 161.6809,-120.7796 54.4588,-26.0818 86.5124,-33.9102 139.4976,-34.0693 66.6964,-0.2004 138.8516,19.9741 208.8143,58.3838 44.8619,24.6293 80.7321,66.2674 94.0591,109.1836 18.4224,59.325 14.645,118.3352 -11.0964,173.343 -34.3688,73.4446 -114.9001,161.1184 -192.3093,209.3658 l -21.1717,13.1958 -742.5858,0.704 c -408.4222,0.3872 -743.6408,-0.3509 -744.9302,-1.6403 -1.2894,-1.2894 -3.0795,-11.1138 -3.9781,-21.8321 l -1.6338,-19.4878 15.7903,-28.2696 c 54.8812,-98.2546 136.7438,-189.8076 209.4375,-234.2294 12.957,-7.9178 23.5215,-15.1343 23.4766,-16.0367 -0.045,-0.9024 -13.3762,-9.4305 -29.6252,-18.9513 -50.5328,-29.6087 -79.9076,-52.3291 -123.6786,-95.661 l -41.7742,-41.3552 -13.3425,8.1532 c -66.3281,40.5306 -250.3126,157.4518 -271.0131,172.2274 -67.4549,48.1479 -127.7099,100.3301 -158.243,137.0419 -12.2581,14.7387 -26.6806,28.7715 -34.5422,33.6088 -7.4234,4.5676 -18.7226,15.226 -25.1094,23.6852 -22.9658,30.4179 -50.3805,46.8934 -105.4839,63.3927 -57.23,17.1361 -72.1094,20.2594 -105.5275,22.1511 -19.1926,1.0864 -46.9233,5.0418 -67.1442,9.5771 -26.5377,5.9521 -47.7372,8.4608 -92.32044,10.9252 -31.82989,1.7594 -66.5534,4.9432 -77.16336,7.0751 -10.60996,2.1319 -20.53097,3.8296 -22.04668,3.7727 -1.51571,-0.057 -23.83797,-4.9434 -49.60502,-10.8589 z"
         id="path50" />
      <path
         style="fill:#0000ff;stroke-width:2.75583"
         d="m 221.67455,1304.8109 c -6.20079,-41.9448 -15.52206,-75.1109 -53.6059,-190.7356 -20.30016,-61.6324 -40.43242,-126.94047 -44.73835,-145.12898 -7.65641,-32.34118 -7.82957,-34.83138 -7.85701,-112.98921 -0.0302,-86.14521 1.73127,-104.4709 15.15049,-157.6165 20.32534,-80.49667 56.92088,-153.79316 117.77203,-235.88331 9.87367,-13.31989 18.39302,-23.7771 18.93188,-23.23824 0.53886,0.53886 -3.41815,11.40755 -8.79335,24.15264 -12.34896,29.28053 -21.70036,65.20378 -26.09109,100.22855 -4.63773,36.99502 -1.9447,121.05544 6.8941,215.19349 9.76715,104.02542 9.47062,158.86118 -1.39,257.04436 -8.61147,77.8502 -9.33294,99.9354 -3.32923,101.9116 4.71136,1.5509 8.25608,-8.9152 16.10328,-47.5467 8.65911,-42.6284 18.12618,-71.2985 33.41607,-101.19727 31.98246,-62.54043 94.86533,-132.4602 200.58958,-223.03651 50.30778,-43.09982 62.83633,-55.59822 82.47821,-82.27984 6.92894,-9.4123 12.59808,-15.82052 12.59808,-14.2405 0,6.88529 -17.13978,68.05613 -27.54923,98.32153 -12.06903,35.09067 -34.66558,84.56231 -51.42602,112.58934 -14.84424,24.82273 -47.06405,70.40283 -112.29576,158.86035 -31.85552,43.1977 -68.37637,94.0107 -81.15745,112.9178 -28.74546,42.5232 -54.8137,95.0514 -70.29672,141.6496 l -11.78834,35.4786 z"
         id="path52" />
      <path
         style="fill:#0000ff;stroke-width:2.75583"
         d="m 300.69987,836.66627 c 1.17816,-18.18851 1.71479,-85.77535 1.1925,-150.19298 -0.99558,-122.79373 1.03307,-163.02582 10.77793,-213.74701 16.90964,-88.01324 60.84738,-162.52951 130.09191,-220.62953 38.756,-32.51845 84.9223,-60.04397 110.8607,-66.09797 7.44518,-1.7377 6.06973,0.37364 -13.82861,21.22714 -53.06304,55.61018 -69.56325,93.89885 -110.29522,255.93955 -17.55424,69.8346 -28.72609,104.91544 -62.99155,197.80034 -8.52377,23.10574 -15.79444,44.67125 -16.15706,47.92333 -1.58011,14.17086 6.79598,6.02114 22.20087,-21.60087 23.19325,-41.58708 46.35292,-73.15009 74.98813,-102.19714 30.16898,-30.60285 53.8253,-49.02519 128.13012,-99.78121 31.82988,-21.7423 65.93333,-45.60415 75.78544,-53.02632 42.78149,-32.2298 76.57472,-67.81139 97.52951,-102.69087 11.84228,-19.71156 12.89366,-15.20274 4.56007,19.55553 -19.78912,82.53786 -62.45707,151.84351 -140.99868,229.02443 -35.14119,34.53237 -61.33283,56.4046 -111.01515,92.70696 -100.46394,73.40799 -142.92871,114.56624 -198.07507,191.98088 -4.76137,6.68403 -4.83821,5.95365 -2.75584,-26.19426 z"
         id="path54" />
      <path
         style="fill:#0000ff;stroke-width:2.75583"
         d="m 487.11195,472.20716 c 0.9074,-2.65249 13.28498,-39.54622 27.50573,-81.98607 C 528.9796,347.35993 546.30996,301.41948 553.6026,286.8773 582.19156,229.86832 633.07395,167.32469 680.28036,131.1675 710.53242,107.99629 755.59939,82.228343 800.1975,62.602453 845.74808,42.557417 931.93879,10.629679 936.44086,12.13364 c 1.64939,0.55099 -17.4669,21.979608 -42.48058,47.619153 -49.04107,50.268077 -67.77785,72.534437 -130.82795,155.472817 -82.75004,108.85234 -94.36524,120.48772 -215.49036,215.86453 -32.08798,25.26687 -59.20535,45.93974 -60.26081,45.93974 -1.05547,0 -1.17661,-2.17022 -0.26921,-4.82272 z"
         id="path56" />
      <path
         style="fill:#0000ff;stroke-width:2.75583"
         d="M 293.10082,1821.1881 C 273.17748,1787.3022 242.17766,1743.4247 188.44854,1673.062 84.865882,1537.412 70.046575,1510.8013 46.48865,1418.1473 13.765593,1289.4467 6.1370625,1167.0084 24.854122,1070.9122 c 4.17059,-21.4125 20.399145,-82.21495 30.893054,-115.74505 l 5.174956,-16.53501 -0.02563,46.84918 c -0.04897,89.96528 12.939362,139.74558 76.546028,293.37738 45.31586,109.4533 53.39385,135.4016 73.16247,235.0142 15.38885,77.5432 28.51113,133.7037 35.41255,151.5579 1.96914,5.0943 4.27321,7.0025 7.13105,5.9058 5.53241,-2.123 5.32697,-8.1628 -1.14427,-33.6413 -20.63279,-81.2356 -12.40632,-173.1686 23.67213,-264.5408 24.76885,-62.7296 52.70786,-113.5991 108.98018,-198.4241 33.2048,-50.053 47.10655,-75.8622 63.34222,-117.5974 l 10.72064,-27.5583 -1.22624,39.9596 c -0.90248,29.4096 -4.17713,57.4863 -12.40321,106.3446 -22.4455,133.3137 -23.67334,137.9419 -97.06148,365.8616 -42.11891,130.8077 -42.37561,132.1657 -42.40598,224.3314 -0.0138,41.3034 -0.19346,75.0968 -0.39965,75.0965 -0.20614,-2e-4 -5.66115,-8.9914 -12.12212,-19.9803 z"
         id="path58" />
      <path
         style="fill:#0000ff;stroke-width:2.75583"
         d="M 480.3186,2231.6377 C 367.28684,2153.6302 322.60528,2121.339 275.63021,2083.7102 232.2945,2048.9966 171.05654,1990.0575 141.20666,1954.3329 41.665849,1835.2015 -4.3778395,1698.83 2.6697455,1544.0163 l 1.9227526,-42.2369 7.5857149,29.8356 c 8.438255,33.1889 14.448303,49.446 28.85679,78.0574 29.857768,59.2897 59.046017,97.1778 157.108967,203.9372 93.65993,101.9658 114.53645,127.5511 149.98723,183.8172 40.73539,64.6537 67.2407,103.4001 80.32764,117.4259 11.57001,12.4001 13.35662,13.4709 13.44772,8.0599 0.0579,-3.432 -7.87686,-22.1687 -17.63254,-41.6372 -48.88192,-97.5491 -63.13575,-189.2831 -46.72903,-300.7358 2.34279,-15.915 12.2881,-63.6598 22.10066,-106.0997 21.28554,-92.0611 27.86138,-128.8367 30.34287,-169.6937 2.17554,-35.8198 2.53845,-35.4336 18.66507,19.8574 23.89457,81.9239 32.44342,149.2946 45.76485,360.6577 13.90734,220.6593 22.41664,273.4756 56.39065,350.0098 18.11176,40.8008 25.98466,60.6147 24.01523,60.4398 -1.0508,-0.093 -43.5784,-28.9263 -94.50572,-64.0732 z"
         id="path60" />
      <path
         style="fill:#0000ff;stroke-width:2.75583"
         d="m 917.39305,2609.7504 c -24.48165,-7.6323 -81.79404,-20.9287 -165.35006,-38.361 -51.53411,-10.7516 -105.57651,-22.5415 -120.09425,-26.1999 -90.11027,-22.7071 -168.04712,-62.4512 -249.18756,-127.074 -36.06458,-28.7229 -108.55059,-100.4097 -134.74401,-133.2582 -58.27311,-73.079 -103.2262,-159.8433 -123.05724,-237.5138 -3.11369,-12.1951 -5.14842,-22.6858 -4.52162,-23.3126 0.6268,-0.6268 6.93791,9.1914 14.0247,21.8182 39.66586,70.6742 110.14862,137.863 201.95489,192.5167 19.42596,11.5646 78.72433,44.3139 131.77414,72.7762 138.24374,74.1706 159.9965,88.0726 225.97842,144.4205 55.29927,47.225 103.3438,78.1052 103.3438,66.4233 0,-1.446 -18.9411,-22.3716 -42.09135,-46.5014 -48.04139,-50.074 -71.96005,-81.9871 -95.36794,-127.243 -33.21015,-64.2071 -42.22487,-100.6961 -63.65837,-257.6705 -15.75709,-115.4017 -21.00593,-144.6009 -34.28522,-190.7281 -5.14506,-17.8719 -8.97926,-32.8817 -8.52044,-33.3549 1.9117,-1.9718 75.89585,104.3891 101.44094,145.8332 41.05576,66.6084 57.49859,106.5711 100.82168,245.0371 18.26818,58.3875 38.22941,119.7737 44.35827,136.4138 15.69619,42.6159 45.91011,102.8931 68.47587,136.6104 16.69297,24.9423 27.41427,38.1477 60.76185,74.8406 6.28567,6.9162 6.4211,7.5578 1.5493,7.3417 -2.93606,-0.1304 -9.05867,-1.3967 -13.6058,-2.8143 z"
         id="path62" />
      <path
         style="fill:#0000ff;stroke-width:2.75583"
         d="m 866.41012,2805.3523 c -93.49136,-9.5035 -186.20231,-43.0733 -268.69386,-97.2914 -70.01689,-46.0191 -125.1892,-100.5029 -172.70939,-170.5542 -10.31711,-15.2088 -18.12643,-28.2843 -17.35405,-29.0567 0.77239,-0.7724 6.64887,3.5665 13.05886,9.642 44.85571,42.515 105.17327,77.0343 172.27524,98.5918 62.19694,19.9817 99.96447,26.3258 255.51027,42.9199 135.64843,14.4713 164.64631,18.7511 251.60971,37.1347 73.3352,15.5027 102.515,18.7586 102.515,11.4387 0,-4.5906 -9.9748,-8.7234 -53.7388,-22.2651 -95.3517,-29.5044 -157.35099,-77.5513 -206.78898,-160.253 -8.26436,-13.825 -35.86672,-68.3905 -61.33856,-121.2567 -25.47182,-52.8663 -50.95285,-104.0261 -56.62452,-113.6886 -5.67164,-9.6624 -9.69257,-18.1876 -8.93535,-18.9448 1.55983,-1.5599 27.01974,17.9389 63.61568,48.7208 13.64138,11.4742 84.32853,79.8239 157.08253,151.8882 72.7541,72.0644 139.9534,136.8738 149.3319,144.021 54.2559,41.3474 124.7672,74.7285 211.7872,100.2632 40.1677,11.7867 40.275,11.6363 -12.2479,17.1723 -15.773,1.6625 -58.5574,9.9039 -95.0763,18.3143 -211.7681,48.7701 -325.84045,63.1083 -423.27868,53.2036 z"
         id="path64" />
      <path
         style="fill:#0000ff;stroke-width:2.75583"
         d="m 1749.1441,3153.3028 c -16.3918,-13.4446 -32.6381,-27.5233 -36.1029,-31.2861 l -6.2996,-6.8414 38.8114,-37.5621 c 63.7434,-61.6917 142.4921,-125.0196 218.2644,-175.5234 19.2683,-12.8426 34.714,-24.4477 34.324,-25.789 -1.0319,-3.5484 -59.4005,-38.8522 -87.6677,-53.0251 -30.0099,-15.0466 -73.0193,-29.5405 -105.702,-35.6209 -18.5974,-3.4599 -34.4549,-4.2914 -63.3842,-3.3238 -35.0831,1.1734 -41.3305,2.1991 -68.8958,11.3121 -42.062,13.9055 -69.5927,28.5255 -169.4838,90.0028 -128.2984,78.9603 -168.7472,98.6189 -240.8975,117.0786 -59.5344,15.2319 -92.1614,18.777 -157.9996,17.1673 -44.0172,-1.0763 -63.1144,-2.7254 -82.894,-7.1584 -80.68591,-18.0831 -178.10584,-65.4546 -242.99339,-118.1579 -19.89411,-16.1585 -63.54233,-58.5514 -60.28525,-58.5514 0.8707,0 16.96129,7.2856 35.75688,16.1902 41.72412,19.7673 63.94902,27.8785 101.97945,37.2183 94.05666,23.0993 205.74931,19.4434 296.77211,-9.7138 14.4506,-4.6289 67.9253,-24.9199 118.8327,-45.0911 108.904,-43.1512 169.6806,-63.9019 230.2777,-78.6227 63.0496,-15.3164 94.2853,-19.4469 159.918,-21.1468 65.8371,-1.7052 81.6475,-0.1524 161.7467,15.8851 85.2101,17.0609 100.8579,23.0331 186.6224,71.2271 21.8472,12.2767 40.8667,22.3212 42.2655,22.3212 1.3989,0 20.1076,-9.7797 41.5749,-21.7328 51.3303,-28.5808 84.6492,-45.0188 106.2328,-52.4104 21.583,-7.3913 130.36,-29.3986 164.2888,-33.2382 52.1043,-5.8963 119.5383,-2.81 183.263,8.3876 81.6446,14.3464 145.7742,34.9813 310.2651,99.8333 76.3862,30.1159 107.4681,40.4949 147.5352,49.2652 26.0378,5.6995 35.7756,6.2665 108.5237,6.3197 76.7738,0.056 81.286,-0.237 114.647,-7.4474 42.7447,-9.2384 73.5437,-19.9511 117.9469,-41.0253 18.7956,-8.9205 34.6656,-16.2192 35.2667,-16.2192 3.5545,0 -20.6688,25.7812 -41.866,44.5587 -60.1363,53.2717 -160.7485,107.2763 -235.0825,126.183 -108.1309,27.5029 -236.7194,15.4171 -349.1221,-32.8133 -38.5684,-16.5492 -50.5912,-23.3131 -157.7264,-88.7348 -44.283,-27.0413 -92.0278,-55.3101 -106.0996,-62.8196 -96.268,-51.3735 -191.2872,-50.9316 -298.4127,1.3879 -29.5688,14.4412 -86.8381,49.508 -86.7794,53.1363 0.016,0.9995 13.8414,11.1182 30.7229,22.486 84.7361,57.0605 159.8866,117.7373 231.8194,187.1721 l 26.9479,26.012 -10.4129,10.7894 c -5.7271,5.9342 -22.7418,20.752 -37.8105,32.9284 l -27.3976,22.1389 -8.1752,-9.3072 c -32.3928,-36.8781 -102.6028,-110.6135 -142.6987,-149.8636 -43.9049,-42.9789 -112.6503,-103.4081 -117.4961,-103.2825 -3.1368,0.081 -44.9739,35.5104 -86.3593,73.132 -35.3401,32.126 -93.8355,92.074 -155.1419,158.9946 -14.9269,16.2939 -28.1469,29.6252 -29.3777,29.6252 -1.2309,0 -15.6494,-11.0001 -32.0412,-24.4448 z"
         id="path66" />
      <path
         style="fill:#0000ff;stroke-width:2.75583"
         d="m 3109.6593,2805.5926 c -69.5469,-6.0215 -150.7872,-20.4581 -286.666,-50.9413 -43.2303,-9.6983 -94.5528,-19.5 -114.05,-21.7815 -19.4972,-2.2816 -35.9076,-4.6064 -36.4675,-5.1663 -0.5599,-0.5599 12.9387,-5.0865 29.997,-10.0591 75.1955,-21.9198 136.946,-49.1717 188.0977,-83.0116 27.1246,-17.9446 43.6522,-33.2823 157.0826,-145.7734 69.7226,-69.1453 136.0693,-134.3529 147.4371,-144.9057 18.1445,-16.8437 89.2714,-75.6315 91.5059,-75.6315 2.9585,0 -127.978,259.3408 -140.3115,277.9094 -19.6489,29.5824 -58.6645,70.3435 -84.154,87.9189 -33.7733,23.2873 -73.9952,41.9304 -115.0655,53.3334 -25.691,7.1331 -52.7438,18.9227 -50.7655,22.1236 3.5648,5.768 38.0796,1.5628 104.0028,-12.6713 89.246,-19.27 101.4515,-21.1658 222.3461,-34.535 184.4016,-20.3922 210.6318,-24.4183 268.0383,-41.1411 75.54,-22.0054 140.4399,-57.451 188.7719,-103.0997 7.9743,-7.5316 15.0462,-13.1463 15.7153,-12.4772 0.6692,0.6691 -7.4387,14.0216 -18.0175,29.6721 -61.6936,91.2716 -135.9745,156.8811 -234.0412,206.7198 -62.707,31.8686 -120.1519,50.3857 -183.8866,59.2751 -38.539,5.3753 -112.3156,7.4679 -149.5694,4.2424 z"
         id="path68" />
      <path
         style="fill:#0000ff;stroke-width:2.75583"
         d="m 3178.9722,2596.9555 c 46.4369,-47.7772 83.0849,-106.903 114.019,-183.9519 8.5195,-21.22 29.588,-83.8463 46.819,-139.1697 42.3271,-135.8999 48.1031,-151.9836 71.7515,-199.798 23.0291,-46.5625 42.9957,-79.3078 87.3797,-143.3034 37.2242,-53.6721 50.1356,-70.6435 48.221,-63.3842 -0.7995,3.0315 -4.7113,16.5572 -8.6929,30.0573 -10.6275,36.0339 -16.9482,69.5753 -27.8732,147.911 -5.3738,38.5313 -12.9004,92.3791 -16.7259,119.6619 -11.3207,80.7378 -22.9797,122.1393 -49.3784,175.3456 -25.5392,51.474 -45.3371,78.325 -102.9257,139.5932 -20.3454,21.6455 -36.2609,40.0863 -35.3677,40.9796 6.0609,6.0609 50.9301,-22.9944 96.9702,-62.7936 68.1103,-58.8777 94.7436,-75.9637 241.1224,-154.6866 101.3162,-54.4883 114.6055,-62.0589 152.4341,-86.839 78.4399,-51.3829 132.8597,-107.6139 174.0306,-179.8227 9.7825,-17.1574 10.1017,-17.4295 8.3902,-7.1536 -8.9241,53.5808 -45.7061,137.8178 -87.3559,200.0598 -78.0136,116.5848 -205.9853,228.5439 -317.91,278.1315 -59.1857,26.2219 -87.8619,34.164 -235.1759,65.1342 -55.1525,11.5948 -115.2986,25.2968 -133.658,30.4489 -18.3594,5.1521 -35.2021,9.3806 -37.4282,9.3966 -2.2261,0.017 2.8832,-7.1016 11.3541,-15.8169 z"
         id="path70" />
      <path
         style="fill:#0000ff;stroke-width:2.75583"
         d="m 3525.7903,2291.8391 c 0,-0.7071 8.6789,-21.2933 19.2864,-45.747 40.4289,-93.2019 46.3958,-129.7451 62.0674,-380.1217 13.0398,-208.3279 22.8957,-279.7329 50.2107,-363.7701 l 10.301,-31.6921 1.9192,32.1663 c 2.4339,40.7923 9.2373,78.6327 30.0599,167.1945 25.4838,108.386 27.8113,124.3857 27.9258,191.9677 0.088,51.828 -0.6507,61.4996 -7.0709,92.6003 -9.2276,44.7002 -19.6444,74.3701 -43.3034,123.3393 -18.6776,38.6587 -21.6968,47.2426 -16.6168,47.2426 6.5034,0 41.5381,-48.2683 78.8564,-108.6426 45.1777,-73.0895 62.6928,-95.0853 163.645,-205.51 95.6236,-104.596 129.8426,-149.8376 158.4499,-209.4889 8.3506,-17.4126 18.2202,-42.8203 21.9324,-56.4617 3.7122,-13.6414 8.0572,-29.1429 9.6557,-34.4479 2.1483,-7.1301 2.6587,10.8366 1.9571,68.8958 -0.8753,72.4319 -1.5182,81.2209 -8.2645,112.9893 -32.3486,152.3299 -113.8654,271.2442 -273.8962,399.5517 -35.1215,28.1593 -103.4731,77.1643 -208.8853,149.7614 -69.9399,48.1673 -78.2298,53.4841 -78.2298,50.1731 z"
         id="path72" />
      <path
         style="fill:#0000ff;stroke-width:2.75583"
         d="m 3794.4594,1765.9578 c -0.03,-91.6525 -0.6374,-94.928 -40.3508,-217.6724 -75.9493,-234.7407 -77.4552,-240.388 -100.4747,-376.7853 -8.8893,-52.6713 -12.7047,-83.7849 -13.6867,-111.6112 l -1.3616,-38.5817 10.6634,29.1689 c 16.6785,45.6229 30.5241,71.6222 67.385,126.5357 39.7219,59.1757 56.9941,87.9455 78.3562,130.5152 28.8559,57.5033 47.0096,108.7007 57.79,162.9812 7.4761,37.6426 6.7539,112.0803 -1.4437,148.815 -8.9952,40.3092 -9.7929,47.1802 -5.7662,49.6688 2.0874,1.2901 4.8143,0.3435 6.7887,-2.3567 4.9761,-6.8052 21.8486,-77.8949 35.8525,-151.0587 17.4211,-91.0167 26.8039,-122.6994 61.9533,-209.1951 78.1343,-192.2734 90.2897,-238.326 87.6101,-331.92351 l -1.1835,-41.33752 5.1496,16.53501 c 28.5748,91.75192 36.3463,128.14092 41.0297,192.11472 8.45,115.4252 -20.8572,285.341 -64.3063,372.8313 -17.3914,35.0198 -33.1368,58.6564 -83.5286,125.3905 -87.7625,116.2244 -106.9381,143.4168 -134.4978,190.7279 l -5.9538,10.2207 -0.025,-74.9828 z"
         id="path74" />
      <path
         style="fill:#0000ff;stroke-width:2.75583"
         d="m 3863.8106,1296.299 c -14.5951,-44.853 -43.2821,-103.1084 -70.955,-144.0899 -12.7936,-18.9465 -46.2686,-65.4512 -74.3888,-103.3438 -100.4536,-135.3635 -122.459,-168.14834 -146.0685,-217.62086 -16.3219,-34.2017 -36.4601,-90.43577 -46.6774,-130.34263 -7.4942,-29.27103 -6.4938,-35.61144 3.2868,-20.83112 13.2496,20.02238 38.3037,44.7257 94.4403,93.11766 83.9206,72.34302 138.4693,130.1806 173.5763,184.04159 26.2608,40.2892 40.4329,76.46586 51.0988,130.43846 8.1159,41.0688 10.6539,48.4973 16.2096,47.4447 2.5792,-0.4887 4.9255,-4.0178 5.4028,-8.1268 0.4642,-3.9947 -3.0299,-41.1879 -7.7645,-82.6515 -12.4854,-109.3427 -13.3278,-158.48202 -4.3866,-255.89564 10.8456,-118.16262 13.2379,-167.56867 9.9372,-205.22056 -4.6018,-52.49308 -15.7645,-97.35213 -32.9233,-132.30731 -4.4475,-9.06024 -7.7194,-16.84019 -7.2708,-17.28879 1.5019,-1.50188 33.694,41.70602 53.5759,71.90895 48.5154,73.70059 77.1109,140.84052 92.6302,217.48765 12.8786,63.60496 15.2742,163.45871 5.3639,223.57608 -5.5243,33.51125 -12.9255,58.89392 -50.7129,173.92202 -35.194,107.1332 -45.0621,142.9125 -50.3818,182.6714 l -3.4238,25.5888 z"
         id="path76" />
      <path
         style="fill:#0000ff;stroke-width:2.75583"
         d="M 3786.3819,849.72382 C 3749.521,796.04097 3687.059,734.96057 3619.7471,686.77503 3555.994,641.13706 3517.0963,609.12744 3478.8707,570.84551 3406.4201,498.28805 3365.5944,432.16327 3346.328,356.16812 c -11.1716,-44.06599 -10.4395,-46.67115 6.0546,-21.54647 17.451,26.58232 54.8257,66.11351 83.8192,88.65551 12.1388,9.43776 52.4537,37.99722 89.5885,63.46549 37.1349,25.46826 76.1988,53.37128 86.8088,62.00669 45.8939,37.35291 90.495,92.55745 118.5009,146.67305 6.0628,11.71519 12.2635,20.86994 13.7792,20.34388 5.6894,-1.97459 0.6566,-20.31836 -22.0444,-80.34944 -28.1908,-74.54852 -36.975,-103.06537 -60.7275,-197.14497 -21.6155,-85.61518 -30.4444,-113.57342 -46.7057,-147.90148 -16.7306,-35.31848 -34.8875,-61.58467 -59.9861,-86.77717 -11.7467,-11.79069 -20.4276,-21.43699 -19.2908,-21.43623 3.7203,0.002 31.2487,11.05431 45.7489,18.36673 45.1851,22.78683 108.3152,77.77242 139.4674,121.47445 20.7754,29.14484 47.3031,82.6549 54.9979,110.93836 3.0928,11.36782 8.4407,35.55027 11.8842,53.73878 5.9577,31.46785 6.2667,39.54545 6.3765,166.72798 0.063,73.51188 1.1676,151.32975 2.4536,172.92861 1.2861,21.59885 1.8542,39.25595 1.2626,39.23798 -0.5917,-0.0193 -5.9619,-7.14866 -11.9339,-15.84605 z"
         id="path78" />
      <path
         style="fill:#0000ff;stroke-width:2.75583"
         d="M 3543.8951,425.10086 C 3427.309,333.17694 3419.2594,325.0539 3332.4128,211.69093 3266.743,125.97059 3257.2811,114.84187 3202.0934,58.41343 3177.7796,33.552944 3159.2236,12.748488 3160.858,12.181306 c 7.2943,-2.5314347 121.9026,41.522089 167.5535,64.404799 86.3166,43.266545 137.408,87.158685 186.6982,160.390655 27.707,41.16502 43.1093,75.61132 66.9331,149.69132 11.5577,35.93856 23.5022,71.14765 26.5434,78.24238 3.0411,7.09473 5.1881,13.22836 4.7711,13.63027 -0.417,0.40191 -31.675,-23.64602 -69.4622,-53.43987 z"
         id="path80" />
    </g>
  </g>
</svg>
