<?xml version="1.0" encoding="UTF-8" standalone="no"?>
<svg
   xmlns:dc="http://purl.org/dc/elements/1.1/"
   xmlns:cc="http://creativecommons.org/ns#"
   xmlns:rdf="http://www.w3.org/1999/02/22-rdf-syntax-ns#"
   xmlns:svg="http://www.w3.org/2000/svg"
   xmlns="http://www.w3.org/2000/svg"
   xmlns:sodipodi="http://sodipodi.sourceforge.net/DTD/sodipodi-0.dtd"
   xmlns:inkscape="http://www.inkscape.org/namespaces/inkscape"
   width="390.87845mm"
   height="135.03296mm"
   viewBox="0 0 390.87845 135.03296"
   version="1.1"
   id="svg8"
   inkscape:version="1.0.2 (e86c870879, 2021-01-15, custom)"
   sodipodi:docname="FRST.svg">
  <defs
     id="defs2" />
  <sodipodi:namedview
     id="base"
     pagecolor="#ffffff"
     bordercolor="#666666"
     borderopacity="1.0"
     inkscape:pageopacity="0.0"
     inkscape:pageshadow="2"
     inkscape:zoom="0.98994949"
     inkscape:cx="717.03521"
     inkscape:cy="387.34801"
     inkscape:document-units="mm"
     inkscape:current-layer="layer1"
     inkscape:document-rotation="0"
     showgrid="false"
     inkscape:window-width="2560"
     inkscape:window-height="1377"
     inkscape:window-x="-8"
     inkscape:window-y="-8"
     inkscape:window-maximized="1"
     fit-margin-top="0"
     fit-margin-left="0"
     fit-margin-right="0"
     fit-margin-bottom="0" />
  <metadata
     id="metadata5">
    <rdf:RDF>
      <cc:Work
         rdf:about="">
        <dc:format>image/svg+xml</dc:format>
        <dc:type
           rdf:resource="http://purl.org/dc/dcmitype/StillImage" />
        <dc:title></dc:title>
      </cc:Work>
    </rdf:RDF>
  </metadata>
  <g
     inkscape:label="Layer 1"
     inkscape:groupmode="layer"
     id="layer1"
     transform="translate(-0.39157889,-0.7385747)">
    <path
       style="fill:#0132bf;fill-opacity:1;stroke-width:0.264583"
       d="m 33.719887,135.53428 c -0.873125,-0.10636 -2.216354,-0.26452 -2.984952,-0.35146 -1.870411,-0.21158 -4.212008,-0.82175 -6.936923,-1.80763 -5.538059,-2.00369 -9.896871,-4.91933 -12.964584,-8.67211 -0.509323,-0.62307 -1.0507653,-1.26653 -1.2032053,-1.42993 -1.200205,-1.28647 -5.136281,-8.73017 -4.796177,-9.07028 0.070023,-0.07 -0.09346,-0.92266 -0.363296,-1.89477 -1.351349,-4.86832 -1.348984,-12.470345 0.0058,-18.568485 0.2711837,-1.22067 0.4591797,-2.17627 0.7027014,-3.57188 0.1629106,-0.93363 2.9058196,-9.42869 3.4171776,-10.58333 0.5774,-1.30377 3.3207593,-8.43269 3.4214323,-8.89097 0.128498,-0.58494 1.329015,-3.32548 3.580981,-8.17466 1.047492,-2.25557 2.182072,-4.76442 2.521287,-5.57522 0.339215,-0.81079 1.695982,-3.55955 3.015038,-6.10835 1.319055,-2.5488 2.398283,-4.82377 2.398283,-5.05548 0,-0.28723 -0.484163,-0.55657 -1.521354,-0.84634 -0.836747,-0.23376 -2.592919,-0.80332 -3.902606,-1.26569 -1.309688,-0.46237 -2.411617,-0.81414 -2.448732,-0.78172 -0.173727,0.15176 -3.915855,-1.91988 -6.0664033,-3.35836 -3.250053,-2.17393 -5.018539,-4.14959 -6.694067,-7.47828 -2.11025699,-4.19234 -2.49744499,-6.14597 -2.50859499,-12.65764 -0.0091,-5.30952 0.529431,-12.0037803 0.91540799,-11.3792603 0.106942,0.17304 0.145746,1.27587 0.08623,2.4507303 -0.05952,1.17486 -0.02573,2.32495 0.07508,2.55576 0.100812,0.23081 0.159162,0.67159 0.129666,0.97951 -0.09099,0.94986 0.758636,5.33378 1.473482,7.60294 0.798582,2.53496 1.178468,3.31504 3.48924,7.16505 1.972136,3.28579 3.6967983,5.11844 6.6179153,7.03228 1.111195,0.72802 2.142975,1.41216 2.292843,1.52031 0.149869,0.10815 0.864244,0.48275 1.587501,0.83244 0.723256,0.34969 1.612668,0.78532 1.97647,0.96807 0.363802,0.18275 0.720989,0.33544 0.79375,0.33931 0.07276,0.004 0.310885,0.067 0.529166,0.1402 2.607014,0.8747 6.426211,2.01766 6.741983,2.01766 0.220972,0 0.401768,0.0503 0.401768,0.11166 0,0.0614 -1.370997,2.79985 -3.046661,6.08542 -1.675663,3.28557 -2.971657,5.97376 -2.879987,5.97376 0.09167,0 -0.02371,0.29056 -0.256402,0.64569 -0.232692,0.35513 -1.20906,2.40896 -2.169707,4.56406 -0.960646,2.1551 -1.924577,4.27556 -2.142069,4.71212 -0.422445,0.84796 -1.955333,4.5859 -2.061549,5.02708 -0.03504,0.14552 -0.137413,0.44318 -0.227506,0.66146 -0.232295,0.56281 -2.232426,6.37237 -2.999913,8.7135 -1.206217,3.67945 -3.2008973,12.19872 -3.5352383,15.099 -0.133295,1.15629 -0.258219,4.69825 -0.251959,7.143745 0.0039,1.52797 -0.0023,3.69016 -0.01372,4.80488 -0.01146,1.11471 0.09369,2.09753 0.233664,2.18404 0.139975,0.0865 0.202273,0.48867 0.13844,0.8937 -0.143723,0.91194 1.163745,6.17179 2.1419453,8.61688 1.983259,4.95734 5.848589,9.83299 10.288184,12.97732 1.301961,0.92211 5.537686,3.33782 5.795226,3.30513 0.03367,-0.004 0.239808,0.0559 0.458089,0.13375 1.139267,0.40628 5.132972,1.47433 6.570115,1.75708 0.904671,0.17798 1.708515,0.4266 1.786318,0.55249 0.07781,0.12589 0.104672,0.21074 0.0597,0.18855 -0.04497,-0.0222 -0.796137,-0.12737 -1.669262,-0.23373 z m 2.315104,0.0917 c 0.254662,-0.0666 0.671381,-0.0666 0.926042,0 0.254662,0.0665 0.0463,0.121 -0.463021,0.121 -0.509323,0 -0.717682,-0.0545 -0.463021,-0.121 z m 276.646129,-0.11502 c -2.76762,-0.22251 -4.69167,-0.60266 -7.49872,-1.48157 -2.27907,-0.7136 -6.02964,-2.38891 -6.1736,-2.75764 -0.0485,-0.12424 -0.24231,-0.22589 -0.43064,-0.22589 -0.18833,0 -0.48212,-0.16833 -0.65288,-0.37406 -0.17074,-0.20574 -0.8104,-0.60993 -1.42145,-0.8982 -1.14943,-0.54226 -4.00116,-3.19089 -6.53497,-6.06954 -1.67029,-1.89762 -3.58616,-5.08695 -4.78346,-7.963 -2.02001,-4.85225 -2.99085,-11.76491 -2.43046,-17.305505 0.39722,-3.9273 2.17758,-12.78542 3.39537,-16.89353 0.53486,-1.80429 1.02873,-3.51865 1.09749,-3.80969 0.24601,-1.04144 0.93853,-3.18907 1.27974,-3.96875 0.19103,-0.43657 0.87961,-2.11065 1.53014,-3.72018 0.65053,-1.60954 1.62084,-3.837 2.15627,-4.94991 0.53542,-1.11292 0.9968,-2.17727 1.02529,-2.36524 0.0285,-0.18797 0.1252,-0.46082 0.21495,-0.60634 0.0897,-0.14552 1.25214,-2.40371 2.5831,-5.01819 1.33099,-2.61448 2.50457,-4.81713 2.60797,-4.89479 0.1034,-0.0777 0.3664,-0.49837 0.58444,-0.93494 0.21804,-0.43656 0.70451,-1.2552 1.08101,-1.81919 0.9307,-1.39414 0.75517,-2.1243 -0.64588,-2.68681 -3.66278,-1.47061 -10.65098,-4.15504 -11.00111,-4.22594 -0.22807,-0.0462 -2.26012,-0.75402 -4.51569,-1.57299 -13.23306,-4.8047 -32.79006,-11.09449 -35.51931,-11.42346 -0.60422,-0.0728 -1.28323,-0.2474 -1.50891,-0.38794 -1.15509,-0.7193 11.24295,1.33071 16.87664,2.79055 0.83924,0.21747 1.75785,0.43989 2.04135,0.49428 0.28347,0.0544 0.73427,0.19306 1.00174,0.30816 0.26746,0.11511 0.74371,0.23686 1.05833,0.27057 0.31462,0.0337 0.57203,0.0864 0.57203,0.1171 0,0.0307 0.23813,0.0864 0.52917,0.12389 0.98769,0.12707 12.84152,3.52468 17.99166,5.15687 1.45521,0.46119 2.88396,0.88422 3.175,0.94008 0.29105,0.0559 0.52917,0.11925 0.52917,0.14088 0,0.0216 0.29766,0.093 0.66146,0.15855 0.3638,0.0656 2.09021,0.57995 3.83646,1.14305 1.74625,0.56311 4.57139,1.41349 6.27808,1.88975 l 3.10306,0.86592 -0.48569,0.81563 c -0.26712,0.4486 -1.00013,1.76814 -1.62888,2.9323 -0.62873,1.16417 -1.22651,2.1762 -1.32834,2.24896 -0.24617,0.17588 -4.35481,8.41469 -4.61809,9.26042 -0.11327,0.3638 -0.77087,1.8599 -1.46132,3.32467 -1.79631,3.81077 -4.68577,11.50279 -4.89911,13.04191 -0.0677,0.48865 -0.2059,1.02233 -0.30705,1.18597 -0.10112,0.16364 -0.20558,0.47821 -0.23209,0.69905 -0.0265,0.22084 -0.4146,1.94933 -0.86236,3.84111 -2.10775,8.90516 -2.71462,14.87978 -2.18485,21.509875 0.49216,6.15919 1.66516,11.03429 3.76899,15.66407 1.79523,3.95064 6.05774,8.81017 10.04785,11.45515 2.36225,1.56589 6.85477,3.78828 7.42656,3.67381 0.0997,-0.02 0.69503,0.14501 1.32292,0.36661 1.47844,0.52182 4.26037,1.15151 6.94483,1.57198 1.90103,0.29776 2.00414,0.34129 0.94361,0.39839 -0.65484,0.0353 -1.42875,0.083 -1.71979,0.10601 -0.29104,0.023 -1.56006,-0.041 -2.82003,-0.14227 z M 99.468846,135.38874 c -0.3638,-0.0653 -1.85208,-0.3064 -3.30729,-0.53581 -1.455208,-0.22941 -3.879588,-0.8243 -5.387512,-1.32197 -2.825158,-0.93242 -7.973947,-3.4071 -7.973947,-3.83255 0,-0.13202 -0.178594,-0.24005 -0.396875,-0.24005 -0.218281,0 -0.396875,-0.11906 -0.396875,-0.26458 0,-0.14552 -0.168603,-0.26458 -0.374676,-0.26458 -0.479783,0 -3.105063,-2.87218 -4.3531,-4.7625 -0.528421,-0.80037 -1.100847,-1.60379 -1.272053,-1.7854 -0.498356,-0.52861 -1.86358,-4.29056 -2.178238,-6.00226 -0.673476,-3.66362 -0.189244,-10.02108 1.176864,-15.45093 1.781831,-7.082225 5.471697,-17.444355 8.403408,-23.599015 3.565294,-7.48476 5.146103,-10.57011 7.314096,-14.27532 1.32102,-2.25768 2.394567,-4.39463 2.392561,-4.7625 -0.0033,-0.60462 -0.268552,-0.76665 -2.82503,-1.72561 -3.382322,-1.26874 -7.533902,-3.9013 -10.095482,-6.40165 -0.968123,-0.94499 -1.403038,-1.48455 -0.966475,-1.19902 2.434127,1.59198 8.334375,4.12513 8.334375,3.5782 0,-0.0788 0.159782,-0.0107 0.355074,0.15132 0.195289,0.16208 0.428281,0.22148 0.517755,0.132 0.08948,-0.0895 0.376177,-0.0705 0.637114,0.0423 0.637567,0.27541 0.514477,0.25408 4.62647,0.80185 l 3.622876,0.48261 -0.65385,1.07393 c -0.35962,0.59065 -1.318121,2.3836 -2.130011,3.98433 -0.811887,1.60073 -1.62651,3.08901 -1.810269,3.30729 -0.476776,0.56635 -3.61673,7.34348 -4.780841,10.31875 -0.540901,1.38245 -1.207087,2.95774 -1.480418,3.50065 -0.754602,1.49883 -4.156329,10.60697 -4.330279,11.59434 -0.08408,0.47727 -0.233556,0.99686 -0.332158,1.15462 -0.0986,0.15777 -0.212251,0.49854 -0.25255,0.75728 -0.0403,0.25874 -0.476885,1.86608 -0.970193,3.57188 -1.891377,6.54015 -2.354842,9.635245 -2.385949,15.933725 -0.02832,5.73549 0.23603,7.66242 1.488215,10.84792 1.841569,4.68485 4.066194,7.18108 9.334223,10.47383 0.436562,0.27287 1.150937,0.63703 1.5875,0.80924 3.126854,1.2335 4.562393,1.71109 5.49558,1.82834 0.58997,0.0741 1.61888,0.25827 2.28647,0.4092 2.711884,0.61311 7.556804,1.03352 12.316234,1.06872 3.80397,0.0281 4.68088,0.0916 3.58193,0.25914 -1.62236,0.24738 -13.78048,0.52827 -14.816674,0.34232 z m 98.557304,-2.14306 c -9.62698,-0.49348 -18.92097,-1.82925 -28.31042,-4.06887 -2.35764,-0.56235 -10.64093,-4.17941 -13.36146,-5.83453 -0.50932,-0.30986 -1.0451,-0.58428 -1.19062,-0.60981 -0.31261,-0.0548 -1.43474,-0.65639 -1.83542,-0.98391 -0.15469,-0.12644 -1.63289,-1.12154 -3.2849,-2.21133 -4.24693,-2.80162 -7.18102,-5.2113 -10.39111,-8.53394 -3.94987,-4.08837 -6.5505,-8.15325 -9.69075,-15.147005 -1.43359,-3.1928 -3.34837,-10.50076 -3.66883,-14.00255 -0.0743,-0.81157 -0.17954,-1.95182 -0.23394,-2.5339 -0.0544,-0.58209 -0.16048,-2.36803 -0.23577,-3.96875 l -0.13688,-2.91042 1.00505,3.70417 c 0.55278,2.03729 1.31885,4.56737 1.70238,5.62239 0.38353,1.05503 0.64969,1.91823 0.59146,1.91823 -0.16455,0 1.65699,4.41825 2.55787,6.20426 1.26381,2.50553 4.63711,8.24831 6.33464,10.784225 4.18874,6.25751 8.32247,10.2481 15.79913,15.25204 2.20606,1.47646 4.07058,2.68447 4.14336,2.68447 0.0728,0 0.60623,0.29915 1.18542,0.66477 0.57919,0.36563 1.05308,0.60135 1.05308,0.52382 0,-0.0775 0.62508,0.22384 1.38906,0.66972 3.0477,1.77869 11.38038,5.24414 13.56983,5.6435 0.4311,0.0786 1.141,0.21325 1.57757,0.29914 11.75791,2.31338 19.9071,3.13546 31.22083,3.1495 8.29721,0.0103 15.05682,-0.40575 21.29896,-1.31096 2.47683,-0.35917 7.17414,-1.36455 8.59896,-1.84045 1.32584,-0.44284 -1.81689,1.17623 -3.70417,1.90832 -2.49228,0.96677 -8.8988,2.77799 -11.90625,3.36609 -7.47179,1.46107 -15.66893,1.99279 -24.07708,1.56178 z M 44.413465,131.20746 c -0.06063,-0.0567 -0.824619,-0.17299 -1.697744,-0.25855 -2.798771,-0.27425 -3.665927,-0.42673 -5.55625,-0.977 -6.487094,-1.8884 -12.161701,-5.49754 -15.871256,-10.09439 -0.973392,-1.20622 -1.840006,-2.37172 -1.925809,-2.59 -0.0858,-0.21828 -0.242407,-0.4564 -0.34801,-0.52916 -0.420499,-0.28973 -2.080484,-3.96474 -2.748756,-6.08542 -1.426606,-4.52718 -1.751146,-6.66689 -1.906203,-12.567705 -0.167829,-6.38687 0.142481,-9.34983 1.610514,-15.37778 0.491878,-2.01972 0.979192,-4.19358 1.082919,-4.8308 0.351274,-2.15796 3.273118,-10.46542 5.548188,-15.77475 0.623563,-1.45521 1.526056,-3.59833 2.005539,-4.7625 1.04239,-2.53088 4.843637,-10.49783 7.40378,-15.51741 1.012989,-1.98613 1.841778,-3.77207 1.841746,-3.96875 -3.4e-5,-0.22371 -1.064924,-0.68659 -2.844271,-1.23635 -6.840564,-2.11348 -13.314875,-5.77511 -15.821675,-8.94815 C 10.17769,21.349135 8.2937337,15.438885 7.7762577,4.4427447 l -0.174317,-3.70417 2.078764,2.02103 c 1.1433213,1.11156 3.0907963,2.74965 4.3277233,3.64019 1.236927,0.89055 2.404584,1.7483 2.594792,1.90612 2.055966,1.7059003 12.207792,5.9871603 18.466129,7.7875803 11.068112,3.18412 27.128672,4.89318 42.439081,4.51609 11.595257,-0.28559 23.92909,-0.99615 32.67605,-1.88248 9.80109,-0.99315 8.6408,-0.79525 23.8125,-4.06135 8.32804,-1.79282 15.53263,-3.16311 17.59479,-3.34646 0.94589,-0.0841 2.73182,-0.32256 3.96875,-0.5299 9.48974,-1.5907103 19.49632,-1.5709403 24.87084,0.0491 0.80036,0.24126 1.6657,0.47806 1.92297,0.52623 0.87812,0.1644 4.02724,1.88185 5.66783,3.09109 5.30155,3.90763 9.02411,11.94072 9.52593,20.55643 0.17533,3.01031 -0.2145,5.65681 -1.25604,8.52705 -0.89086,2.45497 -3.10892,6.75467 -4.81645,9.33665 -2.39225,3.61736 -7.14672,7.32283 -12.63174,9.84476 -2.30116,1.05803 -9.63355,3.50504 -14.88282,4.96677 -3.17766,0.88486 -3.63771,1.08229 -3.63562,1.56019 0.007,1.56306 2.16017,9.51487 3.04992,11.26275 0.18519,0.3638 0.82447,1.71497 1.42062,3.0026 2.09765,4.5307 5.78516,9.48626 11.43173,15.36283 3.46679,3.607985 6.14596,5.888235 9.83271,8.368635 2.16199,1.45456 7.22905,4.15222 8.12929,4.32797 0.21828,0.0426 0.75406,0.22478 1.19062,0.40482 1.47238,0.60719 7.12946,2.07224 9.65931,2.50152 8.05332,1.36655 17.30614,1.08581 25.00111,-0.75855 13.61055,-3.26222 20.04525,-8.5283 21.01783,-17.200705 0.61522,-5.48597 -1.57033,-9.98905 -6.40146,-13.18944 -2.19946,-1.45704 -2.57345,-1.64393 -6.41428,-3.20535 -2.37264,-0.96455 -6.68388,-2.39589 -8.02531,-2.66442 -1.38793,-0.27783 -7.41429,-2.70893 -9.24225,-3.72842 -2.37042,-1.32202 -5.60579,-3.82366 -7.1974,-5.56513 -1.76887,-1.93543 -2.97387,-3.82801 -4.52258,-7.10323 -2.62446,-5.55022 -3.29001,-8.57639 -3.28772,-14.94896 0.002,-4.27311 0.0592,-4.83426 0.74727,-7.27604 1.0078,-3.57626 3.76621,-9.2579 5.78042,-11.90625 1.28057,-1.68373 5.51341,-6.09178 7.65677,-7.97369 3.02297,-2.65424 13.24803,-7.13833 17.42934,-7.64346 0.80036,-0.0967 2.40771,-0.35426 3.57187,-0.57238 4.61072,-0.8638903 16.92526,-0.72402 27.47513,0.31208 0.60492,0.0594 2.05237,0.17601 3.21654,0.25911 1.91442,0.13666 5.86129,0.69996 15.875,2.2657 21.17027,3.31017 33.66799,4.51701 46.30209,4.47114 6.10129,-0.0222 9.25248,-0.15334 12.30312,-0.51221 9.2773,-1.09134 16.70971,-2.57205 23.28334,-4.63855 2.11005,-0.66332 4.39181,-1.3656 5.0706,-1.56062 0.67879,-0.19502 1.87143,-0.65605 2.65028,-1.02452 0.77888,-0.3684603 2.30711,-1.0760003 3.39606,-1.5723103 1.9607,-0.89361 9.61099,-5.03898 10.24816,-5.55304 0.40542,-0.32708 0.40759,-0.41791 -0.0714,2.97296 -0.87945,6.2257203 -2.37895,11.8285703 -4.56732,17.0656303 -1.97676,4.73063 -3.62117,7.12844 -7.73443,11.27797 -3.57609,3.60763 -10.71611,7.00826 -18.25239,8.69321 -3.6267,0.81085 -4.66646,0.87715 -14.94896,0.95311 l -9.78958,0.0723 -1.53316,3.52461 c -0.84323,1.93853 -1.84076,4.41757 -2.2167,5.50898 -0.37595,1.0914 -0.89498,2.40368 -1.15338,2.91616 -0.71749,1.42292 -4.9186,13.1275 -5.41104,15.0755 -0.23911,0.94589 -0.77984,2.8082 -1.20158,4.13846 -1.67063,5.26933 -3.50422,13.35992 -4.51877,19.93863 -0.79594,5.161185 -0.99975,15.635805 -0.38613,19.843745 0.56809,3.89558 1.2908,6.73264 2.39538,9.40313 0.97192,2.34979 2.53095,5.14156 3.16516,5.66791 0.85132,0.70654 0.42309,0.8641 -1.90593,0.70129 -5.58991,-0.39078 -12.29852,-2.80735 -17.45729,-6.28845 -6.62548,-4.47083 -11.58126,-13.13336 -12.84711,-22.45635 -0.27699,-2.04001 -0.40198,-11.859155 -0.18682,-14.676485 0.11314,-1.48121 1.45611,-8.32067 2.23827,-11.39885 0.89786,-3.53366 4.68418,-14.69071 5.64941,-16.64698 0.28718,-0.58209 1.05796,-2.24896 1.71283,-3.70417 1.4256,-3.16796 3.6286,-7.67997 4.19846,-8.59896 1.64301,-2.6497 4.21331,-7.49609 4.11266,-7.75461 -0.0675,-0.17335 -1.83369,-0.78042 -3.92493,-1.34905 -4.06723,-1.10592 -12.63965,-3.64402 -14.38559,-4.25924 -1.35781,-0.47846 -11.07659,-3.02897 -11.99959,-3.14907 -0.38523,-0.0501 -4.21275,-1.00192 -8.50561,-2.11512 -10.75248,-2.78826 -18.08076,-4.20223 -21.69584,-4.18615 -6.42943,0.0286 -10.83175,2.32622 -13.12899,6.85213 l -1.02622,2.02182 v 3.99308 c 0,3.69936 0.0476,4.0904 0.64741,5.316 0.83174,1.69957 3.54995,4.42137 6.18146,6.18963 3.21052,2.15733 13.69741,7.54273 17.83518,9.15901 5.99587,2.3421 14.14575,7.29849 16.976,10.32404 1.79446,1.91826 3.94772,5.95061 4.72877,8.85545 0.61835,2.29968 0.59851,7.95007 -0.0395,11.24479 -0.81841,4.22641 -3.13311,9.98764 -5.40684,13.457485 -3.3714,5.14495 -11.82148,11.71018 -19.88809,15.45187 -1.38245,0.64124 -3.12777,1.45177 -3.87849,1.80117 -2.22402,1.03511 -9.01847,3.17999 -12.82202,4.04768 -3.40768,0.77738 -11.45641,1.84837 -18.0922,2.40739 -6.61758,0.55749 -15.7045,0.26499 -25.13542,-0.8091 -2.61937,-0.29832 -5.41734,-0.60165 -6.21771,-0.67406 -2.82872,-0.25594 -9.9506,-2.01005 -13.44372,-3.31118 -11.67444,-4.34855 -21.99445,-10.70655 -28.7806,-17.73128 -3.64056,-3.768555 -8.92388,-11.950905 -11.41766,-17.682685 -2.40165,-5.52001 -4.60508,-12.28492 -5.38618,-16.53646 -0.16041,-0.87312 -0.34614,-1.88515 -0.41274,-2.24896 -0.0666,-0.3638 -0.21637,-1.08923 -0.33283,-1.61207 l -0.21176,-0.95062 3.46827,-0.56937 c 3.8378,-0.63004 10.09985,-2.14055 11.53805,-2.78317 0.50933,-0.22758 2.59292,-1.06041 4.63021,-1.85075 5.91334,-2.294 6.60145,-2.75335 12.59022,-8.40455 1.02867,-0.97069 2.55603,-3.05999 3.5872,-4.907 2.20148,-3.94322 2.21917,-11.28987 0.0376,-15.61284 -1.6096,-3.18956 -3.75942,-5.12198 -6.8223,-6.13242 -4.14465,-1.36731 -9.86723,-1.42247 -17.99167,-0.17343 -1.38244,0.21254 -2.98979,0.45404 -3.57187,0.53666 -0.58208,0.0826 -1.36497,0.19608 -1.73974,0.25211 -0.37478,0.056 -1.68948,0.34556 -2.92157,0.64341 -1.23208,0.29784 -3.78295,0.89705 -5.66859,1.33156 -1.88564,0.43452 -6.46453,1.49798 -10.17531,2.36326 -6.59873,1.53869 -9.13246,2.0849 -10.69832,2.30631 -0.42704,0.0604 -2.21298,0.41318 -3.96875,0.784 -3.476064,0.73415 -8.919598,1.70954 -21.977728,3.93805 -7.633076,1.30266 -9.914972,1.64205 -12.435417,1.84953 -3.614367,0.29752 -9.258467,1.11364 -9.521624,1.37679 -0.178586,0.17859 -1.186416,2.50609 -2.239622,5.17223 -1.053208,2.66614 -2.187024,5.44492 -2.519592,6.17507 -1.248347,2.74072 -2.874217,7.55236 -2.632097,7.78948 0.134303,0.13152 1.182206,0.48361 2.328678,0.78242 7.530724,1.96275 18.677914,2.00677 26.301605,0.10386 0.91475,-0.22833 1.734717,-0.3436 1.822152,-0.25617 0.292483,0.29248 -2.086592,3.61622 -3.897747,5.44542 -1.977067,1.99678 -5.623364,4.55539 -8.338773,5.85133 -0.967859,0.46192 -1.895096,0.86857 -2.060527,0.90368 -0.165433,0.0351 -0.657974,0.20996 -1.094536,0.38855 -3.664935,1.49934 -9.960018,2.63382 -15.809522,2.84914 l -4.43244,0.16316 -0.278985,1.08412 c -0.153442,0.59627 -0.499859,1.91757 -0.76981,2.93621 -0.530358,2.00125 -2.074911,9.53715 -2.087812,10.18646 -0.01042,0.52497 -0.160321,1.8225 -0.681352,5.89807 -1.128075,8.823965 -0.954402,21.012665 0.375894,26.381095 0.126208,0.50932 0.30099,1.49072 0.388397,2.18089 0.207571,1.63894 1.58763,5.84367 2.387992,7.27567 l 0.629761,1.12677 h -0.863319 c -0.474827,0 -0.912929,-0.0463 -0.973561,-0.10298 z m 65.305005,-1.79285 c -0.18026,-0.11196 -0.64788,-0.14751 -1.03916,-0.079 -0.39128,0.0685 -0.77835,0.0163 -0.86016,-0.11609 -0.0818,-0.13236 -0.38497,-0.17889 -0.67369,-0.10339 -0.28872,0.0755 -0.73509,0.0454 -0.99193,-0.0668 -0.25683,-0.11227 -0.56664,-0.18176 -0.68846,-0.15443 -0.51554,0.11566 -5.41471,-1.36144 -7.376634,-2.22405 -4.286442,-1.88464 -7.543707,-4.43699 -9.584824,-7.51055 -1.242359,-1.87077 -2.501686,-4.50499 -2.66613,-5.57691 -0.05581,-0.36381 -0.173876,-0.95912 -0.262363,-1.32292 -0.532678,-2.18996 -0.673603,-7.34187 -0.31845,-11.64167 0.379899,-4.599415 0.483261,-5.405175 0.731776,-5.704615 0.135655,-0.16345 0.182478,-0.36136 0.104051,-0.43979 -0.461907,-0.4619 4.506661,-16.25398 5.999223,-19.06791 0.138218,-0.26058 0.180713,-0.588 0.09444,-0.72761 -0.08628,-0.1396 -0.05062,-0.25382 0.07923,-0.25382 0.129855,0 0.242562,-0.14882 0.25046,-0.33073 0.01963,-0.45207 2.460056,-6.25651 3.587547,-8.53281 0.50455,-1.01864 1.59533,-3.3212 2.42396,-5.1168 1.655064,-3.58646 3.320444,-6.74291 3.626104,-6.87268 0.10783,-0.0458 0.33104,-0.49226 0.49603,-0.99219 0.16499,-0.49992 0.39537,-0.90895 0.51195,-0.90895 0.375,0 0.9048,-1.59387 0.62335,-1.87531 -0.14211,-0.14211 -1.4313,-0.31475 -2.86488,-0.38364 -3.928854,-0.18881 -5.354464,-0.3633 -7.598727,-0.93002 -3.450958,-0.87144 -7.255868,-2.46683 -8.580573,-3.59783 -0.315166,-0.26909 -0.850948,-0.72615 -1.190625,-1.0157 l -0.617593,-0.52646 4.365625,-0.30028 c 6.587911,-0.45312 12.976943,-1.52171 17.197923,-2.87642 0.65484,-0.21016 1.48828,-0.43518 1.85208,-0.50002 0.82123,-0.14639 1.33485,-0.33401 3.175,-1.15978 4.17378,-1.87302 12.66214,-5.21275 13.91801,-5.47602 0.27598,-0.0579 1.69241,-0.47646 3.14762,-0.93024 5.34267,-1.66603 12.10886,-3.20032 12.47936,-2.82981 0.0779,0.0779 -0.44747,1.19132 -1.16757,2.47421 -2.43633,4.34046 -8.87486,17.94913 -9.19158,19.42761 -0.0502,0.23449 -0.6499,1.84183 -1.3326,3.57188 -1.37758,3.49095 -4.61802,12.90151 -4.72741,13.72887 -0.0385,0.29104 -0.13442,0.70776 -0.21319,0.92604 -0.0788,0.21828 -0.63291,2.42094 -1.23142,4.89479 -3.2707,13.51888 -4.37355,22.67599 -3.7798,31.384165 0.39654,5.8157 1.20086,11.60144 2.05546,14.78562 0.61624,2.29607 2.20193,6.75182 2.66821,7.4976 0.10578,0.16919 0.21393,0.42667 0.24034,0.57219 0.0264,0.14552 0.129,0.46566 0.22797,0.71141 0.16616,0.41257 -0.30871,0.44405 -6.19513,0.41064 -3.5063,-0.0199 -6.52257,-0.12779 -6.70282,-0.23975 z m 131.84249,-23.15783 c -0.006,-0.17331 0.10662,-0.38771 0.25019,-0.47645 0.14358,-0.0887 0.51464,-0.99622 0.82459,-2.01665 0.45064,-1.48363 0.54221,-2.3427 0.45712,-4.288225 -0.0964,-2.20366 -0.18403,-2.54492 -0.93016,-3.62137 -1.10428,-1.59314 -2.31019,-2.75028 -3.78759,-3.6344 -1.59872,-0.95671 -11.58528,-4.83573 -15.47813,-6.01207 -4.03677,-1.21982 -10.94002,-4.05804 -12.80575,-5.26497 -8.27232,-5.35134 -12.2978,-13.16883 -12.89914,-25.05017 -0.21391,-4.22658 0.20068,-7.63679 1.41389,-11.62994 0.50844,-1.67349 0.96618,-3.25152 1.0172,-3.50673 0.051,-0.25521 0.18546,-0.61239 0.29876,-0.79375 0.11329,-0.18135 0.23117,-0.4963 0.26195,-0.69987 0.13795,-0.91247 2.89108,-5.91209 4.26447,-7.74418 0.83341,-1.11176 1.69388,-2.30069 1.91216,-2.64207 0.44026,-0.68855 3.70417,-4.01463 3.70417,-3.77473 0,0.0833 -0.51753,0.82709 -1.15006,1.65278 -0.63253,0.82569 -1.2866,1.75986 -1.45348,2.07594 -0.16688,0.31607 -0.49672,0.76799 -0.73299,1.00426 -0.71029,0.71029 -3.1887,5.80672 -3.8936,8.00655 -2.09305,6.53189 -2.428,8.68335 -2.21116,14.20284 0.46704,11.88808 5.50745,20.73163 14.8687,26.0876 1.51637,0.86758 4.85101,2.11632 11.37363,4.25916 2.18281,0.7171 4.20688,1.41331 4.49792,1.54712 0.29104,0.13381 1.87718,0.80147 3.52474,1.48368 3.60987,1.49475 5.60765,2.786 7.54058,4.87379 3.45721,3.73421 4.15691,7.87398 2.07593,12.282225 -0.74637,1.58106 -2.92254,4.30107 -2.94394,3.67963 z M 47.08645,81.406875 c 0.0028,-0.12923 0.159379,-0.83014 0.347937,-1.55757 0.41016,-1.58233 0.392714,-1.57529 4.873353,-1.96584 3.716933,-0.32397 7.15299,-1.03105 10.384023,-2.13683 1.825173,-0.62464 2.124316,-0.67455 1.5875,-0.26486 -2.62047,1.99992 -8.282252,4.58428 -11.782478,5.3782 -2.392704,0.54271 -5.416884,0.84841 -5.410335,0.5469 z m 108.21684,-28.57914 c 0.004,-0.12695 0.37233,-0.58802 0.81841,-1.02458 0.89951,-0.88031 3.00834,-5.03755 3.28825,-6.48229 0.23228,-1.19891 0.37466,-7.99243 0.17442,-8.32241 -0.0843,-0.13894 -0.18891,-0.5779 -0.23243,-0.97547 -0.19434,-1.77522 -2.8371,-6.0685 -4.00811,-6.51136 -0.24462,-0.0925 -0.98055,-0.5435 -1.63539,-1.0022 -0.65485,-0.45869 -1.66688,-1.02482 -2.24896,-1.25806 -1.335,-0.53492 -0.58208,-0.56553 1.75029,-0.0711 2.47144,0.52386 5.16098,1.95309 6.62926,3.5228 1.18082,1.26239 2.25585,3.01792 2.48951,4.06541 0.0611,0.27405 0.18519,0.76615 0.27569,1.09358 0.21322,0.7714 0.21552,6.14095 0.003,7.34218 -0.35496,2.00781 -2.38197,5.37945 -4.35442,7.24297 -2.20119,2.07962 -2.95958,2.69169 -2.94967,2.38057 z m 181.18033,-0.36035 -1.24254,-0.13506 0.76279,-1.71979 0.76277,-1.7198 8.28498,-0.15994 c 7.53086,-0.14539 8.58597,-0.22257 11.59224,-0.84794 1.81901,-0.37839 3.82828,-0.87196 4.46503,-1.09682 1.75178,-0.61861 1.67137,-0.50607 -0.57285,0.80163 -3.14534,1.83275 -8.97832,3.67517 -13.68176,4.32153 -4.03789,0.5549 -8.28641,0.78275 -10.37066,0.55619 z"
       id="path42" />
    <path
       style="fill:#000000;fill-opacity:1;stroke-width:0.714286"
       d="m 168.76033,495.77736 c -0.20889,-0.2089 -4.48451,-0.86014 -9.50137,-1.4472 -10.80192,-1.26402 -13.15469,-1.75875 -22.30797,-4.6908 -25.02986,-8.01778 -45.582539,-22.40796 -60.241883,-42.17902 -5.706467,-7.69631 -7.468918,-10.80305 -11.064663,-19.50408 -8.924327,-21.59523 -11.563008,-38.9261 -10.822891,-71.0848 0.415169,-18.03949 1.029855,-22.89695 5.16445,-40.8113 1.393079,-6.03593 3.306568,-14.52527 4.252197,-18.8652 3.10514,-14.25092 11.983177,-39.48788 23.551035,-66.94686 9.023124,-21.41845 13.327965,-30.73625 28.077395,-60.77333 9.81404,-19.98622 12.41737,-25.86898 11.85362,-26.78572 -0.39732,-0.6461 -4.71361,-2.54187 -9.59173,-4.21282 C 99.292987,132.02435 85.774217,125.76534 73.902051,117.99997 65.269414,112.35351 59.609882,107.09911 54.466737,99.955912 42.36513,83.148255 36.510909,68.875851 32.839167,47.228598 31.358103,38.496783 30.823391,32.70594 29.294034,8.8353785 l -0.308926,-4.8217905 8.258746,7.541246 c 13.646368,12.460802 26.792297,21.806862 39.158197,27.839406 11.957502,5.833311 29.962699,13.150755 44.170529,17.951223 32.39478,10.945384 73.87736,17.70197 124.75804,20.320299 42.62497,2.193493 132.79211,-1.901671 191.07143,-8.677969 16.17796,-1.881055 22.77567,-3.097298 61.78572,-11.389755 50.04468,-10.638119 57.59722,-12.033275 88.92857,-16.427508 25.95728,-3.640518 29.78175,-3.929185 52.14285,-3.935695 23.31643,-0.0068 28.19753,0.458873 41.78572,3.986394 10.74136,2.78848 12.58837,3.540907 21.07451,8.585262 11.22867,6.674584 18.84354,13.858303 25.66369,24.210632 15.07316,22.879618 22.3253,58.799207 16.45723,81.512137 -2.81304,10.88801 -11.65281,29.73046 -19.84127,42.29265 -11.64427,17.8639 -32.92998,33.23862 -59.78273,43.18122 -9.56076,3.54 -32.51654,10.88074 -47.35585,15.14333 -12.42611,3.5694 -12.29185,3.45095 -11.14065,9.82892 3.91812,21.70755 12.8173,45.4506 23.69425,63.21635 14.59425,23.83735 42.6458,54.23645 65.51653,70.9994 13.54086,9.92468 30.48729,19.15745 42.93469,23.39171 27.35331,9.30485 53.65674,13.17654 83.85103,12.34231 20.70628,-0.57208 32.79385,-2.19714 52.01028,-6.99225 49.36322,-12.31771 73.26593,-33.73345 75.26229,-67.43157 0.9515,-16.06115 -5.38622,-31.33365 -17.14722,-41.32104 -12.49607,-10.61163 -25.46964,-16.35936 -66.1775,-29.31883 -11.7415,-3.73794 -27.58871,-10.64063 -34.74835,-15.1356 -13.42072,-8.42577 -24.17315,-18.39646 -31.11686,-28.85441 -7.63643,-11.50132 -16.47114,-32.10518 -19.15257,-44.66663 -1.88129,-8.81289 -2.83007,-37.4558 -1.51829,-45.83692 2.3005,-14.69834 13.80979,-40.60078 24.19136,-54.44434 5.34143,-7.122605 28.82943,-30.626451 33.80407,-33.826825 6.18743,-3.980616 18.03572,-10.077529 27.44993,-14.125267 14.9295,-6.419073 25.82957,-9.666929 40.71429,-12.131488 12.59635,-2.085662 15.188,-2.274035 36.07142,-2.62184 23.93058,-0.398555 43.43815,0.339065 71.42861,2.700849 21.2184,1.790374 26.7865,2.508329 66.0714,8.519315 94.2706,14.424351 129.5199,17.859966 183.2143,17.857237 30.4283,-0.0016 39.8778,-0.590718 63.4426,-3.955602 29.7796,-4.252331 49.5153,-8.592958 76.3075,-16.782918 17.6147,-5.384586 18.9761,-5.887961 31.5022,-11.648058 8.6906,-3.996331 33.4498,-16.966969 41.8625,-21.930651 l 2.5995,-1.53368 v 1.677697 c 0,3.002165 -3.4322,23.653088 -5.3224,32.055294 -4.1808,18.584311 -12.5371,42.218939 -19.3378,54.694987 -9.7631,17.91075 -27.1812,35.2382 -45.338,45.10222 -16.941,9.2035 -43.5906,17.61882 -61.479,19.41362 -3.7044,0.37166 -22.9048,0.90345 -42.6674,1.18175 l -35.9322,0.506 -1.9731,4.36191 c -9.3544,20.67565 -30.6148,76.52396 -36.0596,94.71906 -0.9992,3.33928 -3.3145,11.05122 -5.145,17.13764 -7.0169,23.33039 -14.2885,55.68124 -17.421,77.50522 -3.3123,23.07605 -3.6715,61.05293 -0.7465,78.92857 1.6741,10.23123 4.1968,20.27664 6.9059,27.5 2.7309,7.28134 8.9946,19.56463 11.9535,23.44088 1.4094,1.84645 2.5626,3.56368 2.5626,3.81605 0,0.85157 -14.0007,-0.38618 -21.4927,-1.90008 -16.5475,-3.34378 -36.5592,-11.55857 -50.6502,-20.79194 -14.457,-9.47318 -28.7021,-26.39561 -37.5142,-44.56491 -8.9623,-18.47888 -12.2924,-32.96423 -13.3009,-57.85714 -1.2726,-31.41138 0.2145,-46.5413 7.5901,-77.21986 2.5671,-10.67773 12.5602,-41.77405 18.2239,-56.70872 6.2825,-16.56627 21.3179,-48.02368 31.0428,-64.94822 5.6712,-9.86976 9.8829,-17.95866 10.6658,-20.48455 0.6076,-1.95997 0.056,-2.16191 -28.1361,-10.29679 -12.375,-3.57087 -27.6428,-8.10119 -33.9285,-10.06739 -11.971,-3.74458 -31.4238,-9.06697 -45.3572,-12.40993 -4.5178,-1.08395 -21.5535,-5.29997 -37.8571,-9.36893 -30.72773,-7.66886 -46.30452,-11.179965 -61.93088,-13.959601 -12.92864,-2.29975 -32.20435,-2.304271 -40.56914,-0.0095 -15.8045,4.335764 -25.30579,12.179961 -32.77264,27.056901 -1.83872,3.66346 -1.87022,3.97751 -1.87022,18.63648 0,16.61356 0.45186,19.20273 4.33972,24.86674 3.18628,4.64188 11.27543,12.62944 17.446,17.22686 10.4735,7.80333 48.31285,27.77444 69.28571,36.5681 26.33465,11.04175 53.01695,26.97158 64.66125,38.60402 6.7371,6.73014 13.8562,18.89995 17.9756,30.72869 l 2.3632,6.78571 v 16.78571 c 0,19.428 -0.502,22.66999 -6.1383,39.64286 -3.7057,11.15954 -10.7214,26.34712 -15.4162,33.37324 -9.0226,13.503 -25.4399,28.41655 -46.65983,42.38606 -20.94893,13.79108 -43.69779,24.34533 -68.92858,31.97915 -24.35821,7.36981 -38.08171,9.83138 -81.07142,14.54165 -14.48936,1.58757 -61.31965,1.80684 -77.85715,0.36456 -18.06614,-1.5756 -50.83224,-5.15262 -57.5,-6.27717 -17.96965,-3.03067 -39.81919,-9.52365 -58.21428,-17.2994 -45.83743,-19.37585 -84.61015,-46.89328 -105.36577,-74.77927 -21.50501,-28.89282 -35.70668,-57.60273 -46.81764,-94.64598 -2.75318,-9.17892 -8.92412,-37.702 -8.29327,-38.33284 0.16422,-0.16423 4.94262,-1.08561 10.61866,-2.04751 24.55422,-4.16112 37.33576,-7.67845 58.77943,-16.17543 18.72257,-7.41875 24.69542,-10.31208 30.91477,-14.97555 9.27729,-6.95642 22.54825,-19.73455 27.62447,-26.59863 8.21234,-11.10474 11.2701,-18.88667 12.65983,-32.21894 2.6673,-25.58854 -7.15723,-48.75178 -24.55548,-57.894297 -13.02816,-6.846107 -36.1131,-8.761257 -63.96477,-5.306592 -12.08525,1.499028 -34.85903,5.047921 -38.74309,6.037428 -2.16071,0.550464 -22.08929,5.219157 -44.28571,10.374871 -53.1558,12.34686 -87.41675,19.10803 -153.57143,30.30629 -33.40113,5.65393 -38.71157,6.44708 -52.85715,7.89456 -10.93974,1.11944 -29.53339,3.62962 -32.70974,4.41589 -1.02765,0.25439 -2.26323,1.63876 -3.31485,3.71405 -1.68225,3.31975 -15.32994,36.36072 -20.54335,49.73527 -2.55303,6.5496 -6.2892,18.24766 -6.2892,19.69169 0,1.10183 11.64314,4.30949 22.06121,6.0778 27.09734,4.59939 59.82509,3.87036 85.61895,-1.90719 3.6348,-0.81416 6.93594,-1.37122 7.33588,-1.2379 0.39993,0.13331 -0.96685,2.79826 -3.0373,5.92211 -9.33911,14.09065 -27.03832,28.74824 -44.47874,36.83503 -18.90153,8.76429 -41.43902,13.40811 -72.43077,14.92426 -9.51143,0.46531 -14.02868,0.95201 -14.39912,1.55141 -0.98912,1.60042 -6.99994,27.25091 -9.52407,40.6428 -2.64791,14.04869 -5.72361,39.33765 -6.86297,56.42857 -0.91507,13.72643 -0.89591,40.92203 0.0373,52.89293 1.84281,23.63994 7.51403,48.87185 13.57388,60.39182 1.15818,2.20174 2.10579,4.13125 2.10579,4.28778 0,0.42898 -4.70464,0.34187 -5.14172,-0.0952 z"
       id="path871"
       transform="scale(0.26458333)" />
  </g>
</svg>
