<?xml version="1.0" encoding="UTF-8" standalone="no"?>
<!-- Created with Inkscape (http://www.inkscape.org/) -->

<svg
   version="1.1"
   id="svg824"
   width="656.11707"
   height="656.11707"
   viewBox="0 0 196.83512 196.83512"
   sodipodi:docname="discovery.svg"
   inkscape:version="1.1 (c68e22c387, 2021-05-23)"
   xmlns:inkscape="http://www.inkscape.org/namespaces/inkscape"
   xmlns:sodipodi="http://sodipodi.sourceforge.net/DTD/sodipodi-0.dtd"
   xmlns="http://www.w3.org/2000/svg"
   xmlns:svg="http://www.w3.org/2000/svg">
  <defs
     id="defs828">
    <filter
       style="color-interpolation-filters:sRGB"
       inkscape:label="Blur"
       id="filter33267"
       x="-0.13233962"
       y="-0.12988889"
       width="1.2646792"
       height="1.2597778">
      <feGaussianBlur
         stdDeviation="0.25 0.25"
         result="blur"
         id="feGaussianBlur33265" />
    </filter>
    <filter
       style="color-interpolation-filters:sRGB"
       inkscape:label="Blur"
       id="filter33271"
       x="-0.13233962"
       y="-0.12988889"
       width="1.2646792"
       height="1.2597778">
      <feGaussianBlur
         stdDeviation="0.25 0.25"
         result="blur"
         id="feGaussianBlur33269" />
    </filter>
    <filter
       style="color-interpolation-filters:sRGB"
       inkscape:label="Blur"
       id="filter33275"
       x="-0.13233962"
       y="-0.12988889"
       width="1.2646792"
       height="1.2597778">
      <feGaussianBlur
         stdDeviation="0.25 0.25"
         result="blur"
         id="feGaussianBlur33273" />
    </filter>
    <filter
       style="color-interpolation-filters:sRGB"
       inkscape:label="Blur"
       id="filter33279"
       x="-0.13233962"
       y="-0.12988889"
       width="1.2646792"
       height="1.2597778">
      <feGaussianBlur
         stdDeviation="0.25 0.25"
         result="blur"
         id="feGaussianBlur33277" />
    </filter>
    <filter
       style="color-interpolation-filters:sRGB"
       inkscape:label="Blur"
       id="filter33283"
       x="-0.13233962"
       y="-0.12988889"
       width="1.2646792"
       height="1.2597778">
      <feGaussianBlur
         stdDeviation="0.25 0.25"
         result="blur"
         id="feGaussianBlur33281" />
    </filter>
    <filter
       style="color-interpolation-filters:sRGB"
       inkscape:label="Blur"
       id="filter33287"
       x="-0.13233962"
       y="-0.12988889"
       width="1.2646792"
       height="1.2597778">
      <feGaussianBlur
         stdDeviation="0.25 0.25"
         result="blur"
         id="feGaussianBlur33285" />
    </filter>
  </defs>
  <sodipodi:namedview
     id="namedview826"
     pagecolor="#ffffff"
     bordercolor="#666666"
     borderopacity="1.0"
     inkscape:pageshadow="2"
     inkscape:pageopacity="0.0"
     inkscape:pagecheckerboard="0"
     showgrid="false"
     scale-x="0.3"
     fit-margin-top="0"
     fit-margin-left="0"
     fit-margin-right="0"
     fit-margin-bottom="0"
     inkscape:zoom="1"
     inkscape:cx="197.5"
     inkscape:cy="324.5"
     inkscape:window-width="2560"
     inkscape:window-height="1377"
     inkscape:window-x="-8"
     inkscape:window-y="-8"
     inkscape:window-maximized="1"
     inkscape:current-layer="g830" />
  <g
     inkscape:groupmode="layer"
     inkscape:label="Image"
     id="g830"
     transform="translate(41.960934,59.059735)">
    <g
       id="g33417"
       transform="translate(-43.8,-60.3)">
      <circle
         style="fill:#063348;fill-opacity:1;stroke:none;stroke-width:1.21916;stroke-linecap:round;stroke-linejoin:round;stroke-opacity:1"
         id="path4685"
         cx="100.25663"
         cy="99.657829"
         r="98.417564" />
      <ellipse
         style="fill:#99c4e6;fill-opacity:1;stroke:none;stroke-width:0.1;stroke-linecap:round;stroke-linejoin:round;stroke-miterlimit:4;stroke-dasharray:none;stroke-opacity:1;filter:url(#filter33275)"
         id="path26823"
         cx="34.858852"
         cy="66.894783"
         rx="2.2668948"
         ry="2.3096664" />
      <ellipse
         style="fill:#99c4e6;fill-opacity:1;stroke:none;stroke-width:0.1;stroke-linecap:round;stroke-linejoin:round;stroke-miterlimit:4;stroke-dasharray:none;stroke-opacity:1;filter:url(#filter33271)"
         id="path26823-9"
         cx="49.786144"
         cy="39.007698"
         rx="2.2668948"
         ry="2.3096664" />
      <ellipse
         style="fill:#99c4e6;fill-opacity:1;stroke:none;stroke-width:0.1;stroke-linecap:round;stroke-linejoin:round;stroke-miterlimit:4;stroke-dasharray:none;stroke-opacity:1;filter:url(#filter33267)"
         id="path26823-7"
         cx="131.05219"
         cy="39.692043"
         rx="2.2668948"
         ry="2.3096664" />
      <ellipse
         style="fill:#99c4e6;fill-opacity:1;stroke:none;stroke-width:0.1;stroke-linecap:round;stroke-linejoin:round;stroke-miterlimit:4;stroke-dasharray:none;stroke-opacity:1;filter:url(#filter33279)"
         id="path26823-6"
         cx="161.16339"
         cy="53.378956"
         rx="2.2668948"
         ry="2.3096664" />
      <ellipse
         style="fill:#99c4e6;fill-opacity:1;stroke:none;stroke-width:0.1;stroke-linecap:round;stroke-linejoin:round;stroke-miterlimit:4;stroke-dasharray:none;stroke-opacity:1;filter:url(#filter33283)"
         id="path26823-0"
         cx="167.32251"
         cy="130.02567"
         rx="2.2668948"
         ry="2.3096664" />
      <ellipse
         style="fill:#99c4e6;fill-opacity:1;stroke:none;stroke-width:0.1;stroke-linecap:round;stroke-linejoin:round;stroke-miterlimit:4;stroke-dasharray:none;stroke-opacity:1;filter:url(#filter33287)"
         id="path26823-2"
         cx="41.060734"
         cy="160.82121"
         rx="2.2668948"
         ry="2.3096664" />
    </g>
    <g
       id="g33408"
       transform="translate(-43.8,-60.3)">
      <ellipse
         style="fill:#2cb4fe;fill-opacity:1;stroke:none;stroke-width:1.20577;stroke-linecap:round;stroke-linejoin:round"
         id="path936"
         cx="99.996712"
         cy="99.401199"
         rx="55.136124"
         ry="55.567123" />
      <path
         style="fill:#0bad86;fill-opacity:1;stroke:none;stroke-width:0.1;stroke-linecap:butt;stroke-linejoin:miter;stroke-miterlimit:4;stroke-dasharray:none;stroke-opacity:1"
         d="m 91.821048,47.664682 c 7.10001,-7.035191 -31.335578,8.564841 -34.47826,22.017697 -1.232838,5.277397 2.3298,7.430921 1.45172,8.468341 13.24898,9.22189 11.09422,10.43385 13.06544,13.791313 13.72764,1.08172 13.2834,8.516067 30.183602,12.339587 -2.082442,5.23594 -4.176572,11.10471 -1.5525,13.66145 3.12243,2.55589 5.52225,7.27298 8.38767,8.96113 -3.01209,4.38422 -0.21951,9.77336 -1.99033,13.58277 -2.65559,5.71275 0.45336,7.84555 0.29666,12.06422 1.885,-0.63534 3.51596,-1.52472 5.081,-2.48001 0.0202,-2.82691 -0.49311,-6.61827 5.80687,-6.83517 5.97713,-1.94614 6.69965,-8.00458 9.31518,-12.58154 2.65565,0.84423 3.92565,0.25291 6.10931,-3.38734 l -0.0605,-4.47612 c 12.42693,-11.98662 -5.96498,-8.06674 -8.95225,-12.09764 -0.37929,-3.8833 0.23468,-5.65858 -5.06507,-5.90583 -6.67511,-3.41562 -8.061,-6.454697 -16.95263,-2.32056 -4.593612,-2.540064 -13.312862,-7.336427 -8.952252,-10.766907 -14.17476,1.48097 -2.034,-18.394843 3.8333,-6.129533 1.03791,2.16971 2.61396,2.00267 1.99936,0.39727 -1.80759,-4.72159 -0.49293,-5.00956 3.795342,-8.15926 0.0574,-1.5821 -1.16359,-2.36395 3.80038,-7.15836 -5.35384,-4.098615 -9.046742,-8.550761 -10.403972,-11.97666 -4.9105,-2.465453 -16.27512,0.442685 -4.71808,-11.008848 z"
         id="path7855"
         sodipodi:nodetypes="sscccccsccccccccccsscccss" />
      <path
         id="path936-6-7"
         style="fill:#288fc9;fill-opacity:1;stroke:none;stroke-width:1.20577;stroke-linecap:round;stroke-linejoin:round"
         d="m 100.47909,43.84629 c 77.92809,30.34993 38.51187,103.08435 1.01172,111.01562 A 55.136124,55.567123 0 0 0 155.13925,99.40293 55.136124,55.567123 0 0 0 100.47909,43.84629 Z" />
    </g>
  </g>
</svg>
