<?xml version="1.0" encoding="UTF-8" standalone="no"?>
<!-- Created with Inkscape (http://www.inkscape.org/) -->

<svg
   width="181.85365mm"
   height="181.85365mm"
   viewBox="0 0 181.85365 181.85365"
   version="1.1"
   id="svg5"
   inkscape:version="1.1 (c68e22c387, 2021-05-23)"
   sodipodi:docname="exploration.svg"
   xmlns:inkscape="http://www.inkscape.org/namespaces/inkscape"
   xmlns:sodipodi="http://sodipodi.sourceforge.net/DTD/sodipodi-0.dtd"
   xmlns="http://www.w3.org/2000/svg"
   xmlns:svg="http://www.w3.org/2000/svg">
  <sodipodi:namedview
     id="namedview7"
     pagecolor="#ffffff"
     bordercolor="#666666"
     borderopacity="1.0"
     inkscape:pageshadow="2"
     inkscape:pageopacity="0.0"
     inkscape:pagecheckerboard="0"
     inkscape:document-units="mm"
     showgrid="false"
     fit-margin-top="0"
     fit-margin-left="0"
     fit-margin-right="0"
     fit-margin-bottom="0"
     inkscape:zoom="1"
     inkscape:cx="368.5"
     inkscape:cy="342.5"
     inkscape:window-width="2560"
     inkscape:window-height="1377"
     inkscape:window-x="2552"
     inkscape:window-y="-8"
     inkscape:window-maximized="1"
     inkscape:current-layer="layer1" />
  <defs
     id="defs2" />
  <g
     inkscape:label="Layer 1"
     inkscape:groupmode="layer"
     id="layer1"
     transform="translate(-19.97229,-47.155815)">
    <g
       id="g46085">
      <circle
         style="fill:#063348;fill-opacity:1;stroke:none;stroke-width:0.275879;stroke-linecap:round;stroke-linejoin:round;stroke-opacity:1"
         id="path56059"
         cx="110.89912"
         cy="138.08264"
         r="90.926826" />
      <circle
         style="fill:#99c4e6;fill-opacity:1;stroke:none;stroke-width:0.264583;stroke-linecap:round;stroke-linejoin:round;stroke-opacity:1"
         id="path129019"
         cx="42.421299"
         cy="106.05922"
         r="0.91714299" />
      <circle
         style="fill:#99c4e6;fill-opacity:1;stroke:none;stroke-width:0.362728;stroke-linecap:round;stroke-linejoin:round;stroke-opacity:1"
         id="path129019-6"
         cx="48.7103"
         cy="128.70363"
         r="1.2573491" />
      <circle
         style="fill:#99c4e6;fill-opacity:1;stroke:none;stroke-width:0.264583;stroke-linecap:round;stroke-linejoin:round;stroke-opacity:1"
         id="path129019-3"
         cx="62.052753"
         cy="93.832497"
         r="0.91714299" />
      <circle
         style="fill:#99c4e6;fill-opacity:1;stroke:none;stroke-width:0.230846;stroke-linecap:round;stroke-linejoin:round;stroke-opacity:1"
         id="path129019-5"
         cx="87.291809"
         cy="87.400475"
         r="0.80019712" />
      <circle
         style="fill:#99c4e6;fill-opacity:1;stroke:none;stroke-width:0.344326;stroke-linecap:round;stroke-linejoin:round;stroke-opacity:1"
         id="path129019-4"
         cx="82.159134"
         cy="68.63678"
         r="1.1935605" />
      <circle
         style="fill:#99c4e6;fill-opacity:1;stroke:none;stroke-width:0.209812;stroke-linecap:round;stroke-linejoin:round;stroke-opacity:1"
         id="path129019-8"
         cx="113.06428"
         cy="67.991859"
         r="0.72728807" />
      <circle
         style="fill:#99c4e6;fill-opacity:1;stroke:none;stroke-width:0.234221;stroke-linecap:round;stroke-linejoin:round;stroke-opacity:1"
         id="path129019-2"
         cx="141.77342"
         cy="76.755753"
         r="0.81189704" />
      <circle
         style="fill:#99c4e6;fill-opacity:1;stroke:none;stroke-width:0.197108;stroke-linecap:round;stroke-linejoin:round;stroke-opacity:1"
         id="path129019-44"
         cx="166.29407"
         cy="97.064453"
         r="0.68325126" />
      <circle
         style="fill:#99c4e6;fill-opacity:1;stroke:none;stroke-width:0.264583;stroke-linecap:round;stroke-linejoin:round;stroke-opacity:1"
         id="path129019-58"
         cx="152.06918"
         cy="105.18687"
         r="0.91714299" />
      <circle
         style="fill:#99c4e6;fill-opacity:1;stroke:none;stroke-width:0.264583;stroke-linecap:round;stroke-linejoin:round;stroke-opacity:1"
         id="path129019-9"
         cx="178.83502"
         cy="110.22396"
         r="0.91714299" />
      <circle
         style="fill:#99c4e6;fill-opacity:1;stroke:none;stroke-width:0.264583;stroke-linecap:round;stroke-linejoin:round;stroke-opacity:1"
         id="path129019-20"
         cx="180.20322"
         cy="134.9868"
         r="0.91714299" />
      <circle
         style="fill:#99c4e6;fill-opacity:1;stroke:none;stroke-width:0.264583;stroke-linecap:round;stroke-linejoin:round;stroke-opacity:1"
         id="path129019-53"
         cx="163.16841"
         cy="153.60246"
         r="0.91714299" />
      <circle
         style="fill:#99c4e6;fill-opacity:1;stroke:none;stroke-width:0.264583;stroke-linecap:round;stroke-linejoin:round;stroke-opacity:1"
         id="path129019-1"
         cx="56.577579"
         cy="147.45749"
         r="0.91714299" />
      <circle
         style="fill:#99c4e6;fill-opacity:1;stroke:none;stroke-width:0.203243;stroke-linecap:round;stroke-linejoin:round;stroke-opacity:1"
         id="path129019-42"
         cx="46.201283"
         cy="159.66238"
         r="0.70451415" />
    </g>
    <g
       id="g46068">
      <path
         id="path56059-8"
         style="fill:#bfd7e3;fill-opacity:1;stroke:none;stroke-width:0.275878;stroke-linecap:round;stroke-linejoin:round;stroke-opacity:1"
         d="m 67.47754,161.53719 c -3.98576,0 -7.217132,3.23137 -7.217132,7.21713 v 44.82104 c 14.975081,10.05308 32.601692,15.42538 50.638252,15.43368 18.19546,-0.003 35.97156,-5.46471 51.02945,-15.67915 0.0942,-16.8324 0.19458,-42.38457 -0.0884,-44.57557 0,-3.98576 -3.23136,-7.21713 -7.21715,-7.21713 z"
         sodipodi:nodetypes="ssccccss" />
      <path
         id="path56059-8-2"
         style="fill:#d7ebf4;fill-opacity:1;stroke:none;stroke-width:1.04269;stroke-linecap:round;stroke-linejoin:round;stroke-opacity:1"
         d="m 419.71875,610.5332 -102.76367,0.002 v 239.40429 c 32.90535,10.26603 67.34469,15.5914 102.1914,15.60743 0.19087,-4e-5 0.38137,-0.004 0.57227,-0.008 z m 102.84961,0.002 v 239.04882 c 31.58041,-9.97213 61.73351,-24.49867 89.44531,-43.29687 0.35603,-63.61852 0.73367,-160.19367 -0.33594,-168.47461 0,-15.06429 -12.21282,-27.27734 -27.27734,-27.27734 z m -294.8125,77.05664 v 24.10937 h 76.66211 V 687.5918 Z m 307.26367,0 h 76.66211 v 24.10937 H 535.01953 Z M 227.75586,737.2559 v 24.10937 h 76.66211 V 737.2559 Z m 307.26367,0 h 76.66211 v 24.10937 h -76.66211 z"
         transform="scale(0.26458333)" />
      <path
         id="path56059-7"
         style="fill:#aac6d1;fill-opacity:1;stroke:none;stroke-width:1.04269;stroke-linecap:round;stroke-linejoin:round;stroke-opacity:1"
         d="m 316.95312,800.08203 v 25.57422 H 522.56836 V 800.08203 Z M 522.56836,567.04688 H 316.95312 v 91.10937 h 205.61524 z"
         transform="scale(0.26458333)"
         sodipodi:nodetypes="cccccccccc" />
      <path
         id="path888-4-3"
         style="fill:#d7ebf4;fill-opacity:1;stroke:none;stroke-width:0.264583px;stroke-linecap:butt;stroke-linejoin:miter;stroke-opacity:1"
         d="m 78.162371,142.97165 c -2.552722,0.26167 -4.052683,-0.82997 -4.337629,-3.40206 v -3.57217 c -0.02492,-2.78018 -3.282795,0.13754 -3.23196,-3.40206 v -5.95361 c -0.05084,-3.5396 3.20704,-0.62188 3.23196,-3.40206 v -3.57217 c 0.284946,-2.57209 1.784907,-3.66373 4.337629,-3.40206 5.989601,-33.258906 56.477169,-37.674143 65.878699,0 2.55272,-0.26167 4.05268,0.82997 4.33763,3.40206 v 3.57217 c 0.0249,2.78018 3.28276,-0.13754 3.23196,3.40206 v 5.95361 c 0.0508,3.5396 -3.20706,0.62188 -3.23196,3.40206 v 3.57217 c -0.28495,2.57209 -1.78491,3.66373 -4.33763,3.40206 -6.54107,32.16566 -58.864132,33.30517 -65.878699,0 z"
         sodipodi:nodetypes="ccccccccccccccccc" />
      <path
         id="path4512-2-3"
         style="fill:#bed6e2;fill-opacity:1;stroke:none;stroke-width:0.264583px;stroke-linecap:butt;stroke-linejoin:miter;stroke-opacity:1"
         d="m 144.0533,135.55997 c 0.37037,-2.17243 3.57296,-1.85671 2.32219,2.15895 -4.59305,14.74615 -26.20545,18.25076 -35.32522,18.25076 -9.11977,0 -30.732171,-3.50461 -35.325218,-18.25076 -1.250772,-4.01566 1.951829,-4.33138 2.322196,-2.15895 1.996759,11.71222 18.953445,16.84904 33.003022,16.84904 14.04959,0 31.00628,-5.13682 33.00303,-16.84904 z m 0,-11.85818 c 0.37037,2.17243 3.57296,1.85671 2.32219,-2.15894 -4.59305,-14.74615 -26.20545,-18.25077 -35.32522,-18.25077 -9.11977,0 -30.732171,3.50462 -35.325218,18.25077 -1.250772,4.01565 1.951829,4.33137 2.322196,2.15894 1.996759,-11.71221 18.953441,-16.84903 33.003022,-16.84903 14.04959,0 31.00628,5.13682 33.00303,16.84903 z" />
      <path
         id="path15308"
         style="fill:#063348;fill-opacity:1;stroke:none;stroke-width:0.264583px;stroke-linecap:butt;stroke-linejoin:miter;stroke-opacity:1"
         d="m 144.0533,135.55997 c -1.99675,11.71222 -18.95344,16.84904 -33.00303,16.84904 -14.04958,0 -31.00626,-5.13682 -33.00302,-16.84904 v -11.85818 c 1.99676,-11.71221 18.95344,-16.84903 33.00302,-16.84903 14.04959,0 31.00628,5.13682 33.00303,16.84903 z"
         sodipodi:nodetypes="csccscc" />
      <path
         id="path29319"
         style="fill:#115a6b;fill-opacity:1;stroke:none;stroke-width:0.264583px;stroke-linecap:butt;stroke-linejoin:miter;stroke-opacity:1"
         d="m 78.04725,127.66739 c 1.99676,-9.75565 18.95344,-16.01899 33.00302,-16.01899 v 40.76061 c -14.04958,0 -31.00626,-5.13682 -33.00302,-16.84904 z"
         sodipodi:nodetypes="ccccc" />
      <path
         id="path62396-5"
         style="fill:#be340d;fill-opacity:1;stroke:none;stroke-width:0.307704;stroke-linecap:round;stroke-linejoin:round;stroke-opacity:1"
         d="m 90.95481,188.36012 c 3e-6,-3.67374 2.978157,-6.65189 6.651895,-6.65189 h 26.944325 c 3.67374,0 6.6519,2.97815 6.6519,6.65189 0,3.67374 -2.97816,6.6519 -6.6519,6.6519 H 97.606705 c -3.673742,0 -6.651898,-2.97816 -6.651895,-6.6519 z"
         sodipodi:nodetypes="scssscs" />
      <path
         id="path62396-5-3"
         style="fill:#e84404;fill-opacity:1;stroke:none;stroke-width:0.307704;stroke-linecap:round;stroke-linejoin:round;stroke-opacity:1"
         d="m 90.95481,188.36012 c 0,-3.67374 2.97816,-6.65189 6.65189,-6.65189 h 26.94433 c 3.67374,0 6.6519,2.97815 6.6519,6.65189 -40.24812,0 0,0 -40.24812,0 z"
         sodipodi:nodetypes="ccscc" />
      <path
         style="fill:#a6cecc;fill-opacity:1;stroke:none;stroke-width:0.264583px;stroke-linecap:butt;stroke-linejoin:miter;stroke-opacity:1"
         d="m 77.588458,126.67238 0.12028,5.95391 c -5.61349,0.46703 -4.86172,-6.56652 -0.12028,-5.95391 z"
         id="path115211"
         sodipodi:nodetypes="ccc" />
      <path
         id="path115211-75"
         style="fill:#fece11;fill-opacity:1;stroke:none;stroke-width:0.264583px;stroke-linecap:butt;stroke-linejoin:miter;stroke-opacity:1"
         d="m 77.234408,127.57982 c -3.16836,2.2e-4 -3.51689,4.50051 0.45682,4.19303 l -0.0842,-4.17287 c -0.12826,-0.0135 -0.25238,-0.0202 -0.37259,-0.0202 z" />
      <path
         id="path115211-75-9"
         style="fill:#fbb807;fill-opacity:1;stroke:none;stroke-width:0.264583px;stroke-linecap:butt;stroke-linejoin:miter;stroke-opacity:1"
         d="m 77.639038,129.23243 c -0.92536,0.0904 -2.20354,0.42586 -2.5554,1.56166 0.41299,0.63641 1.26283,1.08281 2.60759,0.97876 l -0.0512,-2.54042 c -3.5e-4,4e-5 -6.9e-4,-3e-5 -0.001,0 z" />
      <path
         style="fill:#a6cecc;fill-opacity:1;stroke:none;stroke-width:0.264583px;stroke-linecap:butt;stroke-linejoin:miter;stroke-opacity:1"
         d="m 144.51208,126.67238 -0.12028,5.95391 c 5.61349,0.46703 4.86172,-6.56652 0.12028,-5.95391 z"
         id="path115211-6"
         sodipodi:nodetypes="ccc" />
      <path
         id="path115211-75-2"
         style="fill:#fece11;fill-opacity:1;stroke:none;stroke-width:0.264583px;stroke-linecap:butt;stroke-linejoin:miter;stroke-opacity:1"
         d="m 144.86613,127.57982 c 3.16836,2.2e-4 3.51689,4.50051 -0.45682,4.19303 l 0.0842,-4.17287 c 0.12826,-0.0135 0.25238,-0.0202 0.37259,-0.0202 z" />
      <path
         id="path115211-75-9-7"
         style="fill:#fbb807;fill-opacity:1;stroke:none;stroke-width:0.264583px;stroke-linecap:butt;stroke-linejoin:miter;stroke-opacity:1"
         d="m 144.4615,129.23243 c 0.92536,0.0904 2.20354,0.42586 2.5554,1.56166 -0.41299,0.63641 -1.26283,1.08281 -2.60759,0.97876 l 0.0512,-2.54042 c 3.5e-4,4e-5 6.9e-4,-3e-5 0.001,0 z" />
    </g>
  </g>
</svg>
