<?xml version="1.0" encoding="UTF-8" standalone="no"?>
<!-- Created with Inkscape (http://www.inkscape.org/) -->

<svg
   width="224.46481mm"
   height="224.46481mm"
   viewBox="0 0 224.46481 224.46481"
   version="1.1"
   id="svg5"
   inkscape:version="1.1 (c68e22c387, 2021-05-23)"
   sodipodi:docname="ignition.svg"
   xmlns:inkscape="http://www.inkscape.org/namespaces/inkscape"
   xmlns:sodipodi="http://sodipodi.sourceforge.net/DTD/sodipodi-0.dtd"
   xmlns="http://www.w3.org/2000/svg"
   xmlns:svg="http://www.w3.org/2000/svg">
  <sodipodi:namedview
     id="namedview7"
     pagecolor="#ffffff"
     bordercolor="#666666"
     borderopacity="1.0"
     inkscape:pageshadow="2"
     inkscape:pageopacity="0.0"
     inkscape:pagecheckerboard="0"
     inkscape:document-units="mm"
     showgrid="false"
     inkscape:zoom="1"
     inkscape:cx="302.5"
     inkscape:cy="405.5"
     inkscape:window-width="2560"
     inkscape:window-height="1377"
     inkscape:window-x="2552"
     inkscape:window-y="-8"
     inkscape:window-maximized="1"
     inkscape:current-layer="layer1"
     fit-margin-top="0"
     fit-margin-left="0"
     fit-margin-right="0"
     fit-margin-bottom="0" />
  <defs
     id="defs2" />
  <g
     inkscape:label="Layer 1"
     inkscape:groupmode="layer"
     id="layer1"
     transform="translate(0.37102509,-26.09082)">
    <circle
       style="fill:#063348;fill-opacity:1;stroke:none;stroke-width:1.31073;stroke-miterlimit:4;stroke-dasharray:none;stroke-opacity:1"
       id="path102415"
       cx="111.86138"
       cy="138.32323"
       r="112.23241" />
    <g
       id="g1625"
       transform="matrix(0.52612214,-0.5766312,0.52015906,0.58324168,-38.003913,167.98125)">
      <path
         style="fill:#fbb700;fill-opacity:1;stroke:none;stroke-width:1.05833px;stroke-linecap:butt;stroke-linejoin:miter;stroke-opacity:1"
         d="m 138.4509,148.67035 c 0,0 27.84613,-0.0209 29.24223,-14.93798 l -14.66638,-14.93798 c -15.30021,1.80755 -14.57585,29.87596 -14.57585,29.87596"
         id="path41388"
         sodipodi:nodetypes="cccc" />
      <path
         style="fill:#e74504;fill-opacity:1;stroke:none;stroke-width:1.05833px;stroke-linecap:butt;stroke-linejoin:miter;stroke-opacity:1"
         d="m 246.3665,40.392625 c -12.50728,-3.444932 -24.00771,-2.107392 -34.58369,3.621328 l 17.17287,13.84944 z"
         id="path132"
         sodipodi:nodetypes="cccc" />
      <path
         style="fill:#bd3309;fill-opacity:1;stroke:none;stroke-width:1.05833px;stroke-linecap:butt;stroke-linejoin:miter;stroke-opacity:1"
         d="m 246.3665,40.392625 c 3.44493,12.507277 2.10739,24.007708 -3.62133,34.583686 L 228.95568,57.863393 Z"
         id="path132-7"
         sodipodi:nodetypes="cccc" />
      <path
         style="fill:#fbd503;fill-opacity:1;stroke:none;stroke-width:1.05833px;stroke-linecap:butt;stroke-linejoin:miter;stroke-opacity:1"
         d="m 155.78957,121.45488 8.78172,9.14386 c -2.70687,10.56253 -19.19304,10.58595 -19.19304,10.58595 0,0 0.29167,-16.72343 10.41132,-19.72981 z"
         id="path47706"
         sodipodi:nodetypes="cccc" />
      <path
         style="fill:#96afbf;fill-opacity:1;stroke:none;stroke-width:1.05833px;stroke-linecap:butt;stroke-linejoin:miter;stroke-opacity:1"
         d="m 211.78281,44.013953 16.83917,13.579983 14.12319,17.382375 -1.89234,3.391758 -71.44258,57.614991 -18.94893,-18.69287 57.61499,-70.67438 z"
         id="path9645" />
      <ellipse
         style="fill:#fcc201;fill-opacity:1;stroke:none;stroke-width:0.13977;stroke-miterlimit:4;stroke-dasharray:none;stroke-opacity:1"
         id="path30390"
         cx="138.20213"
         cy="117.96235"
         rx="2.3676522"
         ry="2.303654" />
      <ellipse
         style="fill:#fcc201;fill-opacity:1;stroke:none;stroke-width:0.13977;stroke-miterlimit:4;stroke-dasharray:none;stroke-opacity:1"
         id="path30390-9"
         cx="130.36009"
         cy="127.59687"
         rx="2.3676522"
         ry="2.303654" />
      <ellipse
         style="fill:#fcc201;fill-opacity:1;stroke:none;stroke-width:0.13977;stroke-miterlimit:4;stroke-dasharray:none;stroke-opacity:1"
         id="path30390-2"
         cx="126.64713"
         cy="139.31192"
         rx="2.3676522"
         ry="2.303654" />
      <ellipse
         style="fill:#fcc201;fill-opacity:1;stroke:none;stroke-width:0.13977;stroke-miterlimit:4;stroke-dasharray:none;stroke-opacity:1"
         id="path30390-6"
         cx="147.58057"
         cy="160.24538"
         rx="2.3676522"
         ry="2.303654" />
      <ellipse
         style="fill:#fcc201;fill-opacity:1;stroke:none;stroke-width:0.13977;stroke-miterlimit:4;stroke-dasharray:none;stroke-opacity:1"
         id="path30390-7"
         cx="158.91151"
         cy="156.66043"
         rx="2.3676522"
         ry="2.303654" />
      <ellipse
         style="fill:#fcc201;fill-opacity:1;stroke:none;stroke-width:0.13977;stroke-miterlimit:4;stroke-dasharray:none;stroke-opacity:1"
         id="path30390-95"
         cx="168.77008"
         cy="148.59433"
         rx="2.3676522"
         ry="2.303654" />
      <path
         style="fill:#e84504;fill-opacity:1;stroke:none;stroke-width:1.05833px;stroke-linecap:butt;stroke-linejoin:miter;stroke-opacity:1"
         d="m 175.66006,86.474032 c -11.11745,-10.065888 -43.9027,18.292418 -42.73168,20.822638 1.23583,2.67026 12.16186,-2.57797 24.17237,2.1728 z"
         id="path56383"
         sodipodi:nodetypes="cscc" />
      <path
         style="fill:#bc340a;fill-opacity:1;stroke:none;stroke-width:1.05833px;stroke-linecap:butt;stroke-linejoin:miter;stroke-opacity:1"
         d="m 200.37976,110.82185 c 10.06588,11.11744 -18.29242,43.9027 -20.82264,42.73168 -2.67026,-1.23584 2.57797,-12.16186 -2.17281,-24.17237 z"
         id="path56383-0"
         sodipodi:nodetypes="cscc" />
      <path
         style="fill:#d6eaf3;fill-opacity:1;stroke:none;stroke-width:1.05833px;stroke-linecap:butt;stroke-linejoin:miter;stroke-opacity:1"
         d="m 163.79405,123.24171 62.07138,-62.2798 c 0,0 -17.78909,-14.345376 -17.78909,-14.345376 0,0 -54.36126,66.682636 -54.36126,66.682636 l 10.07897,9.94254"
         id="path64085" />
      <path
         style="fill:#bfd6e2;fill-opacity:1;stroke:none;stroke-width:1.05833px;stroke-linecap:butt;stroke-linejoin:miter;stroke-opacity:1"
         d="m 173.42654,132.74399 -9.63249,-9.50228 62.07138,-62.2798 14.9874,17.406159 -67.42629,54.375921"
         id="path64299" />
      <ellipse
         style="fill:#2095bc;fill-opacity:1;stroke:none;stroke-width:1.02766;stroke-miterlimit:4;stroke-dasharray:none;stroke-opacity:1"
         id="path17840"
         cx="207.96376"
         cy="79.422646"
         rx="13.233188"
         ry="13.052121" />
      <path
         id="path25989-1"
         style="fill:#2f9cd0;fill-opacity:1;stroke:none;stroke-width:1.05833px;stroke-linecap:butt;stroke-linejoin:miter;stroke-opacity:1"
         d="m 214.95756,71.906978 -14.47147,14.521077 a 10.235844,10.299861 0 0 0 7.47654,3.294889 10.235844,10.299861 0 0 0 10.23607,-10.300146 10.235844,10.299861 0 0 0 -3.24114,-7.51582 z" />
      <path
         id="path26762-8"
         style="fill:#27d6fd;fill-opacity:1;stroke:none;stroke-width:1.2;stroke-miterlimit:4;stroke-dasharray:none;stroke-opacity:1"
         d="m 207.96263,69.122653 a 10.235844,10.299861 0 0 0 -10.23606,10.300146 10.235844,10.299861 0 0 0 2.75952,7.005256 l 14.47147,-14.521077 a 10.235844,10.299861 0 0 0 -6.99493,-2.784325 z" />
      <path
         id="path82714-3"
         style="fill:#eb3e07;fill-opacity:1;stroke:none;stroke-width:1.05833;stroke-linecap:butt;stroke-linejoin:miter;stroke-miterlimit:4;stroke-dasharray:none;stroke-opacity:1"
         d="m 173.7614,110.61217 c -7.23989,-0.0371 -25.46618,21.77262 -22.46272,25.2429 l 24.321,-24.48429 c -0.47815,-0.51589 -1.10933,-0.75476 -1.85828,-0.75861 z m 1.85828,0.75861 -24.31893,24.48429 c 2.46084,2.90068 29.08658,-19.71265 24.31893,-24.48429 z" />
      <path
         id="path82714-9"
         style="fill:#b6370f;fill-opacity:1;stroke:none;stroke-width:1.05833;stroke-linecap:butt;stroke-linejoin:miter;stroke-miterlimit:4;stroke-dasharray:none;stroke-opacity:1"
         d="m 175.61968,111.37078 -24.31893,24.48427 c 2.46084,2.90068 29.08659,-19.71263 24.31893,-24.48427 z"
         sodipodi:nodetypes="ccc" />
    </g>
    <path
       id="path891-0-9"
       style="fill:#8c8c8c;fill-opacity:1;stroke:none;stroke-width:1.03513;stroke-opacity:1"
       d="m 420.73828,572.36523 c -10.24078,0.003 -19.91419,4.70373 -26.24414,12.75391 -7.27875,-5.56945 -16.18842,-8.58808 -25.35352,-8.58984 -16.04459,2.9e-4 -30.6685,9.19832 -37.61718,23.66015 -5.137,-3.62708 -11.29861,-5.57782 -17.61914,-5.57812 -8.50314,0.004 -16.61196,3.53263 -22.33985,9.72265 -4.43527,-1.554 -9.10115,-2.34771 -13.80078,-2.34765 -20.6667,0.002 -38.2198,15.1285 -41.27344,35.56836 -7.75466,-7.36563 -18.04112,-11.47308 -28.73632,-11.47461 -23.04989,3.3e-4 -41.73513,18.68644 -41.73438,41.73633 0.009,6.99964 1.77785,13.88466 5.14453,20.02148 -16.64943,10.03292 -26.83378,28.04764 -26.8457,47.48633 -5.7e-4,30.64157 24.8389,55.48191 55.48047,55.48242 30.64233,5.7e-4 55.48299,-24.84009 55.48242,-55.48242 -0.002,-14.86888 -5.97131,-29.1149 -16.57031,-39.54297 5.51287,-6.096 9.10307,-13.68407 10.32031,-21.8125 7.75155,7.36969 18.03668,11.48207 28.73242,11.48828 19.12816,-0.0115 35.79995,-13.02505 40.45508,-31.57812 7.04593,-1.00405 13.5064,-4.42414 18.24414,-9.65821 7.91672,9.96708 19.94914,15.77653 32.67773,15.77735 16.12947,-0.004 30.81276,-9.30184 37.7129,-23.88086 4.35643,1.99824 9.09192,3.03539 13.88476,3.04101 5.54641,-0.008 11.00361,-1.39636 15.87891,-4.04101 0.99316,24.78659 -31.3512,63.66122 -6.54474,63.6779 15.25538,-10e-4 43.6725,64.47919 52.29244,51.89257 3.21891,12.7132 39.08571,-7.95326 52.20008,-7.94492 7.36323,-0.005 28.26481,39.2678 34.87791,-24.96288 -1.88953,4.83655 26.71391,2.26832 26.7125,7.46087 0.008,14.70673 -22.78238,-8.64357 -10.14366,-1.12354 4.45693,29.18226 29.55358,50.73835 59.07422,50.74023 33.00594,-7.4e-4 59.76206,-26.75773 59.76172,-59.76367 -7.4e-4,-33.00518 -26.75654,-59.76098 -59.76172,-59.76172 -3.63583,0.0134 -7.26285,0.3586 -10.83594,1.03125 -7.52612,-6.34484 -17.05272,-9.82522 -26.89648,-9.82617 -11.9273,0.01 -23.28047,5.12237 -31.19336,14.04687 0.80182,-2.66803 1.21042,-5.43869 1.21289,-8.2246 -2.9e-4,-15.83061 -12.83346,-28.66378 -28.66407,-28.66407 -7.3346,0.003 -14.38886,2.81827 -19.71093,7.86524 -0.91707,-24.85704 -21.33308,-44.53521 -46.20703,-44.53711 -10.83087,0.01 -21.31464,3.82128 -29.62305,10.76953 -3.66858,-14.92996 -17.05562,-25.42657 -32.42969,-25.42774 z"
       transform="scale(0.26458333)"
       sodipodi:nodetypes="ccccccccccccscccccccccccccccccccccccccccc" />
    <path
       id="path891"
       style="fill:#ffffff;fill-opacity:1;stroke:none;stroke-width:1.20687;stroke-opacity:1"
       d="m 426.64648,616.54883 a 69.678515,69.678515 0 0 0 -61.75976,37.51953 41.73497,41.73497 0 0 0 -25.75195,-8.89453 41.73497,41.73497 0 0 0 -31.42383,14.31055 52.101122,52.101122 0 0 0 -26.76563,-7.40235 52.101122,52.101122 0 0 0 -52.09961,52.10156 52.101122,52.101122 0 0 0 52.09961,52.10157 52.101122,52.101122 0 0 0 46.81055,-29.24805 41.73497,41.73497 0 0 0 11.37891,1.60742 41.73497,41.73497 0 0 0 26.25585,-9.30664 69.678515,69.678515 0 0 0 61.25586,36.56836 69.678515,69.678515 0 0 0 22.34375,-3.72656 50.523668,50.523668 0 0 0 49.48438,40.48828 50.523668,50.523668 0 0 0 30.75977,-10.47656 60.448969,58.175942 0 0 0 43.34179,17.67382 60.448969,58.175942 0 0 0 60.44922,-58.17578 60.448969,58.175942 0 0 0 -60.44922,-58.17578 60.448969,58.175942 0 0 0 -43.85156,18.16211 50.523668,50.523668 0 0 0 -30.25,-10.05664 50.523668,50.523668 0 0 0 -2.375,0.0898 69.678515,69.678515 0 0 0 0.22656,-5.48242 69.678515,69.678515 0 0 0 -69.67969,-69.67773 z"
       transform="scale(0.26458333)" />
    <path
       id="path4190"
       style="fill:#8c8c8c;fill-opacity:1;stroke:none;stroke-width:0.999999;stroke-opacity:1"
       d="m 419.17773,687.91211 a 37.931653,37.931653 0 0 0 -32.48828,18.38867 49.504016,49.504016 0 0 0 -35.66015,-15.17383 49.504016,49.504016 0 0 0 -45.97657,31.17774 31.502553,31.502553 0 0 0 -13.17187,-2.88867 31.502553,31.502553 0 0 0 -31.50195,31.50195 31.502553,31.502553 0 0 0 31.50195,31.50195 31.502553,31.502553 0 0 0 22.0625,-9.04297 49.504016,49.504016 0 0 0 37.08594,16.75782 49.504016,49.504016 0 0 0 46.65039,-33.04493 37.931653,37.931653 0 0 0 21.49804,6.68555 37.931653,37.931653 0 0 0 2.62305,-0.0977 53.361472,53.361472 0 0 0 -0.0527,1.38477 53.361472,53.361472 0 0 0 53.36133,53.36133 53.361472,53.361472 0 0 0 46.05273,-26.42578 24.109099,24.109099 0 0 0 9.55859,1.99414 24.109099,24.109099 0 0 0 24.10938,-24.10742 24.109099,24.109099 0 0 0 -24.10938,-24.10938 24.109099,24.109099 0 0 0 -5.60547,0.66797 53.361472,53.361472 0 0 0 -50.00585,-34.74219 53.361472,53.361472 0 0 0 -19.47461,3.67969 37.931653,37.931653 0 0 0 -36.45704,-27.46875 z"
       transform="scale(0.26458333)" />
  </g>
</svg>
