<?xml version="1.0" encoding="UTF-8" standalone="no"?>
<!-- Created with Inkscape (http://www.inkscape.org/) -->

<svg
   version="1.1"
   id="svg9"
   width="792"
   height="792"
   viewBox="0 0 198 198"
   sodipodi:docname="launch.svg"
   inkscape:version="1.1 (c68e22c387, 2021-05-23)"
   inkscape:export-filename="C:\Users\cmoth\source\repos\cmothersead\FRSTWebsite\images\icons\launch.png"
   inkscape:export-xdpi="62.060608"
   inkscape:export-ydpi="62.060608"
   xmlns:inkscape="http://www.inkscape.org/namespaces/inkscape"
   xmlns:sodipodi="http://sodipodi.sourceforge.net/DTD/sodipodi-0.dtd"
   xmlns="http://www.w3.org/2000/svg"
   xmlns:svg="http://www.w3.org/2000/svg">
  <defs
     id="defs13" />
  <sodipodi:namedview
     id="namedview11"
     pagecolor="#ffffff"
     bordercolor="#666666"
     borderopacity="1.0"
     inkscape:pageshadow="2"
     inkscape:pageopacity="0.0"
     inkscape:pagecheckerboard="0"
     showgrid="false"
     inkscape:zoom="1"
     inkscape:cx="361.5"
     inkscape:cy="436.5"
     inkscape:window-width="2560"
     inkscape:window-height="1377"
     inkscape:window-x="-8"
     inkscape:window-y="-8"
     inkscape:window-maximized="1"
     inkscape:current-layer="g15"
     fit-margin-top="0"
     fit-margin-left="0"
     fit-margin-right="0"
     fit-margin-bottom="0" />
  <g
     inkscape:groupmode="layer"
     inkscape:label="Image"
     id="g15"
     transform="translate(-1.25,-0.625)">
    <circle
       style="fill:#063348;fill-opacity:1;stroke:none;stroke-width:1.1562;stroke-miterlimit:4;stroke-dasharray:none;stroke-opacity:1"
       id="path102415"
       cx="100.25"
       cy="99.625"
       r="99" />
    <path
       style="fill:#fbb700;fill-opacity:1;stroke:none;stroke-width:1px;stroke-linecap:butt;stroke-linejoin:miter;stroke-opacity:1"
       d="m 50.470484,150.38494 c 0,0 26.3113,-0.0197 27.630457,-14.11462 L 64.242942,122.15569 c -14.456897,1.70792 -13.772458,28.22925 -13.772458,28.22925"
       id="path41388"
       sodipodi:nodetypes="cccc" />
    <path
       style="fill:#e74504;fill-opacity:1;stroke:none;stroke-width:1px;stroke-linecap:butt;stroke-linejoin:miter;stroke-opacity:1"
       d="m 152.43798,48.075278 c -11.8179,-3.255054 -22.68445,-1.991236 -32.6775,3.421728 l 16.22633,13.086085 z"
       id="path132"
       sodipodi:nodetypes="cccc" />
    <path
       style="fill:#bd3309;fill-opacity:1;stroke:none;stroke-width:1px;stroke-linecap:butt;stroke-linejoin:miter;stroke-opacity:1"
       d="m 152.43798,48.075278 c 3.25505,11.8179 1.99124,22.68445 -3.42173,32.6775 L 135.98681,64.583091 Z"
       id="path132-7"
       sodipodi:nodetypes="cccc" />
    <path
       style="fill:#fbd503;fill-opacity:1;stroke:none;stroke-width:1px;stroke-linecap:butt;stroke-linejoin:miter;stroke-opacity:1"
       d="m 66.853478,124.66954 8.297693,8.63987 c -2.55768,9.98034 -18.13516,10.00247 -18.13516,10.00247 0,0 0.275597,-15.80167 9.837467,-18.64234 z"
       id="path47706"
       sodipodi:nodetypes="cccc" />
    <path
       style="fill:#96afbf;fill-opacity:1;stroke:none;stroke-width:1px;stroke-linecap:butt;stroke-linejoin:miter;stroke-opacity:1"
       d="m 119.76048,51.497006 15.91103,12.83148 13.34474,16.424292 -1.78803,3.204811 -67.504804,54.439361 -17.9045,-17.66255 54.439354,-66.778947 z"
       id="path9645" />
    <ellipse
       style="fill:#fcc201;fill-opacity:1;stroke:none;stroke-width:0.132066;stroke-miterlimit:4;stroke-dasharray:none;stroke-opacity:1"
       id="path30390"
       cx="50.235428"
       cy="121.36951"
       rx="2.2371516"
       ry="2.176681" />
    <ellipse
       style="fill:#fcc201;fill-opacity:1;stroke:none;stroke-width:0.132066;stroke-miterlimit:4;stroke-dasharray:none;stroke-opacity:1"
       id="path30390-9"
       cx="42.825626"
       cy="130.47299"
       rx="2.2371516"
       ry="2.176681" />
    <ellipse
       style="fill:#fcc201;fill-opacity:1;stroke:none;stroke-width:0.132066;stroke-miterlimit:4;stroke-dasharray:none;stroke-opacity:1"
       id="path30390-2"
       cx="39.317314"
       cy="141.54233"
       rx="2.2371516"
       ry="2.176681" />
    <ellipse
       style="fill:#fcc201;fill-opacity:1;stroke:none;stroke-width:0.132066;stroke-miterlimit:4;stroke-dasharray:none;stroke-opacity:1"
       id="path30390-6"
       cx="59.096947"
       cy="161.32198"
       rx="2.2371516"
       ry="2.176681" />
    <ellipse
       style="fill:#fcc201;fill-opacity:1;stroke:none;stroke-width:0.132066;stroke-miterlimit:4;stroke-dasharray:none;stroke-opacity:1"
       id="path30390-7"
       cx="69.803352"
       cy="157.93463"
       rx="2.2371516"
       ry="2.176681" />
    <ellipse
       style="fill:#fcc201;fill-opacity:1;stroke:none;stroke-width:0.132066;stroke-miterlimit:4;stroke-dasharray:none;stroke-opacity:1"
       id="path30390-95"
       cx="79.11853"
       cy="150.31311"
       rx="2.2371516"
       ry="2.176681" />
    <path
       style="fill:#e84504;fill-opacity:1;stroke:none;stroke-width:1px;stroke-linecap:butt;stroke-linejoin:miter;stroke-opacity:1"
       d="M 85.628743,91.616767 C 75.12407,82.105691 44.145877,108.90094 45.252353,111.2917 c 1.167719,2.52308 11.491521,-2.43588 22.840034,2.05304 z"
       id="path56383"
       sodipodi:nodetypes="cscc" />
    <path
       style="fill:#bc340a;fill-opacity:1;stroke:none;stroke-width:1px;stroke-linecap:butt;stroke-linejoin:miter;stroke-opacity:1"
       d="m 108.98594,114.62258 c 9.51107,10.50467 -17.284173,41.48287 -19.674937,40.37639 -2.52308,-1.16772 2.435884,-11.49152 -2.05304,-22.84003 z"
       id="path56383-0"
       sodipodi:nodetypes="cscc" />
    <path
       style="fill:#d6eaf3;fill-opacity:1;stroke:none;stroke-width:1px;stroke-linecap:butt;stroke-linejoin:miter;stroke-opacity:1"
       d="m 74.41677,126.35788 58.65012,-58.847056 c 0,0 -16.80859,-13.554687 -16.80859,-13.554687 0,0 -51.364967,63.007213 -51.364967,63.007213 l 9.523437,9.39453"
       id="path64085" />
    <path
       style="fill:#bfd6e2;fill-opacity:1;stroke:none;stroke-width:1px;stroke-linecap:butt;stroke-linejoin:miter;stroke-opacity:1"
       d="M 83.518336,135.33641 74.41677,126.35788 133.06689,67.510824 147.22822,83.957589 83.518336,135.33641"
       id="path64299" />
    <ellipse
       style="fill:#2095bc;fill-opacity:1;stroke:none;stroke-width:0.971015;stroke-miterlimit:4;stroke-dasharray:none;stroke-opacity:1"
       id="path17840"
       cx="116.15193"
       cy="84.954041"
       rx="12.503799"
       ry="12.332713" />
    <path
       id="path25989-1"
       style="fill:#2f9cd0;fill-opacity:1;stroke:none;stroke-width:1px;stroke-linecap:butt;stroke-linejoin:miter;stroke-opacity:1"
       d="m 122.76024,77.852621 -13.67383,13.720703 a 9.6716642,9.7321529 0 0 0 7.06445,3.113281 9.6716642,9.7321529 0 0 0 9.67188,-9.732422 9.6716642,9.7321529 0 0 0 -3.0625,-7.101562 z" />
    <path
       id="path26762-8"
       style="fill:#27d6fd;fill-opacity:1;stroke:none;stroke-width:1.13386;stroke-miterlimit:4;stroke-dasharray:none;stroke-opacity:1"
       d="m 116.15086,75.221762 a 9.6716642,9.7321529 0 0 0 -9.67187,9.732422 9.6716642,9.7321529 0 0 0 2.60742,6.61914 l 13.67383,-13.720703 a 9.6716642,9.7321529 0 0 0 -6.60938,-2.630859 z" />
    <path
       id="path82714-3"
       style="fill:#eb3e07;fill-opacity:1;stroke:none;stroke-width:1;stroke-linecap:butt;stroke-linejoin:miter;stroke-miterlimit:4;stroke-dasharray:none;stroke-opacity:1"
       d="m 83.834732,114.42446 c -6.84084,-0.0351 -24.06253,20.57255 -21.22461,23.85156 l 22.98047,-23.13477 c -0.4518,-0.48745 -1.04819,-0.71316 -1.75586,-0.71679 z m 1.75586,0.71679 -22.97852,23.13477 c 2.32521,2.7408 27.48339,-18.62613 22.97852,-23.13477 z" />
    <path
       id="path82714-9"
       style="fill:#b6370f;fill-opacity:1;stroke:none;stroke-width:1;stroke-linecap:butt;stroke-linejoin:miter;stroke-miterlimit:4;stroke-dasharray:none;stroke-opacity:1"
       d="M 85.590592,115.14125 62.612071,138.276 c 2.325203,2.7408 27.483395,-18.62611 22.978521,-23.13475 z"
       sodipodi:nodetypes="ccc" />
  </g>
</svg>
