<?xml version="1.0" encoding="UTF-8" standalone="no"?>
<svg
   xmlns:dc="http://purl.org/dc/elements/1.1/"
   xmlns:cc="http://creativecommons.org/ns#"
   xmlns:rdf="http://www.w3.org/1999/02/22-rdf-syntax-ns#"
   xmlns:svg="http://www.w3.org/2000/svg"
   xmlns="http://www.w3.org/2000/svg"
   xmlns:sodipodi="http://sodipodi.sourceforge.net/DTD/sodipodi-0.dtd"
   xmlns:inkscape="http://www.inkscape.org/namespaces/inkscape"
   version="1.1"
   id="svg833"
   width="85522.695"
   height="99703.398"
   viewBox="0 0 85522.695 99703.398"
   sodipodi:docname="source.svg"
   inkscape:version="1.0.2 (e86c870879, 2021-01-15, custom)"
   inkscape:export-filename="C:\Users\cmoth\source\repos\cmothersead\FRSTWebsite\images\logos\teams\NOB\512x512.png"
   inkscape:export-xdpi="0.49278149"
   inkscape:export-ydpi="0.49278149">
  <metadata
     id="metadata839">
    <rdf:RDF>
      <cc:Work
         rdf:about="">
        <dc:format>image/svg+xml</dc:format>
        <dc:type
           rdf:resource="http://purl.org/dc/dcmitype/StillImage" />
      </cc:Work>
    </rdf:RDF>
  </metadata>
  <defs
     id="defs837" />
  <sodipodi:namedview
     pagecolor="#ffffff"
     bordercolor="#666666"
     borderopacity="1"
     objecttolerance="10"
     gridtolerance="10"
     guidetolerance="10"
     inkscape:pageopacity="0"
     inkscape:pageshadow="2"
     inkscape:window-width="2560"
     inkscape:window-height="1377"
     id="namedview835"
     showgrid="false"
     inkscape:zoom="0.01"
     inkscape:cx="48510.558"
     inkscape:cy="48983.148"
     inkscape:window-x="-8"
     inkscape:window-y="-8"
     inkscape:window-maximized="1"
     inkscape:current-layer="g841" />
  <g
     inkscape:groupmode="layer"
     inkscape:label="Image"
     id="g841"
     transform="translate(-5570.7219,-2235.4625)">
    <path
       id="path847"
       style="fill:#040302;stroke-width:96"
       d="m 16735.334,101755.74 c -762.646,-150.8 -1158.363,-450.77 -1419.673,-1076.17 C 15203.615,100411.41 15168,99954.941 15168,98787.082 V 97248 h 802.952 802.95 l 61.05,445.402 c 33.576,244.963 61.048,930.873 61.048,1524.24 0,1229.588 31.225,1288.998 718.172,1366.428 907.985,102.34 1215.417,-412.09 1211.83,-2027.792 -3.648,-1641.254 -31.262,-1703.27 -2044.414,-4590.232 -467.12,-669.874 -1010.472,-1555.474 -1207.448,-1968 L 15216,91248 l 3.873,-1296 c 4.54,-1518.127 157.967,-2110 704.183,-2716.448 522.647,-580.28 1025.698,-764.92 2074.334,-761.361 999.432,3.389 1390.004,129.844 1845.29,597.429 461.161,473.619 604.32,1012.191 604.32,2273.481 V 90432 h -370.601 c -203.83,0 -566.444,26.844 -805.808,59.652 l -435.206,59.651 -34.193,-1203.978 c -31.75,-1117.983 -50.815,-1221.67 -266.926,-1451.653 -469.282,-499.403 -1299.566,-208.837 -1592.11,557.177 -225.8,591.249 -165.68,1939.416 113.944,2555.151 107.902,237.6 816.075,1339.2 1573.72,2448 1693.308,2478.129 1834.783,2796.547 1894.162,4263.187 61.427,1517.194 -83.86,2258.611 -590.767,3014.783 -542.324,809 -1147.855,1126.57 -2119.429,1111.51 -373.332,-5.76 -859.086,-46.17 -1079.452,-89.74 z m 38081.99,-81.15 c -670.217,-239.8 -1178.9,-771.63 -1399.598,-1463.29 -143.385,-449.358 -170.218,-1132.618 -209.692,-5339.643 -30.801,-3282.591 -10.281,-5121.001 64.21,-5752.624 238.528,-2022.506 915.298,-2663.188 2806.739,-2657.074 706.562,2.285 911.043,41.856 1365.683,264.291 894.106,437.445 1044.98,811.957 1154.483,2865.75 l 55.023,1032 h -767.086 c -542.579,0 -770.976,-35.121 -780.378,-120 -7.306,-66 -3.312,-424.522 8.889,-796.715 27.717,-845.442 -118.15,-1402.527 -470.489,-1796.863 -222.397,-248.905 -346.237,-306.059 -663.17,-306.059 -541.13,0 -891.022,284.172 -1069.942,868.972 -120.616,394.237 -144,1335.85 -144,5798.665 0,4913.606 13.396,5358.682 172.237,5722.522 199.628,457.268 476.315,613.478 1086.591,613.478 894.951,0 1103.215,-344.95 1168.734,-1935.792 l 46.145,-1120.454 551.69,-31.872 c 940.046,-54.327 887.517,-129.303 841.376,1201.008 -31.471,907.334 -87.745,1287.77 -252.822,1709.21 -390.901,997.97 -900.903,1318.12 -2211.959,1388.56 -659.351,35.42 -932.247,6.33 -1352.668,-144.07 z m 13367.753,-15.19 c -711.22,-282.85 -1023.243,-634.57 -1262.869,-1423.48 C 66725.221,99587.386 66720,99403.882 66720,93129.097 V 86688 h 768 768 l 0.192,6504 c 0.1,6000.298 13.149,6529.92 168,6838.67 278.527,555.33 913.157,729.78 1604.305,441 251.448,-105.06 349.704,-220.67 428.381,-504 67.33,-242.476 102.277,-2514.288 102.63,-6671.818 0.288,-3467.282 26.757,-6372.482 58.806,-6456 46.731,-121.779 217.84,-151.852 864,-151.852 h 805.729 l 20.033,5448 c 11.018,2996.4 8.036,5880 -6.633,6408 -68.632,2470.41 -655.685,3187.16 -2682.42,3275.05 -781.542,33.89 -1011.701,8.26 -1433.899,-159.65 z M 74784,94176 v -7488 h 1772.399 c 1949.56,0 2500.552,114.47 3139.71,652.286 580.245,488.244 658.016,837.406 671.222,3013.51 12.431,2048.397 -30.294,2321.979 -429.726,2751.707 -237.008,254.984 -1027.485,682.097 -1286.414,695.081 -94.155,4.724 37.119,65.839 291.72,135.816 679.412,186.739 1202.231,570.375 1414.517,1037.949 162.497,357.911 182.432,647.331 183.066,2657.651 0.768,2355.043 -70.508,2866.2 -459.7,3297.83 -458.575,508.59 -1571.105,726.17 -3736.794,730.82 l -1560,3.35 z m 3436.625,5981.26 c 142.656,-106.33 345.775,-340.012 451.375,-519.292 175.169,-297.398 190.932,-485.856 179.821,-2149.968 -17.962,-2690.157 -147.739,-2926.627 -1657.173,-3019.585 l -851.098,-52.415 43.515,2928 c 23.932,1610.4 56.93,2972.76 73.326,3027.46 53.267,177.68 1464.93,5.95 1760.234,-214.2 z m -140.368,-7179.773 c 492.093,-322.431 555.374,-585.754 561.497,-2336.472 8.016,-2291.883 -133.873,-2558.827 -1452.632,-2732.938 -424.248,-56.011 -795.832,-77.368 -825.742,-47.458 -29.908,29.91 -23.541,1252.353 14.152,2716.541 l 68.531,2662.16 684.319,-43.917 c 436.252,-27.997 780.584,-106.992 949.875,-217.916 z M 23484.284,101112 c -66.204,-561.85 -44.789,-323.2 -682.749,-7608 -288.995,-3300 -547.139,-6183.6 -573.654,-6408 l -48.208,-408 h 853.725 853.725 l 52.93,360 c 29.112,198 165.535,1591.2 303.163,3096 137.628,1504.8 287.951,2822.4 334.049,2928 115.283,264.081 314.58,2785.035 239,3023.165 -34.724,109.401 -17.661,192.835 39.437,192.835 143.446,0 143.47,0 633.156,-4656 244.348,-2323.2 468.436,-4386 497.974,-4584 l 53.708,-360 h 940.102 940.103 l 49.784,264 c 27.382,145.2 76.749,566.4 109.704,936 32.955,369.6 226.811,2205.6 430.792,4080 203.98,1874.4 400.031,3721.2 435.668,4104 35.636,382.8 95.277,696 132.534,696 37.257,0 145.008,-723.6 239.446,-1608 94.438,-884.4 351.171,-3141.6 570.516,-5016 l 398.811,-3408 854.152,-27.944 854.153,-27.944 -64.341,699.944 c -63.771,693.746 -1446.287,12855.504 -1561.01,13731.944 l -59.689,456 h -1283.633 c -1268.5,0 -1283.579,-2.5 -1279.156,-216 11.527,-556.34 -732.726,-8520 -796.247,-8520 -39.726,0 -73.508,205.2 -75.071,456 -3.619,580.805 -255.821,3066.864 -321.983,3173.914 -41.925,67.843 -539.175,4678.866 -539.175,4999.806 0,72.22 -397.095,106.28 -1238.991,106.28 h -1238.992 z m 14854.137,-5088 c 35.072,-3049.2 91.295,-6375.6 124.939,-7392 l 61.171,-1848 h 1569.735 c 863.354,0 1574.167,10.8 1579.586,24 5.414,13.2 232.716,2223.766 505.106,4912.369 279.818,2761.907 537.551,4902.469 592.485,4920.777 59.974,19.996 238.146,-1262.984 465.008,-3348.431 202.28,-1859.465 405.603,-3641.814 451.829,-3960.779 46.227,-318.965 132.935,-1022.736 192.684,-1563.936 l 108.635,-984 h 1513.785 1513.783 l 69.277,924.021 c 38.102,508.213 38.194,1944.613 0.192,3192 -103.265,3390.7 -143.392,5949.349 -132.3,8435.979 l 9.956,2232 h -715.337 -715.338 l -62.425,-1224 c -34.334,-673.2 -62.685,-2044.8 -63.001,-3048 -0.864,-2636.572 -117.323,-7152 -184.511,-7152 -31.588,0 -425.566,2559.6 -875.508,5688 l -818.075,5688 h -810.575 -810.575 l -837.49,-5616 c -460.619,-3088.8 -839.736,-5734.8 -842.479,-5880 -2.746,-145.2 -41.42,-264 -85.943,-264 -81.867,0 -116.916,871.554 -306.909,7632 -57.87,2059.2 -124.699,3841.2 -148.508,3960 -40.036,199.77 -94.75,216 -728.133,216 h -684.844 l 63.767,-5544 z m 22569.356,4512 c -2.323,-567.6 -32.949,-3343.2 -68.058,-6168 -35.109,-2824.8 -37.548,-5686.8 -5.424,-6360 l 58.415,-1224 h 705.643 705.643 l 19.126,5880 c 16.589,5099.837 27.31,6251.722 69.251,7440 7.373,208.88 38.823,216 954.224,216 520.631,0 1147.031,27.48 1392,61.05 l 445.399,61.04 v 562.96 562.95 h -2136 -2136 l -4.224,-1032 z m -26573.291,-960 c -66.379,-2012.88 -73.232,-2935.834 -66.647,-8976 l 4.161,-3816 h 720 720 l 15.455,5640 c 8.496,3102 9.254,6244.8 1.68,6984 -7.574,739.2 -14.53,1506 -15.455,1704 l -1.68,360 h -657.494 -657.495 z m 7978.862,-18743.588 c -390.032,-117.441 -925.712,-471.292 -1041.777,-688.162 -69.876,-130.565 -94.615,-2315.089 -78.553,-6936.312 l 23.448,-6745.723 -832.233,-1081.675 C 39926.505,64785.619 39552,64260.42 39552,64213.432 c 0,-81.769 8157.761,-164.829 9888,-100.676 632.754,23.461 1085.479,117.049 2016,416.752 660,212.574 1243.2,430.611 1296,484.527 65.171,66.547 3.514,74.798 -192,25.692 -289.849,-72.799 -9213.405,-182.451 -10254.217,-126.002 l -558.217,30.275 822.217,1096.501 822.217,1096.502 V 74032.501 80928 l -408,-8.256 c -224.4,-4.541 -526.193,-43.84 -670.652,-87.337 z M 49632,79400.236 c -1034.449,-62.152 -1260.668,-130.959 -1575.953,-479.344 L 47874.242,78720 h 539.278 c 1490.474,0 2939.043,-1275.441 2943.836,-2592 3.274,-899.216 -381.629,-1558.839 -1245.356,-2134.22 -387.388,-258.063 1098.278,173.017 1671.915,485.121 690.319,375.588 1368.008,1021.7 1506.424,1436.231 211.515,633.445 155.618,1468.626 -131.026,1957.749 -472.679,806.565 -1374.072,1444.812 -2183.313,1545.932 -184.8,23.092 -789.6,14.732 -1344,-18.577 z m -720,-7781.653 C 48174.432,71234.892 47895.072,70848 48355.593,70848 c 309.512,0 1550.388,-678.686 1836.345,-1004.373 679.261,-773.636 621.517,-1512.807 -187.316,-2397.801 l -486.809,-532.646 465.094,60.912 c 1105.531,144.786 2207.049,846.472 2629.873,1675.278 218.189,427.684 243.434,1110.259 57.52,1555.213 -308.201,737.629 -1681.28,1527.403 -2750.3,1581.932 -488.893,24.937 -707.143,-11.423 -1008,-167.932 z m -946.477,-13866.361 -224.857,-488.222 201.667,-85.876 c 1480.294,-630.356 2486.389,-1363.751 3429.436,-2499.896 1909.297,-2300.243 2174.383,-5510.287 599.255,-7256.622 l -371.024,-411.353 384,69.465 c 485.27,87.785 1335.227,470.191 1752.535,788.487 812.541,619.755 1306.961,1848.833 1308.098,3251.795 0.96,1127.75 -143.1,1705.603 -728.56,2923.35 -438.84,912.779 -574.534,1095.342 -1503.228,2022.435 -1357.505,1355.162 -2337.96,1865.51 -4021.655,2093.355 l -600.81,81.304 z m -7855.742,-7682.354 c -353.22,-280.187 -754.812,-591.45 -892.426,-691.695 l -250.208,-182.264 237.854,-537.832 c 933.187,-2110.099 2863.418,-4168.641 4842.767,-5164.684 1512.836,-761.285 4141.331,-757.767 6234.993,8.343 707.838,259.012 986.626,490.605 442.747,367.797 -1299.259,-293.373 -2928.442,-158.477 -4164.064,344.783 -2219.218,903.872 -4559.3,3450.054 -5376.184,5849.682 -89.872,264 -224.121,487.942 -298.331,497.65 -74.211,9.707 -423.927,-211.594 -777.148,-491.781 z m 10780.707,-8955.389 c -405.908,-76.71 -1099.26,-935.965 -1932.748,-2395.204 -676.868,-1185.038 -3058.718,-5183.531 -3553.345,-5965.121 -127.137,-200.899 -122.798,-234.893 45.953,-360 102.492,-75.985 287.813,-138.154 411.825,-138.154 293.511,0 883.22,305.025 1141.927,590.657 275.946,304.668 1662.302,2555.079 3154.981,5121.343 675.65,1161.6 1396.669,2360.4 1602.263,2664 l 373.81,552 -507.577,-13.073 c -279.167,-7.191 -610.858,-32.592 -737.089,-56.448 z M 37699.23,40962.278 c 42.223,-69.147 418.326,-541.082 835.783,-1048.743 l 759.015,-923.02 38.919,-6127.257 38.92,-6127.258 -913.787,-1104 -913.788,-1104 3070.045,-25.332 c 3285.353,-27.11 3278.531,-27.93 3918.61,470.906 224.704,175.12 179.792,178.426 -2424,178.426 -1459.121,0 -2652.947,26.662 -2652.947,59.249 0,32.587 436.971,604.987 971.047,1272 l 971.045,1212.751 -59.045,710.484 c -32.476,390.767 -59.554,3069.167 -60.172,5952 l -1.123,5241.516 -589.783,744 -589.783,744 h -1237.861 c -995.418,0 -1222.827,-24.624 -1161.092,-125.722 z m 14595.688,-6601.672 c -334.529,-347.068 -450.424,-533.634 -402.539,-648 175.275,-418.618 213.663,-1192.186 229.015,-4614.974 20.72,-4619.33 -46.322,-4425.632 1531.778,-4425.632 917.958,0 1244.618,89.48 1434.058,392.82 104.555,167.422 86.437,193.247 -171.81,244.896 -381.097,76.22 -738.642,445.477 -802.944,829.247 -28.479,169.97 -56.521,1991.281 -62.317,4047.357 -11.565,4102.838 -28.499,4233.44 -586.337,4521.909 -456.029,235.822 -667.018,173.075 -1168.904,-347.623 z M 13595.281,26609.87 c -248.338,-393.391 -2547.344,-4347.616 -5522.3081,-9498.21 -1014.1361,-1755.787 -1821.0013,-3229.365 -1793.0336,-3274.617 65.532,-106.033 1839.833,-1166.074 1944.6695,-1161.826 43.6652,1.766 748.9912,829.796 1567.3912,1840.061 2299.601,2838.716 3789.999,4630.591 4640.34,5578.99 798.222,931.388 1584.827,1980.358 2366.055,2800.144 317.683,314.368 577.605,537.69 577.605,496.272 L 10368,11446.136 c 0,-82.054 1016.715,-694.136 1153.014,-694.136 43.855,0 545.324,810 1114.374,1800 3964.951,6897.994 6468.612,11294.521 6468.612,11359.138 0,41.575 -441.55,342.332 -981.222,668.349 -721.543,435.886 -1020.066,569.13 -1128,503.475 -8563.5121,-10298.962 0,0 -8563.5121,-10298.962 -139.7838,0 -84.9445,179.23 110.5726,361.382 104.4112,97.274 595.4679,930.557 1091.2373,1851.74 752.2792,1397.801 3077.3042,5326.723 5009.2082,8464.764 373.893,607.324 435.394,767.599 339.08,883.651 -141.424,170.405 -909.999,630.463 -1053.255,630.463 -55.935,0 -205.708,-164.758 -332.828,-366.13 z M 81888,26006.887 c -924,-478.425 -1740.435,-928.471 -1814.299,-1000.103 -114.371,-110.914 419.666,-1080.229 3598.932,-6532.324 2053.277,-3521.148 3784.917,-6421.919 3848.09,-6446.161 85.434,-32.784 3385.265,1673.59 3565.731,1843.874 75.144,70.903 -479.791,1007.827 -596.931,1007.827 -72.183,0 -620.734,-255.791 -1219.003,-568.426 l -1087.761,-568.424 -230.688,400.424 C 87157.018,15523.624 85632,18242.182 85632,18279.427 c 0,24.468 475.2,291.386 1056,593.154 1188.526,617.525 1232.224,690.454 801.201,1337.135 -140.14,210.256 -264.775,395.319 -276.966,411.25 -12.192,15.931 -522.109,-219.892 -1133.15,-524.051 -611.04,-304.16 -1129.777,-533.195 -1152.748,-508.967 -128.68,135.72 -2779.01,4851.316 -2787.795,4960.181 -5.952,73.78 448.486,369.611 1044.246,679.783 666.452,346.976 1067.136,613.275 1088.328,723.315 39.985,207.627 -415.066,929.468 -584.478,927.148 -65.25,-0.864 -874.638,-393.064 -1798.638,-871.488 z m -3648,-1936.138 c -1451.867,-654.894 -3552,-1708.354 -3552,-1781.742 0,-114.641 5960.629,-12987.8401 6206.205,-13403.5716 107.637,-182.2165 124.417,-180.4934 720,73.9378 335.388,143.2761 664.574,295.061 731.525,337.2995 137.204,86.5592 283.997,-252.4144 -2209.995,5103.3273 C 78012.326,18959.932 76704,21801.422 76704,21853.218 c 0,22.805 561.6,305.802 1248,628.883 686.4,323.08 1248,625.413 1248,671.85 0,193.045 -492.522,1037.539 -601.618,1031.552 -65.11,-3.573 -226.382,-55.213 -358.382,-114.754 z M 22615.884,22182.824 c -405.234,-57.703 -534.526,-135.101 -912.671,-546.35 -242.305,-263.518 -576.132,-735.927 -741.839,-1049.799 -251.986,-477.301 -2768.089,-7297.657 -3545.821,-9611.602 -264.6,-787.25 -311.16,-1863.083 -102.229,-2362.1564 183.195,-437.5967 844.224,-1000.0428 1586.832,-1350.1777 499.994,-235.7446 795.241,-307.4306 1381.902,-335.5264 659.255,-31.5722 808.364,-5.2464 1281.558,226.2658 389.691,190.6581 609.502,378.6858 807.285,690.5575 335.562,529.1268 1061.135,2173.2972 1351.195,3061.8522 118.877,364.162 559.056,1634.112 978.176,2822.112 1823.061,5167.497 1944.164,5629.117 1706.613,6505.26 -183.386,676.368 -1047.712,1489.507 -1901.831,1789.2 -489.2,171.649 -1316.639,241.888 -1889.17,160.364 z m 1350.947,-1589.868 c 934.729,-277.584 1089.31,-823.427 625.572,-2208.956 -1392.339,-4159.941 -3491.431,-9391.3054 -3914.861,-9756.6294 -103.873,-89.6192 -416.698,-175.0576 -731.194,-199.7035 -507.83,-39.7966 -569.918,-21.921 -816,234.933 -495.613,517.3085 -417.61,937.1029 825.268,4441.3999 1259.455,3551.031 2322.105,6411.192 2533.765,6819.715 217.298,419.405 612.27,812.285 816.611,812.285 98.538,0 395.916,-64.37 660.839,-143.044 z M 29856,19824.566 c 0,-12.567 -755.868,-3236.235 -1679.707,-7163.708 -923.839,-3927.4717 -1679.839,-7256.7469 -1680,-7398.3888 -0.192,-161.7811 62.169,-276.7197 167.707,-309.1416 1363.311,-418.8197 2568.674,-656.9136 3384,-668.4374 808.594,-11.4287 960.425,14.3221 1339.092,227.1098 234.901,132 508.506,379.7624 608.01,550.5831 304.201,522.2271 947.752,3327.9979 965.38,4208.8913 18.984,948.6356 -93.963,1191.7476 -737.684,1587.8326 -539.22,331.786 -500.693,421.475 225.202,524.261 491.614,69.612 1198.553,440.662 1338.784,702.686 51.873,96.926 313.767,1031.462 581.986,2076.746 558.752,2177.53 683.89,3204.411 446.45,3663.568 -238.752,461.695 -894.719,963.016 -1540.53,1177.346 -548.013,181.873 -3418.69,870.976 -3418.69,820.652 z m 1999.073,-1831.74 c 860.738,-288.702 1036.25,-424.134 1182.573,-912.518 96.331,-321.522 52.625,-575.678 -404.859,-2354.304 -658.11,-2558.628 -602.195,-2487.436 -1949.137,-2481.671 -556.774,2.381 -1036.878,28.895 -1066.899,58.917 -30.021,30.02 235.627,1378.07 590.328,2995.666 467.689,2132.872 681.482,2941.084 777.989,2941.084 73.194,0 464.696,-111.228 870.005,-247.174 z M 30245.36,10836.18 c 818.783,-269.76 975.926,-432.167 1028.04,-1062.4757 31.507,-381.0778 -46.577,-846.8421 -309.421,-1845.671 -514.511,-1955.1881 -647.401,-2138.8834 -1596.199,-2206.4527 -547.845,-39.0151 -1335.78,101.2902 -1335.78,237.8582 0,93.1711 1131.982,4780.3272 1198.012,4960.5612 62.265,169.959 306.187,149.823 1015.348,-83.82 z M 72576,21600.789 c -132,-44.028 -996,-322.064 -1920,-617.856 -924,-295.791 -1737.771,-574.437 -1808.381,-619.213 -101.263,-64.214 311.584,-1437.745 1954.497,-6502.565 C 71947.698,10329.519 72949.776,7224 73028.955,6960 c 79.179,-264 186.145,-506.43 237.703,-538.7331 51.557,-32.3032 90.051,-86.3032 85.541,-120 -42.873,-320.3578 82.657,-325.5744 992.99,-41.2647 373.346,116.6011 690.382,218.1722 704.525,225.7133 30.828,16.4388 -628.622,2069.9603 -2672.17,8321.1185 -841.249,2573.358 -1529.544,4715.262 -1529.544,4759.785 0,44.524 583.2,265.187 1296,490.362 712.8,225.177 1296,446.853 1296,492.614 0,226.388 -412.3,1145.433 -510.898,1138.826 -62.206,-4.167 -221.102,-43.602 -353.102,-87.632 z m -7007.028,-2224.553 c -395.466,-104.66 -731.381,-202.645 -746.479,-217.744 -15.098,-15.097 837.664,-3256.008 1895.028,-7202.022 C 67774.884,8010.4556 68640,4768.784 68640,4752.7554 c 0,-33.5305 1472.652,336.5536 1517.965,381.4717 16.481,16.3369 -669.312,2680.2191 -1523.983,5919.7379 C 67779.31,14293.484 66924.621,17538 66734.673,18264 c -189.949,726 -368.157,1316.069 -396.017,1311.264 -27.861,-4.8 -374.218,-94.367 -769.684,-199.028 z M 37779.538,18412.585 C 37735.26,18281.105 37229.086,15160.212 36576,10992 36360.906,9619.2 36010.406,7423.374 35797.111,6112.3864 35583.816,4801.399 35430.398,3673.7946 35456.184,3606.5989 c 25.955,-67.6364 295.28,-151.3681 603.338,-187.5744 306.051,-35.9702 648.976,-88.6216 762.058,-117.003 197.566,-49.5859 217.344,20.8862 506.097,1803.1879 165.274,1020.1348 540.737,3474.7906 834.363,5454.7906 518.153,3494.048 860.884,5676.973 960.87,6120 59.18,262.221 200.133,269.248 1413.048,70.445 488.423,-80.056 1023.303,-167.448 1188.622,-194.207 l 300.58,-48.653 67.87,633.757 c 37.327,348.568 50.776,650.852 29.885,671.743 -20.892,20.892 -856.294,169.218 -1856.449,329.616 -1000.156,160.397 -1959.43,314.77 -2131.72,343.05 -209.14,34.33 -327.198,10.012 -355.208,-73.166 z m 21659.768,-3.542 -704.694,-93.218 53.984,-1837.912 c 29.691,-1010.853 78.194,-4235.513 107.784,-7165.913 29.589,-2930.4 77.117,-5554.8 105.617,-5832 58.601,-569.9678 35.092,-560.28 966.14,-398.1451 l 607.863,105.8549 -0.97,350.1451 C 60574.454,3730.4347 60502.464,5400 60414.961,7248 c -87.504,1848 -162.667,3630 -167.029,3960 -4.358,330 -31.214,600 -59.671,600 -28.457,0 -58.583,1080 -66.947,2400 -8.361,1320 16.774,2400 55.861,2400 96.588,0 433.397,-1108.775 2604.872,-8575.2446 427.284,-1469.1846 881.156,-2999.6137 1008.604,-3400.9536 127.45,-401.3399 213.109,-759.8337 190.353,-796.6527 -36.634,-59.2747 1201.135,162.9871 1265.364,227.2171 36.852,36.8513 -3386.92,11566.8538 -4202.845,14153.6338 -91.397,289.761 -126.962,311.082 -498.966,299.129 -220.305,-7.075 -717.667,-54.819 -1105.249,-106.087 z m -8066.868,-635.763 c -283.559,-100.982 -667.138,-335.179 -852.396,-520.437 -306.027,-306.026 -345.805,-410.186 -434.919,-1138.838 -56.941,-465.579 -67.755,-1199.472 -25.781,-1749.527 l 72.304,-947.523 804.901,42.247 c 442.695,23.235 832.617,69.963 866.494,103.839 33.876,33.877 10.878,464.509 -51.108,956.96 -198.498,1577.005 32.441,2088 943.653,2088 825.244,0 962.434,-234.094 1155.551,-1971.779 148.555,-1336.719 21.407,-1703.49 -1446.374,-4172.222 -1598.658,-2688.859 -1575.48,-2625.246 -1556.497,-4272 16.241,-1408.8104 212.396,-2459.3685 557.562,-2986.1593 211.185,-322.3078 1281.885,-808.1242 1928.012,-874.8104 1073.197,-110.7636 2159.86,391.5065 2538.286,1173.2296 242.594,501.1319 368.217,1865.3453 246.509,2676.9595 -63.505,423.4833 -80.203,442.7806 -383.118,442.7806 -174.196,0 -517.148,-27.4719 -762.118,-61.0487 L 54528,6501.9026 v -982.9513 c 0,-1365.9045 -53.289,-1574.9024 -443.08,-1737.7676 -1095.235,-457.6182 -1599.443,209.2014 -1613.717,2134.1524 -7.171,966.695 -5.136,975.4101 424.681,1824 C 53133.42,8208.3012 53668.723,9132 54085.448,9792 c 1089.104,1724.903 1305.092,2224.271 1399.549,3235.798 43.358,464.311 43.975,1349.766 1.373,1967.678 -66.245,960.798 -116.167,1194.592 -344.769,1614.61 -519.472,954.442 -1045.551,1236.291 -2437.599,1305.958 -637.405,31.9 -928.839,0.672 -1331.562,-142.765 z m -7735.974,-625.783 C 43565.249,16402.25 42624,3056.9001 42624,2792.4428 c 0,-125.6888 78.038,-214.3242 216,-245.3318 226.82,-50.9789 3945.419,-340.6871 3969.733,-309.2736 7.728,9.9894 34.391,349.4344 59.242,754.3221 l 45.182,736.1596 -921.078,60.3557 c -1484.771,97.2928 -1640.949,132.6548 -1641.929,371.7634 -1.468,358.8937 296.879,4421.63 340.297,4633.9677 34.525,168.8456 133.175,211.9949 594.97,260.2377 304.471,31.8075 845.929,9.8706 1203.24,-48.7485 357.312,-58.6192 666.251,-89.3261 686.531,-68.2377 20.281,21.0884 67.279,325.3754 104.44,676.1935 l 67.566,637.8501 -1202.156,34.15 c -661.184,18.781 -1224.514,56.535 -1251.843,83.896 -52.627,52.689 178.477,4590.107 277.394,5446.281 l 58.234,504.028 689.088,-50.468 c 378.999,-27.757 936.069,-70.159 1237.933,-94.226 806.165,-64.274 843.156,-34.314 843.156,682.909 0,579.811 -12.441,613.729 -225.1,613.729 -258.576,0 -3079.353,174.346 -3680.598,227.489 l -401.698,35.506 z" />
    <path
       id="path853"
       style="display:inline;fill:#fdbc1a;stroke-width:96"
       d="m 67769.636,101770.68 c -1059.298,-338.96 -1298.869,-602.35 -1662.817,-1828.104 -135.524,-456.442 -154.819,-1302.941 -154.819,-6792 V 86880 h 288 288 l 1.238,6360 c 1.181,6041.27 10.645,6390 188.932,6958.69 103.232,329.28 253.488,699.11 333.905,821.84 199.778,304.91 780.222,615.43 1456.229,779.04 538.455,130.32 546.501,136.56 179.696,139.27 -211.2,1.53 -624.464,-74.11 -918.364,-168.16 z M 15696,101696.91 c -1024.628,-311.07 -1217.077,-717.86 -1275.86,-2696.91 l -43.485,-1464 h 384 383.999 l 9.513,1397.27 c 8.324,1222.49 35.734,1453.66 219.119,1848 115.283,247.9 213.454,479.53 218.159,514.73 4.704,35.2 47.88,100 95.946,144 51.371,47.02 58.328,20.65 16.88,-64 -43.599,-89.04 -18.371,-80.45 66.101,22.51 75.136,91.58 164.74,138.38 199.12,104 34.378,-34.38 62.507,-12.11 62.507,49.49 0,61.6 32.4,106.88 72,100.63 39.6,-6.24 93.6,-2.68 120,7.88 26.4,10.59 176.82,40.12 334.266,65.63 424.687,68.79 421.533,130.76 -6.269,123.15 -206.8,-3.65 -592,-72.26 -856,-152.4 z m 38369.531,-23.48 c -629.958,-217.58 -1109.516,-668.59 -1327.483,-1248.49 -144.807,-385.25 -173.373,-1010.777 -226.187,-4952.94 -91.346,-6818.288 2.15,-7603.816 997.086,-8376.827 359.068,-278.978 535.234,-277.67 272.476,2.026 -112.225,119.458 -291.267,414.376 -397.873,655.376 -354.717,801.896 -415.706,1983.309 -367.516,7119.085 39.474,4207.024 66.307,4890.285 209.692,5339.64 222.498,697.31 730.045,1225.54 1399.598,1456.65 431.532,148.94 474.649,181.78 238.676,181.78 -158.4,0 -517.711,-79.33 -798.469,-176.3 z M 33504,94282.407 V 86880 h 272.314 272.312 l 77.108,5784 c 111.236,8344 111.371,8870.64 2.266,8875.56 -52.8,2.4 -214.8,36.04 -360,74.8 l -264,70.45 z m 26592,1588.925 c 0,-3185.967 -28.384,-6512.367 -63.076,-7392 L 59969.848,86880 h 332.104 332.102 l 14.569,6216 c 8.016,3418.8 42.382,6639.005 76.376,7156 79.722,1212.46 31.276,1412 -342.828,1412 H 60096 Z m 2227.8,5721.568 c 354.09,-18.41 958.89,-18.54 1344,0 385.11,18.27 95.4,33.34 -643.8,33.49 -739.2,0 -1054.29,-14.8 -700.2,-33.22 z M 74208,94717.399 c 0,-3820.63 -27.472,-7147.03 -61.048,-7392 l -61.05,-445.399 h 301.05 301.048 v 7392 7392 h -240 -240 z M 22188.614,94728 c -334.739,-3762 -632.12,-7070.288 -660.846,-7351.75 l -52.229,-511.749 276.176,31.749 276.174,31.75 257.235,2928 c 141.48,1610.4 412.655,4699.2 602.611,6864 189.957,2164.8 370.78,4141.2 401.829,4392 55.81,450.81 53.329,456 -217.94,456 h -274.393 z m 4853.725,6336 c -30.853,-277.2 -128.754,-1346.4 -217.559,-2376 -143.643,-1665.398 -146.72,-2025.629 -27.879,-3264 l 133.585,-1392 313.662,3504 c 377.912,4221.75 374.096,4032 81.069,4032 -202.455,0 -232.8,-54.07 -282.878,-504 z m 10527.494,-2400 c 33.676,-1597.2 89.333,-4880.4 123.681,-7296 l 62.45,-4392 h 274.018 274.018 v 753.516 c 0,414.433 16.56,1073.233 36.801,1464 30.959,597.7 25.08,634.288 -37.034,230.484 -40.706,-264.632 -67.987,1092.19 -60.801,3024 7.171,1927.2 -12.877,3309.6 -44.548,3072 -31.669,-237.6 -64.069,1026 -72,2808 l -14.418,3240 h -301.698 -301.699 z M 41184,101526.34 c 0,-22.91 -221.742,-1502.51 -492.759,-3288.004 -499.634,-3291.625 -643.606,-4971.707 -510.975,-5962.807 66.51,-497 128.933,-175.438 676.418,3484.471 331.73,2217.6 663.963,4431.6 738.295,4920 l 135.148,888 h -273.064 c -150.184,0 -273.063,-18.75 -273.063,-41.66 z M 44712.983,98280 c -50.047,-3065.088 -39.201,-3385.625 159.99,-4728 l 213.677,-1440 62.299,1584 c 34.264,871.2 81.502,2998.8 104.972,4728 l 42.674,3144 h -264.963 -264.962 z m -26779.044,2018.84 c 130.154,-252.85 162.061,-588.891 162.061,-1706.84 0,-1318.33 -13.732,-1419.965 -259.457,-1920.278 -142.701,-290.564 -747.942,-1219.361 -1344.98,-2064.005 C 15259.987,92865.376 14870.439,92257.051 14678.244,91776 14584.152,91540.497 14544,91009.3 14544,90000 c 0,-1408.927 6.211,-1452.339 288,-2011.83 291.05,-577.885 799.544,-1077.573 1152,-1132.049 105.6,-16.321 248.874,-65.151 318.387,-108.512 280.875,-175.199 148.373,10.555 -264.303,370.524 -338.995,295.698 -383.799,317.412 -198.084,96 l 240,-286.133 -261.041,229.955 c -143.573,126.475 -242.372,260.161 -219.555,297.081 22.818,36.92 -50.185,300.64 -162.229,586.046 -171.132,435.917 -205.112,733.889 -212.446,1862.918 l -8.726,1344 358.139,750.046 c 196.977,412.526 740.328,1298.126 1207.449,1968 2013.152,2886.962 2040.77,2948.978 2044.414,4590.232 2.496,1125.898 -110.982,1593.292 -451.132,1858.072 -175.121,136.31 -176.034,134.26 -21.552,-48.18 88.724,-104.79 210.304,-319.36 270.174,-476.836 157.237,-413.558 133.377,-2304.998 -36.122,-2863.449 -140.951,-464.391 -674.385,-1323.099 -1909.998,-3074.666 -366.564,-519.63 -769.21,-1124.43 -894.77,-1344 -125.559,-219.57 -228.81,-346.888 -229.445,-282.927 -0.672,63.96 244.761,474.36 545.328,912 1839.782,2678.81 2308.953,3428.681 2419.235,3866.652 145.496,577.814 154.793,2404.954 14.121,2774.957 -139.552,367.049 -400.292,676.219 -597.903,708.939 -152.081,25.19 -152.081,7.49 0,-288 z M 56160,100571.72 c 0,-19.95 64.8,-191.36 144,-380.92 98.472,-235.667 144,-679.485 144,-1403.718 V 97728 h 301.595 301.595 l -49.137,1036.675 c -51.58,1088.237 -199.153,1557.385 -548.736,1744.485 -192.313,102.92 -293.317,124.46 -293.317,62.56 z m 13590.449,-230.32 c 109.253,-209.43 136.485,-854.786 136.96,-3245.685 0.288,-1641.363 29.203,-4611.363 64.173,-6600.004 L 70015.164,86880 h 224.418 224.418 l -5.414,6408 c -3.975,4704.259 -35.883,6495.658 -120,6737.69 -78.658,226.33 -210.194,368.49 -419.542,453.41 l -304.959,123.71 136.368,-261.41 z m 8198.18,-285.4 c 448.51,-609.158 447.47,-4249.433 -1.42,-4975.753 -111.578,-180.536 -210.145,-328.898 -219.039,-329.693 -8.889,-0.768 -188.97,-67.123 -400.17,-147.397 l -384,-145.953 511.151,37.993 c 1114.984,82.875 1283.835,471.395 1300.67,2992.803 13.302,1992.192 -33.305,2205.542 -574.849,2631.52 -355.322,279.5 -463.187,250.01 -232.343,-63.52 z m -48836.42,-3624 c 1.066,-211.2 20.726,-286.301 43.688,-166.877 22.962,119.415 22.091,292.215 -1.939,384 -24.028,91.776 -42.816,-5.952 -41.751,-217.123 z m 13531.152,-2112 c -118.565,-1270.371 -60.848,-2096.38 358.87,-5136 54.681,-396 125.234,-1054.8 156.785,-1464 56.831,-737.07 59.867,-744 325.983,-744 209.413,0 278.607,52.257 313.942,237.095 27.33,142.969 7.335,213.615 -50.373,177.951 -61.14,-37.786 -78.272,122.197 -47.443,443.034 30.296,315.301 15.93,454.495 -38.607,374.047 -55.06,-81.219 -76.546,88.277 -58.689,462.98 15.494,325.107 -0.768,573.11 -36.093,551.114 -79.844,-49.685 -217.455,1071.228 -221.056,1800.612 -1.478,298.558 -29.171,499.969 -61.549,447.58 -83.559,-135.2 -206.919,1411.998 -133.412,1673.27 41.739,148.359 32.823,175.932 -28.379,87.768 -59.696,-85.993 -112.176,152.358 -158.529,720 -136.384,1670.147 -193.824,1736.004 -321.45,368.549 z m -17847.404,-480 c -110.455,-1286.316 -102.201,-1463.487 192.318,-4128 l 307.725,-2784 269.649,-30.922 c 256.393,-29.402 267.013,-15.243 216.047,288 -29.482,175.407 -227.3,1960.522 -439.599,3966.922 -212.298,2006.4 -396.061,3734.4 -408.364,3840 -12.302,105.6 -74.301,-412.8 -137.776,-1152 z m 4260.829,1104 c -31.857,-79.2 -91.867,-511.2 -133.354,-960 -61.847,-669.044 -11.381,-1377.888 280.226,-3936 195.611,-1716 357.611,-3130.8 360,-3144 2.39,-13.2 112.342,-24 244.342,-24 186.398,0 238.862,48.241 234.905,216 -14.874,630.583 -937.08,7969.921 -986.119,7848 z m 48703.729,-2064.548 c 220.601,-234.819 226.143,-284.545 232.733,-2088 7.546,-2065.647 -34.541,-2246.209 -617.248,-2647.917 l -336,-231.633 415.452,51.913 c 915.709,114.424 1097.702,561.302 1090.302,2677.2 -6.057,1733.28 -71.385,2015.339 -537.469,2320.729 -362.457,237.491 -504.019,190.473 -247.77,-82.292 z M 56351.464,89736 c -0.672,-1037.494 -119.165,-1544.429 -434.999,-1860.262 L 55688.727,87648 h 275.103 c 341.91,0 724.235,425.468 870.529,968.761 56.875,211.216 91.037,749.252 75.918,1195.635 L 56882.786,90624 H 56617.393 56352 l -0.576,-888 z m -38223.991,75.432 c 35.659,-812.415 -118.776,-1708.868 -323.69,-1878.932 -75.718,-62.841 -113.705,-153.03 -84.415,-200.421 98.686,-159.677 620.195,-44.661 835.27,184.215 195.614,208.165 214.444,328.231 226.367,1443.378 l 13.005,1216.328 -62.258,-1222.586 c -57.744,-1133.952 -79.307,-1238.347 -297.441,-1440 l -235.184,-217.414 188.437,226.011 c 160.022,191.932 193.543,405.444 222.308,1416 l 33.87,1189.989 -273.87,0.192 -273.872,0.192 31.473,-717.015 z m 58506.354,-1941.959 c 93.405,-24.34 223.005,-22.74 288,3.562 64.995,26.297 -11.427,46.211 -169.827,44.255 -158.4,-1.959 -211.578,-23.472 -118.173,-47.812 z M 46320,81514.61 c -1538.242,-49.428 -1876.64,-87.241 -2160,-241.363 -184.8,-100.514 -388.626,-251.714 -452.947,-336 -89.327,-117.054 -117.667,-1764.77 -120,-6976.746 L 43584,67137.003 42762.359,66040.501 41940.717,64944 l 4445.642,-28.377 c 4787.27,-30.557 5790.959,28.421 7004.901,411.625 1798.543,567.744 2686.222,1131.585 3225.348,2048.694 232.662,395.783 262.936,543.261 259.483,1264.058 -4.675,974.753 -221.619,1642.227 -817.524,2515.227 -547.467,802.039 -666.567,1124.645 -666.567,1805.514 0,701.935 172.764,1075.76 858.089,1856.729 546.727,623.029 994.478,1437.706 1167.229,2123.762 215.916,857.485 -235.308,2117.759 -1037.311,2897.217 -551.859,536.345 -1919.06,1208.445 -3004.007,1476.733 -685.874,169.606 -1168.106,206.269 -3024,229.911 -1214.4,15.47 -3028.8,1.757 -4032,-30.483 z m 5531.75,-2285.622 c 567.503,-254.951 1177.554,-806.641 1499.563,-1356.107 286.644,-489.123 342.541,-1324.304 131.026,-1957.749 -237.625,-711.643 -1413.273,-1536.57 -2696.721,-1892.231 -2034.312,-563.737 -3194.893,132.439 -3476.943,2085.65 -134.846,933.82 -40.879,1692.26 289.692,2338.213 448.47,876.337 904.297,1042.489 2753.633,1003.718 828.372,-17.366 1151.653,-65.111 1499.75,-221.494 z m -487.202,-7767.312 C 52519.827,70915.083 52992,70332.961 52992,69455.259 c 0,-580.063 -264.624,-1074.137 -863.864,-1612.905 -1190.702,-1070.544 -3143.435,-1211.054 -4062.192,-292.299 -433.109,433.11 -580.904,911.125 -574.974,1859.65 6.22,995.529 261.717,1576.831 870.83,1981.314 617.849,410.285 631.969,413.814 1558.2,389.478 686.19,-18.029 915.99,-68.748 1444.548,-318.821 z M 49152,61466.915 c -824.987,-94.184 -1609.351,-349.999 -2613.851,-852.49 -595.181,-297.733 -1116.696,-600.98 -1158.919,-673.88 -42.224,-72.899 -134.802,-132.545 -205.729,-132.545 -70.928,0 -152.003,-60.05 -180.167,-133.445 -69.865,-182.067 -543.324,-410.075 -1454.401,-700.411 -1299.165,-414.011 -4085.817,-1663.074 -4162.933,-1865.956 -17.6,-46.304 -93.2,-84.188 -168,-84.188 -74.8,0 -136,-43.2 -136,-96 0,-52.8 -60.179,-96 -133.729,-96 -73.551,0 -158.595,-64.8 -188.987,-144 -30.392,-79.2 -111.023,-144 -179.179,-144 -68.156,0 -177.878,-86.4 -243.826,-192 -65.948,-105.6 -162.853,-192 -215.343,-192 -52.49,0 -251.55,-172.8 -442.356,-384 -190.807,-211.2 -406.695,-384 -479.751,-384 -73.056,0 -132.829,-39.3 -132.829,-87.335 0,-106.141 -5584.377,-5189.497 -5883.809,-5355.925 -536.054,-297.942 -948.377,-146.893 -1940.191,710.761 -1195.935,1034.166 -10207.027,8559.409 -10813.237,9030.232 -399.551,310.317 -705.476,457.823 -1168.622,563.467 -399.747,91.183 -725.777,234.295 -898.564,394.428 -855.511,792.862 -4203.693,1040.981 -6084.187,450.874 -1592.8619,-499.847 -2822.3572,-1187.268 -3768.9326,-2107.243 -320.4318,-311.427 -452.5102,-511.964 -432,-655.915 45.9281,-322.345 360.7449,-295.381 941.5426,80.644 1437.173,930.463 3350.765,970.319 4889.657,101.838 1124.541,-634.638 1749.451,-832.738 2817.097,-893.033 l 938.754,-53.016 885.246,-876.022 c 1045.145,-1034.255 6488.492,-6228.207 8610.737,-8216.221 817.019,-765.343 2182.447,-2065.737 3034.285,-2889.764 1796.441,-1737.79 2300.944,-2055.288 3256.224,-2049.233 716.999,4.541 1204.428,166.73 1553.929,517.048 148.539,148.887 919.957,826.838 1714.262,1506.559 1658.352,1419.122 3619.191,3141.014 3975.921,3491.418 134.139,131.76 626.863,533.726 1094.943,893.258 689.025,529.24 906.725,648.125 1143.455,624.438 256.743,-25.69 312.263,-87.793 455.277,-509.258 812.941,-2395.771 3156.278,-4945.743 5375.657,-5849.682 807.41,-328.853 2182.216,-566.875 2819.129,-488.08 1566.18,193.758 2807.077,558.733 4091.427,1203.376 962.055,482.876 1709.52,1046.823 2672.721,2016.516 687.157,691.79 872.916,954.487 1319.153,1865.521 716.226,1462.242 1019.004,2661.233 1031.411,4084.349 10.881,1248.103 -164.37,2030.766 -735.197,3283.363 -1209.705,2654.522 -3560.567,4749.551 -5844.041,5208.059 -680.35,136.61 -2117.26,175.251 -2956.047,79.493 z m 748.846,-3492.882 c 1209.962,-304.986 1959.647,-765.871 3103.999,-1908.248 928.694,-927.093 1064.388,-1109.656 1503.228,-2022.435 584.787,-1216.347 729.051,-1794.116 729.936,-2923.35 1.968,-2506.627 -1391.589,-3977.964 -3926.009,-4145.144 -1677.612,-110.661 -2938.24,448.506 -4465.168,1980.576 -1455.91,1460.814 -2045.471,2453.943 -2453.603,4133.149 l -166.07,683.275 1592.381,1602.388 c 1352.224,1360.721 1638.343,1700.606 1897.133,2253.628 l 304.751,651.238 589.289,-64.209 c 324.107,-35.315 904.668,-143.706 1290.133,-240.868 z m 24187.096,2653.657 c -831.631,-63.693 -1539.102,-142.85 -1572.157,-175.904 -84.666,-84.668 589.238,-867.563 1453.266,-1688.304 1206.637,-1146.189 2651.455,-1975.691 4233.026,-2430.278 643.851,-185.061 981.877,-217.554 2245.923,-215.895 1318.923,1.728 1550.275,26.699 2036.064,219.747 301.435,119.787 647.035,298.966 768,398.176 195.438,160.289 203.896,196.369 75.936,323.908 -192.651,192.015 -1364.222,372.392 -2544,391.678 -1059.533,17.319 -1260.982,87.826 -1951.739,683.113 -529.461,456.283 -633.379,717.826 -454.918,1144.944 170.666,408.462 587.369,509.292 1395.768,337.737 308.516,-65.471 608.177,-89.843 665.913,-54.159 193.447,119.556 107.652,349.004 -192.196,514.012 -163.445,89.944 -450.185,282.335 -637.201,427.535 l -340.028,264 -1834.799,-12.252 c -1009.14,-6.739 -2515.226,-64.364 -3346.858,-128.058 z M 10791.992,57783.641 C 10643.118,57628.25 10422.618,57504 10295.728,57504 c -524.7117,0 -838.9867,-487.124 -403.457,-625.356 107.949,-34.261 825.022,-31.151 1593.496,6.912 l 1397.226,69.207 -465.497,290.507 c -256.022,159.779 -666.218,409.196 -911.544,554.259 l -446.047,263.752 -267.913,-279.641 z M 54557.998,41860.255 52811.995,41808 l -292.996,-281.002 c -161.148,-154.55 -273.8,-300.196 -250.338,-323.659 23.462,-23.461 -121.994,-285.811 -323.234,-582.998 C 51744.186,40323.154 51026.731,39129.6 50351.081,37968 48858.402,35401.736 47472.046,33151.325 47196.1,32846.657 46885.328,32503.54 46326.289,32256 45862.173,32256 c -895.196,0 -966.816,305.002 -980.591,4176 -5.827,1636.8 20.432,3093.443 58.347,3236.983 37.916,143.541 345.941,618.741 684.499,1056 338.559,437.26 646.912,849.017 685.232,915.017 55.159,95.004 -603.783,120 -3163.388,120 h -3233.06 l 247.242,-324.152 c 135.984,-178.283 229.55,-341.843 207.927,-363.467 -21.624,-21.624 217.541,-361.756 531.477,-755.849 l 570.793,-716.532 0.672,-5241.516 c 0.384,-2882.833 27.246,-5561.233 59.722,-5952 l 59.047,-710.484 -971.045,-1212.751 C 40084.971,25816.236 39648,25239.925 39648,25202.559 c 0,-37.366 1393.2,-51.476 3096,-31.354 3017.298,35.654 3106.981,42.263 3528,259.956 667.251,345.011 1094.221,947.35 2640.275,3724.716 2197.974,3948.489 2601.088,4609.403 3154.248,5171.466 458.885,466.271 554.537,520.657 915.711,520.657 221.816,0 524.93,-62.897 673.588,-139.771 554.716,-286.855 568.499,-395.817 601.782,-4757.26 25.36,-3323.021 53.986,-4018.567 172.766,-4197.812 165.704,-250.055 706.281,-540.424 753.63,-404.809 17.6,50.408 410.892,91.652 873.982,91.652 754.602,0 867.661,23.798 1089.424,229.322 136.094,126.128 291.326,396.128 344.959,600 60.945,231.667 105.494,3098.008 118.789,7643.232 l 21.273,7272.554 -232.214,251.818 c -243.687,264.262 -763.662,528.932 -973.129,495.329 -67.697,-10.86 -908.785,-43.26 -1869.086,-72 z M 12419.749,25893.11 C 12067.804,25300.7 10712.709,22958.4 9408.4268,20688 8104.1447,18417.6 6706.4788,16005.045 6302.5024,15326.767 c -403.9763,-678.279 -733.2752,-1261.479 -731.7754,-1296 2.9451,-67.789 1647.5937,-1070.767 1755.8054,-1070.767 206.2081,0 -2.0256,216.524 -460.5038,478.839 -289.2843,165.512 -550.9392,341.329 -581.4555,390.706 -52.509,84.961 1215.8222,2319.369 5493.6669,9678.142 1024.312,1762.028 1849.645,3211.281 1834.073,3220.562 -15.572,9.283 -146.292,67.522 -290.488,129.423 -261.193,112.127 -264.572,108.514 -902.076,-964.562 z m 68795.398,109.119 c -923.531,-478.433 -1715.229,-903.699 -1759.328,-945.035 -59.008,-55.31 5938.713,-10518.563 7223.434,-12601.559 146.032,-236.769 181.999,-250.511 344.567,-131.639 177.681,129.925 177.707,138.547 1.238,408.366 -99.151,151.6 -226.351,322.055 -282.666,378.787 -56.317,56.732 -1631.379,2727.404 -3500.14,5934.826 -2879.343,4941.921 -3377.34,5851.205 -3264,5959.676 73.561,70.4 781.746,463.291 1573.746,873.091 1668.23,863.183 1548.149,787.509 1432.746,902.912 -56.604,56.604 -718.808,-235.065 -1769.599,-779.425 z M 15385.793,24120.435 C 14915.469,23552.596 13648.061,21991.501 12569.329,20651.336 11490.598,19311.171 10378.934,17933.851 10098.966,17590.625 9615.2486,16997.616 8946.3106,15840 9087.3522,15840 c 36.3639,0 -37.8867,-118.8 -165.001,-264 -127.1145,-145.2 -22.076,-69.6 233.4188,168 799.1324,743.161 6517.615,7690.058 6468.086,7857.525 -24.782,83.797 862.889,1262.475 950.779,1262.475 27.444,0 -180.623,-289.91 -462.369,-644.245 -281.746,-354.335 -466.76,-616.236 -411.142,-582 55.619,34.234 303.239,319.503 550.266,633.93 450.702,573.673 455.952,616.138 101.074,817.803 -67.124,38.143 -452.043,-347.725 -966.671,-969.053 z M 76608,23630.315 c -1145.106,-534.308 -2411.185,-1156.084 -2480.483,-1218.175 -43.577,-39.046 307.127,-809.936 3251.931,-7148.14 1386.03,-2983.2 2612.119,-5630.2896 2724.643,-5882.4218 180.914,-405.3761 223.636,-444.2559 369.2,-336 150.98,112.283 98.106,265.5325 -638.427,1850.4218 C 76088.717,18957.044 74592,22209.485 74592,22289.007 c 0,51.263 758.051,458.015 1684.557,903.893 926.507,445.878 1658.357,853.08 1626.334,904.893 -73.639,119.152 85.404,176.568 -1294.891,-467.478 z M 16608,22490.071 c -184.8,-190.417 -282,-314.831 -216,-276.476 74.507,43.298 120,12.996 120,-79.929 0,-82.316 -32.4,-140.059 -72,-128.318 -154.179,45.717 -624.684,-359.979 -1014.069,-874.387 -224.384,-296.429 -835.757,-1273.361 -1358.607,-2170.961 -522.849,-897.6 -1703.147,-2882.081 -2622.884,-4409.958 -919.736,-1527.877 -1691.8787,-2829.115 -1715.872,-2891.639 -49.6262,-129.324 812.204,-669.631 910.817,-571.017 35.372,35.372 -11.219,119.543 -103.536,187.046 -92.317,67.504 -167.849,151.723 -167.849,187.154 0,35.431 986.685,1715.468 2192.633,3733.417 2822.958,4723.737 4522.723,7670.02 4411.773,7647.138 -15.623,-3.225 -179.606,-161.653 -364.406,-352.07 z m -760.047,-1577.123 c -161.783,-282.122 -294.556,-476.115 -295.053,-431.096 -1.248,113.046 513.708,1019.541 555.455,977.793 18.562,-18.562 -98.618,-264.576 -260.402,-546.697 z M 21552,22126.727 c -440.78,-220.528 -1034.021,-936.871 -1412.27,-1705.328 -285.402,-579.822 -1272.548,-3271.247 -3317.624,-9045.399 -441.152,-1245.567 -484.686,-2196.3749 -126.914,-2771.9127 228.372,-367.3769 1304.843,-1157.0631 1452.698,-1065.6832 41.641,25.7357 97.761,2.2426 124.711,-52.2059 30.461,-61.5443 41.735,-59.0466 29.799,6.6019 -10.56,58.08 -42.208,91.56 -70.331,74.4 -126.419,-77.1413 -947.132,996.8571 -1007.447,1318.3613 -169.165,901.7337 -3.408,1616.9106 1050.045,4530.4546 558.412,1544.41 993.745,2864.175 967.406,2932.813 -63.159,164.59 1141.502,3507.313 1527.249,4237.846 165.735,313.872 499.586,786.281 741.891,1049.799 379.274,412.477 506.228,488.217 912.671,544.498 l 472.116,65.374 -528,12.236 c -301.632,6.989 -651.473,-49.541 -816,-131.855 z m -3368.31,-8696.731 c -827.923,-2289.871 -1029.711,-2951.782 -1070.134,-3510.2882 -70.817,-978.4586 18.78,-1321.5057 480.658,-1840.326 L 17992.493,7632 l -407.051,382.221 c -498.287,467.8929 -626.986,865.7445 -578.503,1788.3467 31.983,608.6093 185.632,1122.4333 1081.135,3615.4683 574.12,1598.32 1060.073,2889.818 1079.894,2869.996 19.822,-19.822 -423.103,-1305.938 -984.278,-2858.036 z M 70128,21058.207 c -1056,-348.676 -1935.272,-647.484 -1953.937,-664.018 -18.664,-16.534 97.538,-432.391 258.229,-924.126 160.69,-491.735 1185.72,-3658.863 2277.844,-7038.063 1092.125,-3379.2 1998.667,-6158.7444 2014.537,-6176.7654 15.872,-18.021 113.423,-5.9251 216.781,26.8792 226.034,71.7403 486.024,-808.3798 -2281.455,7723.2022 -1604.002,4944.82 -2009.043,6294.564 -1908.119,6358.566 70.466,44.686 873.32,323.505 1784.12,619.595 910.8,296.091 1656,577.537 1656,625.436 0,130.736 -0.96,130.489 -2064,-550.706 z m -46195.687,-611.233 c 204.18,-291.507 219.498,-1231.98 29.834,-1831.717 C 23888.529,18382.466 23439.941,17133.6 22965.286,15840 21279.507,11245.665 20403.797,9167.813 19940.963,8664 l -198.431,-216 h 288 c 406.471,0 625.908,276.3874 1144.338,1441.3315 764.501,1717.8765 2402.234,6030.5345 3216.74,8470.6735 422.158,1264.719 355.784,1749.033 -291.512,2127.074 l -331.47,193.589 z m 61589.32,-279.901 c -504.263,-249.2 -711.53,-399.866 -661.483,-480.844 53.569,-86.677 279.987,-13.801 854.368,274.992 429.815,216.107 781.482,435.64 781.482,487.85 0,157.559 -204.92,98.253 -974.367,-281.998 z M 28618.13,17626.641 C 28338.9,16406.388 27680.742,13593.6 27155.555,11376 25855.284,5885.62 25737.946,5297.0715 25920.591,5181.603 26158.789,5031.0142 26304,5076.037 26304,5300.4794 c 0,116.8637 730.84,3324.4637 1624.09,7128.0006 893.248,3803.536 1638.448,6997.935 1656,7098.664 22.41,128.622 -41.055,203.239 -213.181,250.641 l -245.091,67.496 z m 36212.613,1780.075 c -326.291,-87.294 -618.034,-184.058 -648.316,-215.032 -30.282,-30.973 564.976,-2363.773 1322.795,-5184 757.819,-2820.226 1609.807,-6002.484 1893.307,-7071.684 417.88,-1576.0065 546.754,-1944 680.797,-1944 90.938,0 188.286,37.1239 216.329,82.4975 28.042,45.3735 -790.208,3222.8614 -1818.334,7061.0845 C 65449.194,15973.804 64608,19129.171 64608,19147.509 c 0,18.337 216,85.159 480,148.491 264,63.332 480,154.042 480,201.575 0,105.793 -4.08,105.291 -737.257,-90.859 z M 36960,18565.059 c 0,-32.418 -107.219,-692.475 -238.262,-1466.793 -370.095,-2186.823 -1982.201,-12386.3409 -2040.272,-12908.4471 -53.497,-480.9883 33.838,-633.1173 365.322,-636.3489 113.257,-1.104 178.4,171.7669 261.719,694.53 61.012,382.8 522.979,3288 1026.594,6456 964.119,6064.812 1173.275,7351.635 1252.185,7704 43.052,192.244 11.217,216 -289.457,216 -185.806,0 -337.829,-26.524 -337.829,-58.941 z m 21988.783,-99.995 c -446.17,-74.524 -830.672,-154.952 -854.449,-178.73 -50.506,-50.506 177.567,-15053.1237 229.642,-15105.8632 19.295,-19.5411 145.675,-7.7722 280.842,26.1524 191.877,48.158 236.1,108.5677 201.701,275.5292 -24.232,117.6162 -69.453,2697.8476 -100.491,5733.8476 -31.038,3036 -80.588,6326.99 -110.111,7313.312 l -53.676,1793.312 683.01,67.302 c 375.655,37.017 706.2,104.826 734.545,150.688 61.846,100.069 23.033,97.169 -1011.013,-75.55 z m -7902.274,-521.517 c -781.513,-184.122 -1395.901,-634.819 -1600.114,-1173.797 -108.064,-285.211 -140.582,-2553.472 -41.887,-2921.75 39.295,-146.629 130.645,-216 284.441,-216 h 226.555 l -55.42,1032 c -31.21,581.154 -10.158,1303.006 48.189,1652.341 135.558,811.621 494.632,1190.986 1420.085,1500.335 471.554,157.626 574.779,218.16 367.642,215.598 -158.4,-1.958 -450.671,-41.886 -649.491,-88.727 z m -18850.621,-322.535 c 249.095,-380.167 187.112,-967.905 -314.434,-2981.57 -394.93,-1585.613 -514.489,-1936.193 -744,-2181.633 l -273.454,-292.433 336,61.21 c 566.189,103.142 687.064,346.63 1240.787,2499.418 457.484,1778.626 501.19,2032.782 404.859,2354.304 -111.613,372.533 -313.83,603.504 -625.758,714.735 -170.737,60.884 -171.986,51.825 -24,-174.031 z M 42450.688,10488 c -277.612,-3999.6 -517.502,-7390.8 -533.092,-7536 -24.953,-232.4234 4.119,-264 243.03,-264 194.131,0 271.613,47.8186 272.213,168 0.48,92.4 235.047,3449.4031 521.301,7460.006 286.254,4010.605 499.327,7326.205 473.495,7368 -25.831,41.797 -142.643,75.994 -259.582,75.994 h -212.616 z m 10397.211,5952 c 157.195,-385.86 349.669,-2041.716 311.384,-2678.846 -49.684,-826.832 -346.197,-1479.405 -1519.959,-3345.154 -431.822,-686.4 -960.834,-1636.8 -1175.582,-2112 -382.977,-847.4604 -390.319,-884.215 -383.567,-1920 11.096,-1701.969 390.273,-2900.0137 1062.394,-3356.732 468.596,-318.4193 556.1,-308.7064 222.677,24.7168 -694.874,694.874 -1002.242,3693.1311 -508.889,4964.0152 102.484,264 712.866,1365.6 1356.406,2448 1467.781,2468.732 1594.929,2835.503 1446.374,4172.221 -140.717,1266.19 -244.642,1645.928 -499.251,1824.264 -277.78,194.565 -396.422,186.774 -311.987,-20.485 z m 7429.17,-1320 c -21.354,-422.4 -9.504,-832.8 26.333,-912 35.837,-79.2 726.631,-2401.2 1535.096,-5160 1199.951,-4094.6989 1500.082,-5016 1634.054,-5016 262.789,0 273.565,120.6264 69.242,775.0703 C 63435.858,5146.3816 62959.691,6763.2 62483.645,8400 c -476.047,1636.8 -1120.372,3818.4 -1431.835,4848 -311.463,1029.6 -604.46,2044.8 -651.105,2256 -78.657,356.138 -87.627,328.276 -123.636,-384 z M 88848,14469.551 c -422.4,-223.053 -779.817,-410.168 -794.26,-415.811 -14.442,-5.644 0.864,-80.948 34.02,-167.345 51.602,-134.472 183.797,-93.29 918.32,286.076 768.342,396.834 970.841,592.146 699.92,675.08 -49.5,15.153 -435.6,-154.947 -858,-378 z M 30336,10715.736 c 0,-16.63 70.436,-171.43 156.525,-343.999 193.874,-388.6298 141.644,-983.7668 -210.953,-2403.737 -317.235,-1277.5583 -558.527,-1839.7035 -871.066,-2029.3404 -362.781,-220.1227 -50.499,-306.6082 359.804,-99.6466 444.584,224.2529 596.888,540.9537 1000.765,2080.987 348.911,1330.4414 357.032,1423.4866 219.929,2520 -8.256,66 -36.229,98.774 -62.171,72.833 -25.942,-25.942 -94.342,-11.048 -152,33.097 -119.669,91.624 -440.833,215.334 -440.833,169.806 z M 18694.4,7284.0876 c 65.12,-65.6082 142.583,-95.1045 172.14,-65.5473 29.558,29.5571 -23.722,83.2366 -118.4,119.2876 -136.819,52.0977 -147.845,41.0708 -53.74,-53.7403 z m 35269.194,-729.4637 c -220.924,-41.8129 -226.308,-63.7199 -164.332,-668.637 89.268,-871.3027 -22.442,-1741.1669 -253.244,-1971.9687 -256.994,-256.9937 -145.843,-319.4087 280.108,-157.2905 447.246,170.2229 488.029,307.5962 500.305,1685.1899 l 9.569,1073.9176 312,38.7188 c 271.187,33.6539 261.768,39.0184 -72,41.009 -211.2,1.2595 -486.783,-17.1631 -612.406,-40.9391 z" />
    <path
       style="fill:#01b8f8;stroke-width:96"
       d="m 19916.227,63355.86 c -931.059,-121.719 -3653.143,-753.988 -4398.792,-1021.727 -899.141,-322.85 -1809.588,-783.858 -1747.251,-884.723 27.236,-44.068 320.487,-110.394 651.668,-147.392 331.181,-36.996 904.548,-166.662 1274.148,-288.143 504.95,-165.969 994.167,-235.347 1968,-279.087 2201.527,-98.886 5899.39,-710.157 8736,-1444.096 3127.148,-809.111 7425.318,-2378.377 8830.934,-3224.184 343.787,-206.867 791.274,-531.312 994.417,-720.987 l 369.352,-344.866 524.139,459.672 c 1139.63,999.462 1941.006,1584.836 2721.158,1987.699 1103.355,569.764 2664.286,1227.592 3650.933,1538.623 563.78,177.728 974.952,383.195 1341.067,670.147 686.772,538.277 2526.372,1457.915 3289.164,1644.294 981.959,239.929 3043.834,291.22 4007.917,99.7 933.224,-185.39 2060.206,-681.441 2654.453,-1168.382 296.08,-242.615 797.152,-466.047 1828.168,-815.194 2181.382,-738.712 3088.43,-1223.498 4022.078,-2149.665 764.472,-758.347 963.007,-1092.324 1143.375,-1923.39 l 62.47,-287.84 205.057,287.84 c 1234.338,1732.655 3580.274,3253.359 6499.318,4213.046 2588.666,851.069 4298.047,1091.551 8352,1174.987 2177.151,44.81 2559.526,29.246 3456,-140.662 554.4,-105.076 1027.028,-172.127 1050.286,-149.003 110.742,110.109 -345.375,357.068 -1571.215,850.715 -2300.023,926.222 -4585.925,1554.673 -7063.071,1941.809 -1525.053,238.34 -4689.496,237.926 -5879.836,-0.768 -2012.655,-403.592 -3543.345,-992.583 -5939.091,-2285.286 -771.609,-416.349 -1484.119,-756.997 -1583.355,-756.997 -99.235,0 -655.918,234.007 -1237.073,520.015 -1026.926,505.389 -3027.507,1246.213 -4152.836,1537.815 -1722.397,446.318 -5189.707,555.486 -7879.153,248.074 -2116.995,-241.979 -5465.428,-970.426 -7596.195,-1652.54 -1199.759,-384.075 -4301.129,-1548.583 -4794.249,-1800.154 -669.602,-341.606 -601.196,-366.544 -2690.553,980.869 -2345.839,1512.816 -4014.827,2269.337 -6295.659,2853.701 -2186.222,560.124 -3309.414,671.438 -4803.773,476.08 z"
       id="path851" />
  </g>
</svg>
