<?xml version="1.0" encoding="UTF-8" standalone="no"?>
<svg
   xmlns:dc="http://purl.org/dc/elements/1.1/"
   xmlns:cc="http://creativecommons.org/ns#"
   xmlns:rdf="http://www.w3.org/1999/02/22-rdf-syntax-ns#"
   xmlns:svg="http://www.w3.org/2000/svg"
   xmlns="http://www.w3.org/2000/svg"
   xmlns:sodipodi="http://sodipodi.sourceforge.net/DTD/sodipodi-0.dtd"
   xmlns:inkscape="http://www.inkscape.org/namespaces/inkscape"
   version="1.1"
   id="svg10"
   width="680.78876"
   height="472.69"
   viewBox="0 0 680.78876 472.69"
   sodipodi:docname="source.svg"
   inkscape:version="1.0.2 (e86c870879, 2021-01-15, custom)"
   inkscape:export-filename="C:\Users\cmoth\source\repos\cmothersead\FRSTWebsite\images\logos\orgs\ISI\512x512.png"
   inkscape:export-xdpi="72.097992"
   inkscape:export-ydpi="72.097992">
  <metadata
     id="metadata16">
    <rdf:RDF>
      <cc:Work
         rdf:about="">
        <dc:format>image/svg+xml</dc:format>
        <dc:type
           rdf:resource="http://purl.org/dc/dcmitype/StillImage" />
        <dc:title />
      </cc:Work>
    </rdf:RDF>
  </metadata>
  <defs
     id="defs14" />
  <sodipodi:namedview
     pagecolor="#ffffff"
     bordercolor="#666666"
     borderopacity="1"
     objecttolerance="10"
     gridtolerance="10"
     guidetolerance="10"
     inkscape:pageopacity="0"
     inkscape:pageshadow="2"
     inkscape:window-width="2560"
     inkscape:window-height="1377"
     id="namedview12"
     showgrid="false"
     fit-margin-top="0"
     fit-margin-left="0"
     fit-margin-right="0"
     fit-margin-bottom="0"
     inkscape:zoom="1.7707505"
     inkscape:cx="244.00077"
     inkscape:cy="278.49985"
     inkscape:window-x="-8"
     inkscape:window-y="-8"
     inkscape:window-maximized="1"
     inkscape:current-layer="g18"
     inkscape:document-rotation="0" />
  <g
     inkscape:groupmode="layer"
     inkscape:label="Image"
     id="g18"
     transform="translate(-18.978535,-1.1188777)">
    <g
       id="g68">
      <path
         style="display:inline;fill:#ed3942"
         d="M 191,469.39286 C 140.59632,463.19396 100.45993,444.62624 42.435863,400.66478 15.891859,380.55393 12.304355,376.95644 29.5,387.6929 c 26.419215,16.4954 47.531288,25.2517 73.5,30.48436 10.17872,2.051 14.31489,2.3153 36,2.30041 27.19155,-0.0187 34.46397,-0.82018 68,-7.49432 28.68057,-5.70783 37.76721,-8.31908 75.20372,-21.6115 C 349.7712,367.38096 382.27956,360.85789 419,363.92254 c 42.51784,3.5485 75.12968,14.6322 101.53978,34.51003 11.9663,9.00656 37.54333,34.47976 32.46022,32.32846 -25.0762,-10.61292 -29.69771,-11.95632 -59.06392,-17.16895 -43.42301,-7.70776 -67.34433,-6.8042 -105.66055,3.991 -11.22669,3.16301 -23.45227,7.83796 -63.27553,24.196 -27.47167,11.28443 -59.96535,20.99702 -84.5,25.25765 -11.5594,2.00738 -40.95778,3.4067 -49.5,2.35613 z M 143.24387,151.90835 143.5,73.557782 l 9,-1.195631 c 8.01674,-1.065006 9.10925,-1.019713 10,0.414581 0.55,0.885615 3.37259,5.910648 6.27241,11.166739 L 174.04482,93.5 173.77241,81.704231 C 173.51609,70.605141 173.61812,69.882966 175.5,69.476795 177.77747,68.985243 192.6639,67 194.07236,67 194.6346,67 195,97.669901 195,144.86255 v 77.86255 l -10.03806,2.13745 c -5.52093,1.1756 -10.47093,2.13745 -11,2.13745 -0.60132,0 -0.96459,-16.58873 -0.96901,-44.25 -0.005,-32.57308 -0.37117,-46.62497 -1.38682,-53.25 -1.36704,-8.91706 -4.51514,-18.63595 -6.22093,-19.20537 -0.50916,-0.16996 -0.75718,24.73196 -0.58386,58.62127 0.28658,56.03371 0.21318,58.94261 -1.5,59.44527 -0.99072,0.29069 -5.96658,0.8366 -11.05745,1.21314 l -9.25612,0.68462 z M 126.25,228.21725 115,227.9345 114.999,149.21725 114.998,70.5 l 11.25123,0.341184 c 6.18818,0.187651 11.36647,0.452894 11.50733,0.589429 0.14085,0.136534 0.14085,35.532997 0,78.658817 L 137.5,228.5 Z M 200.24389,142.85235 200.5,64.566055 215,60.35475 c 15.16462,-4.404332 24.55588,-5.42549 29.43819,-3.200959 1.40368,0.639561 3.54167,3.202265 4.79705,5.75 2.26239,4.591404 2.26508,4.656838 2.57425,62.596209 0.32094,60.14604 0.0144,66.04703 -3.81653,73.4754 -4.34889,8.43268 -6.32675,9.3609 -45.74907,21.47025 l -2.25611,0.693 z m 27.98387,49.78061 c 1.58975,-1.96258 1.72954,-6.54064 1.75,-57.31153 0.0197,-48.848402 -0.15804,-55.35885 -1.54919,-56.750001 -1.7257,-1.725706 -3.27696,-1.954756 -5.15566,-0.761256 -0.94571,0.600786 -1.23765,14.184175 -1.27312,59.234687 -0.0253,32.15033 -0.0356,58.80847 -0.0229,59.24032 0.0361,1.22657 4.33212,-1.28347 6.25088,-3.65222 z M 255,125.24212 V 48.484236 l 10.16028,-3.492118 c 5.58815,-1.920665 10.54096,-3.643052 11.00623,-3.827528 0.46527,-0.184475 0.73065,34.186057 0.58972,76.37896 l -0.25623,76.71437 -9.94875,3.87104 C 261.07943,200.25803 256.24193,202 255.80125,202 255.36056,202 255,167.45895 255,125.24212 Z m 25.10837,42.99357 c 0.31084,-45.98903 2.53073,-77.857329 7.46596,-107.1797 1.33709,-7.944206 3.15158,-17.011902 4.03221,-20.150436 l 1.60114,-5.706427 11.64616,-4.102876 c 6.40539,-2.256582 12.1874,-4.101385 12.84891,-4.099564 1.88317,0.0052 5.12085,12.064194 7.787,29.003313 3.82273,24.287333 4.59295,33.567318 5.21029,62.77644 C 331.73521,167.75447 333,148.6998 333,84.126405 c 0,-59.125483 0.10741,-63.023832 1.75,-63.51631 0.9625,-0.288574 5.125,-1.447974 9.25,-2.576443 8.79572,-2.40623 7.73118,-3.128868 14.2796,9.693437 2.32122,4.545126 4.5579,8.265901 4.9704,8.268388 0.4125,0.0025 0.75,-5.289319 0.75,-11.759569 V 12.471815 l 9.85816,-2.7359073 C 379.28014,8.2311607 384.00514,7 384.35816,7 384.71117,7 385,41.798364 385,84.329698 V 161.6594 l -8.25,1.74365 c -4.5375,0.95901 -9.19862,1.96839 -10.35805,2.24308 l -2.10805,0.49943 -0.58197,-43.32278 C 363.24756,88.997946 362.77907,77.965343 361.565,72.5 359.71778,64.184329 356.9669,56.217548 355.53118,55.025541 354.8243,54.43865 354.60844,72.18464 354.84481,111.45249 l 0.34481,57.2831 -2.84481,0.68451 c -1.56465,0.37648 -10.94481,3.1895 -20.84481,6.25115 -9.9,3.06165 -18.7875,5.7906 -19.75,6.06433 -1.60105,0.45532 -1.75,-0.58528 -1.75,-12.22594 0,-11.22885 -0.18713,-12.65181 -1.5929,-12.11236 -0.8761,0.33619 -2.6761,0.88311 -4,1.21539 -2.38589,0.59882 -2.4071,0.71689 -2.4071,13.39791 v 12.79377 l -2.75,0.9945 c -1.5125,0.54697 -6.47574,2.38455 -11.02941,4.08351 l -8.27941,3.08902 z m 27.47727,-29.70703 3.5214,-1.47133 -0.61521,-20.27867 C 309.49707,83.989111 307.74485,63 306.00225,63 c -1.6396,0 -3.55849,23.06837 -4.59585,55.25 -0.78304,24.29229 -1.08162,23.31244 6.17924,20.27866 z M 387.38248,127.25 c 1.21144,-59.827367 4.34486,-90.964661 11.71273,-116.390537 0.85812,-3.4626259 1.878,-6.6211411 5.16454,-7.2136575 6.67136,-1.1799944 20.88247,-2.83692053 21.24263,-2.4767549 0.20567,0.2056651 1.54046,4.399335 2.9662,9.3192664 3.32092,11.459823 6.09201,27.20688 8.00892,45.511683 1.60743,15.349509 3.86879,75.99455 3.33732,89.5 l -0.31482,8 -7,0.67698 c -3.85,0.37235 -8.6875,0.94016 -10.75,1.26182 l -3.75,0.58484 -0.0153,-12.26182 c -0.008,-6.744 -0.35094,-12.78947 -0.76115,-13.43437 -0.48937,-0.76935 -1.94554,-0.92765 -4.23469,-0.46036 l -3.48885,0.71219 -0.27894,13.19857 c -0.26875,12.71594 -0.36016,13.21652 -2.5,13.68937 -3.0502,0.67401 -18.81526,3.53278 -19.482,3.53278 -0.297,0 -0.23246,-15.1875 0.14341,-33.75 z m 29.52187,-17.16973 c 1.17446,-0.74355 1.28897,-4.79271 0.69947,-24.734683 -0.91056,-30.803474 -2.88429,-52.525923 -4.60589,-50.691487 -1.16426,1.240575 -2.97441,27.526934 -3.69075,53.5959 l -0.62514,22.75 3.40898,-0.0153 c 1.87494,-0.008 4.04094,-0.41541 4.81333,-0.90442 z"
         id="path44"
         sodipodi:nodetypes="sssssssssssssssccssscsscscsscsssssccccccsccccccssssssccssscssssscssscsssssscssssscsscscscscsscsscscssssssscsscsscssssscccssscssccsscssssssssccss" />
      <path
         style="display:inline;fill:#01599b"
         d="m 523.7175,472.90842 c -8.93692,-2.1044 -13.7785,-5.82515 -24.87732,-19.11823 -4.91808,-5.8904 -10.94414,-12.4722 -13.39124,-14.62622 -5.75229,-5.06337 -15.75848,-10.28636 -26.99646,-14.09151 -8.04487,-2.72397 -8.54696,-3.03291 -4.95248,-3.04727 6.1303,-0.0245 29.80737,3.66706 38.36486,5.98155 16.72955,4.52475 37.5726,17.13717 41.78622,25.28542 3.83681,7.41956 3.57173,14.48503 -0.70383,18.76059 -2.10352,2.10352 -3.41435,2.22504 -9.22975,0.85567 z M 634.5,453.87193 c -14.65676,-1.83226 -27.38634,-7.13257 -39.92982,-16.62588 -3.3386,-2.52676 -15.97018,-14.54963 -28.07018,-26.7175 -23.11928,-23.24895 -28.73702,-27.71622 -45,-35.78438 -19.00057,-9.42628 -42.86236,-16.22369 -78.26182,-22.29412 -5.644,-0.96786 -10.01437,-2.00719 -9.71192,-2.30964 2.6614,-2.6614 79.1776,-4.20698 103.97374,-2.10021 31.246,2.65478 62.41239,10.93688 90.12942,23.95084 13.4237,6.30282 23.35423,12.84002 31.60466,20.80514 11.98517,11.57071 16.56678,21.72464 15.40692,34.14537 -1.15052,12.32061 -9.5453,24.54825 -18.57565,27.05685 -4.14866,1.15249 -11.6883,1.10827 -21.56535,-0.12647 z M 77,397.35071 C 60.923585,394.92688 52.260641,387.68686 48.461764,373.5 46.191122,365.02032 45.06247,327.43544 47.101086,328.18846 47.870488,328.47267 53,329.71646 58.5,330.95246 l 10,2.24727 -0.318969,14.65013 c -0.381419,17.51849 0.320328,24.32281 2.823174,27.37422 1.794776,2.18815 1.936748,2.2069 3.681282,0.48621 1.621204,-1.59904 1.809071,-3.67647 1.763436,-19.5 -0.06677,-23.14996 0.171992,-22.51117 -18.618121,-49.81184 C 50.488375,295.73044 48.098469,289.03072 46.721793,275.25612 44.654428,254.5707 48.051495,240.12178 56,235.79263 c 5.650232,-3.0774 16.699151,-2.20066 25.236116,2.00251 9.831707,4.84063 12.446796,8.47458 17.058625,23.70486 l 1.514033,5 0.09561,-12.36663 c 0.09524,-12.31831 0.104406,-12.36426 2.345616,-11.75932 1.2375,0.33402 6.1875,1.12038 11,1.74746 l 8.75,1.14015 0.022,37.11917 c 0.021,35.41545 1.18387,73.48357 2.5671,84.03615 2.03488,15.52395 4.30474,-18.4868 5.11671,-76.66698 L 130.3164,246 h 10.71256 10.71257 l 0.58036,50.75 c 0.56792,49.66129 1.63744,72.60932 3.46943,74.44131 1.99236,1.99236 4.12253,-44.38705 4.17158,-90.82627 L 160,245.23008 l 8.25,-1.19825 c 4.5375,-0.65903 9.55821,-1.45619 11.15713,-1.77146 l 2.90714,-0.57322 -0.64141,46.40642 c -0.80485,58.23173 -2.25163,72.81593 -9.83651,99.15643 L 168.74083,398 h -10.83811 -10.83811 l -2.61483,-8.75 c -4.13472,-13.83597 -3.72205,-13.70147 -7.31022,-2.3825 l -3.23321,10.19921 -10.66199,-0.28335 -10.662,-0.28336 -2.1846,-7 c -5.86635,-18.79729 -9.35984,-44.0265 -10.24677,-74 L 99.5,293.5 92,291.70297 c -4.125,-0.98837 -9.146353,-2.23214 -11.158562,-2.76393 l -3.658563,-0.96688 -0.341437,-14.95996 c -0.318043,-13.93491 -0.495335,-15.11374 -2.58747,-17.20433 -2.141368,-2.13979 -2.327765,-2.16261 -4,-0.48959 -1.481522,1.48221 -1.742909,3.57425 -1.682773,13.46825 0.08732,14.3664 1.734305,19.22907 11.026842,32.55641 9.056989,12.98952 14.082617,22.08461 16.663746,30.15706 2.024912,6.33289 2.237908,9.00133 2.234976,28 -0.0036,23.19197 -0.711561,27.39718 -5.538016,32.89421 -2.602294,2.96385 -9.592187,5.98577 -12.651563,5.46961 C 79.863231,397.78892 78.375,397.55802 77,397.35071 Z M 186,318.12604 V 241.0381 l 2.75,-0.60906 c 1.5125,-0.33498 6.01752,-1.46856 10.01116,-2.51905 C 202.75479,236.8595 206.46729,236 207.01116,236 207.65442,236 208,263.02047 208,313.31661 v 77.3166 l -9.75,1.8242 c -5.3625,1.00331 -10.3125,2.03398 -11,2.29038 -0.99322,0.37042 -1.25,-15.36944 -1.25,-76.62175 z m 28.24393,-6.36311 0.25607,-78.06477 14.5,-4.8424 c 7.975,-2.66333 14.86226,-4.84541 15.30503,-4.84908 0.96619,-0.008 4.72624,8.37461 7.17386,15.99332 0.97182,3.025 2.09984,5.86571 2.50671,6.31268 0.40687,0.44698 1.48082,-2.25302 2.38655,-6 0.90573,-3.74697 3.07822,-10.72904 4.82775,-15.51571 l 3.18096,-8.70303 13.05957,-4.93069 c 7.18276,-2.71188 14.07207,-5.23834 15.30957,-5.61436 l 2.25,-0.68367 v 48.56739 c 0,26.71207 -0.3375,48.54709 -0.75,48.52227 -0.4125,-0.0248 -5.25,-1.71911 -10.75,-3.76511 l -10,-3.72 0.1587,-28.34359 c 0.0963,-17.20569 -0.20199,-27.98289 -0.7592,-27.42568 -2.28754,2.28754 -6.0186,21.50428 -7.09878,36.56205 l -1.13073,15.76256 -4.68896,-0.62201 c -4.40339,-0.58413 -4.8223,-0.43476 -6.87838,2.45274 -1.20418,1.69112 -3.71557,6.35288 -5.58085,10.35946 l -3.39143,7.2847 -0.066,-11.5 c -0.0993,-17.30573 -1.81186,-32.47276 -4.55813,-40.36965 -1.32672,-3.81499 -2.78059,-7.30472 -3.23082,-7.75495 -0.45023,-0.45023 -0.64489,17.06505 -0.43258,38.92284 l 0.38602,39.74145 -8.11442,17.77107 C 223.65149,357.08485 220,365.96342 220,367.04092 c 0,2.91164 3.57975,5.95908 7,5.95908 2.92451,0 5.27351,-1.70658 7.69119,-5.58775 0.9801,-1.57337 1.20162,-0.401 1.25,6.61549 l 0.0588,8.52774 -11.00607,3.63611 -11.00608,3.63611 0.25608,-78.06477 z M 244,366.14384 v -13.71436 l 9.57166,-15.46474 c 5.26441,-8.50561 9.98941,-15.89224 10.5,-16.41474 0.57291,-0.58628 0.92834,2.13863 0.92834,7.11711 v 8.06712 l -3.87709,2.56573 c -4.78066,3.16369 -9.13229,11.36226 -9.10095,17.14638 0.0277,5.1194 3.07173,11.90462 6.97747,15.55312 l 3.01545,2.81686 -9.00744,3.02094 L 244,379.8582 Z m 416.17182,3.28666 c -2.9305,-0.828 -12.86373,-4.8273 -22.07385,-8.88731 -28.7954,-12.69363 -59.9205,-20.36282 -84.49667,-20.81989 -7.67282,-0.1427 -9.13965,-0.36419 -6.1013,-0.92128 2.2,-0.40338 14.35,-2.76927 27,-5.25754 29.87412,-5.87627 47.60365,-7.35352 68.66906,-5.72157 8.43202,0.65323 19.38094,2.07987 24.33094,3.17031 10.58237,2.3312 24.24764,8.72972 27.8908,13.05937 7.09307,8.42964 5.36247,19.8692 -3.7291,24.64993 -4.44901,2.33948 -24.17267,2.79545 -31.48988,0.72798 z M 301.75,343.8699 c -4.32624,-2.82944 -4.75,-3.45518 -4.75,-7.01409 v -3.90751 l 7.75,4.17781 c 9.34683,5.03863 10.51267,6.0258 9.67976,8.19635 -1.07792,2.80901 -7.24377,2.10266 -12.67976,-1.45256 z m -12.91065,-7.57485 c -2.56336,-1.33161 -7.17586,-2.6807 -10.25,-2.99798 L 273,332.72019 v -6.4464 -6.4464 l 9.75,5.21937 c 12.31548,6.59273 12.25,6.5362 12.25,10.57568 0,3.88771 0.0235,3.88515 -6.16065,0.67261 z m 93.90454,-2.08148 c -1.65929,-0.34258 -1.742,-4.64296 -1.5,-77.99571 L 381.5,178.58473 390,176.8381 c 4.675,-0.96064 9.7375,-1.76721 11.25,-1.79236 L 404,175 v 77.98095 77.98095 l -2.25,0.54563 c -5.55123,1.34618 -17.41281,3.03501 -19.00611,2.70604 z M 366,328.16384 l -9.5,-3.72411 0.0596,-57.21986 C 356.59237,235.74894 356.51656,210 356.39112,210 c -0.41516,0 -4.22674,12.40478 -5.5308,18 -0.88875,3.81327 -1.44724,19.0216 -1.8211,49.59041 L 348.5,321.68081 337.75,317.72813 327,313.77544 326.992,284.13772 c -0.009,-31.83718 -0.85639,-43.25101 -3.95724,-53.29042 -4.40928,-14.27558 -4.55721,-13.04462 -4.21223,35.05091 l 0.32234,44.93762 -10.82234,-3.80822 -10.82233,-3.80822 V 253.35969 203.5 l 14,-4.67522 c 7.7,-2.57137 14.50105,-4.70887 15.11344,-4.75 1.29985,-0.0873 5.30639,8.52522 8.47588,18.21987 1.22176,3.73706 2.51554,6.43706 2.87506,6 0.35952,-0.43706 1.66837,-4.79271 2.90855,-9.67922 1.24018,-4.88652 3.27963,-11.63652 4.53211,-15 l 2.27724,-6.11543 11.01162,-3.13723 c 6.0564,-1.72547 12.87788,-3.45253 15.15886,-3.83789 L 378,179.8242 v 76.0879 c 0,60.23354 -0.26046,76.07622 -1.25,76.03187 -0.6875,-0.0308 -5.525,-1.73188 -10.75,-3.78013 z m 42.24389,-76.31689 0.25611,-78.29171 4,-0.65681 c 2.2,-0.36124 6.53465,-0.96195 9.63256,-1.3349 l 5.63256,-0.6781 5.58132,10.80729 5.58133,10.80728 0.0361,-11.20469 0.0361,-11.20468 3.25,-0.49923 c 1.7875,-0.27457 6.5125,-0.77221 10.5,-1.10586 l 7.25,-0.60664 v 78.47523 78.47523 l -7.75,0.64509 c -4.2625,0.3548 -8.9875,0.87895 -10.5,1.16478 l -2.75,0.51968 -0.0567,-31.32945 c -0.089,-49.20223 -0.91928,-63.06273 -4.52481,-75.53576 -1.39808,-4.83654 -2.96419,-9.2212 -3.48025,-9.7437 C 430.35377,209.95819 430,231.88097 430,268.69384 v 59.09384 l -9.25,0.67767 c -5.0875,0.37272 -10.04025,0.90169 -11.00611,1.17549 -1.66566,0.47217 -1.74292,-3.53497 -1.5,-77.79389 z M 485.5,328.54163 c -0.55,-0.20781 -2.7279,-0.66766 -4.83977,-1.02189 -5.47959,-0.9191 -12.0594,-7.26568 -14.35537,-13.84653 C 464.64008,308.9015 464.5,303.68804 464.5,246.5 c 0.18902,-22.03373 -1.21793,-47.01362 2.59834,-66.98754 2.09529,-10.96653 10.14437,-13.17575 22.8761,-12.19395 12.8833,0.99349 19.04704,4.64531 22.86881,13.54906 C 515.235,186.43971 517,198.32352 517,208.85505 v 7.71033 l -7.25,-0.30912 c -3.9875,-0.17001 -9.12718,-0.5445 -11.42151,-0.83219 l -4.17152,-0.52308 -0.32848,-12.91763 c -0.27156,-10.67898 -0.63177,-13.22042 -2.07849,-14.66479 -1.66558,-1.66286 -1.83442,-1.66275 -3.5,0.002 -1.61759,1.61699 -1.77136,5.94772 -2.03236,57.23725 -0.18459,36.27502 0.0788,56.82936 0.76086,59.36212 1.18772,4.41088 3.25325,5.70526 5.50731,3.45119 1.3346,-1.3346 1.50783,-5.56144 1.27894,-31.20751 L 493.5,246.5 l -2.25,-0.31955 c -2.15452,-0.30599 -2.25,-0.72608 -2.25,-9.89974 v -9.5802 l 9.15362,0.64975 c 5.0345,0.35736 11.3345,0.64974 14,0.64974 H 517 v 50 50 h -5.54827 c -5.23969,0 -5.61971,-0.16988 -6.83251,-3.05428 -1.15014,-2.73539 -1.42463,-2.88512 -2.62889,-1.43407 -0.73957,0.89112 -2.50837,2.222 -3.93067,2.9575 -2.68773,1.38988 -10.81632,2.73118 -12.55966,2.07248 z m -16.59973,-174.4213 c -1.94476,-1.57477 -2.38656,-3.03465 -2.72363,-9 L 465.77431,138 h 3.11284 c 3.0141,0 3.11285,0.14016 3.11285,4.41821 0,4.8902 0.748,7.58179 2.10699,7.58179 0.49115,0 0.89301,-3.10742 0.89301,-6.90539 0,-6.46784 -0.22883,-7.17928 -3.61143,-11.22799 -1.98629,-2.37743 -4.01129,-5.3743 -4.5,-6.65971 -1.41364,-3.71814 -1.05145,-12.52935 0.61267,-14.90522 2.71448,-3.87546 10.11834,-3.81847 12.73345,0.098 0.40408,0.60517 0.74158,3.71769 0.75,6.91672 0.0152,5.75834 -0.0122,5.81326 -2.73469,5.5 -2.5244,-0.29046 -2.77522,-0.71136 -3.05741,-5.13062 -0.41276,-6.46396 -2.75714,-5.80054 -2.52681,0.71505 0.11454,3.2401 0.91869,5.68006 2.60178,7.89434 4.77208,6.27814 5.73244,9.23591 5.73244,17.65515 0,6.71633 -0.33128,8.38094 -2,10.04966 -2.51544,2.51544 -7.07481,2.56976 -10.09973,0.12033 z M 456,131.5 V 108 h 3 3 v 23.5 23.5 h -3 -3 z"
         id="path42"
         sodipodi:nodetypes="ssssssssssssssssssssssssscssssssssscssscssscccssscsscsscccsscccsscsscssssssssssscsssscsssccsssssscsscssscssscssscsssscssssscccccccssscsssccccsssssssssssscssssscccssssscsscccssscssssccccsscccccsssssscsscsssscsscccccsscccsscsssscsssssscsssscsscsscsssscsscsscccssssssscsssssssssssssssssccccccccc" />
    </g>
  </g>
</svg>
