<?xml version="1.0" encoding="UTF-8" standalone="no"?>
<svg
   xmlns:dc="http://purl.org/dc/elements/1.1/"
   xmlns:cc="http://creativecommons.org/ns#"
   xmlns:rdf="http://www.w3.org/1999/02/22-rdf-syntax-ns#"
   xmlns:svg="http://www.w3.org/2000/svg"
   xmlns="http://www.w3.org/2000/svg"
   xmlns:sodipodi="http://sodipodi.sourceforge.net/DTD/sodipodi-0.dtd"
   xmlns:inkscape="http://www.inkscape.org/namespaces/inkscape"
   version="1.1"
   id="svg10"
   width="224.65036"
   height="194.25815"
   viewBox="0 0 224.65036 194.25815"
   sodipodi:docname="source.svg"
   inkscape:version="1.0.2 (e86c870879, 2021-01-15, custom)"
   inkscape:export-filename="C:\Users\cmoth\source\repos\cmothersead\FRSTWebsite\images\logos\orgs\CZ\512 cropped.png"
   inkscape:export-xdpi="218.79333"
   inkscape:export-ydpi="218.79333">
  <metadata
     id="metadata16">
    <rdf:RDF>
      <cc:Work
         rdf:about="">
        <dc:format>image/svg+xml</dc:format>
        <dc:type
           rdf:resource="http://purl.org/dc/dcmitype/StillImage" />
        <dc:title></dc:title>
      </cc:Work>
    </rdf:RDF>
  </metadata>
  <defs
     id="defs14" />
  <sodipodi:namedview
     pagecolor="#ffffff"
     bordercolor="#666666"
     borderopacity="1"
     objecttolerance="10"
     gridtolerance="10"
     guidetolerance="10"
     inkscape:pageopacity="0"
     inkscape:pageshadow="2"
     inkscape:window-width="2560"
     inkscape:window-height="1377"
     id="namedview12"
     showgrid="false"
     inkscape:zoom="2.8284271"
     inkscape:cx="80.883912"
     inkscape:cy="85.983929"
     inkscape:window-x="-32000"
     inkscape:window-y="-32000"
     inkscape:window-maximized="0"
     inkscape:current-layer="g18"
     fit-margin-top="0"
     fit-margin-left="0"
     fit-margin-right="0"
     fit-margin-bottom="0" />
  <g
     inkscape:groupmode="layer"
     inkscape:label="Image"
     id="g18"
     transform="translate(-1.8441449,-4.741845)">
    <g
       id="g1801">
      <g
         inkscape:label="Image"
         id="g94"
         transform="matrix(0.14034101,0,0,0.14034101,62.095574,96.913222)">
        <path
           id="path98-9"
           style="fill:#1f335f;fill-opacity:1;stroke:none;stroke-width:1px;stroke-linecap:butt;stroke-linejoin:miter;stroke-opacity:1"
           d="M 124.61523,20.427728 124.26367,215.53711 H 43.61213 L 17.903435,395.50045 c 0,0 73.743445,-24.53959 104.952035,-29.91061 v 43.29883 c 11.97433,77.8118 249.20117,178.20508 249.20117,178.20508 0,0 237.22489,-100.39328 249.19922,-178.20508 v -43.29883 c 31.20858,5.37102 74.66406,30.26758 74.66406,30.26758 L 723.03906,215.53711 H 619.84766 L 619.49609,20.427728 c -143.98179,62.574268 -247.43945,5.97071 -247.43945,5.97071 0,0 -103.45963,56.603557 -247.44141,-5.97071 z"
           sodipodi:nodetypes="ccccccccccccccc" />
        <path
           id="path1057"
           style="opacity:0.999;fill:#21345e;fill-opacity:1;stroke:none;stroke-width:5.48583;stroke-opacity:1"
           d="m 645.05664,383.29492 a 15.789941,16.015511 0 0 0 -15.625,16.01563 15.789941,16.015511 0 0 0 15.79102,16.01562 15.789941,16.015511 0 0 0 15.78906,-16.01562 15.789941,16.015511 0 0 0 -15.78906,-16.01563 15.789941,16.015511 0 0 0 -0.16602,0 z m 0.10352,2.75391 a 13.089157,13.276145 0 0 1 13.08789,13.27539 13.089157,13.276145 0 0 1 -13.08789,13.27734 13.089157,13.276145 0 0 1 -13.08985,-13.27734 13.089157,13.276145 0 0 1 13.08985,-13.27539 z m -5.76758,4.0625 v 18.42773 h 3.73633 v -3.85937 -3.86133 c 2.14402,-0.0272 4.56162,-0.45181 4.48242,1.74414 v 5.97656 h 4.23437 c 0.0332,-4.01768 0.60604,-8.57658 -2.86523,-9.08984 3.4421,-0.56042 3.33518,-9.15953 -0.99609,-9.33789 z m 3.73633,2.88476 c 3.5498,0 3.86237,0.90173 3.85937,2.46485 -0.003,1.87106 -0.46309,2.37695 -3.85937,2.37695 z" />
        <path
           id="path1027"
           style="fill:#ffffff;fill-opacity:1;stroke:none;stroke-width:1px;stroke-linecap:butt;stroke-linejoin:miter;stroke-opacity:1"
           d="m 325.77672,403.5943 27.75451,20.16482 -10.30132,31.58321 27.02377,-19.63393 28.78071,21.11072 -10.94834,-33.69553 27.78867,-19.52929 h -34.27546 l -10.4274,-32.52724 -11.07307,32.52724 z m 44.4225,-360.012269 c 0,0 -92.66463,50.600421 -229.36719,0.427735 V 213.39062 l 27.66602,18.9668 H 58.951172 L 39.126953,368.60547 c 0,0 67.751957,-21.07001 97.058597,-26.06055 0,0 41.415,17.85348 65.51953,-20.33594 22.68412,35.76948 65.50113,32.41244 84.24219,-1.39257 25.61215,46.37808 78.11371,19.20449 84.25195,0.73242 18.03112,28.27417 62.83531,40.19004 86.17773,-0.9336 11.35696,29.31174 62.98275,39.12962 84.10157,0.86915 0,0 18.87663,39.28327 63.73242,21.06054 l 76.45703,26.00977 21.23437,-136.19727 H 572.59961 l 29.95898,-18.9668 V 44.009766 C 469.84307,94.182609 370.19922,43.582031 370.19922,43.582031 Z M 630.17969,247.78906 c 19.61322,0.16021 30.8471,6.65833 29.13672,22.66211 h -22.41407 c 2.78399,-16.94517 -21.75033,-18.38363 -27.51757,11.45508 -2.28077,11.28572 1.55928,40.61268 23.7832,25.52539 l 2.49023,-14.56836 -12.57617,0.125 2.61328,-10.95898 33.12305,-0.49805 c 0,0 -10.21142,48.68649 -10.33594,49.43359 -0.12452,0.7471 -19.05078,-4.85546 -19.05078,-4.85546 l 0.74805,-6.72461 c -17.69974,8.49553 -50.33797,-2.44358 -40.71875,-40.7168 4.23642,-16.856 19.98249,-31.04828 40.71875,-30.87891 z m -511.70703,0.0625 c 14.09658,0.16967 27.49158,4.59039 24.16211,23.6836 h -20.42579 c 3.03832,-13.01462 -13.37938,-13.33235 -15.66796,-4.10743 -1.81665,7.32261 8.38306,9.15346 15.42187,11.44336 5.78572,1.88225 20.00687,5.04159 18.50391,20.17579 -1.78066,17.9304 -16.22446,26.89392 -33.50391,26.55859 -13.755385,-0.26694 -30.039048,0.80496 -28.425781,-25.54297 l 21.835941,0.35156 c -2.854457,16.45425 16.15465,14.60488 17.71093,3.6875 0.92666,-6.50053 -1.42887,-9.67176 -15.18164,-13.34179 -8.182026,-2.18343 -24.193022,-7.42413 -17.279293,-25.89454 4.950759,-13.22622 18.656213,-17.1845 32.849613,-17.01367 z m 269.02343,0.8086 32,0.37304 3.48633,33.2461 17.93164,-33.1211 32.25,-0.125 -11.70508,53.41797 c 0,0 0,0 -19.54882,-0.49805 8.83984,-39.8457 8.83984,-39.8457 8.83984,-39.8457 l -23.28516,39.22266 -19.05078,-0.24805 -5.60351,-40.21875 -8.71485,39.3457 -17.43359,-0.62109 z m 129.7461,0.125 31.3789,0.37304 10.95703,38.47461 6.97266,-38.47461 17.68164,0.125 -12.70117,64.125 -24.90234,-3.48632 -13.57227,-46.81836 -9.33984,43.45703 -17.55664,-1.2461 z m -226.99414,0.12304 32.25,0.125 c 0,0 2.3652,35.11435 3.36133,32.87305 0.99614,-2.2413 17.93164,-32.5 17.93164,-32.5 l 32,-0.37305 -10.58399,50.67774 -19.42383,0.87304 7.59571,-37.85351 -22.28907,37.85351 -19.67382,1.11914 -5.60352,-40.34179 -8.3418,40.59179 -18.80273,1.1211 z m -137.0918,0.125 h 20.29492 c 0,0 0.87255,31.62649 1.2461,31.00391 0.37355,-0.62258 15.8125,-31.00391 15.8125,-31.00391 h 23.7832 l 2.98828,31.50196 c 0,0 12.9492,-31.50196 13.44727,-31.50196 h 18.92773 c 0,0 -24.52976,57.90039 -25.15234,57.90039 -0.62259,0 -23.03516,2.61524 -23.03516,2.61524 l -3.86133,-40.59375 -22.66211,43.95508 -20.04687,3.11328 z m 104.0957,0 20.91797,0.125 -11.45508,54.41407 c 0,0 -21.16701,2.61331 -20.91796,1.61718 0.24903,-0.99614 11.45507,-56.15625 11.45507,-56.15625 z m 227.74024,0.125 21.04297,0.125 -11.95313,55.28516 -20.79492,-1.99219 z"
           sodipodi:nodetypes="ccccccccccccccccccccccccccccccsccccccccsccsssccssssccsssscccccccccccccccccccccccccccscccccccccccccscccscsccccccccscccccc" />
        <path
           id="path973"
           style="fill:#a01a38;fill-opacity:1;stroke:none;stroke-width:1px;stroke-linecap:butt;stroke-linejoin:miter;stroke-opacity:1"
           d="m 385.31055,84.373047 c -21.7035,-0.35738 -43.71563,7.65397 -53.82813,25.191403 -5.57152,9.66232 -17.83647,48.2392 36.93164,60.73243 67.05739,15.29651 -1.97736,66.21655 -25.27539,18.27539 l -30.07617,16.15234 c 20.9672,43.37356 95.7731,30.08588 110.88477,4.78711 26.65578,-44.625 -15.69574,-61.39331 -36.70313,-66.04492 -59.98776,-13.28292 -4.13592,-58.244283 21.15039,-17.88868 l 28.89063,-16.18359 C 428.40862,93.455932 407.01404,84.730427 385.31055,84.373047 Z M 189.11133,86.667969 177.64844,187.41016 c -0.21925,35.99262 26.2143,46.30109 56.22265,45.63281 30.00836,-0.66828 57.86305,-10.81999 64.22461,-45.63281 L 310.79102,87.390625 273.45898,87.033203 260.94141,187.92578 c -2.72883,23.15587 -44.64195,30.13701 -45.78516,0 L 227.32227,86.667969 Z m 304.37305,0.40039 -64.47266,141.941411 h 34.78125 l 11.97851,-28.17969 h 51.35938 l 6.04297,28.17969 H 567.6875 L 537.07031,87.068359 Z m 18.36523,24.695311 10.94336,65.36328 H 486.08594 Z M 319.04297,337.71875 c -4.24315,0.13734 -8.05046,2.5274 -10.23047,4.30273 l -42.99219,171.85938 48.94922,25.36523 15.87891,-194.40429 c -3.37732,-5.1467 -7.18782,-6.97339 -10.75196,-7.11914 -0.2864,-0.0117 -0.57063,-0.0131 -0.85351,-0.004 z m 104.43555,0.32813 c -0.28288,-0.009 -0.56712,-0.008 -0.85352,0.004 -3.56413,0.14576 -7.37463,1.97244 -10.75195,7.11914 l 15.8789,194.4043 48.95117,-25.36524 -42.99414,-171.85937 c -2.18,-1.77534 -5.98731,-4.16539 -10.23046,-4.30273 z m -182.94532,1.04687 c -2.74883,0.0297 -5.81721,1.34246 -8.84961,4.67578 l -73.62109,91.55859 28.17188,26.06446 63.76367,-115.1543 c -1.18552,-3.67743 -4.88346,-7.19406 -9.46485,-7.14453 z m 261.45703,0.32813 c -4.58138,-0.0495 -8.27933,3.46709 -9.46484,7.14453 l 63.76367,115.15429 28.16992,-26.0664 -73.62109,-91.55664 c -3.03239,-3.33333 -6.09882,-4.64607 -8.84766,-4.67578 z" />
      </g>
      <path
         id="path1130"
         style="fill:#b90f44;fill-opacity:1;stroke:none;stroke-width:1px;stroke-linecap:butt;stroke-linejoin:miter;stroke-opacity:1"
         d="m 187.42142,14.106989 -0.35564,52.990117 18.73029,5.571668 v -5.216029 c 0,0 -11.49897,-3.319292 -11.49897,-3.793476 0,-0.474185 -0.59273,-48.011181 -0.59273,-48.011181 z m -21.10111,-4.9780828 -9.95703,52.0410158 6.51953,0.710937 1.66016,-9.957031 9.12695,1.302734 1.89649,11.144532 6.87695,1.185547 -9.83984,-55.361329 z m 2.96289,16.2402348 3.43946,22.048828 -7.70704,-1.185547 z M 129.92655,4.741845 v 54.531217 l 6.75713,-0.118546 0.11855,-47.892634 7.4684,0.355638 c 1.39952,0.06664 2.26381,0.755027 2.25238,2.252377 l -0.11855,15.529542 -6.86129,-0.508906 -0.17484,3.242658 7.27323,28.08824 7.4684,0.948369 -8.17968,-27.028516 4.50475,0.355638 c 1.17875,0.09306 2.60802,-0.636132 2.60802,-3.200745 V 11.02479 c 0,-2.8590641 -2.5702,-4.4507906 -4.50476,-4.6232993 z m -25.84305,0 v 6.045852 l 6.99422,-0.237092 v 47.892634 h 6.52004 V 10.787697 h 8.06113 V 4.8603911 Z M 76.699342,7.2313136 76.46225,61.288346 c 0,0 0,0 6.282945,-0.711277 0.474184,-27.384154 0.474184,-27.384154 0.474184,-27.384154 L 95.785268,58.917424 99.578744,58.798878 98.986014,5.4531217 93.2958,5.8087601 c 0,0 -0.118546,30.1107159 -0.118546,29.5179849 0,-0.592731 -13.277166,-28.3325237 -13.277166,-28.3325237 z M 53.701394,11.61752 70.65349,8.1796826 l -0.237092,5.4531214 -10.669151,2.133831 0.474184,17.544826 9.246598,-1.066915 0.118546,5.097483 -9.246598,1.5411 -0.118546,19.678656 10.194967,-1.896738 0.118546,4.978938 -16.359365,3.437837 z m -27.858339,11.380428 0.118546,46.232989 c 0.0054,2.123086 2.862927,2.851615 3.67493,2.608014 l 14.225535,-4.26766 c 2.279043,-0.683713 3.437838,-2.224584 3.437838,-4.504753 V 48.366819 l -6.520037,1.778192 0.118546,12.447343 -7.824044,2.489468 V 23.116494 l 7.112767,-2.13383 0.237092,8.772413 7.231314,-1.659646 V 16.596457 c 0,-3.13317 -3.255632,-3.149018 -5.80876,-2.370922 l -12.447343,3.793476 c -3.234492,0.98575 -3.562029,2.77757 -3.556384,4.978937 z" />
      <path
         id="path1714-6-7"
         style="fill:#aa113a;fill-opacity:1;stroke:none;stroke-width:1px;stroke-linecap:butt;stroke-linejoin:miter;stroke-opacity:1"
         d="m 65.550969,107.46335 c -11.98575,1.67994 -24.3607,4.06045 -38.55939,9.72368 33.80911,61.09571 70.2377,66.09796 87.177751,73.26285 C 48.221744,174.00432 39.186523,125.82003 65.550969,107.46335 Z"
         sodipodi:nodetypes="cccc" />
      <path
         id="path1714-6-7-3"
         style="fill:#aa113a;fill-opacity:1;stroke:none;stroke-width:1px;stroke-linecap:butt;stroke-linejoin:miter;stroke-opacity:1"
         d="m 162.7877,107.46335 c 11.98575,1.67994 24.3607,4.06045 38.55939,9.72368 -33.80911,61.09571 -70.2377,66.09796 -87.17775,73.26285 65.94759,-16.44556 74.98281,-64.62985 48.61836,-82.98653 z"
         sodipodi:nodetypes="cccc" />
      <path
         id="path1714-6"
         style="fill:#1f335f;fill-opacity:1;stroke:none;stroke-width:1px;stroke-linecap:butt;stroke-linejoin:miter;stroke-opacity:1"
         d="m 1.8441449,54.486099 13.9149111,-8.717775 0.3353,7.711878 -6.4545076,3.730202 C 12.1365,80.512724 16.967593,95.061362 24.141533,110.98399 37.097341,106.43537 50.54398,102.47574 65.718618,100.58972 l -0.167649,6.87363 c -11.985751,1.67994 -24.360704,4.06045 -38.559394,9.72368 33.809107,61.09571 70.237702,66.09796 87.177755,73.26285 16.94006,-7.16489 53.36865,-12.16714 87.17776,-73.26285 -14.19869,-5.66323 -26.57365,-8.04374 -38.5594,-9.72368 l -0.16764,-6.87363 c 15.17463,1.88602 28.62127,5.84565 41.57708,10.39427 7.17394,-15.92263 12.00503,-30.47127 14.50168,-53.77359 l -11.90763,-6.812401 0.57239,-7.474786 19.13094,11.562882 C 214.08699,169.6567 133.25112,190.76469 114.16933,199 95.087546,190.76469 14.251669,169.6567 1.8441449,54.486099 Z"
         sodipodi:nodetypes="ccccccccccccccccccc" />
      <path
         id="path1787"
         style="fill:#1f335f;fill-opacity:1;stroke:none;stroke-width:1px;stroke-linecap:butt;stroke-linejoin:miter;stroke-opacity:1"
         d="m 174.49989,71.957497 -0.59273,24.18341 8.17968,1.718919 0.0593,-2.845108 -4.91966,-1.185461 0.17781,-8.535321 4.56403,1.363281 V 83.81211 l -4.80112,-1.5411 0.17782,-7.231314 4.74185,0.711277 v -2.785834 z m -44.81043,-5.690214 0.35564,24.420502 2.96365,0.237092 V 78.00335 l 5.57167,12.921527 2.13383,0.355639 -0.11855,-24.064864 -2.72656,-0.237092 0.11855,12.447343 -6.1644,-12.921527 z M 85.102969,67.871869 84.96285,89.86392 c -0.0095,1.497258 1.006344,2.0322 1.896738,2.029666 l 7.147489,-0.02034 c 1.060117,-0.003 2.141554,-0.996066 2.13383,-2.370922 l -0.118546,-21.10121 c -0.01152,-2.050083 -0.931239,-2.133831 -1.778192,-2.133831 h -7.34986 c -1.265713,0 -1.786485,0.842678 -1.79134,1.604586 z m 3.095347,20.56354 C 88.553955,85.94594 88.316863,69.11239 88.316863,69.11239 l 4.8532,0.01438 0.244283,19.308637 z m -45.640257,9.602236 9.602236,-1.5411 0.118546,-2.608015 -5.690214,1.185462 6.757129,-23.946317 -9.48369,1.541099 0.118546,2.963653 4.860391,-0.829823 z"
         sodipodi:nodetypes="ccccccccccccccccccccccccscscscssscccccccccccccc" />
    </g>
  </g>
</svg>
