<?xml version="1.0" encoding="UTF-8" standalone="no"?>
<svg
   width="390.87845mm"
   height="135.03296mm"
   viewBox="0 0 390.87845 135.03296"
   version="1.1"
   id="svg8"
   inkscape:version="1.1 (c68e22c387, 2021-05-23)"
   sodipodi:docname="source.svg"
   inkscape:export-filename="C:\Users\cmoth\source\repos\cmothersead\FRSTWebsite\images\logos\teams\FRST\black_cropped.png"
   inkscape:export-xdpi="33.284851"
   inkscape:export-ydpi="33.284851"
   xmlns:inkscape="http://www.inkscape.org/namespaces/inkscape"
   xmlns:sodipodi="http://sodipodi.sourceforge.net/DTD/sodipodi-0.dtd"
   xmlns="http://www.w3.org/2000/svg"
   xmlns:svg="http://www.w3.org/2000/svg"
   xmlns:rdf="http://www.w3.org/1999/02/22-rdf-syntax-ns#"
   xmlns:cc="http://creativecommons.org/ns#"
   xmlns:dc="http://purl.org/dc/elements/1.1/">
  <defs
     id="defs2" />
  <sodipodi:namedview
     id="base"
     pagecolor="#ffffff"
     bordercolor="#666666"
     borderopacity="1.0"
     inkscape:pageopacity="0.0"
     inkscape:pageshadow="2"
     inkscape:zoom="0.98994949"
     inkscape:cx="620.73874"
     inkscape:cy="379.31228"
     inkscape:document-units="mm"
     inkscape:current-layer="g42"
     inkscape:document-rotation="0"
     showgrid="false"
     inkscape:window-width="2560"
     inkscape:window-height="1377"
     inkscape:window-x="-8"
     inkscape:window-y="-8"
     inkscape:window-maximized="1"
     fit-margin-top="0"
     fit-margin-left="0"
     fit-margin-right="0"
     fit-margin-bottom="0"
     inkscape:pagecheckerboard="0" />
  <metadata
     id="metadata5">
    <rdf:RDF>
      <cc:Work
         rdf:about="">
        <dc:format>image/svg+xml</dc:format>
        <dc:type
           rdf:resource="http://purl.org/dc/dcmitype/StillImage" />
      </cc:Work>
    </rdf:RDF>
  </metadata>
  <g
     inkscape:label="Layer 1"
     inkscape:groupmode="layer"
     id="layer1"
     transform="translate(-0.39157889,-0.7385747)">
    <g
       id="g42">
      <path
         style="fill:#0132bf;fill-opacity:1;stroke-width:0.264583"
         d="m 336.48362,52.467385 -1.24254,-0.13506 c 1.52556,-3.43959 0,0 1.52556,-3.43959 l 8.28498,-0.15994 c 7.53086,-0.14539 8.58597,-0.389613 11.59224,-0.84794 1.83673,-0.280022 3.82828,-0.87196 4.46503,-1.09682 1.75178,-0.61861 1.67137,-0.50607 -0.57285,0.80163 -3.14534,1.83275 -8.97832,3.67517 -13.68176,4.32153 -4.03789,0.5549 -8.28641,0.78275 -10.37066,0.55619 z"
         id="path29"
         sodipodi:nodetypes="sccssssss" />
      <path
         style="fill:#0132bf;fill-opacity:1;stroke-width:0.264583"
         d="m 155.30329,52.827735 c 0.004,-0.12695 0.37233,-0.58802 0.81841,-1.02458 0.89951,-0.88031 3.02504,-4.07376 3.28825,-6.48229 0.59112,-5.409052 -0.78281,-11.470216 -4.06612,-15.80924 -0.90393,-1.194578 -2.42595,-1.668284 -3.88435,-2.26026 -1.33259,-0.540907 0.24567,-0.413771 1.75029,-0.0711 1.50462,0.34267 5.11459,1.530894 6.62926,3.5228 2.58338,3.397344 3.45528,8.288841 2.7682,12.50117 -0.4535,2.7803 -2.38197,5.37945 -4.35442,7.24297 -2.20119,2.07962 -2.95958,2.69169 -2.94967,2.38057 z"
         id="path27"
         sodipodi:nodetypes="csaaszaascc" />
      <path
         style="fill:#0132bf;fill-opacity:1;stroke-width:0.264583"
         d="m 47.08645,81.406875 c 0.0028,-0.12923 0.159379,-0.83014 0.347937,-1.55757 0.41016,-1.58233 0.392714,-1.57529 4.873353,-1.96584 3.716933,-0.32397 7.15299,-1.03105 10.384023,-2.13683 1.825173,-0.62464 2.124316,-0.67455 1.5875,-0.26486 -2.62047,1.99992 -8.282252,4.58428 -11.782478,5.3782 -2.392704,0.54271 -5.416884,0.84841 -5.410335,0.5469 z"
         id="path25" />
      <path
         style="fill:#0132bf;fill-opacity:1;stroke-width:0.264583"
         d="m 241.56096,106.25678 c -0.006,-0.17331 0.10662,-0.38771 0.25019,-0.47645 0.14358,-0.0887 0.51464,-0.99622 0.82459,-2.01665 0.45064,-1.48363 0.54221,-2.3427 0.45712,-4.288225 -0.0964,-2.20366 -0.18403,-2.54492 -0.93016,-3.62137 -1.10428,-1.59314 -2.31019,-2.75028 -3.78759,-3.6344 -1.59872,-0.95671 -11.58528,-4.83573 -15.47813,-6.01207 -4.03677,-1.21982 -10.94002,-4.05804 -12.80575,-5.26497 -8.27232,-5.35134 -12.2978,-13.16883 -12.89914,-25.05017 -0.21391,-4.22658 0.20068,-7.63679 1.41389,-11.62994 0.50844,-1.67349 0.96618,-3.25152 1.0172,-3.50673 0.051,-0.25521 0.18546,-0.61239 0.29876,-0.79375 0.11329,-0.18135 0.23117,-0.4963 0.26195,-0.69987 0.13795,-0.91247 2.89108,-5.91209 4.26447,-7.74418 0.83341,-1.11176 1.69388,-2.30069 1.91216,-2.64207 0.44026,-0.68855 3.70417,-4.01463 3.70417,-3.77473 0,0.0833 -0.51753,0.82709 -1.15006,1.65278 -0.63253,0.82569 -1.2866,1.75986 -1.45348,2.07594 -0.16688,0.31607 -0.49672,0.76799 -0.73299,1.00426 -0.71029,0.71029 -3.1887,5.80672 -3.8936,8.00655 -2.09305,6.53189 -2.428,8.68335 -2.21116,14.20284 0.46704,11.88808 5.50745,20.73163 14.8687,26.0876 1.51637,0.86758 4.85101,2.11632 11.37363,4.25916 2.18281,0.7171 4.20688,1.41331 4.49792,1.54712 0.29104,0.13381 1.87718,0.80147 3.52474,1.48368 3.60987,1.49475 5.60765,2.786 7.54058,4.87379 3.45721,3.73421 4.15691,7.87398 2.07593,12.282225 -0.74637,1.58106 -2.92254,4.30107 -2.94394,3.67963 z"
         id="path23" />
      <path
         style="fill:#0132bf;fill-opacity:1;stroke-width:0.264583"
         d="m 182.8586,130.70662 c -11.37521,-2.02865 -22.71874,-5.5506 -32.81527,-11.16939 -3.91648,-2.17955 -7.18102,-5.2113 -10.39111,-8.53394 -3.94987,-4.08837 -6.5505,-8.15325 -9.69075,-15.147005 -1.43359,-3.1928 -3.34837,-10.50076 -3.66883,-14.00255 -0.0743,-0.81157 -0.17954,-1.95182 -0.23394,-2.5339 -0.0544,-0.58209 -0.16048,-2.36803 -0.23577,-3.96875 l -0.13688,-2.91042 1.00505,3.70417 c 0.55278,2.03729 1.06425,3.771131 1.70238,5.62239 0.94633,2.745364 1.90622,5.63096 3.14933,8.12249 1.26381,2.50553 4.63711,8.24831 6.33464,10.784225 4.18874,6.25751 9.49321,11.53488 15.79913,15.25204 13.02965,7.6806 28.39124,11.28737 43.38156,13.30083 10.59532,1.42315 25.81441,-0.0717 32.05655,-0.97687 2.47683,-0.35917 7.17414,-1.36455 8.59896,-1.84045 1.32584,-0.44284 -1.81689,1.17623 -3.70417,1.90832 -2.49228,0.96677 -7.81428,2.85061 -11.90625,3.36609 -12.98299,1.63552 -26.36229,1.32015 -39.24463,-0.97728 z"
         id="path17"
         sodipodi:nodetypes="aasscsscsacsaasssaa" />
      <path
         style="fill:#0132bf;fill-opacity:1;stroke-width:0.264583"
         d="m 87.657092,132.01811 c -6.172379,-3.21338 -12.248781,-8.03959 -13.828812,-15.63907 -0.877732,-5.09011 -0.189244,-10.02108 1.176864,-15.45093 1.781831,-7.082225 5.471697,-17.444355 8.403408,-23.599015 3.565294,-7.48476 5.146103,-10.57011 7.314096,-14.27532 1.32102,-2.25768 2.394567,-4.39463 2.392561,-4.7625 -0.0033,-0.60462 -0.268552,-0.76665 -2.82503,-1.72561 -3.382322,-1.26874 -7.533902,-3.9013 -10.095482,-6.40165 -0.968123,-0.94499 -1.403038,-1.48455 -0.966475,-1.19902 4.606791,3.090331 10.779191,4.210958 14.470788,4.70567 l 3.622876,0.48261 -0.65385,1.07393 c -0.35962,0.59065 -1.318121,2.3836 -2.130011,3.98433 -0.811887,1.60073 -1.62651,3.08901 -1.810269,3.30729 -0.476776,0.56635 -3.61673,7.34348 -4.780841,10.31875 -0.540901,1.38245 -1.207087,2.95774 -1.480418,3.50065 -2.56478,6.126121 -4.273481,11.493131 -5.88518,17.07812 -1.810208,8.258465 -4.641212,20.521195 0.618105,28.391985 5.969363,8.9334 13.697563,12.81409 29.504168,12.97899 3.80397,0.0281 4.68088,0.0916 3.58193,0.25914 -10.92006,0.43732 -18.704568,1.09686 -26.628428,-3.02835 z"
         id="path15"
         sodipodi:nodetypes="acsssssscccssssccacca" />
      <path
         style="fill:#0132bf;fill-opacity:1;stroke-width:0.264583"
         d="m 312.68112,135.51096 c -2.76762,-0.22251 -4.69167,-0.60266 -7.49872,-1.48157 -2.27907,-0.7136 -6.02964,-2.38891 -6.1736,-2.75764 -0.0485,-0.12424 -0.24231,-0.22589 -0.43064,-0.22589 -0.18833,0 -0.48212,-0.16833 -0.65288,-0.37406 -0.17074,-0.20574 -0.8104,-0.60993 -1.42145,-0.8982 -1.14943,-0.54226 -4.00116,-3.19089 -6.53497,-6.06954 -1.67029,-1.89762 -3.58616,-5.08695 -4.78346,-7.963 -2.02001,-4.85225 -2.99085,-11.76491 -2.43046,-17.305505 0.39722,-3.9273 2.17758,-12.78542 3.39537,-16.89353 0.53486,-1.80429 1.02873,-3.51865 1.09749,-3.80969 0.24601,-1.04144 0.93853,-3.18907 1.27974,-3.96875 0.19103,-0.43657 0.87961,-2.11065 1.53014,-3.72018 0.65053,-1.60954 1.62084,-3.837 2.15627,-4.94991 0.53542,-1.11292 0.9968,-2.17727 1.02529,-2.36524 0.0285,-0.18797 0.1252,-0.46082 0.21495,-0.60634 0.0897,-0.14552 1.25214,-2.40371 2.5831,-5.01819 1.33099,-2.61448 2.50457,-4.81713 2.60797,-4.89479 0.1034,-0.0777 0.3664,-0.49837 0.58444,-0.93494 0.21804,-0.43656 0.70451,-1.2552 1.08101,-1.81919 0.9307,-1.39414 0.75517,-2.1243 -0.64588,-2.68681 -3.66278,-1.47061 -10.65098,-4.15504 -11.00111,-4.22594 -0.22807,-0.0462 -2.26012,-0.75402 -4.51569,-1.57299 -13.23306,-4.8047 -32.79006,-11.09449 -35.51931,-11.42346 -0.60422,-0.0728 -1.28323,-0.2474 -1.50891,-0.38794 -1.15509,-0.7193 11.24295,1.33071 16.87664,2.79055 7.89966,2.147695 16.16918,4.309715 23.19428,6.47087 1.45521,0.46119 2.88396,0.88422 3.175,0.94008 0.29105,0.0559 0.52917,0.11925 0.52917,0.14088 0,0.0216 0.29766,0.093 0.66146,0.15855 0.3638,0.0656 2.09021,0.57995 3.83646,1.14305 1.74625,0.56311 4.57139,1.41349 6.27808,1.88975 l 3.10306,0.86592 -0.48569,0.81563 c -0.26712,0.4486 -1.00013,1.76814 -1.62888,2.9323 -0.62873,1.16417 -1.22651,2.1762 -1.32834,2.24896 -0.24617,0.17588 -4.35481,8.41469 -4.61809,9.26042 -0.11327,0.3638 -0.77087,1.8599 -1.46132,3.32467 -1.79631,3.81077 -4.68577,11.50279 -4.89911,13.04191 -0.0677,0.48865 -0.2059,1.02233 -0.30705,1.18597 -0.10112,0.16364 -0.20558,0.47821 -0.23209,0.69905 -0.0265,0.22084 -0.4146,1.94933 -0.86236,3.84111 -2.10775,8.90516 -2.71462,14.87978 -2.18485,21.509875 0.49216,6.15919 1.66516,11.03429 3.76899,15.66407 1.79523,3.95064 6.05774,8.81017 10.04785,11.45515 2.36225,1.56589 6.85477,3.78828 7.42656,3.67381 0.0997,-0.02 0.69503,0.14501 1.32292,0.36661 1.47844,0.52182 4.26037,1.15151 6.94483,1.57198 1.90103,0.29776 2.00414,0.34129 0.94361,0.39839 -0.65484,0.0353 -1.42875,0.083 -1.71979,0.10601 -0.29104,0.023 -1.56006,-0.041 -2.82003,-0.14227 z"
         id="path13" />
      <path
         style="fill:#0132bf;fill-opacity:1;stroke-width:0.264583"
         d="m 33.719887,135.53428 c -0.873125,-0.10636 -2.216354,-0.26452 -2.984952,-0.35146 -1.870411,-0.21158 -4.212008,-0.82175 -6.936923,-1.80763 -5.538059,-2.00369 -9.896871,-4.91933 -12.964584,-8.67211 -0.509323,-0.62307 -1.0507653,-1.26653 -1.2032053,-1.42993 -6.377256,-8.05181 -6.9050283,-20.88977 -5.153673,-29.533535 0.9423862,-4.686843 2.1700064,-9.479263 4.119879,-14.15521 0.5774,-1.30377 3.3207593,-8.43269 3.4214323,-8.89097 0.128498,-0.58494 1.329015,-3.32548 3.580981,-8.17466 1.047492,-2.25557 2.182072,-4.76442 2.521287,-5.57522 0.339215,-0.81079 1.695982,-3.55955 3.015038,-6.10835 1.319055,-2.5488 2.398283,-4.82377 2.398283,-5.05548 0,-0.28723 -0.484163,-0.55657 -1.521354,-0.84634 -0.836747,-0.23376 -2.592919,-0.80332 -3.902606,-1.26569 -1.309688,-0.46237 -2.408231,-0.753644 -2.448732,-0.78172 0,0 -3.915855,-1.91988 -6.0664033,-3.35836 -3.250053,-2.17393 -5.018539,-4.14959 -6.694067,-7.47828 -2.11025699,-4.19234 -2.49744499,-6.14597 -2.50859499,-12.65764 -0.0091,-5.30952 0.529431,-12.0037803 0.91540799,-11.3792603 0.106942,0.17304 0.145746,1.27587 0.08623,2.4507303 -0.05952,1.17486 -0.02573,2.32495 0.07508,2.55576 0.100812,0.23081 0.159162,0.67159 0.129666,0.97951 -0.09099,0.94986 0.758636,5.33378 1.473482,7.60294 0.798582,2.53496 1.178468,3.31504 3.48924,7.16505 1.972136,3.28579 3.6967983,5.11844 6.6179153,7.03228 1.111195,0.72802 2.142975,1.41216 2.292843,1.52031 3.606736,1.685964 7.787471,3.741071 11.62887,4.29768 0.220972,0 0.401768,0.0503 0.401768,0.11166 0,0.0614 -1.370997,2.79985 -3.046661,6.08542 -1.857289,3.812069 -3.758903,7.720742 -5.306096,11.18351 -0.960646,2.1551 -1.924577,4.27556 -2.142069,4.71212 -0.422445,0.84796 -1.955333,4.5859 -2.061549,5.02708 -0.03504,0.14552 -0.137413,0.44318 -0.227506,0.66146 -0.232295,0.56281 -2.232426,6.37237 -2.999913,8.7135 -1.206217,3.67945 -3.2008973,12.19872 -3.5352383,15.099 -0.133295,1.15629 -0.258219,4.69825 -0.251959,7.143745 -0.2073528,5.63582 0.6666349,11.67509 2.5003293,16.4995 1.983259,4.95734 5.848589,9.83299 10.288184,12.97732 1.301961,0.92211 5.537686,3.33782 5.795226,3.30513 0.03367,-0.004 0.239808,0.0559 0.458089,0.13375 1.139267,0.40628 5.132972,1.47433 6.570115,1.75708 0.904671,0.17798 1.708515,0.4266 1.786318,0.55249 0.07781,0.12589 0.104672,0.21074 0.0597,0.18855 -0.04497,-0.0222 -0.796137,-0.12737 -1.669262,-0.23373 z"
         id="path42"
         sodipodi:nodetypes="sssscccssssssscsscccssscsccsccsssssccsccsssss" />
      <path
         id="path871"
         style="display:inline;fill:#000000;fill-opacity:1;stroke-width:0.714286"
         transform="scale(0.26458333)"
         d="m 168.76033,495.77736 c -0.20889,-0.2089 -4.48451,-0.86014 -9.50137,-1.4472 -10.80192,-1.26402 -13.15469,-1.75875 -22.30797,-4.6908 -25.02986,-8.01778 -45.582539,-22.40796 -60.241883,-42.17902 -5.706467,-7.69631 -7.468918,-10.80305 -11.064663,-19.50408 -8.924327,-21.59523 -11.563008,-38.9261 -10.822891,-71.0848 0.415169,-18.03949 1.029855,-22.89695 5.16445,-40.8113 1.393079,-6.03593 3.306568,-14.52527 4.252197,-18.8652 3.10514,-14.25092 11.983177,-39.48788 23.551035,-66.94686 9.023124,-21.41845 13.327965,-30.73625 28.077395,-60.77333 9.81404,-19.98622 12.41737,-25.86898 11.85362,-26.78572 -0.39732,-0.6461 -4.71361,-2.54187 -9.59173,-4.21282 C 99.292987,132.02435 85.774217,125.76534 73.902051,117.99997 65.269414,112.35351 59.609882,107.09911 54.466737,99.955912 42.36513,83.148255 36.510909,68.875851 32.839167,47.228598 31.358103,38.496783 30.823391,32.70594 29.294034,8.8353785 l -0.308926,-4.8217905 8.258746,7.541246 c 13.646368,12.460802 26.792297,21.806862 39.158197,27.839406 11.957502,5.833311 29.962699,13.150755 44.170529,17.951223 32.39478,10.945384 73.87736,17.70197 124.75804,20.320299 42.62497,2.193493 132.79211,-1.901671 191.07143,-8.677969 16.17796,-1.881055 22.77567,-3.097298 61.78572,-11.389755 50.04468,-10.638119 57.59722,-12.033275 88.92857,-16.427508 25.95728,-3.640518 29.78175,-3.929185 52.14285,-3.935695 23.31643,-0.0068 28.19753,0.458873 41.78572,3.986394 10.74136,2.78848 12.58837,3.540907 21.07451,8.585262 11.22867,6.674584 18.84354,13.858303 25.66369,24.210632 15.07316,22.879618 22.3253,58.799207 16.45723,81.512137 -2.81304,10.88801 -11.65281,29.73046 -19.84127,42.29265 -11.64427,17.8639 -32.92998,33.23862 -59.78273,43.18122 -9.56076,3.54 -32.51654,10.88074 -47.35585,15.14333 -12.42611,3.5694 -12.29185,3.45095 -11.14065,9.82892 3.91812,21.70755 12.8173,45.4506 23.69425,63.21635 14.59425,23.83735 42.6458,54.23645 65.51653,70.9994 13.54086,9.92468 30.48729,19.15745 42.93469,23.39171 27.35331,9.30485 53.65674,13.17654 83.85103,12.34231 20.70628,-0.57208 32.79385,-2.19714 52.01028,-6.99225 49.36322,-12.31771 73.26593,-33.73345 75.26229,-67.43157 0.9515,-16.06115 -5.38622,-31.33365 -17.14722,-41.32104 -12.49607,-10.61163 -25.46964,-16.35936 -66.1775,-29.31883 -11.7415,-3.73794 -27.58871,-10.64063 -34.74835,-15.1356 -13.42072,-8.42577 -24.17315,-18.39646 -31.11686,-28.85441 -7.63643,-11.50132 -16.47114,-32.10518 -19.15257,-44.66663 -1.88129,-8.81289 -2.83007,-37.4558 -1.51829,-45.83692 2.3005,-14.69834 13.80979,-40.60078 24.19136,-54.44434 5.34143,-7.122605 28.82943,-30.626451 33.80407,-33.826825 6.18743,-3.980616 18.03572,-10.077529 27.44993,-14.125267 14.9295,-6.419073 25.82957,-9.666929 40.71429,-12.131488 12.59635,-2.085662 15.188,-2.274035 36.07142,-2.62184 23.93058,-0.398555 43.43815,0.339065 71.42861,2.700849 21.2184,1.790374 26.7865,2.508329 66.0714,8.519315 94.2706,14.424351 129.5199,17.859966 183.2143,17.857237 30.4283,-0.0016 39.8778,-0.590718 63.4426,-3.955602 29.7796,-4.252331 49.5153,-8.592958 76.3075,-16.782918 17.6147,-5.384586 18.9761,-5.887961 31.5022,-11.648058 8.6906,-3.996331 33.4498,-16.966969 41.8625,-21.930651 l 2.5995,-1.53368 v 1.677697 c 0,3.002165 -3.4322,23.653088 -5.3224,32.055294 -4.1808,18.584311 -12.5371,42.218939 -19.3378,54.694987 -9.7631,17.91075 -27.1812,35.2382 -45.338,45.10222 -16.941,9.2035 -43.5906,17.61882 -61.479,19.41362 -3.7044,0.37166 -22.9048,0.90345 -42.6674,1.18175 l -35.9322,0.506 -1.9731,4.36191 c -9.3544,20.67565 -30.6148,76.52396 -36.0596,94.71906 -0.9992,3.33928 -3.3145,11.05122 -5.145,17.13764 -7.0169,23.33039 -14.2885,55.68124 -17.421,77.50522 -3.3123,23.07605 -3.6715,61.05293 -0.7465,78.92857 1.6741,10.23123 4.1968,20.27664 6.9059,27.5 2.7309,7.28134 8.9946,19.56463 11.9535,23.44088 1.4094,1.84645 2.5626,3.56368 2.5626,3.81605 0,0.85157 -14.0007,-0.38618 -21.4927,-1.90008 -16.5475,-3.34378 -36.5592,-11.55857 -50.6502,-20.79194 -14.457,-9.47318 -28.7021,-26.39561 -37.5142,-44.56491 -8.9623,-18.47888 -12.2924,-32.96423 -13.3009,-57.85714 -1.2726,-31.41138 0.2145,-46.5413 7.5901,-77.21986 2.5671,-10.67773 12.5602,-41.77405 18.2239,-56.70872 6.2825,-16.56627 21.3179,-48.02368 31.0428,-64.94822 5.6712,-9.86976 9.8829,-17.95866 10.6658,-20.48455 0.6076,-1.95997 0.056,-2.16191 -28.1361,-10.29679 -12.375,-3.57087 -27.6428,-8.10119 -33.9285,-10.06739 -11.971,-3.74458 -31.4238,-9.06697 -45.3572,-12.40993 -4.5178,-1.08395 -21.5535,-5.29997 -37.8571,-9.36893 -30.72773,-7.66886 -46.30452,-11.179965 -61.93088,-13.959601 -12.92864,-2.29975 -32.20435,-2.304271 -40.56914,-0.0095 -15.8045,4.335764 -25.30579,12.179961 -32.77264,27.056901 -1.83872,3.66346 -1.87022,3.97751 -1.87022,18.63648 0,16.61356 0.45186,19.20273 4.33972,24.86674 3.18628,4.64188 11.27543,12.62944 17.446,17.22686 10.4735,7.80333 48.31285,27.77444 69.28571,36.5681 26.33465,11.04175 53.01695,26.97158 64.66125,38.60402 6.7371,6.73014 13.8562,18.89995 17.9756,30.72869 l 2.3632,6.78571 v 16.78571 c 0,19.428 -0.502,22.66999 -6.1383,39.64286 -3.7057,11.15954 -10.7214,26.34712 -15.4162,33.37324 -9.0226,13.503 -25.4399,28.41655 -46.65983,42.38606 -20.94893,13.79108 -43.69779,24.34533 -68.92858,31.97915 -24.35821,7.36981 -38.08171,9.83138 -81.07142,14.54165 -14.48936,1.58757 -61.31965,1.80684 -77.85715,0.36456 -39.45063,-2.28666 -81.94548,-9.49102 -115.71428,-23.57657 -45.83743,-19.37585 -84.61015,-46.89328 -105.36577,-74.77927 -21.50501,-28.89282 -35.70668,-57.60273 -46.81764,-94.64598 -2.75318,-9.17892 -8.92412,-37.702 -8.29327,-38.33284 0.16422,-0.16423 4.94262,-1.08561 10.61866,-2.04751 24.55422,-4.16112 37.33576,-7.67845 58.77943,-16.17543 18.72257,-7.41875 24.69542,-10.31208 30.91477,-14.97555 9.27729,-6.95642 22.54825,-19.73455 27.62447,-26.59863 8.21234,-11.10474 11.2701,-18.88667 12.65983,-32.21894 2.6673,-25.58854 -7.15723,-48.75178 -24.55548,-57.894297 -13.02816,-6.846107 -36.1131,-8.761257 -63.96477,-5.306592 -12.08525,1.499028 -34.85903,5.047921 -38.74309,6.037428 -2.16071,0.550464 -22.08929,5.219157 -44.28571,10.374871 -53.1558,12.34686 -87.41675,19.10803 -153.57143,30.30629 -33.40113,5.65393 -38.71157,6.44708 -52.85715,7.89456 -10.93974,1.11944 -29.53339,3.62962 -32.70974,4.41589 -1.02765,0.25439 -2.26323,1.63876 -3.31485,3.71405 -1.68225,3.31975 -15.32994,36.36072 -20.54335,49.73527 -2.55303,6.5496 -6.2892,18.24766 -6.2892,19.69169 0,1.10183 11.64314,4.30949 22.06121,6.0778 27.09734,4.59939 59.82509,3.87036 85.61895,-1.90719 3.6348,-0.81416 6.93594,-1.37122 7.33588,-1.2379 0.39993,0.13331 -0.96685,2.79826 -3.0373,5.92211 -9.33911,14.09065 -27.03832,28.74824 -44.47874,36.83503 -18.90153,8.76429 -41.43902,13.40811 -72.43077,14.92426 -9.51143,0.46531 -14.02868,0.95201 -14.39912,1.55141 -0.98912,1.60042 -6.99994,27.25091 -9.52407,40.6428 -2.64791,14.04869 -5.72361,39.33765 -6.86297,56.42857 -0.91507,13.72643 -0.89591,40.92203 0.0373,52.89293 1.84281,23.63994 7.51403,48.87185 13.57388,60.39182 1.15818,2.20174 2.10579,4.13125 2.10579,4.28778 0,0.42898 -4.70464,0.34187 -5.14172,-0.0952 z m 201.96762,-17.02139 c -16.20072,-7.12304 -28.51165,-16.76972 -36.22611,-28.38633 -12.31963,-22.43614 -14.96867,-52.79202 -11.74133,-83.21061 3.22734,-30.41857 12.33107,-60.89983 23.51697,-83.58671 5.40259,-12.41105 11.76128,-25.02771 16.94796,-35.78076 1.90696,-3.84998 6.02959,-12.55257 9.16142,-19.33909 6.25536,-13.55513 12.92638,-24.99111 13.70496,-25.97548 1.88213,-2.37966 7.34298,-12.86852 6.16566,-14.2732 -0.48794,-0.58215 -5.40964,-1.18961 -10.82789,-1.44998 -14.84922,-0.71361 -20.23735,-1.3731 -28.7196,-3.51504 -16.03953,-4.26965 -27.65566,-9.53071 -39.26472,-19.42673 l 16.5,-1.13492 c 49.74294,2.05906 94.28633,-26.18639 136.60351,-37.84153 1.04307,-0.21884 6.39651,-1.8008 11.89652,-3.51587 20.19277,-6.29681 45.76577,-12.0957 47.16608,-10.69535 0.29443,0.29443 -1.69122,4.50263 -4.41286,9.35135 -9.20818,16.40489 -33.54278,67.83923 -34.73983,73.42719 -0.18973,0.88626 -2.45632,6.96124 -5.0366,13.50002 -5.2066,13.19414 -17.45393,48.76161 -17.86738,51.88864 -0.14551,1.09999 -0.50804,2.675 -0.80575,3.49999 -0.29783,0.825 -2.3921,9.15001 -4.65419,18.5 -12.3617,51.09498 -16.52995,85.70453 -14.28586,118.61731 1.49874,21.9806 4.53869,43.84797 7.76867,55.88266 2.3291,8.67806 8.32226,25.51869 10.08457,28.33739 0.3998,0.63946 0.80856,1.61261 0.90838,2.16261 0.0998,0.54999 0.48755,1.75997 0.86161,2.68879 0.62801,1.55932 -1.16677,1.6783 -23.41466,1.55203 -24.82284,-0.25437 -47.73653,-2.22539 -69.28953,-11.27638 z" />
    </g>
  </g>
</svg>
