<?xml version="1.0" encoding="UTF-8" standalone="no"?>
<svg
   xmlns:dc="http://purl.org/dc/elements/1.1/"
   xmlns:cc="http://creativecommons.org/ns#"
   xmlns:rdf="http://www.w3.org/1999/02/22-rdf-syntax-ns#"
   xmlns:svg="http://www.w3.org/2000/svg"
   xmlns="http://www.w3.org/2000/svg"
   xmlns:sodipodi="http://sodipodi.sourceforge.net/DTD/sodipodi-0.dtd"
   xmlns:inkscape="http://www.inkscape.org/namespaces/inkscape"
   version="1.1"
   id="svg863"
   width="102.4"
   height="62.080002"
   viewBox="0 0 102.4 62.080002"
   sodipodi:docname="DON.svg"
   inkscape:version="1.0.2 (e86c870879, 2021-01-15, custom)">
  <metadata
     id="metadata869">
    <rdf:RDF>
      <cc:Work
         rdf:about="">
        <dc:format>image/svg+xml</dc:format>
        <dc:type
           rdf:resource="http://purl.org/dc/dcmitype/StillImage" />
        <dc:title></dc:title>
      </cc:Work>
    </rdf:RDF>
  </metadata>
  <defs
     id="defs867" />
  <sodipodi:namedview
     pagecolor="#ffffff"
     bordercolor="#666666"
     borderopacity="1"
     objecttolerance="10"
     gridtolerance="10"
     guidetolerance="10"
     inkscape:pageopacity="0"
     inkscape:pageshadow="2"
     inkscape:window-width="2560"
     inkscape:window-height="1377"
     id="namedview865"
     showgrid="false"
     inkscape:zoom="7.2644172"
     inkscape:cx="12.427789"
     inkscape:cy="44.659571"
     inkscape:window-x="-8"
     inkscape:window-y="-8"
     inkscape:window-maximized="1"
     inkscape:current-layer="g871" />
  <g
     inkscape:groupmode="layer"
     inkscape:label="Image"
     id="g871">
    <path
       id="path2234"
       style="fill:#df7033;fill-opacity:1;stroke-width:0.32"
       d="m 84.16,34.944257 v -2.495744 l -1.12,0.130755 -1.12,0.130752 v 2.364992 2.364989 h 1.12 1.12 z m -42.72,-14.766745 -1.28,-0.605705 1.050637,-0.0259 c 1.485872,-0.03663 3.992537,-1.395119 5.137657,-2.784348 0.535178,-0.649263 1.506944,-2.418221 2.159482,-3.931017 2.478762,-5.7465829 2.972928,-6.7051989 4.099123,-7.9517641 2.963584,-3.2803312 8.89248,-3.8695336 11.930413,-1.1856211 L 65.76,4.7733582 l -1.6,0.015104 c -3.71352,0.035058 -6.037875,1.6779847 -8.475712,5.9909008 -3.458986,6.119493 -5.212422,8.229817 -7.823366,9.415704 -1.735949,0.788465 -4.734935,0.780265 -6.420922,-0.01756 z m 19.069424,-3.269191 c -1.623645,-1.114096 -2.340944,-2.274928 -2.513152,-4.06713 -0.20296,-2.112231 0.04881,-2.9969193 1.23847,-4.3518691 2.136973,-2.4338798 7.354269,-2.6078238 9.262285,-0.3088036 0.412797,0.4973869 0.36161,0.5232122 -0.612819,0.3091917 -3.690147,-0.8104922 -7.065878,1.881083 -5.691805,4.53825 0.834855,1.614428 2.949181,2.232529 5.424371,1.585756 0.829511,-0.216753 0.87049,-0.185213 0.54633,0.420484 -0.659027,1.231402 -2.807552,2.359818 -4.752042,2.495795 -1.503209,0.105118 -1.996444,-5.44e-4 -2.901638,-0.621674 z M 36.470822,16.610227 c -2.171177,-1.259571 -3.36398,-3.932617 -2.985404,-6.6902267 0.510784,-3.720635 2.79088,-5.7641938 6.421833,-5.7556306 2.910467,0.00686 4.34912,0.6211172 2.526266,1.0786244 -0.421565,0.1058064 -1.443325,0.805417 -2.270579,1.5546906 -1.278986,1.158426 -1.528903,1.5827924 -1.669853,2.8354596 -0.19537,1.7363447 0.258627,2.7623077 1.342755,3.0344057 1.309146,0.328575 2.488614,-0.856192 4.319728,-4.3391168 2.746259,-5.2236184 6.263696,-8.00843319 10.115264,-8.00843319 2.400653,0 2.50247,0.30446964 0.445539,1.33232919 C 53.669206,2.175605 52.341635,3.1572648 51.766214,3.8337953 50.658125,5.1365995 50.563034,5.3066357 48.004694,10.56 45.456646,15.792238 43.626752,17.266234 39.68,17.265622 38.165555,17.265387 37.292976,17.087184 36.470822,16.610227 Z M 0.31957365,44.720001 c 3.9079e-4,-4.845264 0.0254337,-5.04 0.64764513,-5.04 0.62916842,0 0.64478632,-0.162873 0.56000002,-5.84 C 1.4408577,28.057429 1.4329197,27.998995 0.72,27.897745 0.00690516,27.796469 0,27.745378 0,22.570432 v -5.225056 l 2.48,0.638243 c 1.364,0.351035 2.768,0.694412 3.12,0.763062 9.379342,1.829229 10.16178,2.115821 11.279061,4.131305 0.350557,0.632377 0.360205,0.631861 1.097303,-0.05868 1.400027,-1.311604 2.216691,-1.41688 6.762642,-0.871765 2.783214,0.333741 4.575245,0.71133 5.260994,1.108514 0.962041,0.557212 1.039998,0.561196 1.039976,0.05316 -2.1e-5,-0.508172 0.339122,-0.525298 4.538875,-0.229208 l 4.538899,0.32 0.818669,1.76 0.818666,1.76 0.09918,-1.68 0.09918,-1.68 6.943277,-0.04401 c 3.818803,-0.0242 7.570704,-0.06021 8.337559,-0.08 1.391033,-0.0359 1.395875,-0.03208 2.08,1.643706 0.377145,0.923832 0.793718,1.679832 0.925718,1.68 0.132,1.68e-4 0.24,-0.770562 0.24,-1.712733 v -1.713038 l 3.76,-0.219126 c 8.497139,-0.495198 18.752608,-1.881572 28.364922,-3.834481 5.110521,-1.038291 6.422332,-0.623651 7.699809,2.433772 0.69359,1.660007 0.68867,8.613882 -0.008,10.664548 -0.457081,1.346313 -0.457081,1.595293 0,2.737661 0.27655,0.691158 0.50282,1.973741 0.50282,2.850179 0,1.486426 0.0538,1.593523 0.8,1.593523 h 0.8 v 5.12 l 0.0243,5.52618 h -8.573129 c -0.544531,-0.492794 -1.091951,-1.371864 -1.059722,0 H 61.18119 l -0.727852,-2.162259 c -0.333548,-0.990883 -0.796967,-1.686964 -0.881437,-1.602493 -0.08447,0.08447 -0.128058,0.874707 -0.09686,1.756077 l 0.05672,2.008675 H 42.658806 l -0.819996,-2.246182 -0.819997,-1.840001 -0.02941,1.840001 -0.0294,2.246182 h -9.895668 c -0.02585,-0.574345 0.224522,-1.274144 -0.574867,-0.669516 -0.481445,0.364147 -2.241255,0.669516 -5.926521,0.669516 -4.963398,0 -6.470119,-0.511642 -7.164306,-1.752084 -0.291689,-0.521219 -0.973676,0.548216 -1.754988,1.752084 H 0.3191473 Z" />
    <path
       id="path2200"
       style="display:inline;fill:#ffffff;fill-opacity:1;stroke-width:0.32"
       d="m 68.543126,36.880001 c -0.0129,-5.461844 0.02432,-5.84 0.574848,-5.84 0.545472,0 0.591341,0.375532 0.62538,5.12 0.03082,4.295124 -0.03863,5.12 -0.431053,5.12 -0.257283,0 -0.532496,0.324 -0.611584,0.72 -0.07908,0.396 -0.150003,-1.908 -0.157591,-5.12 z M 81.28,35.057534 v -3.022467 l 1.52,-0.09753 c 1.506237,-0.09665 1.521763,-0.109124 1.714589,-1.377533 0.107027,-0.704 0.215027,0.7 0.24,3.12 l 0.04541,4.4 h -1.76 -1.76 z M 32,36.160001 c 0,-4.337778 0.07333,-5.12 0.48,-5.12 0.406666,0 0.48,0.782222 0.48,5.12 0,4.33778 -0.07333,5.12 -0.48,5.12 -0.406666,0 -0.48,-0.78222 -0.48,-5.12 z M 16.855602,46.962972 c 0.266557,-0.411311 0.626599,-0.487883 0.855647,0.146614 0.73055,2.023729 2.397448,1.949875 6.864642,1.950442 4.418431,6.4e-4 5.310973,-0.05547 6.439019,-1.768084 0.660384,-1.002602 0.615542,-1.015352 0.643565,-0.251942 l 0.07415,2.020026 h 8.587376 l 0.01494,-3.060027 0.01494,-3.28 1.278518,3.02944 c 0.703188,1.666193 1.452458,3.175477 1.66505,3.310587 h 6.626544 v -8.580027 -8.8 h 0.8 0.8 v 4.941626 c 0,4.769379 -0.0223,4.937331 -0.64,4.818374 -0.612378,-0.117932 -0.64,0.049 -0.64,3.867661 v 3.752366 c 2.826667,-0.05953 5.653333,0.05953 8.48,0 l 0.16,-2.922501 0.16,-2.982467 1.297702,2.982467 1.2977,2.922501 H 92.32 l 0.171766,-5.380031 c 0.169609,-5.312485 0.173364,-5.347917 0.24,-1.509721 0.07124,4.103197 0.41306,5.520781 1.582148,6.561379 2.701041,0.876473 4.045274,0.417788 7.286086,0.328373 v -4.420027 c 0,-4.402294 -0.0125,-4.481773 -0.72,-4.582256 -0.65791,-0.09344 -0.72004,-0.272816 -0.7205,-2.08 -3.2e-4,-1.261734 -0.206556,-2.383222 -0.569676,-3.097744 -0.537062,-1.056797 -0.538835,-1.19223 -0.03142,-2.4 0.315462,-0.750901 0.628436,-2.695167 0.757156,-4.703587 0.27695,-4.321464 -0.23365,-6.416761 -1.925742,-7.902442 -1.29982,-1.141258 -1.451408,-1.158879 -4.46992,-0.519584 -4.436092,0.939527 -12.878992,2.383936 -16.799881,2.87412 -3.091287,0.386468 -14.371837,1.422328 -15.76,1.447194 -0.132,0.0024 -0.240698,1.480299 -0.241549,3.284299 l -0.0016,3.28 -1.438451,-3.18981 C 58.887302,25.295796 58.24,23.821541 58.24,23.774069 c 0,-0.04747 -3.52785,-0.05206 -7.839667,-0.01019 l -7.839667,0.07612 -0.0119,3.2 -0.0119,3.2 -1.37592,-3.191386 L 39.701605,23.794684 31.68,23.162896 v 1.291463 1.291462 L 30.716097,24.57644 c -1.175171,-1.425687 -2.00624,-1.696905 -6.726567,-2.195203 -4.191471,-0.44247 -5.256582,-0.167294 -6.357117,1.642391 L 17.05313,24.976184 16.518359,23.608093 C 15.624909,21.322399 15.99132,21.450333 1.3823106,18.323262 0.68881754,18.174819 0.68496813,18.201547 0.74231056,22.766961 c 0.0565149,4.49953 0.072348,4.595122 0.77768944,4.695296 0.7191625,0.102137 0.72,0.109675 0.72,6.48 0,6.16441 -0.021408,6.377744 -0.64,6.377744 -0.60977434,0 -0.64,0.213335 -0.64,4.517133 v 4.222894 h 6.8787472 7.1377198 z"
       sodipodi:nodetypes="ssssssccsssccccssssscscssccccsccccccssscccccccssccsssssssssccccssccccccccssscssssssscccc" />
    <path
       id="path3722-4-1-8"
       style="display:inline;fill:#233475;fill-opacity:1;stroke:none;stroke-width:0.321906;stroke-linecap:butt;stroke-linejoin:miter;stroke-miterlimit:4;stroke-dasharray:none;stroke-opacity:1"
       d="m 12.239553,56.232358 h -2.58216 v -1.522382 l 1.085592,-3e-6 v 1.075449 h 2.541511 v -3.124895 l -5.133748,0.03551 c -1.018348,0 -1.045008,0.941087 -1.045008,0.941087 v 3.536321 c 0,0 0.02666,0.941087 1.045008,0.941087 h 2.58216 v 1.522382 l -1.085592,3e-6 V 58.561468 H 7.105805 v 3.124896 l 5.133749,-0.03551 c 1.018347,0 1.045007,-0.941087 1.045007,-0.941087 v -3.536322 c 0,0 -0.02666,-0.941087 -1.045008,-0.941087 z m 48.262239,3.448581 1.085592,3e-6 v -1.075449 h 2.541511 v 3.124895 l -5.133748,-0.03551 c -1.018348,0 -1.045008,-0.941087 -1.045008,-0.941087 v -7.072642 c 0,0 0.02666,-0.941087 1.045008,-0.941087 l 5.133748,-0.03551 v 3.124895 h -2.541511 v -1.075449 l -1.085592,2e-6 z m 33.30825,-1.423888 c 0,0 0.805337,-0.0713 0.805337,0.627062 0,0.73894 -0.805337,0.610712 -0.805337,0.610712 z m 0,-3.408984 c 0,0 0.805337,-0.0713 0.805337,0.627063 0,0.738941 -0.805337,0.610713 -0.805337,0.610713 z m 2.064668,6.98028 c 1.668823,0 1.636101,-1.521892 1.638524,-2.333522 0.003,-0.81163 0.163324,-1.95689 -0.745697,-2.394393 0.592529,-0.457789 0.757734,-1.518112 0.745697,-2.313236 -0.01104,-0.7102 -0.282479,-2.04944 -1.719704,-2.04944 h -5.3671 v 2.04944 h 0.659472 v 4.707629 H 90.42643 v 2.333522 z m -14.654848,0 c -0.962452,0 -1.674051,-0.123444 -1.674051,-2.434977 v -4.606174 h -0.659473 v -2.049439 h 3.302434 v 6.655613 c 0.0057,0.252022 0.295453,0.344951 0.497142,0.344951 0.201706,0 0.491516,-0.09293 0.497151,-0.344951 v -6.655619 h 3.302442 v 2.049445 h -0.659471 v 4.606174 c 0,2.311533 -0.711599,2.434977 -1.674053,2.434977 z m -58.991385,0 h -3.295331 l -1.09574,-7.041151 h -0.659472 v -2.049439 h 3.961909 v 2.049439 h -0.659472 l 0.426393,2.739964 1.278093,-4.77926 h 2.140763 l 1.278092,4.77926 0.426388,-2.739964 h -0.659472 v -2.049439 h 3.961909 v 2.049439 h -0.659471 l -1.095749,7.041151 H 24.282 l -1.026763,-4.048156 z m 52.771349,0 V 58.534461 H 72.45832 v 0.960364 h -0.659472 v -4.707629 h 0.659472 v -2.049439 h -3.961913 v 2.049439 h 0.659471 v 4.707629 h -0.659471 v 2.333522 z M 42.807611,57.188016 v 4.642627 H 39.992164 V 59.49712 h 0.659472 v -4.707628 h -0.659472 v -2.049436 h 2.815447 l 2.303081,3.551005 2.30308,-3.551002 h 2.815447 v 2.049433 h -0.659473 v 4.707628 h 0.659473 v 2.333523 h -2.815447 v -4.642627 l -2.30308,3.550997 z m -6.522553,4.561981 v -2.333523 h -0.65947 v -4.707629 h 0.65947 v -2.049437 h -3.474917 v 2.049437 h 0.659472 v 4.707629 h -0.659472 v 2.333523 z M 1.7867285,44.719889 c 0.024524,-3.009385 0.077307,-3.279939 0.64,-3.280496 0.5830157,-6.4e-4 0.6163243,-0.33382 0.6751496,-6.754736 0.034033,-3.714772 -0.018762,-7.062499 -0.117322,-7.439394 C 2.8814309,26.850912 2.5495039,26.560001 2.202678,26.560001 1.6486101,26.560001 1.6,26.27329 1.6,23.00531 v -3.55469 l 0.88,0.223655 c 1.5011126,0.381513 8.149924,1.775052 9.967839,2.089181 1.803982,0.311721 2.497204,0.825889 3.358141,2.490757 0.44104,0.852876 0.51402,2.468049 0.51402,11.376054 -0.04553,6.392225 0.231606,9.226724 -1.220402,11.254218 -0.99375,1.38761 -4.628323,1.115447 -6.9879852,1.115405 L 1.76,47.999778 Z M 10.88,34.886097 V 28.172194 L 10.098187,27.975972 C 9.6681904,27.868049 9.1641904,27.873804 8.9781872,27.988759 8.7580246,28.124829 8.64,30.536405 8.64,34.898888 v 6.701113 h 1.12 1.12 z m 8.777496,12.805201 c -0.364378,-0.147472 -0.904378,-0.63728 -1.2,-1.088458 C 17.982394,45.877745 17.92,44.591217 17.92,35.520001 c 0,-11.253587 0.03163,-11.453759 1.913224,-12.109688 1.257868,-0.438495 8.139856,0.421607 9.437532,1.179491 1.702577,0.994359 1.759405,1.354436 1.764527,11.180476 0.005,9.515072 -0.154256,10.750774 -1.518678,11.786749 -0.636297,0.483126 -8.724982,0.593286 -9.859109,0.134269 z m 5.928796,-11.68241 0.03593,-6.231116 -0.792923,-0.199011 c -0.436109,-0.109457 -0.945109,-0.104957 -1.131112,0.01 C 23.479369,29.723998 23.36,31.993614 23.36,36.018888 v 6.221113 h 1.095181 1.095181 z m 6.864706,9.139305 c -0.02646,-2.602934 0.02227,-2.841926 0.558583,-2.738643 0.852275,0.164135 0.944896,-0.5764 0.841677,-6.729549 -0.08788,-5.238286 -0.116029,-5.443539 -0.759284,-5.535445 -0.619225,-0.08847 -0.669088,-0.304697 -0.682582,-2.96 l -0.01456,-2.864555 c 2.844884,0.110259 4.894459,0.253221 6.832381,0.404601 L 43.52,33.759983 v -8.800002 h 3.36 3.36 v 2.698436 c 0,2.417393 -0.06666,2.719592 -0.64,2.901564 -0.61913,0.196504 -0.64,0.484171 -0.64,8.821565 v 8.618436 H 46.283722 43.607443 L 41.723722,43.530101 C 40.687674,41.071653 39.732,39.055652 39.6,39.0501 c -0.132,-0.0056 -0.24,2.005901 -0.24,4.469901 v 4.480001 l -3.44,-4e-6 -3.44,-3e-6 -0.02899,-2.851802 z M 50.88,45.315009 c 0,-2.567251 0.03805,-2.7159 0.72,-2.812752 0.711811,-0.101094 0.72111,-0.167414 0.817766,-5.83239 0.09978,-5.847668 -0.02605,-6.523986 -1.137766,-6.116548 -0.300858,0.110262 -0.4,-0.553396 -0.4,-2.677616 v -2.824211 l 3.24617,-0.223577 c 1.785392,-0.122966 3.350982,-0.107552 3.479091,0.03425 0.128105,0.141807 1.068928,2.165831 2.09071,4.497831 1.021783,2.332 1.965274,4.24 2.096643,4.24 0.13137,0 0.213773,-2.016008 0.18312,-4.480018 L 61.92,24.639965 l 0.8,-0.0019 c 0.44,-0.0011 1.988,-0.09438 3.44,-0.207412 l 2.64,-0.205511 v 2.927429 c 0,2.714097 -0.04664,2.92743 -0.64,2.92743 -0.624762,0 -0.64,0.213333 -0.64,8.96 v 8.960001 H 64.844573 62.169149 L 60.364573,43.859051 C 59.372058,41.581528 58.56,39.565528 58.56,39.379051 c 0,-0.186477 -0.144,-0.33905 -0.32,-0.33905 -0.197974,0 -0.32,1.694874 -0.32,4.444621 v 4.444624 l -3.52,0.04813 -3.52,0.04813 z m 18.56,-0.195008 c 0,-2.666665 0.04741,-2.88 0.64,-2.88 0.618118,0 0.64,-0.213334 0.64,-6.24 0,-6.066384 -0.01814,-6.24 -0.652458,-6.24 -0.613945,0 -0.647001,-0.165281 -0.56,-2.8 l 0.09246,-2.8 5.92,-0.670787 c 3.256,-0.368933 6.388,-0.739993 6.96,-0.824579 l 1.04,-0.153791 v 4.264579 4.264578 h -0.915338 c -0.503433,0 -1.583433,0.09157 -2.4,0.203496 L 78.72,31.446992 v -1.163303 c 0,-1.13124 -0.03085,-1.161104 -1.11936,-1.083496 l -1.119357,0.07981 -6.4e-4,1.721333 -6.4e-4,1.721333 1.92,-0.217223 1.92,-0.217222 v 2.838701 2.838704 l -1.66063,0.07577 c -0.913344,0.04167 -1.777344,0.147907 -1.92,0.236073 C 76.596717,38.365636 76.48,39.302398 76.48,40.359163 v 1.921389 l 1.04,-0.100275 c 0.970144,-0.09354 1.04647,-0.188762 1.136317,-1.417636 l 0.09631,-1.31736 1.663687,-0.199859 C 81.331341,39.135502 82.476,39.044312 82.96,39.042782 l 0.88,-0.0028 v 4.48 4.480001 h -7.2 -7.2 z m 15.04,-0.16 c 0,-2.826665 0.04491,-3.04 0.64,-3.04 0.619683,0 0.64,-0.213334 0.64,-6.72 0,-6.506667 -0.02032,-6.72 -0.64,-6.72 -0.596406,0 -0.64,-0.213334 -0.64,-3.131929 v -3.13193 l 5.68,-1.032719 c 3.124,-0.567995 6.065549,-1.030627 6.536774,-1.028071 1.051024,0.0057 2.042343,1.178989 2.540151,3.006424 0.568253,2.08604 0.182525,7.542841 -0.655565,9.2741 l -0.688979,1.423242 0.636758,1.047062 c 0.410704,0.675348 0.714279,1.93578 0.85513,3.550442 0.187949,2.154637 0.301773,2.503379 0.817051,2.503379 0.54862,0 0.59868,0.294317 0.59868,3.52 v 3.520001 h -3.031782 c -1.632567,-0.02308 -2.636223,0.13624 -3.52,-0.944109 C 93.880739,46.345269 93.76,45.034478 93.76,41.755617 v -4.356166 l -2.08,0.20055 -0.08793,5.2 -0.08793,5.200001 H 87.992074 84.48 Z m 9.219357,-15.346079 c 0.115878,-1.799813 -0.168791,-2.20916 -1.333072,-1.916944 -0.779965,0.195759 -0.846285,0.34343 -0.846285,1.88438 0,0.919587 0.08111,1.753086 0.180243,1.852221 0.09914,0.09913 0.567136,0.07749 1.04,-0.0481 0.762288,-0.20246 0.871021,-0.4033 0.959114,-1.771555 z" />
  </g>
</svg>
