<?xml version="1.0" encoding="UTF-8" standalone="no"?>
<svg
   xmlns:dc="http://purl.org/dc/elements/1.1/"
   xmlns:cc="http://creativecommons.org/ns#"
   xmlns:rdf="http://www.w3.org/1999/02/22-rdf-syntax-ns#"
   xmlns:svg="http://www.w3.org/2000/svg"
   xmlns="http://www.w3.org/2000/svg"
   xmlns:sodipodi="http://sodipodi.sourceforge.net/DTD/sodipodi-0.dtd"
   xmlns:inkscape="http://www.inkscape.org/namespaces/inkscape"
   version="1.1"
   id="svg1436"
   width="457.33334"
   height="196"
   viewBox="0 0 457.33334 196"
   sodipodi:docname="Elsmore.svg"
   inkscape:version="1.0.2 (e86c870879, 2021-01-15, custom)"
   inkscape:export-filename="C:\Users\cmoth\source\repos\cmothersead\FRST Website\images\logos\Elsmore.png"
   inkscape:export-xdpi="106.95332"
   inkscape:export-ydpi="106.95332">
  <metadata
     id="metadata1442">
    <rdf:RDF>
      <cc:Work
         rdf:about="">
        <dc:format>image/svg+xml</dc:format>
        <dc:type
           rdf:resource="http://purl.org/dc/dcmitype/StillImage" />
        <dc:title></dc:title>
      </cc:Work>
    </rdf:RDF>
  </metadata>
  <defs
     id="defs1440">
    <rect
       x="52.56519"
       y="86.686454"
       width="298.48421"
       height="47.032012"
       id="rect2011" />
  </defs>
  <sodipodi:namedview
     pagecolor="#ffffff"
     bordercolor="#666666"
     borderopacity="1"
     objecttolerance="10"
     gridtolerance="10"
     guidetolerance="10"
     inkscape:pageopacity="0"
     inkscape:pageshadow="2"
     inkscape:window-width="2560"
     inkscape:window-height="1377"
     id="namedview1438"
     showgrid="false"
     inkscape:zoom="2.3002915"
     inkscape:cx="225.81093"
     inkscape:cy="130.3233"
     inkscape:window-x="-8"
     inkscape:window-y="-8"
     inkscape:window-maximized="1"
     inkscape:current-layer="g1444" />
  <g
     inkscape:groupmode="layer"
     inkscape:label="Image"
     id="g1444">
    <path
       id="path2115-2-5-8"
       style="fill:#fe0006;stroke:#000000;stroke-width:4;stroke-linecap:butt;stroke-linejoin:miter;stroke-opacity:1;fill-opacity:1;stroke-miterlimit:4;stroke-dasharray:none"
       d="m 390.37899,173.81794 c -37.68903,9.13914 -105.54606,18.61369 -162.9039,18.61369 -57.35784,0 -125.21487,-9.47455 -162.903899,-18.6137 -36.008192,-8.73156 -64.87858977,-27.56878 -64.87858977,-76.218817 0,-48.650046 28.87039777,-67.48726 64.87858977,-76.218828 C 102.26022,12.241135 170.11725,2.766589 227.47509,2.766589 c 57.35784,0 125.21487,9.47455 162.9039,18.61369 36.00819,8.73157 64.87859,27.568783 64.87859,76.218834 0,48.650047 -28.8704,67.487257 -64.87859,76.218827 z"
       sodipodi:nodetypes="sssssssss" />
    <path
       id="Path"
       style="fill:#ffffff;stroke:#000000;stroke-width:1.4945;stroke-miterlimit:4;stroke-dasharray:none;stroke-opacity:1;fill-opacity:1"
       d="m 90.251477,74.282096 c 0,0 -1.271906,5.773199 -1.271906,5.773199 0,0 -24.403323,0 -24.403323,0 -1.019994,0 -1.615197,0.450858 -1.783137,1.34983 0,0 -2.551225,11.43369 -2.551225,11.43369 0,0 -0.254382,1.495537 -0.254382,1.495537 0,0.376627 0.338354,0.566312 1.017526,0.566312 0,0 23.257372,0 23.257372,0 0,0 -1.400332,6.323036 -1.400332,6.323036 0,0 -16.443408,0 -16.443408,0 -2.92909,0 -5.435859,1.23163 -7.515365,3.68934 -2.464783,2.92512 -3.697174,7.01035 -3.697174,12.25571 0,0 26.062977,0 26.062977,0 0,0 -1.400334,6.32302 -1.400334,6.32302 0,0 -41.483918,0 -41.483918,0 0,0 11.024837,-49.209674 11.024837,-49.209674 0,0 40.841792,0 40.841792,0 z M 128.69597,116.344 c 0,0 -1.59296,7.14777 -1.59296,7.14777 0,0 -35.428145,0 -35.428145,0 0,0 10.958145,-49.209674 10.958145,-49.209674 0,0 13.95393,0 13.95393,0 0,0 -7.89817,35.213774 -7.89817,35.213774 -0.13088,0.56633 -0.19264,1.15464 -0.19264,1.76771 0,1.4103 0.33836,2.5622 1.01753,3.45567 0.85205,1.08315 2.1042,1.62475 3.76139,1.62475 0,0 15.42092,0 15.42092,0 z m 51.77444,-40.670838 c 0,0 -3.63543,16.079731 -3.63543,16.079731 0,0 -5.79643,0 -5.79643,0 0,0 0.12848,-2.114088 0.12848,-2.114088 0,-3.197251 -0.46679,-5.451547 -1.40034,-6.765639 -1.36081,-1.877664 -3.95403,-2.817871 -7.77716,-2.817871 -4.03552,0 -7.28569,0.876976 -9.74799,2.62818 -2.20791,1.561514 -3.31435,3.430932 -3.31435,5.605502 0,2.749149 2.22027,4.808255 6.65836,6.182822 4.43809,1.371823 8.80455,2.696913 13.09693,3.972525 4.63073,2.177316 6.94488,5.490046 6.94488,9.940916 0,4.63781 -2.73895,8.59107 -8.21925,11.8598 -5.48032,3.26322 -12.04237,4.89621 -19.6911,4.89621 -3.05998,0 -6.75714,-0.49759 -11.08657,-1.49553 -1.44479,-0.3299 -3.35636,-0.85224 -5.73471,-1.56151 0,0 0,-9.03918 0,-9.03918 1.82514,1.16012 3.35388,2.03163 4.58875,2.61168 3.77868,1.74295 7.47337,2.6117 11.08657,2.6117 4.11951,0 7.49561,-0.79176 10.12834,-2.37526 2.63519,-1.58627 3.95155,-3.53816 3.95155,-5.85568 0,-2.74091 -2.25238,-4.63506 -6.75222,-5.67424 -8.19947,-1.89141 -12.40541,-2.8866 -12.61534,-2.98006 -4.54675,-1.891443 -6.81889,-5.226149 -6.81889,-10.004162 0,-4.72852 2.23015,-8.629553 6.69046,-11.705847 5.18149,-3.593126 12.65734,-5.391065 22.43002,-5.391065 2.8871,0 6.56204,0.230927 11.01991,0.695532 1.48677,0.140206 3.44277,0.373884 5.86557,0.695534 z m 69.06939,-1.391066 c 0,0 -1.97577,49.209674 -1.97577,49.209674 0,0 -14.77881,0 -14.77881,0 0,0 2.47959,-31.348501 2.47959,-31.348501 0.089,-0.755998 -0.12349,-1.135386 -0.6347,-1.135386 -0.38528,0 -0.70387,0.189686 -0.95826,0.569072 0,0 -17.90054,31.914815 -17.90054,31.914815 0,0 -7.51784,0 -7.51784,0 0,0 -2.87228,-30.853647 -2.87228,-30.853647 -0.0395,-0.569071 -0.0839,-0.874225 -0.12593,-0.920962 -0.12595,-0.332649 -0.40257,-0.497597 -0.82736,-0.497597 -0.33834,0 -0.61496,0.140176 -0.82736,0.426123 -0.12847,0.186942 -0.29637,0.519578 -0.51122,0.992436 0,0 -12.61781,30.853647 -12.61781,30.853647 0,0 -7.51784,0 -7.51784,0 1.74115,-3.82407 4.05776,-9.20414 6.94733,-16.14297 1.78314,-4.25019 4.26767,-10.47974 7.45361,-18.694185 2.84513,-7.222 4.67272,-12.011007 5.48032,-14.372519 0,0 15.09987,0 15.09987,0 0,0 1.59545,24.299664 1.59545,24.299664 0,1.228878 0.27413,1.84195 0.82736,1.84195 0.38526,0 0.76561,-0.25845 1.1484,-0.780771 0.21242,-0.283161 0.44703,-0.662554 0.70141,-1.135387 0,0 13.37851,-24.225456 13.37851,-24.225456 0,0 13.95389,0 13.95389,0 z m 56.45948,17.748411 c 0,7.406195 -3.46008,14.622703 -10.38518,21.649513 -7.22395,7.36222 -15.10483,11.04057 -23.64265,11.04057 -6.15948,0 -11.10881,-1.94915 -14.8455,-5.85019 -3.73915,-3.90102 -5.60626,-8.97594 -5.60626,-15.22749 0,-5.171151 1.33612,-10.155357 4.01329,-14.949861 1.91158,-3.428177 4.43809,-6.672166 7.58205,-9.729214 2.37833,-2.30103 3.73915,-3.452921 4.07997,-3.452921 0,0 12.04238,-0.08521 12.04238,-0.08521 -0.17042,0 -1.31637,1.525773 -3.44281,4.57732 -2.67469,3.848802 -4.82088,7.628873 -6.43608,11.337471 -2.33636,5.305836 -3.50452,10.144325 -3.50452,14.509975 0,3.94228 0.6594,7.04332 1.97576,9.29486 1.48677,2.5347 3.69718,3.80205 6.62626,3.80205 3.86759,0 7.45608,-2.32027 10.77045,-6.95807 3.48232,-4.92371 5.22594,-10.68869 5.22594,-17.294863 0,-3.56289 -0.72362,-6.207562 -2.16841,-7.942274 -1.44479,-1.73471 -3.50454,-2.603438 -6.17925,-2.603438 -0.72362,0 -1.31882,0.06873 -1.78561,0.203435 -0.46678,0.134704 -0.89155,0.302404 -1.27438,0.505842 0,0 0,-4.599317 0,-4.599317 0,0 15.3592,-5.916153 15.3592,-5.916153 3.77867,1.652233 6.49538,3.516152 8.15255,5.589004 2.29437,2.878355 3.4428,6.911346 3.4428,12.098976 z m 58.38307,25.396653 c -1.91155,2.0811 -3.46255,3.64261 -4.65295,4.68178 -3.65271,3.12028 -6.86088,4.68181 -9.62204,4.68181 -2.97355,0 -5.71246,-1.75397 -8.21923,-5.25638 -1.86711,-3.26874 -3.71445,-6.5347 -5.53959,-9.80343 -2.04245,-3.55465 -4.01823,-5.33061 -5.92731,-5.33061 0,0 -0.89159,0 -0.89159,0 0,0 1.27191,-5.74844 1.27191,-5.74844 1.10396,0 2.6105,-0.18696 4.52453,-0.56083 3.52676,-0.698301 6.34965,-1.7732 8.47361,-3.222 3.05752,-2.105843 4.58875,-4.885235 4.58875,-8.343663 0,-2.149817 -0.60756,-4.008245 -1.81772,-5.569757 -1.21016,-1.567012 -2.68458,-2.350518 -4.42574,-2.350518 0,0 -10.19749,0 -10.19749,0 0,0 -9.55781,42.886648 -9.55781,42.886648 0,0 -14.8455,0 -14.8455,0 0,0 11.02483,-49.209674 11.02483,-49.209674 0,0 27.46084,0 27.46084,0 5.81867,0 10.30121,1.003437 13.44516,3.007559 3.14148,2.001379 4.71472,4.794509 4.71472,8.37939 0,3.015811 -0.95578,5.633 -2.86735,7.848807 -2.1215,2.452221 -5.54207,4.431607 -10.25677,5.940897 0,0 -6.62627,2.122341 -6.62627,2.122341 2.16595,0.51685 5.07529,3.89004 8.73049,10.11135 1.61272,2.7354 3.20323,4.10171 4.77645,4.10171 0.80758,0 1.57319,-0.32714 2.29684,-0.98418 0.4643,-0.42336 1.01504,-1.1024 1.65471,-2.03986 0,0 2.48452,4.65705 2.48452,4.65705 z m 56.07092,-43.145064 c 0,0 -1.2719,5.773199 -1.2719,5.773199 0,0 -24.40333,0 -24.40333,0 -1.01999,0 -1.61519,0.450858 -1.78311,1.34983 0,0 -2.55124,11.43369 -2.55124,11.43369 0,0 -0.25438,1.495537 -0.25438,1.495537 0,0.376627 0.33834,0.566312 1.01752,0.566312 0,0 23.25738,0 23.25738,0 0,0 -1.40033,6.323036 -1.40033,6.323036 0,0 -16.44342,0 -16.44342,0 -2.92909,0 -5.43586,1.23163 -7.51538,3.68934 -2.46476,2.92512 -3.69717,7.01035 -3.69717,12.25571 0,0 26.063,0 26.063,0 0,0 -1.40033,6.32302 -1.40033,6.32302 0,0 -41.48393,0 -41.48393,0 0,0 11.02484,-49.209674 11.02484,-49.209674 0,0 40.84178,0 40.84178,0 z" />
    <path
       id="Path #1"
       style="fill:#ffffff;stroke:#000000;stroke-opacity:1;fill-opacity:1"
       d="m 112.91926,148.35362 c 0,0.90925 -0.19767,1.70781 -0.59299,2.39964 -0.39533,0.69182 -0.98042,1.26504 -1.75526,1.72362 -0.77484,0.45858 -1.73153,0.80252 -2.87008,1.03971 -1.14249,0.23325 -2.45498,0.35185 -3.93746,0.35185 -1.53782,0 -2.89379,-0.15813 -4.067909,-0.4744 -1.174122,-0.32417 -2.158488,-0.75903 -2.953096,-1.31248 -0.790655,-0.55346 -1.387599,-1.20575 -1.790833,-1.95687 -0.407188,-0.75508 -0.604851,-1.55759 -0.604851,-2.40755 0,0 4.107452,0 4.107452,0 0.0074,0.3558 0.08697,0.7274 0.245103,1.10296 0.162084,0.37952 0.442767,0.72741 0.842047,1.03972 0.395328,0.30835 0.940877,0.56531 1.624797,0.76693 0.68391,0.19766 1.56549,0.2965 2.63683,0.2965 0.85786,0 1.59317,-0.0633 2.19802,-0.18581 0.60485,-0.1265 1.09901,-0.29649 1.48247,-0.51392 0.38347,-0.21743 0.6602,-0.4744 0.83415,-0.77089 0.17394,-0.2965 0.26091,-0.61671 0.26091,-0.95669 0,-0.66415 -0.28068,-1.16227 -0.83414,-1.49829 -0.55741,-0.33603 -1.37574,-0.593 -2.45894,-0.7788 0,0 -4.88624,-0.87367 -4.88624,-0.87367 -1.909428,-0.34394 -3.304933,-0.92902 -4.190467,-1.75526 -0.885533,-0.83019 -1.324347,-1.9371 -1.324347,-3.31679 0,-0.44277 0.0593,-0.87763 0.181851,-1.30854 0.126504,-0.43881 0.324168,-0.84995 0.600897,-1.24528 0.27673,-0.38742 0.636478,-0.75112 1.079244,-1.0832 0.450674,-0.33603 0.996226,-0.62066 1.636656,-0.86181 0.644384,-0.24115 1.391557,-0.43091 2.245456,-0.56532 0.85391,-0.14232 1.83432,-0.21348 2.93333,-0.21348 1.55759,0 2.89379,0.15418 4.01652,0.45463 1.11878,0.29254 2.04385,0.70764 2.77915,1.23342 0.73531,0.52974 1.28877,1.1504 1.66038,1.8699 0.37161,0.72345 0.58508,1.5062 0.64834,2.35615 0,0 -3.84259,0 -3.84259,0 -0.0593,-0.41509 -0.18975,-0.80647 -0.38346,-1.17017 -0.18976,-0.35974 -0.4823,-0.67205 -0.87763,-0.93692 -0.39533,-0.26092 -0.91321,-0.47044 -1.55364,-0.62462 -0.64438,-0.15022 -1.4469,-0.22929 -2.41149,-0.22929 -0.86181,0 -1.5734,0.0751 -2.13477,0.21743 -0.56531,0.14627 -1.01203,0.33207 -1.34016,0.55741 -0.328119,0.22534 -0.553454,0.47439 -0.679958,0.74717 -0.130458,0.26882 -0.193711,0.53369 -0.193711,0.79066 0,0.3123 0.0593,0.58903 0.173944,0.82623 0.118598,0.24115 0.304406,0.45067 0.557416,0.62857 0.249049,0.1779 0.573219,0.32812 0.968549,0.45463 0.39533,0.12255 0.86576,0.22533 1.41527,0.31231 0,0 4.46324,0.75507 4.46324,0.75507 1.03971,0.18581 1.93711,0.41905 2.70009,0.69578 0.76298,0.28068 1.3955,0.62857 1.89757,1.03971 0.50206,0.40719 0.87763,0.88949 1.12273,1.44294 0.24906,0.55742 0.37161,1.2018 0.37161,1.93711 z m 11.61191,-13.11752 c 0,0 4.45139,0 4.45139,0 0,0 3.84258,13.40556 3.84258,13.40556 0,0 0.20557,1.72362 0.20557,1.72362 0,0 0.20162,0 0.20162,0 0,0 0.26487,-1.74734 0.26487,-1.74734 0,0 4.22605,-13.38184 4.22605,-13.38184 0,0 0.0123,0.007 0.0123,0.007 0,0 0,-0.007 0,-0.007 0,0 4.5858,0 4.5858,0 0,0 4.2221,13.3937 4.2221,13.3937 0,0 0.24905,1.73548 0.24905,1.73548 0,0 0.21348,0 0.21348,0 0,0 0.21743,-1.74734 0.21743,-1.74734 0,0 3.81886,-13.38184 3.81886,-13.38184 0,0 4.45139,0 4.45139,0 0,0 -5.75597,18.106 -5.75597,18.106 0,0 -5.34878,0 -5.34878,0 0,0 -4.18652,-13.25138 -4.18652,-13.25138 0,0 -0.1265,-0.70368 -0.1265,-0.70368 0,0 -0.11465,0 -0.11465,0 0,0 -0.1186,0.7195 -0.1186,0.7195 0,0 -4.19442,13.23556 -4.19442,13.23556 0,0 -0.0672,-0.0124 -0.0672,-0.0124 0,0 0,0.0124 0,0.0124 0,0 -5.29343,0 -5.29343,0 0,0 -5.75597,-18.106 -5.75597,-18.106 z m 41.60705,17.8654 c 0,0 0,-18.106 0,-18.106 0,0 4.30907,0 4.30907,0 0,0 0,18.106 0,18.106 0,0 -4.30907,0 -4.30907,0 z m 21.69646,-14.6706 c 0,0 -0.25301,0 -0.25301,0 0,0 0.12256,1.20575 0.12256,1.20575 0,0 0.18975,13.46485 0.18975,13.46485 0,0 -4.05606,0 -4.05606,0 0,0 0,-18.106 0,-18.106 0,0 5.88643,0 5.88643,0 0,0 6.02084,10.87941 6.02084,10.87941 0,0 0.29649,0.99227 0.29649,0.99227 0,0 0.12255,0 0.12255,0 0,0 0.31231,-1.01599 0.31231,-1.01599 0,0 6.00898,-10.85569 6.00898,-10.85569 0,0 5.88642,0 5.88642,0 0,0 0,18.106 0,18.106 0,0 -4.04815,0 -4.04815,0 0,0 0.19371,-13.45299 0.19371,-13.45299 0,0 0.10674,-1.21761 0.10674,-1.21761 0,0 -0.26092,0 -0.26092,0 0,0 -6.15129,11.95075 -6.15129,11.95075 0,0 -4.20233,0 -4.20233,0 0,0 -6.17502,-11.95075 -6.17502,-11.95075 z m 68.53358,9.92272 c 0,0.90925 -0.19766,1.70781 -0.59299,2.39964 -0.39533,0.69182 -0.98041,1.26504 -1.75526,1.72362 -0.77484,0.45858 -1.73153,0.80252 -2.87007,1.03971 -1.1425,0.23325 -2.45499,0.35185 -3.93746,0.35185 -1.53783,0 -2.8938,-0.15813 -4.06792,-0.4744 -1.17413,-0.32417 -2.15849,-0.75903 -2.9531,-1.31248 -0.79066,-0.55346 -1.3876,-1.20575 -1.79083,-1.95687 -0.40719,-0.75508 -0.60485,-1.55759 -0.60485,-2.40755 0,0 4.10745,0 4.10745,0 0.007,0.3558 0.087,0.7274 0.2451,1.10296 0.16209,0.37952 0.44277,0.72741 0.84205,1.03972 0.39533,0.30835 0.94088,0.56531 1.62479,0.76693 0.68392,0.19766 1.5655,0.2965 2.63684,0.2965 0.85786,0 1.59317,-0.0633 2.19802,-0.18581 0.60485,-0.1265 1.09901,-0.29649 1.48248,-0.51392 0.38346,-0.21743 0.66019,-0.4744 0.83414,-0.77089 0.17394,-0.2965 0.26091,-0.61671 0.26091,-0.95669 0,-0.66415 -0.28068,-1.16227 -0.83414,-1.49829 -0.55741,-0.33603 -1.37574,-0.593 -2.45893,-0.7788 0,0 -4.88625,-0.87367 -4.88625,-0.87367 -1.90943,-0.34394 -3.30494,-0.92902 -4.19047,-1.75526 -0.88554,-0.83019 -1.32435,-1.9371 -1.32435,-3.31679 0,-0.44277 0.0593,-0.87763 0.18185,-1.30854 0.12651,-0.43881 0.32417,-0.84995 0.6009,-1.24528 0.27673,-0.38742 0.63648,-0.75112 1.07924,-1.0832 0.45068,-0.33603 0.99623,-0.62066 1.63666,-0.86181 0.64438,-0.24115 1.39155,-0.43091 2.24546,-0.56532 0.85391,-0.14232 1.83432,-0.21348 2.93333,-0.21348 1.55759,0 2.8938,0.15418 4.01653,0.45463 1.11877,0.29254 2.04384,0.70764 2.77915,1.23342 0.73531,0.52974 1.28876,1.1504 1.66037,1.8699 0.37161,0.72345 0.58509,1.5062 0.64834,2.35615 0,0 -3.84258,0 -3.84258,0 -0.0593,-0.41509 -0.18976,-0.80647 -0.38347,-1.17017 -0.18976,-0.35974 -0.4823,-0.67205 -0.87763,-0.93692 -0.39533,-0.26092 -0.9132,-0.47044 -1.55363,-0.62462 -0.64439,-0.15022 -1.4469,-0.22929 -2.4115,-0.22929 -0.86182,0 -1.57341,0.0751 -2.13477,0.21743 -0.56532,0.14627 -1.01204,0.33207 -1.34016,0.55741 -0.32812,0.22534 -0.55346,0.47439 -0.67996,0.74717 -0.13046,0.26882 -0.19371,0.53369 -0.19371,0.79066 0,0.3123 0.0593,0.58903 0.17394,0.82623 0.1186,0.24115 0.3044,0.45067 0.55741,0.62857 0.24906,0.1779 0.57323,0.32812 0.96855,0.45463 0.39533,0.12255 0.86577,0.22533 1.41528,0.31231 0,0 4.46324,0.75507 4.46324,0.75507 1.03971,0.18581 1.93711,0.41905 2.70009,0.69578 0.76298,0.28068 1.39551,0.62857 1.89757,1.03971 0.50207,0.40719 0.87763,0.88949 1.12273,1.44294 0.24906,0.55742 0.37161,1.2018 0.37161,1.93711 z m 13.46886,4.74788 c 0,0 0,-18.106 0,-18.106 0,0 4.30907,0 4.30907,0 0,0 0,7.44402 0,7.44402 0,0 11.14033,0 11.14033,0 0,0 0,-7.44402 0,-7.44402 0,0 4.32093,0 4.32093,0 0,0 0,18.106 0,18.106 0,0 -4.32093,0 -4.32093,0 0,0 0,-7.49146 0,-7.49146 0,0 -11.14033,0 -11.14033,0 0,0 0,7.49146 0,7.49146 0,0 -4.30907,0 -4.30907,0 z m 32.40492,-9.47205 c 0,-1.24923 0.21743,-2.40359 0.6602,-3.45912 0.43881,-1.05552 1.10691,-1.96873 2.00035,-2.73566 0.8974,-0.76694 2.03199,-1.35993 3.39982,-1.79083 1.37179,-0.43091 2.98868,-0.64834 4.85462,-0.64834 1.86595,0 3.48679,0.21743 4.85462,0.65624 1.36784,0.43091 2.49847,1.03181 3.39587,1.8027 0.89739,0.77088 1.56549,1.68409 2.00431,2.73566 0.43881,1.05157 0.66019,2.19802 0.66019,3.43935 0,0 0,1.60898 0,1.60898 0,1.23342 -0.22138,2.37987 -0.66019,3.43144 -0.43882,1.05553 -1.10692,1.96874 -2.00827,2.73962 -0.90134,0.76694 -2.03593,1.37179 -3.40377,1.80665 -1.36783,0.43486 -2.98867,0.64834 -4.85462,0.64834 -1.85804,0 -3.47097,-0.21348 -4.84276,-0.64043 -1.36783,-0.43091 -2.50242,-1.03181 -3.39982,-1.79874 -0.89344,-0.76694 -1.56154,-1.67619 -2.00035,-2.72776 -0.44277,-1.05553 -0.6602,-2.20988 -0.6602,-3.45912 0,0 0,-1.60898 0,-1.60898 z m 10.90313,7.22659 c 0.97646,0 1.86595,-0.1186 2.66846,-0.3558 0.80647,-0.2372 1.49829,-0.58904 2.07547,-1.05157 0.58113,-0.46253 1.02785,-1.0318 1.34411,-1.70386 0.32417,-0.67601 0.4823,-1.4469 0.4823,-2.31662 0,0 0,-1.75921 0,-1.75921 0,-0.89344 -0.15813,-1.68409 -0.4823,-2.36801 -0.31626,-0.67996 -0.76298,-1.25319 -1.34411,-1.71572 -0.57718,-0.45858 -1.269,-0.81042 -2.07547,-1.04366 -0.80251,-0.2372 -1.692,-0.35975 -2.66846,-0.35975 -0.9725,0 -1.86199,0.12255 -2.66451,0.3637 -0.79856,0.24115 -1.48643,0.59299 -2.06361,1.05157 -0.57322,0.46253 -1.01599,1.03576 -1.34016,1.71572 -0.31626,0.68392 -0.47439,1.47062 -0.47439,2.35615 0,0 0.0124,1.75921 0.0124,1.75921 0,0.86972 0.15813,1.64061 0.47439,2.31662 0.32417,0.67206 0.77089,1.24133 1.34411,1.70386 0.57323,0.46253 1.2611,0.81437 2.05966,1.05157 0.80251,0.2372 1.68805,0.3558 2.65265,0.3558 z m 42.85942,-9.43647 c 0,0.95669 -0.16604,1.80665 -0.49416,2.54591 -0.32417,0.73926 -0.80647,1.35597 -1.43899,1.85409 -0.63648,0.49811 -1.41923,0.87762 -2.3522,1.13459 -0.93297,0.26091 -2.00036,0.39137 -3.20611,0.39137 0,0 -6.92613,0 -6.92613,0 0,0 0,5.75597 0,5.75597 0,0 -4.28535,0 -4.28535,0 0,0 0,-18.106 0,-18.106 0,0 11.19172,0 11.19172,0 1.17807,0 2.2336,0.12651 3.16657,0.37161 0.93693,0.24906 1.72363,0.60485 2.36801,1.07529 0.64043,0.47044 1.13064,1.04762 1.47062,1.72758 0.33603,0.68392 0.50602,1.46271 0.50602,2.32848 0,0 0,0.92111 0,0.92111 z m -4.36837,-0.64833 c 0,-0.43486 -0.0672,-0.82229 -0.19766,-1.15436 -0.13046,-0.33603 -0.33999,-0.62066 -0.62857,-0.846 -0.28464,-0.22534 -0.6602,-0.39928 -1.11878,-0.51788 -0.45858,-0.12651 -1.01599,-0.1858 -1.68014,-0.1858 0,0 -6.41221,0 -6.41221,0 0,0 0,6.20268 0,6.20268 0,0 6.21059,0 6.21059,0 1.34807,0 2.32453,-0.24905 2.92542,-0.74717 0.6009,-0.49811 0.90135,-1.22946 0.90135,-2.19011 0,0 0,-0.56136 0,-0.56136 z" />
    <path
       id="path2115-2-5-8-0"
       style="fill:none;stroke:#000000;stroke-width:2;stroke-linecap:butt;stroke-linejoin:miter;stroke-opacity:1;stroke-miterlimit:4;stroke-dasharray:none"
       d="m 384.36648,161.2534 c -36.29799,7.57728 -101.65053,15.43265 -156.89139,15.43265 -55.24087,0 -120.5934,-7.85537 -156.891393,-15.43266 C 35.904506,154.01404 8.0996663,138.39606 8.0996663,98.060214 8.0996663,57.72436 35.904506,42.106388 70.583697,34.867027 106.88169,27.289739 172.23422,19.434374 227.47509,19.434374 c 55.24086,0 120.5934,7.855369 156.89139,15.432648 34.67919,7.239363 62.48403,22.857334 62.48403,63.193192 0,40.335856 -27.80484,55.953826 -62.48403,63.193186 z"
       sodipodi:nodetypes="sssssssss" />
    <path
       id="path2282"
       style="fill:#000000;fill-opacity:1;stroke:none;stroke-width:1px;stroke-linecap:butt;stroke-linejoin:miter;stroke-opacity:1"
       d="m 175.62991,60.20976 c 0,0 25.43044,7.428368 38.4734,7.173005 13.07469,-0.255985 38.25601,-8.694551 38.25601,-8.694551 l 23.69265,2.608365 c 0,0 3.13998,-3.566748 2.63377,-7.877608 -0.86254,-7.345328 -7.8505,-7.772582 -7.8505,-7.772582 -8.23457,-2.319437 -17.60646,7.607731 -17.60646,7.607731 0,0 -3.74061,-6.528059 -6.6296,-8.585868 -1.92544,-1.37148 -6.19487,-2.064956 -6.19487,-2.064956 0,0 -15.12358,-16.794715 -18.47591,-16.954373 -5.45728,-0.259909 -21.73638,17.823828 -21.73638,17.823828 0,0 -6.2281,-0.677375 -9.12928,0.652092 -1.63082,0.747319 -4.12991,3.695183 -4.12991,3.695183 0,0 -6.00014,0.272438 -5.21673,1.956274 0.9586,2.060377 17.17174,0.217364 17.17174,0.217364 7.47296,-2.983647 19.56274,-12.17237 19.56274,-12.17237 0,0 6.73827,9.129277 7.60773,9.781369 0.86945,0.652091 6.95564,10.43346 6.95564,10.43346 l -1.40514,0.5225 -5.5505,-7.47814 c 0,0 -10.94064,8.259823 -23.91002,6.95564 -8.49848,-0.854597 -26.51838,2.173637 -26.51838,2.173637 z m 112.84941,-0.223759 c 0,0 20.83788,5.548122 30.12508,5.917426 9.29286,0.36953 16.41534,-4.354262 25.74464,-5.225779 6.74041,-0.629669 18.82818,0.537948 18.82818,0.537948 0,0 -11.9206,-4.297514 -19.98092,-2.997138 -9.08644,1.465917 -15.61235,4.018715 -25.59095,4.534131 -9.0751,0.468749 -29.12603,-2.766588 -29.12603,-2.766588 z M 88.223448,59.635362 c 0,0 20.837882,5.548122 30.125082,5.917426 9.29286,0.36953 16.41534,-4.354262 25.74464,-5.225779 6.74041,-0.629669 18.82818,0.537948 18.82818,0.537948 0,0 -11.9206,-4.297514 -19.98092,-2.997138 -9.08644,1.465917 -15.61235,4.018715 -25.59095,4.534131 -9.0751,0.468749 -29.126032,-2.766588 -29.126032,-2.766588 z" />
  </g>
</svg>
