<?xml version="1.0" encoding="UTF-8" standalone="no"?>
<svg
   xmlns:dc="http://purl.org/dc/elements/1.1/"
   xmlns:cc="http://creativecommons.org/ns#"
   xmlns:rdf="http://www.w3.org/1999/02/22-rdf-syntax-ns#"
   xmlns:svg="http://www.w3.org/2000/svg"
   xmlns="http://www.w3.org/2000/svg"
   xmlns:sodipodi="http://sodipodi.sourceforge.net/DTD/sodipodi-0.dtd"
   xmlns:inkscape="http://www.inkscape.org/namespaces/inkscape"
   version="1.1"
   id="svg48"
   width="1600"
   height="692"
   viewBox="0 0 1600 692"
   sodipodi:docname="FAST.svg"
   inkscape:version="1.0.2 (e86c870879, 2021-01-15, custom)"
   inkscape:export-filename="C:\Users\cmoth\source\repos\cmothersead\FRST Website\images\logos\FAST.png"
   inkscape:export-xdpi="31.21244"
   inkscape:export-ydpi="31.21244">
  <metadata
     id="metadata54">
    <rdf:RDF>
      <cc:Work
         rdf:about="">
        <dc:format>image/svg+xml</dc:format>
        <dc:type
           rdf:resource="http://purl.org/dc/dcmitype/StillImage" />
        <dc:title />
      </cc:Work>
    </rdf:RDF>
  </metadata>
  <defs
     id="defs52">
    <rect
       x="812.1673"
       y="634.22053"
       width="323.95437"
       height="45.627376"
       id="rect1815" />
  </defs>
  <sodipodi:namedview
     pagecolor="#ffffff"
     bordercolor="#666666"
     borderopacity="1"
     objecttolerance="10"
     gridtolerance="10"
     guidetolerance="10"
     inkscape:pageopacity="0"
     inkscape:pageshadow="2"
     inkscape:window-width="2560"
     inkscape:window-height="1377"
     id="namedview50"
     showgrid="false"
     inkscape:zoom="0.92984542"
     inkscape:cx="768.11499"
     inkscape:cy="430.49496"
     inkscape:window-x="-8"
     inkscape:window-y="-8"
     inkscape:window-maximized="1"
     inkscape:current-layer="g56"
     inkscape:document-rotation="0" />
  <g
     inkscape:groupmode="layer"
     inkscape:label="Image"
     id="g56">
    <path
       style="display:inline;fill:#a4a9ad;fill-opacity:1"
       d="m 185.40625,13.927734 c -4.62037,0.04437 -9.0196,0.437879 -12.60742,1.203125 C 154.98657,18.930031 139.89425,32.333482 133.53516,50 123.4217,78.096784 137.04133,118.27612 163.25,137.6582 l 4.75,3.51172 0.0527,6.66602 c 0.0291,3.66566 0.62759,10.17124 1.33008,14.45898 0.70202,4.28774 1.01641,7.93877 0.69727,8.11328 -0.31914,0.17451 -4.40508,-0.27046 -9.08008,-0.99023 -4.675,-0.71977 -11.01559,-1.33328 -14.08984,-1.36328 L 141.32031,168 136.71094,162.06445 C 130.07685,153.52164 119.98208,145.59594 108.5,139.91797 94.133528,132.81364 85.353459,130.70905 70,130.68555 58.249217,130.6676 57.006234,130.85959 49.257812,133.90234 35.928992,139.13647 25.276919,148.6575 19.5,160.5 c -12.505311,25.63548 -3.403047,65.23827 20.128906,87.57227 3.228609,3.06425 7.017441,6.31732 8.417969,7.23046 2.365591,1.54235 2.632968,2.52891 3.769531,13.89649 1.486333,14.86587 4.976288,30.84147 10.058594,46.04883 l 3.802734,11.38281 -5.46289,3.43555 c -6.703126,4.21418 -14.057052,12.27772 -18.048828,19.79101 -14.597165,27.47466 -2.883444,71.77083 24.822265,93.86328 5.366891,4.27955 5.996606,5.16453 6.003907,8.45703 0.0045,2.0227 0.478344,7.1977 1.052734,11.5 6.313193,47.28712 30.889698,99.27112 60.380858,127.71485 39.95766,38.5385 94.26447,49.18757 140.45703,27.54101 C 279.49946,616.77015 283.37676,615 283.5,615 c 0.12324,0 2.48836,3.0375 5.25586,6.75 9.76311,13.09684 25.13352,25.8011 37.93555,31.35742 8.72347,3.78615 21.84464,7.42102 33.30859,9.22656 6.76399,1.06531 34.94352,0.52415 44.87695,-0.86132 29.02863,-4.04879 65.09493,-16.2053 94.12305,-31.72461 15.77076,-8.43152 34.13613,-19.88468 43.13477,-26.90039 l 3.63476,-2.83399 476.86527,-0.25586 L 1499.5,599.5 l 7.0195,-2.61133 c 10.2905,-3.82924 14.4081,-6.14088 22.7422,-12.76367 9.4029,-7.47208 17.1635,-17.33274 23.1758,-29.44727 6.0409,-12.17224 4.6243,-6.56922 25.459,-100.67773 1.6439,-7.425 4.8741,-21.825 7.1777,-32 8.9519,-39.54124 5.5694,-61.18146 -12.6367,-80.8457 -7.4154,-8.00931 -14.5236,-12.67508 -25.4375,-16.69727 -7.0173,-2.58614 -8.7702,-2.79333 -27.2246,-3.22656 -12.993,-0.30501 -20.0269,-0.85082 -20.6133,-1.59766 -0.7963,-1.01414 -6.8002,-12.00297 -21.293,-38.97461 l -4.7519,-8.84375 6.9414,-31.65625 c 3.8175,-17.41172 7.8374,-35.4832 8.9336,-40.1582 1.0962,-4.675 3.6126,-15.925 5.5918,-25 1.9792,-9.075 3.7908,-16.6968 4.0273,-16.9375 0.2364,-0.2407 2.3342,1.36983 4.6602,3.58008 17.1082,16.25705 44.7717,41.35742 45.582,41.35742 0.5427,0 1.2863,-1.4625 1.6524,-3.25 1.0607,-5.17807 16.6283,-75.83632 28.5644,-129.654297 6.0264,-27.171887 10.7456,-49.613743 10.4883,-49.871094 -0.2574,-0.257351 -65.4012,-0.56744 -144.7637,-0.689453 C 1313.9554,19.334003 1299.7074,19.156151 1292,17.625 c -28.0732,-5.577046 -66.9604,-3.031332 -92.3535,6.046875 -30.509,10.907195 -54.7769,29.526756 -71.5801,54.919922 -2.5813,3.900914 -5.2826,8.513414 -6.0019,10.25 -0.7193,1.736587 -1.638,3.158203 -2.043,3.158203 -0.4049,0 -1.0357,-2.5875 -1.4004,-5.75 -1.3902,-12.055187 -9.3077,-64.934042 -9.8555,-65.820312 -0.4251,-0.687887 -421.56075,-1.204489 -423.52341,-0.519532 -0.1422,0.04963 1.04367,2.452344 2.63672,5.339844 2.45943,4.457878 14.60741,26.841819 32.07226,59.099609 l 4.24805,7.84961 -6.21484,28.150391 c -3.41882,15.4829 -11.54164,52.19511 -18.05079,81.58203 l -11.83593,53.42969 -8.41993,8.57031 c -4.63117,4.71308 -15.63616,15.98086 -24.45507,25.04102 l -16.03321,16.47265 -7.87695,-7.52343 c -4.33164,-4.13843 -9.9684,-8.96597 -12.52734,-10.72657 l -4.65235,-3.20117 3.55664,-7.69726 c 8.20303,-17.75439 11.3106,-31.67724 11.3086,-50.65626 -0.002,-19.35227 -2.77804,-33.17993 -9.85352,-49.0625 C 603.72112,141.95668 577.30611,116.62454 535.48438,96.349609 509.99797,83.993952 480.05014,75.326362 456.5,73.490234 l -9,-0.701172 -4,-5.439453 C 426.97776,44.88126 388.27776,30.715028 361.96094,37.501953 348.84405,40.884707 335.70344,50.34762 329.5,60.878906 c -2.07894,3.529325 -3.46053,4.91627 -4.5,4.513672 -17.90555,-6.934997 -41.59857,-12.4895 -59.52734,-13.955078 l -8.0293,-0.65625 -5.1875,-6.339844 C 241.95561,31.856765 225.50255,21.555869 207.63867,16.505859 c -6.2139,-1.756633 -14.53181,-2.652068 -22.23242,-2.578125 z"
       id="path92" />
    <path
       id="path1730"
       style="display:inline;fill:#000000;fill-opacity:1"
       d="m 186.26367,37.376953 c -13.14097,0.106157 -23.35526,6.169198 -29.40429,17.828125 -3.05091,5.88031 -3.72266,19.694462 -1.4004,28.794922 4.48318,17.56865 15.91372,32.86109 29.18946,39.04688 l 6.85156,3.1914 0.0371,13.63086 c 0.037,13.66292 0.95841,20.72149 4.64844,35.63086 2.05207,8.29126 7.34503,24.62664 9.01953,27.83594 0.5268,1.0096 0.73639,2.05657 0.4668,2.32617 -0.26961,0.2696 -4.80002,-1.12444 -10.06836,-3.09766 -19.55169,-7.32297 -45.76435,-12.09258 -62.53516,-11.37695 l -7.30274,0.3125 -1.96874,-5.12109 C 114.87945,163.1646 76.082564,146.89708 54.646484,157.38477 40.230454,164.43788 34.27623,180.50842 39,199.61328 c 4.94457,19.99783 19.585421,38.48405 33.181641,41.89649 l 2.546875,0.63867 0.572265,16.67578 c 0.86125,25.0723 6.555019,47.17735 18.824219,73.07617 3.23102,6.82029 5.875,12.49255 5.875,12.60547 0,0.11294 -3.0375,0.18516 -6.75,0.16016 -9.57109,-0.0645 -17.244822,2.62564 -23.476562,8.22851 -7.28309,6.54813 -10.070185,13.16815 -10.146485,24.10547 -0.0677,9.69789 1.439256,16.71547 5.566406,25.92383 6.18559,13.80108 16.368544,24.45189 27.408203,28.66797 L 97,433.27148 v 11.14063 c 0,26.50716 6.67456,52.65148 20.95703,82.08789 7.08463,14.60154 19.53107,33.59115 28.10352,42.87695 13.89335,15.04949 36.24748,28.86142 54.43945,33.63672 10.21722,2.68197 27.65156,3.63278 38.23047,2.08594 18.76917,-2.74442 37.10597,-11.2988 50.21289,-23.42578 3.57906,-3.31148 4.15963,-3.55426 4.72656,-1.97461 5.70757,15.903 10.05076,23.44345 20.82813,36.16211 2.59778,3.06572 11.7771,10.10209 17.50195,13.41601 5.90087,3.41582 20.81987,8.36443 29,9.61914 10.2418,1.57094 36.81166,0.58719 49,-1.81445 40.80353,-8.04008 85.95516,-28.85039 121.5,-56 l 5.99805,-4.58203 232.02148,-0.5 232.02347,-0.5 6.9785,-3.4043 c 13.1226,-6.40104 25.8879,-21.98006 30.8066,-37.5957 C 1041.1779,528.62715 1064,426.09815 1064,423.66016 1064,422.2437 1065.247,422 1072.5,422 c 4.675,0 8.5,0.4227 8.5,0.93945 0,0.51675 -2.6773,13.00425 -5.9492,27.75 -3.2718,14.74575 -10.7142,48.41055 -16.5391,74.81055 -5.8248,26.4 -10.7855,48.56556 -11.0234,49.25781 -0.347,1.01 44.147,1.20744 224.8418,1 l 225.2734,-0.25781 7.4551,-3.68359 c 12.162,-6.01088 22.4044,-17.45361 28.4121,-31.74024 1.4858,-3.53327 5.6054,-19.28327 9.1543,-35 5.5025,-24.36848 6.4625,-30.04853 6.5215,-38.57617 0.051,-7.43069 -0.4323,-11.47736 -1.8828,-15.75 l -1.9532,-5.75 h 5.3457 c 2.9396,0 5.3438,-0.25984 5.3438,-0.57812 0,-0.31831 2.1994,-10.33081 4.8867,-22.25 2.6874,-11.91922 5.1801,-24.59688 5.541,-28.17188 1.9933,-19.74868 -7.6625,-39.05839 -23.1367,-46.26758 C 1538.7619,345.6224 1537.2164,345.5 1515,345.5 h -23.5 l -5.7539,2.82422 c -3.1653,1.55378 -7.9072,4.52666 -10.5371,6.60547 l -4.7813,3.77929 -4.5449,-4.10351 c -2.4993,-2.2576 -6.7574,-5.23047 -9.4629,-6.60547 l -4.9199,-2.5 -188.5684,-0.25977 -188.5683,-0.25976 -2.8613,13.00976 c -1.5733,7.15561 -3.1158,13.00786 -3.4297,13.00586 -0.3141,-0.002 -1.3609,-1.92526 -2.3262,-4.27343 -2.6433,-6.42914 -9.7538,-13.90807 -16.9121,-17.78907 L 1042.5,345.5 l -204,-0.27539 -204,-0.27344 -4.22656,-8.72656 c -2.32509,-4.79889 -6.2687,-11.31076 -8.76367,-14.47266 -8.48862,-10.75768 -24.40117,-21.65236 -38.25977,-26.19336 -2.8875,-0.94614 -5.25,-2.04827 -5.25,-2.45117 0,-0.40289 1.34011,-2.0182 2.97852,-3.58789 8.2553,-7.90909 17.70321,-25.86961 21.51757,-40.90625 3.26473,-12.86996 3.4724,-31.53778 0.5,-44.98242 C 595.2682,168.67646 567.91925,138.43948 525.54297,118 495.71272,103.6119 474.52464,97.934656 448.60742,97.384766 l -15.89453,-0.337891 -2.21484,-5.451172 c -4.01449,-9.87745 -12.80091,-18.691771 -24.54297,-24.619141 -20.87764,-10.539009 -40.9214,-9.943829 -52.42188,1.556641 -6.09973,6.09974 -8.93488,13.423114 -8.98828,23.214844 -0.0247,4.53604 -0.21067,8.249 -0.41406,8.25 -0.20339,0.0015 -4.70339,-2.092454 -10,-4.652344 -27.79974,-13.43584 -56.32422,-20.618009 -80.47852,-20.261719 l -10.84961,0.160157 -3.38476,-6.996094 C 233.41584,55.839487 221.97932,46.533374 205.88086,40.958984 198.81456,38.51215 192.23684,37.3287 186.26367,37.376953 Z M 1258.5,38.535156 c -27.9567,-0.04914 -44.2303,3.40194 -66,14 -23.0592,11.22579 -40.5912,28.67467 -51.0156,50.769534 -6.4353,13.63989 -8.5554,22.68729 -9.1875,39.23047 -0.4722,12.36004 -0.2766,14.98103 1.6367,21.95507 3.5295,12.86543 8.2746,20.75381 19.041,31.65039 10.4163,10.54234 20.2239,17.38121 43.5254,30.35352 7.7,4.28672 15.3036,8.7068 16.8965,9.82227 l 2.8965,2.02734 -2.2403,1.81641 c -3.8639,3.12881 -9.8374,4.10902 -21.5527,3.54101 -15.8049,-0.76629 -27.0462,-4.74127 -42.5,-15.02734 -9.3142,-6.19954 -29.9272,-26.82705 -36.1562,-36.18164 L 1109.1875,185.5 1102.541,139 c -3.6552,-25.575 -8.1974,-57.165412 -10.0937,-70.201172 C 1090.5511,55.763058 1089,44.625558 1089,44.048828 1089,43.321188 1033.291,43 907,43 c -100.09999,0 -182,0.274545 -182,0.609375 0,0.33484 5.44902,10.687259 12.10742,23.005859 l 12.10547,22.396485 -1.66601,7.24414 c -0.91602,3.984071 -1.86637,8.144141 -2.11133,9.244141 -10.11973,45.44216 -12.98982,58.38917 -14.41407,65 -0.94794,4.4 -6.14108,27.93011 -11.54101,52.28906 l -9.81836,44.28906 -26.19531,26.71094 -26.19532,26.71094 248.11524,0.53906 c 190.10088,0.41274 249.16548,0.8231 252.61328,1.75391 2.475,0.66818 8.325,1.60316 13,2.07812 4.675,0.47495 14.6649,0.923 22.1992,0.9961 73.0014,0.70811 126.5751,-37.81674 137.3223,-98.74805 4.2364,-24.0178 -0.8549,-44.87628 -15.0352,-61.5918 -3.0171,-3.55661 -5.4863,-6.64949 -5.4863,-6.87304 0,-0.22356 12.078,-8.33825 26.8398,-18.03125 25.4755,-16.72782 30.8808,-19.5036 32.5899,-16.73828 0.3009,0.48682 0.1438,2.17432 -0.3496,3.75 -0.9029,2.88362 -3.289,13.47806 -13.5938,60.36523 -3.0824,14.025 -8.2957,37.65 -11.584,52.5 l -5.9785,27 -21.7109,21.92188 c -11.9416,12.05666 -22.7088,22.76333 -23.9258,23.79296 -1.217,1.02962 -3.1604,3.20191 -4.3183,4.82813 L 1285.8633,321 h 93.6426 93.6406 l -2.9531,-5.25 c -1.6245,-2.8875 -4.4117,-7.95 -6.1934,-11.25 -1.7817,-3.3 -4.4763,-8.25 -5.9883,-11 -1.5119,-2.75 -4.3543,-7.9704 -6.3164,-11.60156 l -3.5664,-6.60352 2.9023,-12.89648 c 1.5966,-7.09384 6.2882,-28.19844 10.4278,-46.89844 4.1396,-18.7 9.5694,-43.225 12.0664,-54.5 2.4969,-11.275 5.4756,-24.4375 6.6191,-29.25 l 2.0801,-8.75 7.1367,0.0352 7.1387,0.0352 18.5,17.41992 c 10.175,9.58128 18.9543,17.44045 19.5098,17.46485 0.5555,0.0244 6.55,-25.04258 13.3203,-55.70508 6.7704,-30.6625 12.5329,-56.5375 12.8066,-57.5 0.472,-1.6596 -5.5747,-1.75 -117.0234,-1.75 h -117.5215 l -0.6738,3.583984 c -0.5057,2.69535 -1.0742,3.455726 -2.295,3.072266 C 1294.5673,40.68662 1282.3,38.576956 1258.5,38.535156 Z M 900.69922,124.11523 c 0.58462,0.0926 2.27446,1.32985 4.07031,3.01368 2.0524,1.92438 8.8,8.15017 14.99609,13.83593 10.58452,9.71263 11.18389,10.46596 9.89649,12.4375 -1.1326,1.73457 -47.24073,82.81687 -54.64649,96.09766 -2.67224,4.79221 -3.01562,5.20341 -3.01562,3.60938 0,-1.18332 5.97097,-28.49072 19.70312,-90.10938 3.61591,-16.225 6.96322,-31.48818 7.4375,-33.91797 0.47442,-2.4298 1.09441,-4.65108 1.37891,-4.93555 0.0356,-0.0356 0.0962,-0.0446 0.17969,-0.0312 z M 832.16016,223 c 0.94614,0 37.84093,34.01154 37.83593,34.87891 -0.005,0.8816 -4.09386,7.51996 -5.00195,8.12109 -0.41542,0.275 -7.82038,7.025 -16.45508,15 -8.63469,7.975 -16.05842,14.63231 -16.49609,14.79297 -0.66661,0.24471 -5.04297,-6.0878 -5.04297,-7.29688 0,-0.2141 -1.62331,-3.15954 -3.60742,-6.54492 l -3.60742,-6.15429 5.80273,-26.39844 C 828.77953,234.87935 831.73695,223 832.16016,223 Z m 173.60544,29.96094 0.6914,5.76953 c 0.3804,3.17325 0.9161,6.71513 1.1895,7.87109 0.4138,1.74939 -2.7421,4.66873 -18.82423,17.41016 -10.6266,8.41921 -20.0491,15.92614 -20.9375,16.68164 -1.4359,1.22112 -2.51822,0.0258 -9.75782,-10.75 l -8.14453,-12.12109 6.88867,-12.16016 6.88672,-12.16211 21.00391,-0.26953 z" />
    <path
       id="path1484"
       style="display:inline;fill:#cf092c;fill-opacity:1"
       d="m 187.85156,60.056641 c -0.54017,-0.01674 -1.06732,-0.01595 -1.57812,0.002 -2.72427,0.09551 -4.99923,0.691504 -6.48633,1.873047 -3.41346,2.712089 -4.37288,7.524737 -2.93164,14.701171 2.42873,12.093573 10.55214,24.139881 18.23242,27.035161 1.87651,0.7074 6.17149,1.16604 9.54297,1.01953 4.83555,-0.21015 6.86279,-0.8265 9.60742,-2.91992 9.57521,-7.303378 9.36219,-22.475073 -0.4414,-31.332036 -6.68644,-6.040788 -17.84267,-10.127778 -25.94532,-10.378906 z m 1070.92774,0.175781 c -4.8193,-0.04813 -9.3922,0.169283 -13.6152,0.666016 -28.3768,3.337823 -49.8483,12.349873 -66.2168,27.791015 -12.2304,11.537547 -20.3311,26.359757 -23.5235,43.044927 -2.7166,14.19831 -1.4022,25.40061 4.3496,37.08789 6.561,13.33164 18.0555,22.2853 51.7071,40.27343 21.011,11.23121 28.4376,19.49747 27.166,30.23438 -0.6279,5.30129 -4.439,12.63954 -8.5508,16.46484 -4.2524,3.95606 -13.8004,8.24101 -21.9531,9.85156 -8.488,1.67679 -20.785,1.2431 -32.0567,-1.13086 -14.3792,-3.02839 -32.509,-11.80926 -42.3789,-20.52734 -2.6364,-2.32872 -5.0988,-3.92848 -5.4726,-3.55469 -0.7376,0.73764 -0.3791,49.52529 0.373,50.74219 0.7903,1.27872 21.606,7.55403 30.9531,9.33203 18.7937,3.57496 42.7914,3.94566 61.9395,0.95703 22.9044,-3.57489 45.7125,-13.7707 59.5879,-26.63867 14.5765,-13.51824 25.0278,-34.13299 27.9473,-55.12305 2.1466,-15.43323 -2.9046,-31.9294 -13.2403,-43.23828 -8.0979,-8.86047 -17.9745,-15.42191 -39.8867,-26.5 -22.7634,-11.5085 -30.2811,-18.29851 -30.3477,-27.41211 -0.091,-12.4022 10.5236,-22.17097 27.2422,-25.074214 13.1612,-2.285493 29.4968,1.390125 44.7149,10.062504 4.3509,2.47946 8.4029,4.32049 9.0039,4.08984 0.6011,-0.23065 1.884,-4.1799 2.8515,-8.77539 0.9675,-4.595489 2.9358,-13.426082 4.375,-19.623048 1.719,-7.401362 2.2803,-11.604549 1.6329,-12.251953 -0.542,-0.542054 -4.7876,-2.083676 -9.4336,-3.425781 -16.0412,-4.63388 -32.71,-7.177867 -47.168,-7.322266 z m -436.28321,4.910156 c -29.68414,0.04088 -54.08293,0.22123 -56.24609,0.566406 -1.7875,0.285233 -3.25,0.9328 -3.25,1.439454 0,0.506653 2.025,4.489718 4.5,8.851562 4.85853,8.562479 5.14208,10.362664 3.06836,19.5 -0.74893,3.3 -3.25616,14.55 -5.57227,25 -2.31611,10.45 -5.9568,26.875 -8.08984,36.5 -2.13304,9.625 -5.27872,23.8 -6.99023,31.5 -1.71152,7.7 -3.48628,15.8 -3.94336,18 -0.45708,2.2 -2.70302,12.325 -4.99219,22.5 -2.28916,10.175 -4.81419,21.65 -5.61133,25.5 -0.79713,3.85 -2.35895,10.825 -3.46875,15.5 l -2.01758,8.5 -9.0664,9.14453 c -4.98643,5.02914 -8.78387,9.59899 -8.43946,10.15625 0.86821,1.4048 92.25712,1.60032 93.12305,0.19922 0.34692,-0.56133 -1.6039,-5.1926 -4.33594,-10.29102 l -4.96875,-9.26953 3.85938,-17.46875 c 4.9359,-22.35283 10.90438,-49.04798 12.40234,-55.4707 l 1.16602,-5 13.59961,-0.27734 13.59961,-0.27735 7.6875,7.12891 c 4.26538,3.95491 8.06985,6.74655 8.54492,6.27148 1.17411,-1.17411 14.42132,-62.20367 13.66601,-62.95898 -0.33289,-0.33289 -5.46492,2.59384 -11.40429,6.5039 L 848.51758,164 H 835.25781 C 827.96558,164 822,163.69942 822,163.33203 c 0,-0.99501 9.49276,-44.35959 12.87891,-58.83203 l 0.70312,-3 36.78516,-0.26172 36.78515,-0.26367 7.95313,7.18359 c 4.76961,4.30671 8.31223,6.81325 8.84765,6.26172 0.49113,-0.50588 1.32328,-3.16992 1.84961,-5.91992 0.52633,-2.75 2.81871,-13.243055 5.09375,-23.318359 2.27503,-10.075304 3.89003,-18.718153 3.5879,-19.207032 -0.35938,-0.581471 -64.51471,-0.900167 -113.98829,-0.832031 z m 202.82811,0.0098 C 989.28991,65.141489 983,65.35325 983,66.570312 c 0,0.786244 2.45449,5.362898 5.45508,10.171876 5.32983,8.542016 5.41839,8.803026 3.80078,11.251953 -0.91067,1.378696 -2.73861,4.530859 -4.06055,7.005859 -2.69307,5.04209 -26.39472,46.94604 -32.24023,57 -5.69059,9.7875 -40.18819,70.6316 -43.94141,77.5 -1.80328,3.3 -3.60815,6.45 -4.01172,7 -0.40356,0.55 -1.97317,3.25 -3.48633,6 -17.58411,31.95733 -20.09893,35.69447 -30.54882,45.39258 -7.45251,6.91637 -9.7722,9.62438 -8.79492,10.26562 1.62148,1.06395 68.09251,0.91522 69.82617,-0.15625 V 298 c 0.88548,-0.54725 -0.49785,-3.37815 -4.88086,-9.98633 C 926.75281,282.94136 924,278.68514 924,278.55469 c 0,-0.43282 20.813,-36.95296 24.39453,-42.80469 l 3.51953,-5.75 h 35.98438 c 22.68746,0 36.20956,0.36556 36.59566,0.99023 0.3368,0.54492 1.9098,9.88242 3.4961,20.75 1.5863,10.86757 3.1391,21.19007 3.4493,22.9375 0.6666,3.75537 1.1165,3.25761 -12.8926,14.23047 -8.5354,6.68548 -10.4088,8.58963 -9.1485,9.29492 2.4101,1.34875 103.8464,0.56621 104.3028,-0.80468 0.2018,-0.60635 -2.0839,-4.27647 -5.0801,-8.1543 -8.3404,-10.79474 -8.5196,-11.18743 -10.1231,-22.31836 -0.826,-5.73425 -1.9689,-13.57578 -2.541,-17.42578 -0.572,-3.85 -1.9537,-13.525 -3.0703,-21.5 -3.0068,-21.4757 -4.7303,-33.35279 -13.4961,-93 -1.4144,-9.625 -2.9161,-19.975 -3.3359,-23 -4.9002,-35.308001 -6.5497,-45.602674 -7.4004,-46.167969 -0.5521,-0.366927 -20.0514,-0.672697 -43.3301,-0.679687 z m 447.6348,0.15039 c -54.8147,-0.05338 -127.8334,0.239738 -128.3477,0.753907 -0.729,0.728816 -10.6113,44.705415 -10.6113,47.220695 0,2.56919 1.045,2.10056 12.2305,-5.48828 L 1355.5,101.5 l 20.75,-0.30664 c 18.744,-0.27654 20.75,-0.14554 20.75,1.3457 0,0.90796 -1.8151,9.81928 -4.0332,19.80469 -2.2181,9.98542 -5.1611,23.33125 -6.5391,29.65625 -3.4166,15.68115 -5.0233,22.86505 -7.498,33.5 -0.5119,2.2 -2.7305,12.325 -4.9297,22.5 -2.1992,10.175 -4.4337,20.3 -4.9668,22.5 -1.1382,4.69715 -7.8167,34.64503 -9.4238,42.26172 -1.003,4.75313 -2.0273,6.18119 -10.6055,14.78906 -7.6614,7.68793 -9.2065,9.71475 -8,10.49414 1.6002,1.0337 92.3823,1.2349 93.4102,0.20703 0.3195,-0.31957 -1.7169,-4.84298 -4.5254,-10.05273 -5.6849,-10.54551 -5.5664,-8.51482 -1.5586,-26.69922 6.3831,-28.96117 7.8588,-35.60848 9.6523,-43.5 1.0625,-4.675 7.122,-31.9 13.4668,-60.5 6.3448,-28.6 11.8172,-53.0125 12.1602,-54.25 0.6205,-2.23872 0.7252,-2.25 20.873,-2.25 h 20.25 l 7.8496,7.01172 c 4.3183,3.85603 8.304,6.85963 8.8555,6.67578 0.5516,-0.18385 1.9836,-5.02704 3.1836,-10.76172 1.2,-5.734677 3.5323,-16.50078 5.1816,-23.92578 1.6494,-7.425 2.8046,-13.815546 2.5684,-14.201172 -0.1885,-0.307821 -26.5233,-0.464064 -59.4121,-0.496094 z M 376.88672,81.939453 c -2.89511,0.01319 -5.30569,0.578756 -6.82617,1.810547 -4.68551,3.795889 -4.33495,14.278531 0.85937,25.73438 3.44931,7.60728 8.37974,13.29147 13.57227,15.65039 5.40783,2.45672 14.06769,2.43195 18.14258,-0.0527 11.20422,-6.832 12.36483,-21.17027 2.54296,-31.417968 -6.54777,-6.831655 -19.60567,-11.764184 -28.29101,-11.724609 z m -120.81055,15.625 c -8.01114,-0.05164 -15.12977,0.766738 -19.57031,2.466797 -3.29683,1.26219 -7.23562,3.05128 -8.75391,3.97461 -3.75588,2.28408 -9.14034,9.53182 -11.13867,14.99414 -9.12613,24.94573 3.34084,74.8643 28.01367,112.16211 17.89138,27.04631 42.97123,42.80726 71.87305,45.16797 4.04425,0.33034 5.79312,0.23598 15.21094,-0.81055 17.4576,-1.93991 35.06126,-12.76203 47.26758,-29.06055 16.46351,-21.98294 17.93835,-52.62171 3.82031,-79.40234 C 376.5253,155.15634 370.94117,147.89 361.46094,139.28711 354.66997,133.12461 337.00093,121.12936 329.5,117.58984 310.96777,108.84489 297.02734,103.88101 281,100.31836 272.99086,98.538041 264.08732,97.616099 256.07617,97.564453 Z m 188.40821,21.699217 c -1.38016,0.015 -2.70029,0.0713 -3.95118,0.17383 -31.37975,2.57219 -41.77363,22.05207 -34.05859,63.82422 3.08817,16.72058 7.68195,30.1973 16.53516,48.50195 18.11338,37.45071 39.3092,56.64975 71.49023,64.75586 8.32728,2.09756 26.84014,1.81296 35.3418,-0.54297 24.47141,-6.78138 44.36507,-26.72719 50.84375,-50.97656 2.3514,-8.80117 2.3293,-28.0592 -0.043,-37 C 573.18235,179.88344 554.74974,158.74928 522,140.75977 499.5759,128.44215 465.18662,119.0392 444.48438,119.26367 Z m 565.19332,9.08008 c 0.4357,0.43572 2.5708,13.78167 4.3457,27.15625 0.511,3.85 1.8389,13.075 2.9493,20.5 1.1105,7.425 2.0209,14.5125 2.0234,15.75 V 194 h -23.00001 c -13.81343,0 -23,-0.37834 -23,-0.94727 H 973 c 0,-0.52101 4.4227,-8.73351 9.82812,-18.25 5.40544,-9.51649 13.55892,-23.96105 18.11918,-32.09961 4.5602,-8.13854 8.4893,-14.6004 8.7304,-14.35937 z m -937.726528,48.0918 c -4.537074,-0.14498 -8.141709,0.99074 -10.080078,3.42968 -3.107754,3.91031 -2.142851,14.71761 2.146484,24.02344 6.668182,14.46681 18.707459,21.17716 29.728516,16.57227 4.958856,-2.07194 7.188246,-4.20312 9.373046,-8.96094 5.33574,-11.6196 -0.82309,-23.86423 -15.498046,-30.8125 -5.664194,-2.68187 -11.132848,-4.10698 -15.669922,-4.25195 z m 68.289058,37.59375 c -0.77002,-0.008 -1.53253,-0.007 -2.28711,0.004 -9.44858,0.13413 -17.65588,1.74013 -23.89257,4.95508 -13.05114,6.72771 -18.530517,22.7427 -16.099612,47.0586 2.947632,29.48468 16.599082,63.80978 35.312502,88.7871 20.59501,27.48873 53.38035,42.01984 83.70703,37.09961 28.43471,-4.61329 53.46386,-29.79166 58.08398,-58.43164 4.00077,-24.80061 -4.79331,-51.35556 -23.64453,-71.39453 -8.81896,-9.37461 -15.986,-14.96898 -28.93164,-22.58789 -27.26236,-16.04476 -58.3773,-25.24265 -82.24805,-25.49023 z m 219.48438,89.30078 c -7.64791,-0.0215 -14.24699,0.58956 -20.07227,1.82617 -16.63536,3.53143 -30.32514,17.25342 -34.76367,34.84375 -1.74492,6.91532 -1.81703,35.45174 -0.11523,46 8.1787,50.69392 8.69039,60.32009 6.82226,128.5 -0.96553,35.23838 -0.50371,42.65781 3.57813,57.5 4.77617,17.36689 16.1317,32.15287 29.82617,38.83789 13.43274,6.55726 32.05809,8.60798 52,5.72461 28.37484,-4.10267 59.91143,-15.6803 89.5,-32.85938 13.49927,-7.83765 17.84895,-7.14248 -48.14453,-7.70312 L 379.5,575.5 374,573.04297 c -16.81588,-7.51127 -26.1579,-27.49329 -23.06641,-49.33594 0.70073,-4.9509 1.62871,-10.1721 2.0625,-11.60351 0.43378,-1.43141 1.34676,-5.30352 2.0293,-8.60352 2.82817,-13.67394 6.20523,-26.02426 7.30273,-26.70703 0.64457,-0.40098 2.85938,-0.46067 4.92188,-0.13281 4.36666,0.69413 4.52179,0.19813 2.26172,-7.25196 -2.51065,-8.27613 -1.94855,-22.25742 1.5332,-38.07422 1.675,-7.60915 4.42768,-20.13398 6.11719,-27.83398 3.70293,-16.87632 6.321,-24.14662 11.83594,-32.87891 4.60718,-7.29494 13.92189,-16.28472 20.95117,-20.2207 C 419.76039,344.90673 417.90785,345 517.27734,345 h 91.85743 l -0.70118,-2.25 c -0.97331,-3.12447 -5.61522,-8.83431 -11.33398,-13.94141 -7.54708,-6.73985 -17.53692,-11.5475 -30.30078,-14.58398 -11.29078,-2.68604 -11.32355,-2.68782 -42.79883,-2.23047 -56.67511,0.82351 -88.97576,0.55344 -98,-0.81836 -4.675,-0.71067 -11.425,-1.70951 -15,-2.2207 -3.575,-0.5112 -10.775,-1.58732 -16,-2.39063 -13.87661,-2.13344 -25.44236,-3.2068 -35.27539,-3.23437 z M 92.224609,367.05273 c -2.085491,0.002 -3.961763,0.27697 -5.503906,0.86329 -7.819982,2.97316 -5.308904,22.83525 4.447266,35.17773 2.365831,2.993 5.734857,5.86735 8.177734,6.97656 5.656557,2.56842 13.842987,2.51411 18.535157,-0.12304 10.64624,-5.98352 12.16068,-21.51029 3.01758,-30.93165 -6.67589,-6.87903 -19.6367,-11.97234 -28.673831,-11.96289 z m 68.984371,37.72461 c -2.90305,-0.005 -5.73741,0.11342 -8.48828,0.35743 -16.55159,1.46813 -25.81101,7.95112 -30.70117,21.49609 -2.19058,6.06756 -2.47314,8.4438 -2.43359,20.36914 0.0755,22.77374 6.49965,46.19542 20.16015,73.5 17.67547,35.32969 43.73659,56.94379 74.75391,61.99805 9.98049,1.62632 13.31598,1.70524 21.56445,0.51172 27.92819,-4.04108 50.19528,-23.15455 59.22657,-50.83985 2.96103,-9.07701 3.12271,-30.39536 0.30468,-40.16992 -6.68712,-23.19487 -21.04154,-42.29841 -42.30078,-56.29688 -29.45071,-19.39224 -64.02306,-30.87965 -92.08594,-30.92578 z" />
    <text
       xml:space="preserve"
       id="text1813"
       style="font-style:normal;font-weight:normal;font-size:40px;line-height:1.25;font-family:sans-serif;white-space:pre;shape-inside:url(#rect1815);fill:#000000;fill-opacity:1;stroke:none;"
       transform="translate(722.70077,-64.795717)" />
    <text
       xml:space="preserve"
       style="font-style:normal;font-weight:normal;font-size:18.6667px;line-height:1.25;font-family:sans-serif;fill:#000000;fill-opacity:1;stroke:none;-inkscape-font-specification:'sans-serif, Normal';font-stretch:normal;font-variant:normal;font-variant-ligatures:normal;font-variant-caps:normal;font-variant-numeric:normal;font-variant-east-asian:normal;"
       x="1526.0601"
       y="615.42487"
       id="text1821"><tspan
         sodipodi:role="line"
         id="tspan1823" /></text>
    <text
       xml:space="preserve"
       style="font-style:normal;font-weight:normal;font-size:40px;line-height:1.25;font-family:sans-serif;fill:#000000;fill-opacity:1;stroke:none"
       x="1546.2247"
       y="598.21771"
       id="text1827"><tspan
         sodipodi:role="line"
         id="tspan1825"
         x="1546.2247"
         y="598.21771"
         style="font-style:normal;font-variant:normal;font-weight:normal;font-stretch:normal;font-size:24px;font-family:sans-serif;-inkscape-font-specification:'sans-serif, Normal';font-variant-ligatures:normal;font-variant-caps:normal;font-variant-numeric:normal;font-variant-east-asian:normal">TM</tspan></text>
    <path
       id="path1887"
       style="display:inline;fill:#ffffff;fill-opacity:1"
       d="m 506.05859,367 c 9.10015,0 9.94141,0.16098 9.94141,1.90039 0,1.04507 -2.00653,10.83257 -4.45898,21.75 -2.45245,10.91743 -7.18379,32.22461 -10.51563,47.34961 -3.33184,15.125 -6.28062,28.4 -6.55273,29.5 -0.61075,2.46888 4.28768,-7.2284 16.16406,-32 22.98841,-47.94893 25.7228,-53.5 26.35351,-53.5 0.36937,0 1.20433,14.2875 1.85547,31.75 1.33444,35.78737 2.34558,56.23197 2.70899,54.75 0.48171,-1.96438 3.49642,-15.58754 12.39453,-56 4.96512,-22.55 9.26674,-42.0125 9.55859,-43.25 0.50859,-2.1565 0.96649,-2.25 11.01172,-2.25 7.1037,0 10.48047,0.36364 10.48047,1.12695 0,0.61942 -0.8919,5.00692 -1.98242,9.75 -1.63228,7.09942 -16.78963,75.65904 -34.62696,156.62305 -1.93875,8.8 -3.75049,16.7875 -4.02539,17.75 -0.43457,1.52149 -1.84798,1.75 -10.83007,1.75 h -10.33204 l -0.58593,-6.75 c -0.32243,-3.7125 -1.08868,-22.5 -1.70313,-41.75 -0.61445,-19.25 -1.41919,-36.52302 -1.78711,-38.38477 -0.65658,-3.32237 -0.75414,-3.2021 -5.3457,6.5 -4.61494,9.75149 -13.33911,27.90726 -30.0957,62.63477 L 475.12109,554 h -10.06054 c -5.53307,0 -10.11248,-0.3375 -10.17578,-0.75 -0.28912,-1.88301 0.71564,-6.86895 7.80078,-38.75 4.15582,-18.7 8.38255,-37.825 9.39453,-42.5 2.01573,-9.31192 15.14208,-68.63802 19.86133,-89.76758 1.62989,-7.29754 3.2366,-13.71004 3.57031,-14.25 C 495.84544,367.44246 500.59105,367 506.05859,367 Z M 613.5,367 c 8.20742,0 10.5,0.29779 10.5,1.36523 0,1.30793 -3.93695,19.77441 -5.99805,28.13477 -0.54237,2.2 -5.28328,23.575 -10.53515,47.5 -5.25186,23.925 -12.20011,55.425 -15.44141,70 -3.24131,14.575 -6.51463,29.425 -7.27539,33 l -1.38477,6.5 -10.68164,0.2832 C 566.80808,553.93931 562,553.689 562,553.22656 c 0,-0.70218 3.11112,-14.8909 7.94141,-36.22656 0.56033,-2.475 5.52523,-24.975 11.0332,-50 5.50796,-25.025 10.45976,-47.3 11.00586,-49.5 C 593.17428,412.69066 603,368.04669 603,367.43164 603,367.19412 607.725,367 613.5,367 Z m 28.66016,0 h 10.40039 c 9.9787,0 10.42116,0.0915 10.8789,2.25 0.26243,1.2375 0.99145,17.68775 1.6211,36.55664 0.62966,18.86889 1.43708,38.32764 1.79297,43.24219 L 667.5,457.98438 689.17773,412.74219 710.85547,367.5 721.42773,367.2168 C 728.6489,367.02294 732,367.2826 732,368.03711 c 0,0.6076 -2.67449,13.1097 -5.94336,27.7832 -3.26886,14.67351 -12.07039,54.35469 -19.56055,88.17969 -7.49017,33.825 -14.09452,63.4125 -14.67578,65.75 L 690.76367,554 H 680.38086 C 674.67115,554 670,553.63372 670,553.18555 c 0,-0.82683 12.04251,-55.86849 18.41211,-84.1543 1.91587,-8.50788 3.35887,-15.59426 3.20508,-15.74805 -0.38821,-0.38821 1.74686,-4.77293 -32.11719,65.89844 -5.45074,11.37521 -10.19619,20.50654 -10.54492,20.29102 -0.34873,-0.21553 -0.96929,-10.87196 -1.38086,-23.68164 -1.53237,-47.69382 -2.08833,-60.64009 -2.62305,-61.17383 -0.30183,-0.30128 -5.49055,21.82448 -11.53125,49.16797 L 622.4375,553.5 l -10.83594,0.28516 -10.83594,0.28515 0.56055,-2.28515 c 0.30762,-1.25676 3.96618,-17.81016 8.13086,-36.78516 4.16469,-18.975 8.01115,-36.3 8.54883,-38.5 0.90856,-3.71747 2.7357,-11.96502 16.05859,-72.5 2.72357,-12.375 5.38194,-24.3 5.90625,-26.5 0.52431,-2.2 1.2304,-5.4625 1.57032,-7.25 z m 118.42968,0 c 9.95329,0 10.39113,0.0909 10.83399,2.25 0.25384,1.2375 0.97938,18.9 1.61328,39.25 0.63389,20.35 1.47151,39.7 1.86133,43 l 0.70898,6 1.57813,-3.5 c 0.86822,-1.925 7.86922,-16.55 15.55664,-32.5 7.68742,-15.95 16.71973,-34.7375 20.07226,-41.75 L 818.91016,367 h 10.54492 c 5.79975,0 10.54492,0.25848 10.54492,0.57422 0,0.31574 -6.49473,29.90324 -14.43359,65.75 -7.93885,35.84676 -16.96517,76.65078 -20.0586,90.67578 -3.09343,14.025 -5.87149,26.5125 -6.17383,27.75 -0.52619,2.1537 -0.99448,2.25 -10.9414,2.25 C 779.92138,554 778,553.72836 778,552.53125 c 0,-0.80767 4.93181,-23.6252 10.95898,-50.70703 6.02717,-27.08183 10.85234,-49.34687 10.72266,-49.47656 -0.12969,-0.12968 -3.57729,6.8273 -7.66016,15.45898 -6.21279,13.13457 -18.19778,38.05664 -32.04882,66.64258 -1.68796,3.48363 -3.079,5.34856 -3.35743,4.5 C 756.35372,538.1522 755.60607,521.075 754.95508,501 753.12675,444.61907 754.34023,444.51358 741.60156,502.17188 735.60742,529.30282 730.49634,552.0625 730.24414,552.75 729.70747,554.21298 709,554.5766 709,553.12305 c 0,-0.4823 2.46023,-11.8448 5.4668,-25.25 3.00656,-13.40521 12.02778,-54.07305 20.04687,-90.37305 8.01908,-36.3 14.8336,-67.0125 15.14258,-68.25 0.53746,-2.1526 1.01,-2.25 10.93359,-2.25 z m 97.48828,0 h 10.46094 c 6.33185,0 10.46094,0.39655 10.46094,1.00391 0,0.55192 -4.47586,21.13942 -9.94727,45.75 -5.4714,24.61059 -13.36062,60.27109 -17.53125,79.24609 -4.17064,18.975 -8.2053,37.2 -8.96484,40.5 -0.75953,3.3 -1.90823,8.475 -2.55469,11.5 -0.64645,3.025 -1.39221,6.2875 -1.65625,7.25 -0.41812,1.52416 -1.82584,1.75 -10.91211,1.75 C 820.44773,554 817,553.63292 817,552.88867 c 0,-0.6113 1.33026,-7.0238 2.95508,-14.25 1.62483,-7.2262 9.50434,-42.83867 17.51172,-79.13867 17.80006,-80.6933 18.54884,-84.06715 19.69336,-88.75 z m 49.36133,0 h 10.4375 l 0.51953,4.25 c 0.2849,2.3375 1.03708,20.45 1.67188,40.25 0.6349,19.8 1.44147,40.94777 1.79297,46.99414 l 0.63867,10.99219 10.35742,-46.99219 c 5.6965,-25.84637 10.81284,-48.90664 11.36914,-51.24414 l 1.01172,-4.25 h 10.38086 c 7.6301,0 10.38549,0.33127 10.39648,1.25 0.0144,1.16178 -8.89944,41.84398 -31.49804,143.75 l -9.20313,41.5 -10.5039,0.2832 -10.50586,0.28125 -0.63477,-10.78125 c -0.3494,-5.93026 -1.1238,-25.4082 -1.7207,-43.2832 -0.597,-17.875 -1.39268,-35.82206 -1.76758,-39.88281 l -0.68164,-7.38281 -8.93359,40.38281 c -4.9135,22.21075 -9.75532,44.20526 -10.75977,48.87695 -1.00446,4.67168 -2.07627,9.28418 -2.38281,10.25 C 876.93923,553.77101 875.50479,554 866.43359,554 860.69566,554 856,553.63958 856,553.19922 c 0,-0.44036 0.90736,-4.82786 2.01562,-9.75 1.10827,-4.92214 2.88667,-12.99922 3.95118,-17.94922 1.06451,-4.95 9.38215,-42.47488 18.48437,-83.38867 C 889.55335,401.19754 897,367.56004 897,367.36133 897,367.16262 901.69815,367 907.43945,367 Z M 1340.5,367 c 27.9163,0 34.5,0.2518 34.5,1.32031 0,0.7263 -0.9216,5.5638 -2.0488,10.75 -1.1272,5.1862 -2.54,11.79219 -3.1387,14.67969 l -1.0879,5.25 h -24.1269 -24.1289 l -2.3008,10.75 c -1.2664,5.9125 -3.3988,15.35651 -4.7364,20.98633 C 1309.6698,446.56865 1307.9019,445 1329.5195,445 h 18.5196 l -0.5079,2.25 c -0.2786,1.2375 -1.6331,7.425 -3.0097,13.75 -1.3766,6.325 -2.7437,12.52725 -3.0391,13.7832 -0.3803,1.61727 -1.1856,2.22961 -2.7597,2.09571 -1.2224,-0.1039 -9.6878,-0.12066 -18.8125,-0.0352 L 1303.3203,477 l -1.2031,5.25 c -5.6474,24.64761 -8.1172,36.14765 -8.1172,37.80273 0,1.87526 0.8763,1.94727 23.5,1.94727 18.1601,0 23.4902,0.28404 23.4512,1.25 -0.028,0.6875 -1.5267,7.775 -3.3301,15.75 l -3.2793,14.5 -34.6699,0.26367 c -19.069,0.14462 -34.6719,-0.0148 -34.6719,-0.35351 0,-0.33875 4.2932,-20.0328 9.541,-43.76368 5.2478,-23.73088 11.7781,-53.27148 14.5098,-65.64648 2.7317,-12.375 5.4069,-24.3 5.9453,-26.5 C 1296.242,412.40815 1306,368.00834 1306,367.43164 1306,367.19412 1321.525,367 1340.5,367 Z m -87.1504,0.01 c 18.2799,-0.0113 21.1881,0.82328 25.4902,7.32031 3.9524,5.96877 4.2122,17.29807 0.75,32.66406 -1.4243,6.32128 -2.5898,12.28378 -2.5898,13.25 0,1.56922 -1.1743,1.75586 -11,1.75586 -6.05,0 -11,-0.22894 -11,-0.50977 0,-0.75384 3.9832,-18.69901 4.6035,-20.74023 0.4882,-1.60636 -0.5739,-1.75 -12.9355,-1.75 h -13.4668 l -1.67,7.75 c -0.9188,4.2625 -2.2868,10.45 -3.039,13.75 -0.7523,3.3 -2.9511,13.2 -4.8867,22 -4.5471,20.67195 -13.2313,60.01527 -15.2305,69 -0.8568,3.85 -1.7717,7.7875 -2.0332,8.75 -0.4356,1.60325 0.6476,1.75 12.9238,1.75 h 13.4004 l 5.0078,-22.5 c 2.7542,-12.375 4.7405,-22.52649 4.416,-22.55859 -0.3246,-0.0321 -3.2898,-0.14457 -6.5898,-0.25 -4.9885,-0.15936 -5.9761,-0.48071 -5.8652,-1.90821 0.1323,-1.70346 3.7696,-18.83558 5.5273,-26.0332 l 0.916,-3.75 h 17.461 c 9.6038,0 17.4609,0.18312 17.4609,0.40625 0,0.73087 -15.9742,72.97846 -17.1562,77.59375 -3.4004,13.27695 -11.3138,24.41887 -20.3438,28.64258 -4.5984,2.15086 -6.2852,2.33559 -21,2.30859 -16.6531,-0.0306 -20.267,-0.73253 -23.7109,-4.60156 -5.8718,-6.5968 -6.4195,-18.2224 -1.8067,-38.34961 1.7017,-7.425 5.7675,-25.65 9.0371,-40.5 15.6617,-71.13279 17.0426,-76.84334 20.1328,-83.31836 3.9488,-8.27405 9.9723,-14.8422 16.3477,-17.82422 4.5778,-2.14122 6.3391,-2.33865 20.8496,-2.34765 z m 266.0899,0.0703 c 13.9643,-0.012 17.1155,1.38016 20.7949,7.05469 4.8469,7.4749 4.8997,16.69547 0.209,36.61523 L 1537.793,422 h -10.3965 c -12.0486,0 -11.4516,0.80979 -8.3809,-11.37695 C 1522.1783,398.07075 1523.049,399 1508.1309,399 h -12.8711 l -1.1172,4.25 c -0.6148,2.3375 -2.4829,10.55 -4.1504,18.25 -1.6674,7.7 -3.4724,15.62642 -4.0117,17.61523 -0.5393,1.98881 -0.9805,4.09693 -0.9805,4.6836 0,0.70005 5.7119,1.17652 16.6172,1.38476 l 16.6172,0.31641 3.3008,3.82031 c 4.1288,4.7796 5.9258,11.84107 5.1445,20.20703 -0.3214,3.44219 -3.107,17.66898 -6.1895,31.61524 -7.5966,34.36948 -12.397,44.14395 -24.6894,50.26953 -4.9769,2.48027 -5.8635,2.58381 -21.2461,2.47266 -8.8296,-0.0638 -16.9547,-0.33547 -18.0547,-0.60157 -2.8956,-0.7005 -6.3953,-4.20205 -8.707,-8.71093 -3.4877,-6.80299 -3.4318,-13.63964 0.2519,-30.47266 L 1451.3496,499 h 10.9316 c 9.6194,0 10.8596,0.19312 10.3184,1.60352 -0.3384,0.88163 -1.3037,4.81913 -2.1445,8.75 -0.8407,3.93086 -1.7963,8.39681 -2.1231,9.92578 l -0.5937,2.78125 13.3808,-0.28125 13.3809,-0.2793 4.8301,-21.83594 c 2.6564,-12.01028 4.666,-22.00195 4.4648,-22.20312 -0.2011,-0.20117 -6.1327,-0.43609 -13.1797,-0.52149 -14.0916,-0.17073 -18.9852,-1.08726 -22.3398,-4.18554 -5.6402,-5.20917 -7.3214,-18.65924 -4.0313,-32.25391 0.9317,-3.85 3.7251,-16.1214 6.2071,-27.26953 5.9782,-26.85202 9.9226,-34.87781 20.7851,-42.29492 l 5.0313,-3.43555 16.4922,-0.33789 c 2.4693,-0.0506 4.6847,-0.0803 6.6797,-0.082 z m -496.0118,0.01 c 13.2393,-0.0409 16.1219,1.1272 19.8418,6.05469 5.3637,7.10492 5.8668,14.34905 2.1875,31.50195 -1.3985,6.51947 -2.8047,13.09102 -3.125,14.60352 l -0.582,2.75 h -10.375 c -12.0319,0 -11.35,0.977 -8.375,-12 1.0718,-4.675 1.9606,-9.07583 1.9746,-9.7793 0.02,-0.9892 -2.9654,-1.21579 -13.1758,-1 L 998.5957,399.5 984.99805,460.75 971.39844,522 h 13.23437 c 11.7298,0 13.29469,-0.19881 13.77539,-1.75 1.0673,-3.44477 9.4585,-42.71727 9.1856,-42.99023 -0.1533,-0.15326 -3.0491,-0.35397 -6.4356,-0.44727 -7.44682,-0.20524 -7.27997,0.85862 -2.85937,-18.1543 l 3.21877,-13.84375 16.9512,0.13672 c 9.3236,0.075 17.1722,0.35583 17.4394,0.62305 0.2672,0.26723 -3.6428,19.02566 -8.6875,41.68555 -10.0369,45.08417 -11.5558,49.55873 -19.7207,58.08007 -2.5327,2.64323 -6.4941,5.66286 -8.80273,6.71094 -3.5852,1.62769 -6.60367,1.90499 -20.69727,1.9043 -19.3147,-9.5e-4 -21.58417,-0.69226 -25.79297,-7.85156 -2.4441,-4.15745 -2.70034,-5.52512 -2.65234,-14.10352 0.0477,-8.46263 1.61375,-16.48859 14.34375,-73.5 15.6533,-70.1035 16.98979,-74.43903 25.59179,-83.04102 7.4803,-7.48029 8.89124,-7.90472 27.59767,-8.28515 2.3466,-0.0477 4.4485,-0.0781 6.3398,-0.084 z m 404.0078,0.0703 c 18.916,-0.0523 20.9526,0.85846 24.8575,5.98437 3.4863,4.57647 5.1113,11.67127 4.3906,19.17969 -0.7274,7.57817 -8.9402,43.74564 -11.3047,49.7832 -2.0504,5.23564 -6.2314,11.5908 -10.2988,15.6582 l -2.9512,2.95118 2.4356,4.81054 c 1.8544,3.66292 2.4355,6.39885 2.4355,11.46289 0,6.8133 -0.471,9.31543 -8.5605,45.50977 -2.5815,11.55 -5.0784,22.94216 -5.5489,25.31641 -0.4704,2.37425 -1.1144,4.73675 -1.4316,5.25 -0.6822,1.1039 -20.1548,1.27621 -20.75,0.18359 -0.2247,-0.4125 3.0557,-16.275 7.289,-35.25 4.2332,-18.975 7.9896,-36.075 8.3477,-38 l 0.6523,-3.5 -13.25,0.18555 -13.248,0.18554 -8.5,38.31446 -8.5,38.31445 -10.1699,0.2832 c -5.5935,0.15625 -10.3802,-0.0687 -10.6367,-0.5 -0.3887,-0.65342 5.2872,-27.8523 9.2402,-44.2832 0.5955,-2.475 3.5034,-15.525 6.4629,-29 12.2198,-55.63916 22.6878,-102.80742 23.8574,-107.5 l 1.2461,-5 24.7402,-0.26758 c 3.4459,-0.0373 6.4931,-0.0653 9.1953,-0.0723 z m -0.2753,31.98588 c -1.7176,-0.006 -3.821,0.0202 -6.379,0.0742 l -13.2207,0.2793 -4.707,21 c -2.5895,11.55 -4.7412,21.80083 -4.7812,22.7793 -0.066,1.63239 1.0137,1.75602 13.0879,1.5 l 13.1582,-0.2793 4.7968,-21.5 c 2.6389,-11.825 4.8178,-22.07583 4.8418,-22.7793 0.025,-0.74242 -1.6443,-1.05532 -6.7968,-1.07422 z M 1151.7949,367.1626 c 6.2968,0.021 10.2051,0.0873 10.2051,0.19141 0,0.75147 -5.0371,23.24685 -6.1348,27.39648 l -1.125,4.25 h -11.8027 c -10.3724,0 -11.8672,0.21206 -12.332,1.75 -0.2909,0.9625 -5.7374,25.375 -12.1035,54.25 -6.3661,28.875 -13.9061,62.9625 -16.7559,75.75 l -5.1816,23.25 h -10.2813 c -9.4553,0 -10.2832,-0.15319 -10.2832,-1.91016 0,-1.49563 14.6786,-68.89266 23.541,-108.08984 6.4798,-28.65955 9.459,-42.3911 9.459,-43.5918 0,-1.12941 -2.2773,-1.4082 -11.5,-1.4082 -10.3011,0 -11.495,-0.18244 -11.459,-1.75 0.022,-0.9625 1.4894,-8.05 3.2598,-15.75 l 3.2187,-14 34.7403,-0.26367 c 9.5537,-0.0723 18.2384,-0.0952 24.5351,-0.0742 z m 41.586,0 c 3.64,0.0167 6.4033,0.22371 6.7265,0.54883 0.615,0.61845 -17.0055,82.28235 -38.2012,177.03906 l -2.0703,9.25 h -10.4179 c -8.3482,0 -10.418,-0.28236 -10.418,-1.42383 0,-0.78346 0.891,-5.39596 1.9805,-10.25 1.0896,-4.85404 6.9379,-31.32617 12.9961,-58.82617 6.0581,-27.5 11.4479,-51.8 11.9765,-54 0.5285,-2.2 2.5358,-11.2 4.461,-20 1.9253,-8.8 4.799,-21.85 6.3867,-29 l 2.8887,-13 9.8164,-0.28906 c 1.3499,-0.0396 2.6616,-0.0544 3.875,-0.0488 z M 442.67578,367.5 c 16.91439,0 18.37097,0.14691 21,2.10547 3.8682,2.8817 6.15264,7.09497 7.3457,13.54883 1.11336,6.02271 0.54491,11.15205 -3.11328,28.0957 L 465.58594,422 h -10.81055 c -10.69921,0 -10.80852,-0.0235 -10.29687,-2.25 C 447.32899,407.34607 449,399.83782 449,399.43164 c 0,-0.26968 -5.9625,-0.3644 -13.25,-0.21094 l -13.25,0.2793 -2.08789,9 c -4.54643,19.59191 -6.41898,28.18314 -7.0293,32.25 l -0.63867,4.25 h 15.59375 15.59375 l 3.42969,3.01367 c 4.76892,4.18717 6.91069,9.97467 6.83789,18.48633 -0.0935,10.93275 -11.14495,58.95449 -15.68555,68.1582 -4.09559,8.30169 -12.47831,16.6826 -18.30469,18.30078 -2.03952,0.56644 -10.68398,1.02072 -19.20898,1.01172 -17.79052,-0.0197 -20.55216,-0.82785 -24.80859,-7.25976 -4.01182,-6.06227 -4.15228,-18.2164 -0.39844,-34.71094 l 2.8457,-12.5 10.68164,-0.2832 C 395.1948,499.06069 400,499.1771 400,499.47656 c 0,0.77817 -3.96701,18.67902 -4.60352,20.77344 -0.48829,1.60673 0.57847,1.75 13.01758,1.75 13.23861,0 13.55942,-0.0514 14.03711,-2.25 0.26888,-1.2375 2.27142,-10.35 4.44922,-20.25 2.17781,-9.9 4.103,-19.10608 4.2793,-20.45703 l 0.32031,-2.45508 -13,0.17383 c -15.50671,0.20796 -19.31414,-0.64745 -23.35352,-5.24805 -6.2757,-7.14763 -6.65767,-16.6298 -1.58007,-39.17969 1.96089,-8.7084 4.71057,-21.00898 6.11132,-27.33398 4.0133,-18.12181 11.0602,-30.13716 20.69532,-35.29102 3.82344,-2.04517 5.46952,-2.20898 22.30273,-2.20898 z" />
  </g>
</svg>
