<?xml version="1.0" encoding="UTF-8" standalone="no"?>
<svg
   xmlns:dc="http://purl.org/dc/elements/1.1/"
   xmlns:cc="http://creativecommons.org/ns#"
   xmlns:rdf="http://www.w3.org/1999/02/22-rdf-syntax-ns#"
   xmlns:svg="http://www.w3.org/2000/svg"
   xmlns="http://www.w3.org/2000/svg"
   xmlns:sodipodi="http://sodipodi.sourceforge.net/DTD/sodipodi-0.dtd"
   xmlns:inkscape="http://www.inkscape.org/namespaces/inkscape"
   version="1.1"
   id="svg24"
   width="886.67847"
   height="867.99463"
   viewBox="0 0 886.67847 867.99463"
   sodipodi:docname="ISC.svg"
   inkscape:version="1.0.2 (e86c870879, 2021-01-15, custom)"
   inkscape:export-filename="C:\Users\cmoth\source\repos\cmothersead\FRST Website\images\logos\ISC.png"
   inkscape:export-xdpi="55.433849"
   inkscape:export-ydpi="55.433849">
  <metadata
     id="metadata30">
    <rdf:RDF>
      <cc:Work
         rdf:about="">
        <dc:format>image/svg+xml</dc:format>
        <dc:type
           rdf:resource="http://purl.org/dc/dcmitype/StillImage" />
        <dc:title />
      </cc:Work>
    </rdf:RDF>
  </metadata>
  <defs
     id="defs28" />
  <sodipodi:namedview
     pagecolor="#ffffff"
     bordercolor="#666666"
     borderopacity="1"
     objecttolerance="10"
     gridtolerance="10"
     guidetolerance="10"
     inkscape:pageopacity="0"
     inkscape:pageshadow="2"
     inkscape:window-width="2560"
     inkscape:window-height="1377"
     id="namedview26"
     showgrid="false"
     inkscape:zoom="1.0617978"
     inkscape:cx="369.50079"
     inkscape:cy="375.53078"
     inkscape:window-x="-8"
     inkscape:window-y="-8"
     inkscape:window-maximized="1"
     inkscape:current-layer="g32"
     inkscape:document-rotation="0" />
  <g
     inkscape:groupmode="layer"
     inkscape:label="Image"
     id="g32"
     transform="translate(-40,-41.323774)">
    <path
       id="path36"
       style="display:inline;fill:#000000;stroke-width:1.33333"
       d="m 150.74507,906.35183 c -2.53764,-1.62412 -6.18588,-2.76896 -8.16294,-2.56159 -4.8545,0.50922 -10.59869,-4.61945 -10.96524,-9.79026 -0.25551,-3.60435 0.14295,-4.04118 4.02842,-4.41622 l 4.31197,-0.41622 -2.79345,-3.77834 c -3.13688,-4.24286 -4.64901,-14.34213 -2.60362,-17.38922 0.73839,-1.1 3.3144,-2 5.7245,-2 4.29981,0 4.38972,-0.12227 4.79594,-6.51935 0.2277,-3.58564 -0.2223,-7.15564 -1,-7.93333 -2.16654,-2.16655 -1.6995,-8.48579 0.69507,-9.40467 1.15997,-0.44513 4.12456,-0.80932 6.58797,-0.80932 2.46342,0 4.8281,-0.56496 5.25486,-1.25546 0.44732,-0.72379 -1.63686,-1.14728 -4.92131,-1 -4.91599,0.22044 -5.75344,-0.13891 -6.10705,-2.62052 -0.2254,-1.58179 0.3746,-3.51474 1.33333,-4.29544 0.95873,-0.7807 3.48076,-2.93651 5.60451,-4.79068 2.12376,-1.85418 4.93834,-3.37123 6.25465,-3.37123 1.31629,0 2.76409,-0.6 3.21732,-1.33333 0.45323,-0.73334 -0.0237,-1.33334 -1.05995,-1.33334 -1.0362,0 -3.50157,-1.49912 -5.47861,-3.33138 -3.21869,-2.98299 -3.55281,-4.12768 -3.19471,-10.94532 0.33074,-6.29652 0.86135,-7.73875 3.0666,-8.33528 1.91378,-0.5177 2.66667,-1.85068 2.66667,-4.72135 0,-4.17851 2.28773,-4.98545 7.66667,-2.70425 1.67542,0.71054 2.33333,0.37361 2.33333,-1.19495 0,-3.63423 3.88827,-4.00395 7.40117,-0.70373 l 3.2655,3.06777 v -3.63197 c 0,-5.14722 3.15364,-10.59863 7.45108,-12.88002 2.02322,-1.07406 5.34336,-4.57136 7.37808,-7.77174 3.3897,-5.33164 3.53526,-6.06955 1.73825,-8.81214 -2.74328,-4.18677 -1.14759,-7.10996 4.74769,-8.6974 2.77251,-0.74656 5.78428,-2.25306 6.69284,-3.34781 0.90855,-1.09473 2.37452,-1.99042 3.25772,-1.99042 1.02747,0 1.3934,-1.44735 1.01602,-4.01859 -0.72331,-4.9282 1.88917,-11.62224 5.23452,-13.41261 1.89033,-1.01168 2.4838,-2.85011 2.4838,-7.6942 0,-7.8097 1.57445,-10.00956 9.5912,-13.40107 6.69428,-2.83203 9.40538,-6.56475 10.94417,-15.06819 0.74576,-4.12112 0.44748,-5.16576 -1.8218,-6.38024 -1.91377,-1.02422 -2.71357,-2.7907 -2.71357,-5.99333 0,-2.49759 -0.6,-4.91188 -1.33334,-5.36511 -2.14101,-1.32322 -1.54626,-7.01221 1.41195,-13.5059 3.52139,-7.72992 3.01351,-9.89252 -3.09075,-13.16076 -3.6992,-1.98056 -4.98536,-3.5243 -4.99893,-6 -0.0456,-8.32624 -1.72939,-13.55412 -4.73315,-14.69615 -1.66518,-0.63311 -3.40178,-2.33004 -3.85912,-3.77096 -0.45733,-1.44093 -1.71768,-2.95993 -2.80077,-3.37555 -3.47361,-1.33296 -4.93903,-7.43506 -2.63132,-10.95707 1.11948,-1.70855 2.03543,-4.01536 2.03543,-5.12626 0,-1.1109 2.35637,-3.22194 5.23638,-4.69122 6.52008,-3.3263 8.07034,-7.30052 4.23982,-10.86919 -2.89262,-2.69488 -5.06003,-8.70755 -3.6479,-10.11968 0.44838,-0.44837 0.20754,-1.54745 -0.5352,-2.44239 -3.12938,-3.77068 2.92083,-11.28486 9.08626,-11.28486 2.26817,0 2.65181,-1.36868 3.42098,-12.20483 0.47648,-6.71267 0.86632,-28.91267 0.86632,-49.33333 v -37.12851 l -3.66666,2.7e-4 c -7.78311,5.5e-4 -37.43914,5.45157 -69,12.68277 -4.4,1.00813 -9.8,2.24197 -12,2.74187 -32.83281,7.46054 -89.722201,26.10205 -103.720906,33.98722 -1.313164,0.73968 -2.985219,0.97551 -3.715677,0.52406 -1.83554,-1.13443 14.878597,-13.2146 32.532058,-23.51262 10.209623,-5.95569 51.682835,-26.10977 59.571185,-28.94885 21.36647,-7.68997 63.79194,-21.17621 72,-22.88742 38.38924,-8.00338 52.18603,-10.30962 81.33334,-13.59554 15.42842,-1.73932 55.6093,-2.04446 73.33333,-0.55692 14.07287,1.18112 35.079,3.67838 36.08252,4.28956 0.41207,0.25096 6.71207,1.43803 14,2.63792 7.28795,1.1999 14.45081,2.42808 15.91748,2.7293 1.46667,0.3012 7.46667,1.50989 13.33333,2.68597 5.86667,1.17608 11.86667,2.59911 13.33334,3.16228 6.01941,2.31136 12.34209,4.06169 14.76133,4.08647 2.50371,0.0256 24.33492,7.37257 47.23867,15.89741 17.76942,6.61383 56.85321,19.46304 69.33333,22.79405 6.23333,1.66372 13.90431,3.83283 17.0466,4.82024 3.14229,0.98741 6.86301,1.79529 8.26828,1.79529 1.40525,0 6.03429,0.94566 10.28673,2.10147 4.25244,1.1558 11.03172,2.59519 15.06506,3.19864 4.03333,0.60344 13.03333,2.00453 20,3.11353 54.33594,7.94027 115.00657,9.33123 165.95785,-2.52952 15.97204,-3.92146 57.52068,-17.40478 71.22553,-23.11405 5.41752,-2.25686 10.36706,-4.1034 10.99894,-4.1034 0.63189,0 6.0968,-2.4 12.14425,-5.33333 12.51364,-6.06977 11.67343,-5.79048 11.67343,-3.88039 0,2.03511 -3.84316,5.0827 -20.66667,16.38844 -16.80963,11.29641 -30.34532,18.89845 -54,30.32797 -32.94792,15.91984 -64.19372,24.72243 -101.33333,28.5477 -12.1,1.24626 -22.75,2.47593 -23.66667,2.7326 -1.28585,0.36002 -1.66667,9.59205 -1.66667,40.40476 v 39.9381 l -6.2996,5.38473 -6.2996,5.38474 3.42846,3.719 c 4.92922,5.34698 7.83741,9.9839 7.83741,12.49629 0,1.20116 -1.5,4.39431 -3.33333,7.09587 -1.83334,2.70157 -3.33334,5.13256 -3.33334,5.4022 0,0.26964 2.4119,0.89774 5.35976,1.39578 9.18254,1.55138 12.00832,7.53495 6.72839,14.2473 -1.42037,1.80573 -2.76781,5.92881 -3,9.17981 L 726,688.66665 l -7.57292,0.0923 c -4.16511,0.0508 -8.36511,0.72268 -9.33333,1.49317 -0.96823,0.77051 -5.78654,1.70797 -10.70735,2.08327 -9.45664,0.72122 -16.94169,4.13625 -25.4614,11.61664 -4.79892,4.21352 -13.99316,7.22564 -17.78221,5.82564 -1.36187,-0.50319 -5.03318,-2.98708 -8.15846,-5.51974 -5.22706,-4.23589 -6.1351,-4.52052 -11.33333,-3.55233 -3.10805,0.57889 -9.07099,1.10695 -13.25099,1.17347 -9.61152,0.15294 -11.82129,2.02156 -8.67976,7.33973 1.25386,2.12263 2.27975,6.24131 2.27975,9.15263 0,2.91132 0.9,7.84417 2,10.9619 1.1,3.11774 2,6.82954 2,8.24844 0,1.44539 -4.65503,7.23487 -10.58585,13.16571 -9.34536,9.34534 -11.15422,10.58585 -15.43591,10.58585 -6.36288,0 -12.13559,5.57487 -13.25363,12.79939 -2.01238,13.00358 -13.32566,25.86729 -22.74957,25.86729 -2.46639,0 -4.85515,-0.6 -5.30837,-1.33333 -2.18172,-3.5301 -10,0.81128 -10,5.55284 0,1.10524 -2.15348,4.77361 -4.78551,8.15193 -4.3526,5.58677 -4.93941,7.38557 -6.48709,19.88548 -2.68178,21.65955 -4.42639,24.39212 -17.71399,27.74533 -4.27093,1.0778 -5.85153,2.21666 -6.46416,4.65751 -0.99924,3.98129 -3.60603,6.28516 -6.05028,5.34721 -1.01145,-0.38813 -3.5444,-3.40133 -5.62876,-6.696 -3.96536,-6.26788 -5.15369,-6.82265 -16.50411,-7.70497 -8.23397,-0.64005 -17.09904,-5.87169 -19.19396,-11.32712 -0.79853,-2.07951 -1.0217,-7.07248 -0.52593,-11.76716 l 0.86116,-8.15495 -5.66035,-4.84505 c -6.05356,-5.18161 -7.84702,-5.88687 -7.84702,-3.08568 0,0.96767 1.95,2.61767 4.33333,3.66667 3.4942,1.53794 4.33333,2.6775 4.33333,5.88468 0,3.56209 -0.5216,4.06216 -4.99564,4.7894 -2.7476,0.4466 -6.09484,1.80678 -7.43832,3.02261 -3.0348,2.74645 -6.06382,2.82395 -8.2327,0.2106 -0.91292,-1.1 -2.3199,-2 -3.1266,-2 -0.80671,0 -0.1332,0.93403 1.49658,2.0756 3.48246,2.4392 3.87586,7.49799 0.78502,10.09448 -1.19808,1.00645 -4.64808,3.02992 -7.66667,4.49659 -6.5278,3.17172 -7.57388,7.23336 -4.16312,16.1643 3.37148,8.8281 1.99343,11.16903 -6.575,11.16903 h -7.07008 l -0.69312,6.14934 c -0.83213,7.38271 -4.54727,11.62843 -10.17523,11.62843 -6.19428,0 -8.44885,-2.66836 -7.91594,-9.36879 0.25118,-3.15827 0.28128,-5.74231 0.0668,-5.74231 -0.21442,0 -1.89332,0.9851 -3.7309,2.18913 -5.24204,3.43472 -9.17769,0.77285 -14.10321,-9.53863 -2.2916,-4.79742 -4.71711,-9.06286 -5.39001,-9.47874 -2.2301,-1.37828 -7.3946,0.75164 -12.82647,5.28984 -3.65891,3.05694 -7.30881,4.7464 -11.49317,5.31993 -10.13894,1.38969 -13.70811,3.94439 -14.70156,10.5229 -1.76256,11.67142 -2.43482,13.44638 -7.01138,18.51208 -7.4459,8.24172 -15.32854,6.8459 -18.57868,-3.28986 -0.84552,-2.6368 -2.64048,-4.30175 -5.84065,-5.41759 -2.541,-0.886 -8.52,-4.28043 -13.28667,-7.54316 -4.76666,-3.26273 -12.72145,-7.64436 -17.6773,-9.73696 -8.99658,-3.79877 -9.02052,-3.80113 -15.33334,-1.51229 -3.47748,1.26084 -8.46428,2.58307 -11.08177,2.93829 -4.16839,0.5657 -5.27849,0.0543 -8.94368,-4.12012 -3.68363,-4.19542 -4.33708,-4.49352 -5.45831,-2.49 -0.93382,1.66866 -0.37588,3.80806 2.09092,8.01731 2.99539,5.11125 3.18283,6.18022 1.70796,9.74085 -0.91116,2.19975 -3.32004,5.18397 -5.35306,6.63161 -9.56924,6.8139 -21.12866,-1.02749 -15.90451,-10.78892 1.21761,-2.2751 0.92313,-2.57901 -2.49903,-2.57901 -2.1336,0 -6.43014,0.9 -9.54788,2 -8.29808,2.92773 -10.08813,2.55848 -16.15925,-3.33333 -3.0226,-2.93333 -6.00945,-5.33333 -6.63745,-5.33333 -0.628,0 -2.1131,1.48234 -3.3002,3.29409 -2.02699,3.09359 -1.98828,3.51033 0.63593,6.84648 4.19773,5.33656 3.58989,11.10068 -1.93344,18.33436 -5.47869,7.17522 -9.20204,7.89845 -16.52719,3.21025 z M 705.05561,425.64068 c -4.18608,-4.9357 -11.70985,-13.17402 -16.71948,-18.30736 -5.00962,-5.13333 -13.88048,-15.33333 -19.71302,-22.66666 -5.83254,-7.33334 -10.94482,-13.63334 -11.36063,-14 -0.4158,-0.36667 -5.45333,-6.53888 -11.19449,-13.71603 -5.74118,-7.17715 -11.10512,-12.82743 -11.91991,-12.55616 -1.02399,0.34092 -1.60492,11.575 -1.88139,36.38269 -0.44749,40.15407 -0.0968,42.0736 8.53644,46.7229 9.18376,4.94578 6.04502,5.20421 -20.80313,1.71282 -13.24268,-1.7221 -27.00759,-3.75225 -35.88904,-5.29316 -3.97231,-0.68918 -9.73277,-1.25306 -12.80104,-1.25306 -11.30149,0 -18.34584,-5.08146 -9.24841,-6.67136 2.27318,-0.39728 4.58117,-2.03031 5.65328,-4 1.62869,-2.9923 1.29677,-4.8067 -3.28484,-17.95623 -5.7078,-16.38175 -3.56231,-14.6076 -21.76328,-17.99644 -4.03334,-0.75096 -10.03334,-1.92544 -13.33334,-2.60993 -7.43917,-1.54308 -7.89689,-1.10596 -12.58594,12.0197 -4.71139,13.18823 -4.29855,18.5317 1.63344,21.14195 4.29378,1.8894 5.617,6.56432 1.59845,5.64735 -25.86203,-5.69566 -52.70647,-11.08143 -78.64595,-16.5718 -8.03309,-1.89758 -9.93597,-5.15806 -3.6905,-6.32348 2.00356,-0.37387 4.85356,-1.7239 6.33333,-3.00004 2.99548,-2.5833 3.03063,-2.98846 2.86392,-33.01306 -0.0591,-10.63333 -0.12227,-27.96227 -0.14039,-38.50877 l -0.033,-19.17544 -6,-6 c -3.3,-3.3 -6,-6.54824 -6,-7.2183 0,-1.3077 4.88996,-0.66268 18.66666,2.46222 4.76667,1.0812 11.36667,2.48523 14.66667,3.12006 17.98836,3.46046 21.98223,4.70525 22.41728,6.9869 0.34271,1.79727 -0.46257,2.33334 -3.50513,2.33334 -2.17254,0 -5.2338,1.05 -6.80282,2.33333 -2.65102,2.16833 -2.88524,3.79477 -3.31202,23 -0.2526,11.36667 -0.13696,31.71729 0.25697,45.22361 0.7042,24.14364 0.77501,24.62272 4.20757,28.46443 2.58572,2.89393 5.05107,4.08326 9.50459,4.58525 8.13544,0.91697 10.30567,-1.58489 18.74249,-21.60663 14.81716,-35.16318 17.00244,-40.48609 21.74312,-52.96185 6.65334,-17.50918 7.08999,-17.91984 20.10231,-18.90552 l 10.68771,-0.8096 2.90678,7.67183 c 3.92636,10.36277 9.35224,27.4341 15.54498,45.00514 6.49311,18.4233 12.32483,45.42446 20.62105,58 4.99841,6.77432 6.89452,7.91034 13.28212,7.9576 4.51611,0.0335 6.42315,-0.70517 9,-3.48562 l 3.26967,-3.52804 v -42.40923 c 0,-29.57623 -0.47275,-43.44678 -1.56228,-45.83805 -0.85924,-1.88584 -3.66548,-4.72867 -6.23607,-6.31737 -2.57059,-1.58872 -4.00973,-3.10992 -3.19811,-3.38047 0.81163,-0.27053 8.7745,0.45765 17.69524,1.61821 l 16.21956,2.11012 6.31084,6.96976 c 3.47096,3.83338 10.9299,12.06976 16.57542,18.30309 5.6455,6.23334 15.72344,17.48334 22.3954,25 6.67196,7.51667 12.92965,13.66667 13.90597,13.66667 1.39615,0 1.85899,-5.02968 2.16791,-23.55917 0.44644,-26.77739 -0.35296,-30.88164 -6.57836,-33.77416 -2.36746,-1.1 -4.31746,-2.45 -4.33334,-3 -0.0159,-0.55 6.72115,-0.95105 14.97115,-0.89124 13.99367,0.10147 14.71613,0.23312 10.76877,1.96216 -8.57672,3.75685 -8.43544,2.80397 -8.43544,56.89242 0,56.76628 0.51358,55.09263 -12.27772,40.01068 z m -149.0727,-55.30736 c -0.0351,-3.42312 -14.44124,-45.59722 -15.72118,-46.02386 -0.73304,-0.24435 -2.68309,3.63607 -4.33348,8.62313 -1.65037,4.98707 -4.97304,13.76303 -7.3837,19.50212 -2.41068,5.73909 -4.08808,11.20336 -3.72759,12.14283 0.65619,1.70997 20.61388,6.98289 27.51637,7.26996 2.13371,0.0888 3.65952,-0.54431 3.64958,-1.51418 z m 173.35042,63.0827 c 0,-0.749 2.43399,-2.60356 5.40884,-4.12122 5.95407,-3.03754 7.15816,-5.21086 15.86094,-28.62814 2.72534,-7.33334 7.99852,-21.43334 11.71814,-31.33334 3.71964,-9.9 9.0491,-24.48326 11.84324,-32.40726 l 5.08027,-14.40728 11.23337,-5.33697 c 6.17836,-2.93534 11.72422,-4.84614 12.32412,-4.24623 1.48635,1.48635 20.64731,47.7204 29.74088,71.76264 4.69524,12.41361 8.26891,16.72542 14.86524,17.93568 l 5.2583,0.96476 L 846,406.72284 c -8.83929,4.14234 -43.7262,15.80424 -45.00507,15.04419 -0.55278,-0.32855 0.84887,-2.15732 3.11479,-4.06397 6.95707,-5.85399 7.14755,-8.31884 1.67664,-21.69542 -2.67184,-6.53273 -5.595,-12.16057 -6.49593,-12.50628 -1.44743,-0.55544 -26.60155,4.3633 -35.19663,6.88247 -2.70239,0.79205 -3.96767,3.16033 -7.63084,14.28283 -2.41521,7.33333 -4.40743,14.63984 -4.42713,16.23669 -0.0211,1.70577 1.7114,4.27079 4.20004,6.21843 l 4.23586,3.31506 -5.23586,1.31928 c -8.3379,2.10091 -25.90254,3.2265 -25.90254,1.6599 z m 55.68596,-51.18631 c 13.01044,-2.33047 13.65667,-3.14064 10.06224,-12.61496 -1.58892,-4.18812 -4.80273,-12.71476 -7.14182,-18.94809 -4.54948,-12.12371 -7.12372,-16.04639 -9.14996,-13.94285 -0.67611,0.7019 -3.43874,8.17618 -6.13918,16.60951 -2.70042,8.43334 -5.75152,17.90431 -6.78021,21.0466 -1.02871,3.1423 -1.87036,6.97384 -1.87036,8.51456 0,3.10002 10e-4,3.09996 21.01929,-0.66477 z m -654.76212,10.58571 c 7.18994,-8.1682 7.37511,-9.79152 6.8367,-59.93493 l -0.4272,-39.78618 -3.14771,-2.54716 c -1.73125,-1.40093 -4.98125,-2.54716 -7.22223,-2.54716 -2.24098,0 -3.77755,-0.29696 -3.4146,-0.6599 1.77839,-1.77839 47.91371,-16.51012 52.11787,-16.64204 2.26401,-0.0711 0.77036,2.31186 -2.3364,3.7274 -1.83501,0.83609 -4.53277,3.4824 -5.99501,5.88069 -2.51874,4.13109 -2.65888,6.75812 -2.6636,49.93041 l -0.005,45.56989 3.51315,2.76344 c 1.93223,1.5199 4.33223,2.76344 5.33333,2.76344 1.00111,0 1.82019,0.6 1.82019,1.33334 0,0.73333 -1.35,1.35104 -3,1.37266 -1.65,0.0216 -11.7,3.05199 -22.33333,6.73414 -10.63334,3.68213 -20.52959,7.07265 -21.99168,7.53449 -1.90963,0.6032 -1.08847,-0.94377 2.91552,-5.49253 z m 228.4095,-12.36826 c -19.16883,-3.65512 -25.59288,-4.59529 -36.80528,-5.38657 -12.21882,-0.86229 -15.03503,-2.32539 -8.71604,-4.52819 8.11654,-2.82945 8.18798,-3.28581 8.18798,-52.30569 0,-43.42949 -0.0705,-44.62334 -2.84176,-48.14648 -1.56297,-1.987 -4.41297,-4.29014 -6.33333,-5.11812 l -3.49157,-1.50541 4.66666,-0.53201 c 9.51747,-1.08502 61.14532,7.05273 71.90103,11.33326 25.76471,10.25379 39.57701,28.67512 41.98096,55.98959 1.37525,15.62616 -4.43207,33.8618 -13.24893,41.6031 -9.29734,8.16318 -35.8914,12.29731 -55.29972,8.59652 z m 22.37856,-7.44717 c 5.90392,-3.89821 9.14228,-11.47895 11.06016,-25.89096 1.92856,-14.49221 0.85625,-40.15885 -2.06203,-49.3568 -4.59541,-14.48398 -13.04188,-22.42828 -26.07813,-24.5277 -4.68904,-0.75515 -9.89946,-1.02816 -11.57871,-0.6067 l -3.05319,0.7663 0.008,40.30793 c 0.008,41.75101 0.6218,47.68252 5.67222,54.78762 5.44656,7.6624 17.9779,9.83838 26.03224,4.52031 z m -195.7119,5.71747 c 0,-0.73334 1.35867,-1.67434 3.01924,-2.09111 1.66059,-0.41679 4.36059,-2.71535 6,-5.10791 2.94058,-4.29149 2.98076,-4.95646 2.98076,-49.32822 v -44.97811 l -3.27273,-3.27272 c -1.8,-1.8 -4.5,-3.27273 -6,-3.27273 -1.5,0 -2.72727,-0.50833 -2.72727,-1.12964 0,-0.95811 7.5611,-2.49957 31.41895,-6.40533 3.80465,-0.62287 5.23465,0.553 20.79536,17.09972 9.19037,9.77272 22.041,23.63578 28.55696,30.8068 6.51596,7.17101 12.70316,12.87101 13.74935,12.66666 1.54185,-0.30117 1.97898,-4.79116 2.30782,-23.70488 0.4981,-28.64908 -0.37586,-32.78276 -7.56974,-35.80334 -2.87736,-1.20816 -5.23768,-2.66654 -5.24514,-3.24083 -0.0145,-1.11473 22.6272,-1.11384 27.65311,10e-4 3.74836,0.83153 3.94656,3.04309 0.27273,3.04309 -1.5,0 -4.2,1.47274 -6,3.27274 L 288,270.54545 v 50.06061 c 0,40.70985 -0.33051,50.0606 -1.7694,50.0606 -0.97319,0 -10.52921,-9.75 -21.23563,-21.66667 -33.48965,-37.2753 -57.58281,-61.57137 -60.09948,-60.60564 -2.00802,0.77055 -2.22882,4.48331 -2.22882,37.477 0,21.00496 0.56436,38.10608 1.32342,40.1026 0.82507,2.17007 3.4611,4.45119 7,6.05752 3.12212,1.41713 5.30518,2.5898 4.85123,2.60591 -1.37003,0.0487 -24.28588,3.98429 -27.50799,4.72436 -1.65,0.37898 -3,0.0891 -3,-0.64428 z M 692.66667,275.0669 c -15.33692,-0.74669 -46.72926,-3.21867 -55.33334,-4.35719 -26.13532,-3.45833 -62.34548,-10.94814 -84.66666,-17.51273 -5.13334,-1.50968 -10.53334,-3.05012 -12,-3.42317 -5.75666,-1.46423 -39.14411,-12.43664 -47.33334,-15.55556 C 466.36237,223.94615 432.26139,214.2457 398.66667,207.28911 339.56447,195.05062 264.92723,194.8378 202,206.72834 c -3.66667,0.69284 -10.00157,1.80056 -14.07756,2.46159 -7.31424,1.18621 -26.69605,5.73968 -57.92244,13.60801 -24.55056,6.18617 -61.778835,18.70485 -82.443873,27.72323 C 40.163039,253.74757 40,253.78022 40,252.03438 c 0,-4.51804 60.25101,-38.64373 88,-49.84249 16.98881,-6.85624 54.39636,-18.57101 79.33333,-24.84451 l 25.33334,-6.37321 0.66666,-59.15375 c 0.65414,-58.041127 0.71723,-59.161 3.35484,-59.538959 1.65731,-0.237486 4.40142,1.382419 7.1558,4.224223 3.8314,3.953005 5.10842,4.505443 8.96722,3.879245 5.20969,-0.845417 9.01933,1.569823 8.08881,5.128149 -0.91836,3.511822 10.57865,7.019935 23.1,7.048563 7.84136,0.01792 12.87819,-0.940983 23.33333,-4.442185 16.41439,-5.496826 36.00494,-14.511655 46.76696,-21.520392 l 8.1003,-5.27529 181.8997,0.338112 L 726,41.999999 l 0.86993,99.032781 c 0.47846,54.46803 1.22587,99.96035 1.6609,101.09403 0.68368,1.78162 3.36917,1.94749 19.79674,1.22264 41.6509,-1.83778 74.38672,-7.97028 106.3391,-19.92083 2.56666,-0.95997 7.06666,-2.48633 10,-3.39193 12.7349,-3.93162 51.7083,-19.14807 58.31524,-22.76813 3.10342,-1.70042 3.68476,-1.60491 3.68476,0.60537 0,1.8536 -17.10791,14.9648 -30,22.99146 -9.75647,6.07442 -34.76694,19.58324 -44,23.76559 -4.4,1.99308 -11.6,5.33488 -16,7.42621 -9.70286,4.61179 -36.27387,12.21844 -55.33334,15.84063 -32.17069,4.10028 -58.35824,8.20618 -88.66666,7.16908 z" />
    <path
       id="path46"
       style="display:inline;fill:#f20404;fill-opacity:1;stroke-width:1.33333"
       d="m 164.43769,898.33331 3.37515,-5.66667 -2.57308,-4.40954 c -3.58627,-6.14584 -3.29745,-11.65397 0.82733,-15.77876 4.38902,-4.38901 8.6824,-3.46109 15.93291,3.44352 5.06501,4.82339 5.53509,4.99309 9.34348,3.37323 2.20559,-0.93812 7.90559,-1.9133 12.66667,-2.16706 l 8.65652,-0.46138 -0.35922,4 c -0.19757,2.19999 -0.49757,5.49999 -0.66666,7.33333 -0.44831,4.8605 5.34697,5.29232 9.64377,0.71857 l 3.19668,-3.40269 -2.90729,-5.17281 c -3.64052,-6.47743 -3.68116,-10.79962 -0.14384,-15.29659 3.77113,-4.79421 5.93017,-4.42267 9.99526,1.72011 4.45239,6.72801 5.97607,7.21029 12.87988,4.07674 9.18392,-4.16845 15.45776,-3.45876 28.8404,3.26242 6.46748,3.24816 13.58183,7.4395 15.80968,9.31411 2.22784,1.87462 6.37428,4.16703 9.21431,5.09426 3.76692,1.22985 5.77565,2.94821 7.42604,6.35254 3.41295,7.04006 4.79281,8.2427 7.68275,6.69606 4.0217,-2.15235 7.84493,-9.59295 9.12564,-17.75992 0.65684,-4.1886 2.19429,-8.72067 3.41656,-10.07127 2.40772,-2.66049 10.55228,-5.53153 15.69184,-5.53153 1.76206,0 6.05174,-2.354 9.53509,-5.23247 12.0186,-9.93158 18.29884,-8.44253 25.18387,5.97115 2.25798,4.72705 4.65393,8.59465 5.32432,8.59465 0.6704,0 2.87737,-1.22616 4.90438,-2.7248 5.84467,-4.32114 8.64974,-2.35669 7.8922,5.52711 -0.80888,8.41808 1.85791,11.46365 6.2191,7.10245 1.27744,-1.27744 2.09524,-4.41281 2.09524,-8.033 0,-5.06097 0.47837,-6.11964 3.23964,-7.16946 1.7818,-0.67744 5.47632,-0.86875 8.21004,-0.42514 4.76562,0.77336 4.92966,0.6744 3.9816,-2.40194 -5.02535,-16.30643 -3.76278,-21.77907 5.84316,-25.32734 6.63862,-2.45218 7.78125,-4.01188 4.76996,-6.51102 -2.94066,-2.44054 -2.54511,-7.67506 0.71168,-9.41804 2.14741,-1.14926 3.48108,-0.99996 6.03896,0.67602 2.95805,1.93819 3.48636,1.94758 5.33916,0.0948 1.13096,-1.13094 3.81341,-2.05626 5.96104,-2.05626 2.14761,0 3.90476,-0.6 3.90476,-1.33334 0,-0.73333 -1.00276,-1.33333 -2.22835,-1.33333 -5.91365,0 -9.23832,-8.34287 -5.00975,-12.57143 3.42364,-3.42364 6.47383,-2.38784 16.26034,5.52184 l 5.68889,4.5979 -0.8588,10.29769 -0.85879,10.29771 4.2113,3.54357 c 4.75504,4.00109 12.58142,6.58449 16.76597,5.53424 4.55173,-1.14241 9.668,1.63629 13.98465,7.59527 2.2245,3.07082 4.04454,4.68628 4.04454,3.58992 0,-2.99503 4.27353,-6.2702 9.42082,-7.22 2.51855,-0.46474 5.90542,-1.67012 7.52638,-2.67864 3.5244,-2.1928 7.04961,-13.05276 7.06024,-21.75007 0.0107,-8.60091 2.20352,-15.47105 6.53138,-20.46111 2.04968,-2.36329 4.1637,-6.09689 4.69782,-8.29689 1.34114,-5.52408 4.3325,-8.465 9.61896,-9.45675 3.089,-0.5795 5.53174,-0.15933 7.83053,1.3469 4.11344,2.69522 6.18624,1.74456 13.50273,-6.1929 4.25524,-4.6164 5.68782,-7.50061 6.97488,-14.04262 2.03394,-10.33827 6.76423,-15.60782 15.13782,-16.86352 4.70605,-0.70571 7.41886,-2.45123 14.94474,-9.61592 l 9.19499,-8.75369 -1.48424,-6.21075 c -0.81633,-3.41591 -1.88657,-8.91075 -2.37831,-12.21075 -0.49174,-3.3 -1.72109,-7.61628 -2.73189,-9.59173 -1.99369,-3.89632 -0.97711,-8.59043 2.48211,-11.46133 1.06705,-0.88558 5.17956,-1.55098 9.1389,-1.47867 3.95934,0.0723 8.88786,-0.52848 10.95227,-1.33507 5.90468,-2.30704 10.81157,-1.738 15.71603,1.82254 2.49177,1.809 5.85612,4.26202 7.47632,5.45117 4.04594,2.96956 9.70016,1.51356 16.64069,-4.28509 8.81556,-7.36519 17.33316,-11.11516 25.36917,-11.16907 3.87438,-0.026 8.54432,-0.90472 10.37766,-1.95275 1.83333,-1.04802 5.88333,-1.92677 9,-1.95274 5.43613,-0.0453 5.66666,-0.21518 5.66666,-4.17476 0,-2.27014 1.25603,-5.89143 2.79116,-8.04732 3.3304,-4.67718 2.52748,-7.82522 -1.99585,-7.82522 -5.66628,0 -10.12864,-2.37434 -10.12864,-5.38929 0,-1.53375 1.5,-4.75523 3.33333,-7.15885 1.83334,-2.40363 3.33334,-5.00683 3.33334,-5.7849 0,-0.77805 -2.1,-3.9282 -4.66667,-7.00029 -6.46557,-7.7388 -6.19197,-11.48267 1.33333,-18.24476 l 6,-5.39148 v -36.73949 c 0,-20.20673 -0.33324,-37.60791 -0.74053,-38.66931 -0.60735,-1.5827 -3.45173,-1.81016 -15.81473,-1.26457 C 669.77349,539.90177 604.02604,530.73317 554,517.33073 541.0224,513.85392 506.06893,502.13512 489.53977,495.71925 476.57563,490.68715 448.44509,482.04619 432,478.04453 c -13.43577,-3.26937 -33.94191,-7.65542 -38.66667,-8.27038 -2.56666,-0.33408 -6.46666,-1.14413 -8.66666,-1.80013 -2.2,-0.656 -10,-1.78063 -17.33334,-2.49918 -43.3172,-4.24436 -49.98365,-4.52378 -82.66666,-3.46505 -18.33334,0.59391 -36.33334,1.13465 -40,1.20168 L 238,463.33334 237.29452,516 c -0.38801,28.96667 -0.83801,52.85709 -1,53.08985 -0.16199,0.23275 -1.47185,0.0495 -2.91083,-0.4072 -1.43896,-0.4567 -3.83896,-0.17604 -5.33333,0.62372 -3.87033,2.07135 -3.90653,12.62987 -0.0504,14.69363 2.04297,1.09337 2.66667,2.79176 2.66667,7.26172 0,4.87835 -0.67232,6.40028 -4.10231,9.28643 -2.25625,1.89852 -4.65625,3.45185 -5.33333,3.45185 -0.67707,0 -1.23103,0.70276 -1.23103,1.56168 0,0.85892 -0.96233,2.62504 -2.13851,3.92469 -1.98353,2.19179 -1.81445,2.75323 2.33334,7.74763 2.4595,2.96153 5.14837,5.39541 5.97525,5.40862 2.84563,0.0455 4.36959,3.49408 4.94777,11.1964 0.51514,6.86235 1.00054,7.93888 4.36708,9.68547 2.08314,1.08075 4.24204,2.67985 4.79755,3.55359 1.76617,2.77788 1.12961,11.33294 -1.20799,16.23494 -1.88584,3.95464 -1.99592,5.46391 -0.66666,9.1399 0.87569,2.42169 1.59217,5.4293 1.59217,6.68358 0,1.2543 0.87716,2.61712 1.94924,3.02852 3.16416,1.2142 3.57368,4.97698 1.43521,13.18712 -2.71662,10.42982 -5.05074,13.57443 -11.51288,15.51052 -7.33632,2.19802 -9.64929,5.93019 -8.48537,13.69179 0.85389,5.69413 0.69415,6.14767 -2.60741,7.40292 -4.46095,1.69605 -6.08119,5.9968 -4.36539,11.5874 1.55573,5.06905 -0.66027,8.97976 -4.4134,7.78856 -1.2596,-0.39979 -3.04836,0.18666 -3.97501,1.30322 -0.92667,1.11656 -2.71138,2.03011 -3.96603,2.03011 -3.32299,0 -4.03688,1.21781 -2.72956,4.65633 1.60913,4.23235 -2.54891,11.90938 -10.24073,18.90755 -4.61268,4.19671 -6.51522,7.1454 -7.74254,12 -1.29802,5.13432 -2.25784,6.52916 -4.74526,6.89608 -1.80718,0.26657 -3.8002,-0.47283 -4.74044,-1.75869 -1.47439,-2.01634 -1.70598,-1.95506 -2.53979,0.67204 -0.72363,2.27998 -1.72173,2.77264 -4.72443,2.33194 -3.05625,-0.44857 -3.88477,-0.0145 -4.20158,2.20134 -0.21704,1.51804 -1.77068,3.36008 -3.45251,4.09341 -2.39739,1.04533 -2.88911,2.05333 -2.27648,4.66667 0.74468,3.17668 1.99872,4.5118 8.95409,9.53294 l 3.04694,2.1996 -2.80798,3.8004 c -1.54438,2.09022 -3.84886,4.00488 -5.12108,4.2548 -1.27221,0.24994 -3.42325,1.56456 -4.78008,2.92139 -2.4004,2.4004 -2.35216,2.47808 1.78775,2.87892 3.73672,0.3618 4.25472,0.89413 4.25472,4.37257 0,4.46855 -4.03712,7.3196 -10.41203,7.35306 -2.65954,0.014 -3.44368,0.50284 -2.70476,1.68632 1.70238,2.72658 1.71746,16.04061 0.0228,20.10558 -1.37584,3.30018 -2.11496,3.68611 -5.90598,3.08383 -3.99376,-0.63448 -4.33334,-0.40479 -4.33334,2.93107 0,3.41625 2.41227,8.01689 6.27878,11.97475 3.3654,3.44494 1.24973,6.53796 -4.87678,7.12963 -4.36302,0.42136 -4.46605,0.54977 -2.22645,2.77513 1.40407,1.39515 4.37132,2.33334 7.37971,2.33334 3.33812,0 5.84364,0.89746 7.44474,2.66666 3.98823,4.40694 7.96268,3.39399 11.77103,-3 z M 722.65868,155.58797 c -0.004,-47.80672 -0.39333,-91.871305 -0.86429,-97.921305 l -0.8563,-10.999999 H 542.40424 363.8704 l -10.9352,6.577709 c -12.04517,7.245377 -26.27969,13.627235 -43.60187,19.548318 -9.81434,3.354752 -13.29908,3.873972 -26,3.873972 -12.28496,0 -15.69513,-0.474994 -21,-2.925027 C 257.39821,71.46237 256,70.123269 256,67.67604 c 0,-2.795468 -0.50549,-3.081559 -4.60021,-2.603524 -3.22972,0.37705 -5.81611,-0.328754 -8.68154,-2.369119 l -4.08133,-2.906165 0.3482,55.101378 c 0.22621,35.79596 0.81536,55.02564 1.68155,54.8852 C 241.4,169.66488 246.5,168.64306 252,167.51305 c 21.56005,-4.42963 35.52537,-5.43795 74.66667,-5.39108 30.18361,0.0361 42.90017,0.58091 54.66666,2.34185 14.61359,2.18704 56.77003,10.27826 66.66667,12.79555 14.23389,4.16273 28.76651,7.54614 42.66667,12.69101 3.51518,0.95278 9.57464,3.18139 22,8.0914 28.08613,11.26924 57.42519,18.88772 85.33333,26.69636 22.16629,6.33291 81.29721,16.85935 107.02298,17.966 5.19344,0.22341 11.901,1.64486 16.49633,0.51427 0.63105,-0.39002 1.14376,-39.82371 1.13937,-87.63043 z" />
    <path
       id="path42"
       style="display:inline;fill:#ffffff;fill-opacity:1;stroke-width:1.04018"
       d="m 462.38033,590.31824 a 19.395864,19.395864 0 0 1 -19.39586,19.39586 19.395864,19.395864 0 0 1 -19.39587,-19.39586 19.395864,19.395864 0 0 1 19.39587,-19.39587 19.395864,19.395864 0 0 1 19.39586,19.39587 z M 368,651.81608 c -13.44257,-1.35779 -23.41608,-6.48056 -35.52047,-18.24467 -0.99708,-0.96904 -1.81286,-2.89971 -1.81286,-4.29036 0,-2.72977 -0.5064,-2.83821 10.76093,2.30437 9.89684,4.51707 28.51073,6.47803 42.32781,4.4592 6.36786,-0.9304 13.6012,-2.52106 16.07408,-3.53481 11.35081,-3.10031 23.50952,-6.95628 34.83718,-7.13849 8.39776,-0.0669 11.15124,0.51113 17.18513,3.60781 8.94141,4.58885 20.1482,14.44919 20.1482,17.72745 0,2.24051 -0.76907,2.11079 -8.63739,-1.45689 -7.60769,-3.44948 -10.14318,-3.91637 -21.26828,-3.91637 -7.02234,0 -15.76801,0.87054 -19.69594,1.96053 -3.88578,1.07829 -11.41691,3.18207 -16.73586,4.67505 -12.4463,3.49358 -26.72408,4.95203 -37.66253,3.84718 z m -13.61129,-25.11992 c -2.78767,-1.7541 -1.73072,-5.12168 2.12646,-6.77526 1.54999,-0.66448 5.21816,-2.7029 8.1515,-4.52984 C 367.6,613.56412 371.8,611.07901 374,609.86859 c 10.4852,-5.7689 16.66667,-10.49135 16.66667,-12.73284 0,-2.01487 -3.59611,-12.71882 -4.79348,-14.26798 -0.19791,-0.25604 -3.25034,1.02359 -6.78318,2.84364 -26.07016,13.4308 -29.24088,14.23507 -32.45362,8.23199 -3.35643,-6.27152 -0.45588,-8.95788 21.63169,-20.03433 18.91993,-9.48795 20.61785,-10.09174 23.6196,-8.39928 3.25108,1.83302 7.99611,8.75078 19.54196,28.4902 3.43149,5.86666 7.66131,12.57361 9.39959,14.90432 1.78114,2.38817 2.80941,5.15259 2.35604,6.33406 -0.47667,1.24217 -5.50015,3.48916 -12.3282,5.51435 -6.33806,1.87985 -13.32374,4.01933 -15.52374,4.7544 -5.95133,1.98844 -38.18646,2.92457 -40.94462,1.18904 z" />
  </g>
</svg>
