<?xml version="1.0" encoding="UTF-8" standalone="no"?>
<svg
   xmlns:dc="http://purl.org/dc/elements/1.1/"
   xmlns:cc="http://creativecommons.org/ns#"
   xmlns:rdf="http://www.w3.org/1999/02/22-rdf-syntax-ns#"
   xmlns:svg="http://www.w3.org/2000/svg"
   xmlns="http://www.w3.org/2000/svg"
   xmlns:sodipodi="http://sodipodi.sourceforge.net/DTD/sodipodi-0.dtd"
   xmlns:inkscape="http://www.inkscape.org/namespaces/inkscape"
   version="1.1"
   id="svg833"
   width="460.77084"
   height="154.56273"
   viewBox="0 0 460.77085 154.56272"
   sodipodi:docname="PCA.svg"
   inkscape:version="1.0.2 (e86c870879, 2021-01-15, custom)"
   inkscape:export-filename="C:\Users\cmoth\source\repos\cmothersead\FRST Website\images\logos\PCA.png"
   inkscape:export-xdpi="106.67342"
   inkscape:export-ydpi="106.67342">
  <metadata
     id="metadata839">
    <rdf:RDF>
      <cc:Work
         rdf:about="">
        <dc:format>image/svg+xml</dc:format>
        <dc:type
           rdf:resource="http://purl.org/dc/dcmitype/StillImage" />
        <dc:title />
      </cc:Work>
    </rdf:RDF>
  </metadata>
  <defs
     id="defs837" />
  <sodipodi:namedview
     pagecolor="#ffffff"
     bordercolor="#666666"
     borderopacity="1"
     objecttolerance="10"
     gridtolerance="10"
     guidetolerance="10"
     inkscape:pageopacity="0"
     inkscape:pageshadow="2"
     inkscape:window-width="2560"
     inkscape:window-height="1377"
     id="namedview835"
     showgrid="false"
     inkscape:zoom="1"
     inkscape:cx="168.94584"
     inkscape:cy="130.43704"
     inkscape:window-x="-8"
     inkscape:window-y="-8"
     inkscape:window-maximized="1"
     inkscape:current-layer="g841"
     inkscape:document-rotation="0" />
  <g
     inkscape:groupmode="layer"
     inkscape:label="Image"
     id="g841"
     transform="translate(0.23242188,-0.31015376)">
    <path
       id="path878"
       style="display:inline;fill:#3a53a4;fill-opacity:1;stroke:none;stroke-width:1px;stroke-linecap:butt;stroke-linejoin:miter;stroke-opacity:1"
       d="M 213.04583,2.7207865 193.42319,151.53956 h 39.90486 l 9.72888,-97.783414 7.75012,97.783414 h 41.88362 L 270.26479,2.7207865 Z M 146.79838,69.754605 h 40.57651 V 45.240485 C 187.37489,8.4570641 164.78294,0.19396178 141.6963,0.31138078 118.60967,0.42879978 95.028338,9.4214306 95.028338,45.240485 v 62.846965 c 0,39.08016 23.115792,46.78543 46.231572,46.78543 23.11579,0 46.23158,-9.57086 46.23158,-46.78543 V 90.110989 h -40.57651 v 30.335971 c 0,5.84939 -2.74008,6.9085 -5.48016,6.9668 -2.74009,0.0583 -5.48017,-0.88421 -5.48017,-6.9668 V 34.163562 c 0,-5.907693 2.74383,-6.762643 5.49226,-6.80379 2.86072,-0.04283 5.48721,1.043601 5.46807,6.80379 z M 0,3.03125 -0.23242188,151.75391 40.693359,151.8125 V 92.666992 h 11.790802 c 9.851706,0 31.945947,-0.829306 31.992401,-27.357636 l 0.05859,-33.458699 C 84.55073,22.954531 83.337423,3.03125 43.634765,3.03125 Z m 49.789062,34.681641 v 20.404297 c 0,7.52115 -9.095703,6.763671 -9.095703,6.763671 V 31.066406 c 5.926271,0.06256 9.095703,1.726443 9.095703,6.646485 z" />
    <path
       id="path880"
       style="fill:#ed1d24;fill-opacity:1;stroke:none;stroke-width:1px;stroke-linecap:butt;stroke-linejoin:miter;stroke-opacity:1"
       d="m 196.72111,148.86 h 33.80371 L 241.94331,36.757894 h 2.44859 L 253.36294,148.86 h 35.61757 L 267.71173,5.8299594 H 215.4753 Z M 149.82995,66.422231 h 34.747 V 45.94008 c 0,-36.4961574 -21.92989,-43.5312982 -43.53,-43.5312982 -21.60011,0 -42.870434,9.1787912 -42.870434,43.5312982 v 65.59846 c 0,32.70354 21.600104,39.90358 43.200214,39.90358 21.60011,0 43.20022,-9.83837 43.20022,-39.90358 V 93.162751 h -34.747 v 26.468019 c 0,7.28944 -4.25587,10.52192 -8.51174,10.52192 -4.25587,0 -8.51174,-3.30296 -8.51174,-10.52192 V 37.195141 c 0,-11.411847 4.25587,-12.830469 8.51174,-12.830469 4.25587,0 8.51174,1.418623 8.51174,12.830469 z M 2.4726562,5.9355469 2.8027344,148.90039 H 37.886719 V 90.033203 h 19.498047 c 15.529923,0 23.990925,-12.171373 23.990925,-23.25 V 35.313476 c 0,-20.111024 -10.541935,-29.3779291 -37.740926,-29.3779291 z M 52.412109,36.728516 v 21.6875 c 0,12.126976 -14.52539,9.677734 -14.52539,9.677734 V 27.984375 c 13.401715,0.347693 14.314406,3.367337 14.52539,8.744141 z" />
    <path
       id="path908"
       style="fill:#ffffff;fill-opacity:1;stroke:none;stroke-width:1px;stroke-linecap:butt;stroke-linejoin:miter;stroke-opacity:1"
       d="m 261.53198,124.99433 c 0,0 21.01088,-8.51857 32.06477,-7.81215 14.91132,0.95294 35.92918,12.66153 52.70284,20.05506 18.86624,8.31591 37.31174,11.19353 37.31174,11.19353 0,0 -26.26835,4.59124 -47.22268,-0.6996 -11.9557,-3.01874 -31.20493,-13.03876 -46.75627,-19.82186 -13.63142,-5.94568 -28.1004,-2.91498 -28.1004,-2.91498 z m -45.12389,3.96437 c 0,0 4.5571,-45.228402 76.72227,-45.357082 44.23616,2.398517 71.91804,26.308592 116.06779,46.118722 41.6349,14.41666 47.87066,-21.70948 47.87066,-21.70948 0,0 12.90306,17.91158 -11.05625,37.73046 -4.65255,3.84853 -23.23332,13.27785 -62.8431,-0.34714 -6.84637,-2.35502 -23.27777,-9.0682 -31.72753,-13.5265 -9.19678,-4.85245 -11.25922,-5.41757 -27.30375,-13.57884 -25.19783,-12.81723 -37.8772,-12.29235 -45.36198,-12.70337 -41.06155,-2.25483 -62.36811,23.37323 -62.36811,23.37323 z" />
    <path
       id="path886"
       style="fill:#3a53a4;fill-opacity:1;stroke:none;stroke-width:0.943275px;stroke-linecap:butt;stroke-linejoin:miter;stroke-opacity:1"
       d="m 219.37622,124.09756 c 0,0 7.41573,-39.291357 75.19136,-38.682087 35.99463,0.323575 70.2508,27.687397 111.65038,45.339897 38.10135,16.24616 52.05115,-16.11445 52.05115,-16.11445 0,0 4.20366,16.47399 -12.85759,28.48882 -4.653,3.27672 -17.2345,12.35246 -53.39297,2.91247 -46.08849,-12.03245 -68.22327,-42.05663 -117.54354,-42.54095 -36.85105,-0.36187 -55.09879,20.5963 -55.09879,20.5963 z M 428.85183,71.358704 A 22.736841,20.871254 0 0 1 406.11499,92.229958 22.736841,20.871254 0 0 1 383.37815,71.358704 22.736841,20.871254 0 0 1 406.11499,50.48745 22.736841,20.871254 0 0 1 428.85183,71.358704 Z M 394.86315,114.6753 357.25991,43.389473 404.32536,32.15475 c 12.37283,-2.953447 6.87938,-23.6649199 -5.58784,-20.854102 l -65.07016,14.670496 c -7.84256,1.768157 -10.18079,11.774864 -6.10115,18.550817 l 14.34596,23.827494 -41.80117,8.657048 c 37.73146,2.790909 65.88464,20.963669 94.75215,37.668797 z" />
    <path
       style="fill:#3a53a4;fill-opacity:1;stroke:none;stroke-width:1px;stroke-linecap:butt;stroke-linejoin:miter;stroke-opacity:1"
       d="m 273.54169,122.54575 c 0,0 19.64311,-6.25006 32.64777,-0.583 13.36726,5.82508 25.60535,11.07291 36.63173,16.15779 11.49792,5.30233 30.41281,9.84383 30.41281,9.84383 0,0 -21.87046,1.1769 -34.51336,-1.98218 -11.65883,-2.91319 -10.3872,-3.42698 -44.18225,-18.65727 -8.60511,-3.87803 -20.9967,-4.77917 -20.9967,-4.77917 z"
       id="path910"
       sodipodi:nodetypes="csscssc" />
  </g>
</svg>
