<?xml version="1.0" encoding="UTF-8" standalone="no"?>
<svg
   xmlns:dc="http://purl.org/dc/elements/1.1/"
   xmlns:cc="http://creativecommons.org/ns#"
   xmlns:rdf="http://www.w3.org/1999/02/22-rdf-syntax-ns#"
   xmlns:svg="http://www.w3.org/2000/svg"
   xmlns="http://www.w3.org/2000/svg"
   xmlns:sodipodi="http://sodipodi.sourceforge.net/DTD/sodipodi-0.dtd"
   xmlns:inkscape="http://www.inkscape.org/namespaces/inkscape"
   version="1.1"
   id="svg2057"
   width="207.93484"
   height="143.31789"
   viewBox="0 0 207.93484 143.31789"
   sodipodi:docname="IA.svg"
   inkscape:version="1.0.2 (e86c870879, 2021-01-15, custom)">
  <metadata
     id="metadata2063">
    <rdf:RDF>
      <cc:Work
         rdf:about="">
        <dc:format>image/svg+xml</dc:format>
        <dc:type
           rdf:resource="http://purl.org/dc/dcmitype/StillImage" />
        <dc:title></dc:title>
      </cc:Work>
    </rdf:RDF>
  </metadata>
  <defs
     id="defs2061" />
  <sodipodi:namedview
     pagecolor="#ffffff"
     bordercolor="#666666"
     borderopacity="1"
     objecttolerance="10"
     gridtolerance="10"
     guidetolerance="10"
     inkscape:pageopacity="0"
     inkscape:pageshadow="2"
     inkscape:window-width="2560"
     inkscape:window-height="1377"
     id="namedview2059"
     showgrid="false"
     inkscape:zoom="2.4570254"
     inkscape:cx="21.407752"
     inkscape:cy="142.27039"
     inkscape:window-x="-8"
     inkscape:window-y="-8"
     inkscape:window-maximized="1"
     inkscape:current-layer="g2065" />
  <g
     inkscape:groupmode="layer"
     inkscape:label="Image"
     id="g2065"
     transform="translate(-6.136989,-8.64)">
    <path
       id="path2069"
       style="display:inline;fill:#002c5c;fill-opacity:1;stroke-width:0.32"
       d="m 64.32,151.30864 c -1.851264,-0.58334 -2.382198,-0.96082 -4.827997,-3.4325 -1.962249,-1.98302 -3.345949,-3.07145 -4.839222,-3.80659 -4.103645,-2.02022 -6.360266,-5.56813 -6.59376,-10.36687 -0.27384,-5.62795 1.96056,-9.72987 6.530313,-11.98836 2.244199,-1.10915 2.735101,-1.22634 5.622813,-1.34232 3.765853,-0.15126 6.529162,0.57833 8.998983,2.37596 4.23679,3.0837 5.846595,9.70466 3.727792,15.33204 -0.971284,2.57964 -3.89856,5.54836 -6.326464,6.41602 l -1.707546,0.61022 0.992592,0.88688 c 0.799619,0.71446 1.298624,0.88688 2.566714,0.88688 0.865763,0 1.946105,-0.14143 2.400755,-0.31429 0.789872,-0.30031 0.872445,-0.22139 1.856569,1.77431 1.171364,2.3754 1.173879,2.37006 -1.499622,3.18119 -2.128186,0.64569 -4.400253,0.57571 -6.90192,-0.21257 z m -1.551869,-11.47667 c 1.553415,-0.43147 2.992429,-1.95958 3.477786,-3.6931 0.568931,-2.03203 0.28176,-6.46791 -0.505795,-7.81291 -0.98058,-1.67466 -2.131549,-2.34714 -4.283588,-2.5028 -1.631168,-0.118 -2.120899,-0.0159 -3.333564,0.69474 -2.028388,1.18871 -2.884618,3.06658 -2.86392,6.28108 0.03479,5.40306 3.086588,8.26138 7.509081,7.03299 z M 83.68,145.17194 c -2.461667,-0.6374 -3.916672,-1.45285 -5.137776,-2.87944 C 76.672266,140.10788 76.48,138.88929 76.48,129.22192 V 120.64 h 3.36 3.36 l 0.02435,7.92 c 0.02627,8.55043 0.196803,9.65876 1.65337,10.74624 1.121324,0.83719 3.969411,0.891 5.179894,0.0979 C 91.684621,138.33804 91.84,137.40057 91.84,128.65028 V 120.64 h 3.2 3.2 l -0.0026,7.28 c -0.0029,8.21857 -0.298928,10.7291 -1.536326,13.0216 -0.964496,1.78691 -2.994228,3.49354 -4.789341,4.02696 -1.874314,0.55694 -6.431581,0.66954 -8.231917,0.20338 z m 80,-0.002 c -3.69736,-0.95341 -6.32452,-2.99117 -7.8219,-6.06708 -3.36505,-6.91246 -0.56751,-15.25218 5.99738,-17.87872 1.54477,-0.61804 2.41331,-1.16165 5.66452,-1.16165 3.27179,0 4.11556,0.54178 5.70222,1.17576 2.11667,0.84574 2.10667,0.70997 0.28058,3.80835 -0.97248,1.65003 -1.2966,1.972 -1.8228,1.81068 -3.55263,-1.08911 -3.85059,-1.13122 -5.49932,-0.77722 -1.27499,0.27377 -1.91674,0.64124 -2.77079,1.58656 -2.89317,3.2024 -1.978,9.99744 1.57346,11.68272 1.58277,0.75107 4.75095,0.53195 6.40313,-0.44285 1.35277,-0.79816 1.27263,-0.8585 2.97671,2.24122 l 1.00773,1.83305 -1.04546,0.637 c -2.74622,1.67326 -7.49226,2.36526 -10.64546,1.55218 z m 18.00323,-0.0687 c -1.01022,-0.24485 -2.42177,-0.74364 -3.13679,-1.10841 l -1.30001,-0.66322 0.65678,-1.10493 c 0.36123,-0.60771 0.9698,-1.64493 1.35236,-2.30493 0.38256,-0.66 0.72861,-1.24605 0.76899,-1.30232 0.0404,-0.0563 0.69938,0.22398 1.46443,0.62279 2.72359,1.41978 6.67101,0.80917 6.67101,-1.03192 0,-0.76543 -0.87267,-1.33266 -3.96676,-2.57838 -4.34923,-1.75104 -6.28367,-4.26619 -6.26621,-8.1473 0.0139,-3.09197 1.96236,-5.6364 5.1191,-6.68491 2.43462,-0.80865 6.56723,-0.54088 9.06223,0.58717 1.02759,0.4646 1.81856,0.95501 1.7577,1.0898 -0.17542,0.3885 -2.25525,4.39718 -2.32306,4.47748 -0.0336,0.0398 -0.81011,-0.21218 -1.72551,-0.56 -2.97898,-1.13204 -5.49749,-0.68401 -5.49749,0.97787 0,0.88901 0.98423,1.65195 3.25915,2.52639 2.8532,1.09672 4.68141,2.23928 5.80561,3.62827 0.86857,1.07314 0.98373,1.47493 1.09974,3.83681 0.11405,2.32207 0.0371,2.81066 -0.64203,4.07814 -1.84561,3.44435 -6.8445,4.94965 -12.15924,3.66149 z m -157.593435,-0.69 c 0.09367,-0.31418 1.48982,-4.02724 3.102548,-8.25124 1.612728,-4.224 3.603008,-9.44854 4.422845,-11.61009 l 1.49061,-3.93008 3.356429,0.0901 3.356429,0.0901 1.383677,3.52 c 2.605203,6.62751 7.814544,19.83967 7.984432,20.25049 0.133696,0.32329 -0.633799,0.39126 -3.613197,0.32 l -3.78295,-0.0905 -0.471492,-1.52 -0.471491,-1.52 H 36.32 31.792363 l -0.471415,1.52 -0.471415,1.52 -3.465026,0.0912 c -3.199177,0.0842 -3.45196,0.0474 -3.294712,-0.48 z M 38.72,136.04023 c 0,-0.15387 -0.231507,-0.90987 -0.514458,-1.68 -0.28295,-0.77012 -0.842435,-2.55223 -1.243299,-3.96023 -0.660425,-2.31969 -0.749945,-2.46988 -0.953661,-1.6 -0.123651,0.528 -0.644166,2.25636 -1.1567,3.84079 -0.512535,1.58444 -0.931882,3.06044 -0.931882,3.28 0,0.28346 0.695869,0.39921 2.4,0.39921 1.32,0 2.4,-0.12589 2.4,-0.27977 z M 99.420291,141.2 c 0.790079,-2.068 2.341859,-6.136 3.448409,-9.04 1.10654,-2.904 2.55279,-6.684 3.21388,-8.4 l 1.20198,-3.12 h 3.29569 3.29568 l 4.21498,10.64 c 2.31824,5.852 4.48606,11.324 4.81737,12.16 l 0.60238,1.52 h -3.77915 -3.77915 l -0.47163,-1.52 -0.47163,-1.52 -4.51597,-0.0886 -4.51597,-0.0886 -0.5343,1.60861 -0.53429,1.60861 h -3.46239 -3.462394 z m 13.457899,-5.28 c -0.13399,-0.35665 -2.03255,-6.38574 -2.39323,-7.6 -0.0784,-0.264 -0.40734,0.528 -0.73094,1.76 -0.3236,1.232 -0.88663,3.09054 -1.25119,4.1301 -0.36455,1.03955 -0.66283,1.93955 -0.66283,2 0,0.0604 1.1674,0.1099 2.59424,0.1099 1.9422,0 2.55646,-0.10053 2.44395,-0.4 z M 127.04,135.68 v -9.28 h -3.2 -3.2 v -2.88 -2.88 h 9.92 9.92 v 2.88 2.88 h -3.2 -3.2 v 9.28 9.28 h -3.52 -3.52 z m 16.64,-2.88 v -12.16 h 3.52 3.52 v 12.16 12.16 h -3.52 -3.52 z M 18.975343,111.2325 c -1.982291,-0.64263 -6.968062,-3.89533 -8.229225,-5.36872 -1.246999,-1.45684 -1.9590076,-3.85779 -1.6161062,-5.44966 0.3929396,-1.824146 1.1103272,-2.895544 3.8126812,-5.69412 1.444564,-1.496 3.230885,-3.546547 3.969601,-4.556771 1.665642,-2.277827 3.565785,-5.406256 3.566883,-5.872576 4.48e-4,-0.192141 -0.593345,-0.527367 -1.319551,-0.744941 C 16.487392,82.745088 11.884647,77.356128 9.3741677,72.088752 7.2621062,67.657318 6.3574301,63.79448 6.168264,58.4 5.9092035,51.012339 7.2403642,45.225232 10.879112,37.92 16.729345,26.174938 27.038945,16.619372 39.372893,11.510225 42.43463,10.241948 48.10825,8.64 49.538371,8.64 c 3.311751,0 5.696701,1.874984 6.79417,5.341396 0.651805,2.058758 0.688326,2.768317 0.663894,12.898604 -0.01421,5.896 -0.168521,12.16 -0.342889,13.92 -0.4765,4.809587 -0.562621,4.628499 1.346454,2.831203 3.553869,-3.345785 5.73393,-4.408051 8.636768,-4.208381 3.602547,0.247796 7.394784,2.640778 9.215427,5.815124 1.290893,2.25071 1.274778,4.081635 -0.06145,6.980611 -0.555088,1.204281 -0.951088,2.240665 -0.88,2.303075 0.07109,0.06241 2.865254,1.353187 6.209254,2.868394 5.168234,2.341792 6.27951,2.97174 7.410419,4.200736 l 1.330423,1.445811 0.979644,-1.735837 c 1.994375,-3.533837 4.215463,-5.368781 8.004775,-6.61312 1.16311,-0.381942 2.15811,-0.730278 2.21112,-0.77408 0.053,-0.0438 -0.33076,-0.753184 -0.85283,-1.576406 -4.410021,-6.953876 0.76088,-15.98936 10.28886,-17.978484 5.6299,-1.175334 11.27471,1.104944 13.21698,5.892788 0.64946,1.600963 0.82917,2.062707 0.70371,4.525715 -0.11159,2.190713 -0.31872,3.091814 -1.02893,4.476397 -1.04546,2.03815 -3.55221,4.791504 -5.14165,5.647472 -1.26082,0.679001 -1.29695,0.783712 -0.68822,1.994873 1.13727,2.262803 0.71359,4.955075 -1.17324,7.455373 -2.40263,3.183779 -8.91513,15.381334 -8.45699,15.839475 0.19052,0.190522 3.66554,-3.508595 6.49412,-6.912909 3.05601,-3.678041 5.42439,-6.921833 9.28174,-12.712489 3.1631,-4.748448 3.25259,-4.932877 3.45616,-7.123239 0.39937,-4.297043 2.33182,-7.659545 5.69127,-9.902899 5.86968,-3.919622 13.88242,-3.313261 17.22689,1.303639 1.3324,1.839328 1.47388,3.070348 0.84757,7.374588 -0.60858,4.182404 -0.59726,4.247143 1.76611,10.104087 0.55006,1.363165 1.54047,4.113446 2.20091,6.111734 l 1.2008,3.633251 1.01979,-3.313251 C 158.20252,65.201846 162.23355,54.011629 168.90808,36 c 2.2827,-6.16 4.68275,-12.64 5.33344,-14.4 1.67088,-4.519441 2.06246,-5.258746 3.61248,-6.820471 2.08488,-2.100618 5.23927,-3.443012 9.986,-4.249682 4.86495,-0.82676 7.49429,-0.7147856 9.98435,0.425199 4.06559,1.861292 5.24421,6.130973 3.20346,11.604954 -0.52492,1.408 -2.49744,5.944 -4.38337,10.08 -4.05408,8.890858 -10.15963,23.071478 -10.00161,23.229498 0.0611,0.06106 1.18341,-0.304311 2.49409,-0.811936 7.70146,-2.982749 15.33375,-2.451988 18.75345,1.30415 1.59677,1.753862 2.19005,3.482394 2.18235,6.358288 -0.008,3.12425 -0.74039,5.251478 -3.39424,9.863437 l -1.5358,2.668985 1.21276,-0.204892 c 2.873,-0.485392 6.22207,1.430595 7.26246,4.154806 1.12396,2.943053 0.12278,7.40888 -2.58271,11.520342 -1.55214,2.358743 -8.23994,9.098813 -10.95832,11.043972 -6.32549,4.52624 -10.67002,6.17759 -16.23687,6.1716 -2.52399,-0.003 -3.58453,-0.15196 -5.02024,-0.70645 -3.3915,-1.30984 -6.10448,-4.70089 -6.80203,-8.502117 l -0.23311,-1.270317 -1.30734,2.504717 c -1.7563,3.364897 -4.61814,6.273387 -7.07857,7.193947 -4.0165,1.50277 -10.38405,0.22127 -12.3914,-2.49381 l -0.68802,-0.93059 -2.79627,1.40201 c -4.72934,2.37124 -7.69728,3.0982 -13.33647,3.26659 -10.01863,0.29917 -16.86426,-1.64327 -21.2542,-6.03084 l -1.78958,-1.78862 -2.05138,1.5511 c -5.03113,3.80412 -10.518206,5.81969 -15.81139,5.808 -3.853357,-0.009 -6.042112,-0.72365 -8.301357,-2.71231 l -1.487219,-1.30911 -2.809402,1.30531 c -4.279136,1.98817 -7.293612,2.72549 -11.082022,2.7106 -4.692246,-0.0185 -7.687539,-1.3879 -9.708269,-4.43865 C 58.13961,100.85249 57.759069,99.211574 57.781907,94.4 l 0.02051,-4.32 -3.886205,3.886739 c -4.750092,4.750743 -6.309708,5.672874 -9.596208,5.673799 -2.342758,6.4e-4 -4.024316,-0.611447 -5.49216,-1.9992 l -0.692163,-0.654397 -2.339654,2.946528 c -3.687088,4.643471 -8.767968,9.708741 -10.649042,10.616341 -2.056113,0.99205 -4.413131,1.25278 -6.171638,0.68269 z M 131.04823,84.56 c 1.54035,-1.581814 2.70473,-4.057904 2.70864,-5.76 0.002,-0.748 -0.10487,-1.35313 -0.23687,-1.344733 -0.132,0.0084 -1.36705,1.446653 -2.74455,3.196122 l -2.50455,3.180857 0.68634,0.963876 c 0.37749,0.530134 0.73947,0.963878 0.8044,0.963878 0.0649,0 0.6439,-0.54 1.28659,-1.2 z M 28.47762,57.65353 c 0.543595,-3.829255 1.04386,-8.957453 1.139404,-11.68 L 29.787352,41.12 28.495631,43.588416 C 26.388418,47.615203 25.54516,50.991811 25.515897,55.52 c -0.01659,2.567763 0.144011,4.476118 0.484755,5.76 0.642422,2.420566 1.241183,3.934931 1.391763,3.52 0.06387,-0.176 0.552213,-3.391914 1.085205,-7.14647 z"
       sodipodi:nodetypes="ssssssssscsssssssssscsscsscccsscscccsssccsssssssssssscsscscssssssssssscsssscccssscccssscccccccsssssssssssssscccsscccccccccccssssssssccccccccccccccccccccccccccsssssssssssssssssssssscsssssssssssssssssssscssssssssssscscsssscsscssscssscscscscsscssscssssscsscssssscsssss" />
    <path
       id="path2096"
       style="display:inline;fill:#029746;fill-opacity:1;stroke-width:0.32"
       d="M 25.908925,102.8 C 36.738736,91.82208 43.417101,79.320259 47.814147,61.79368 50.642118,50.521414 51.626496,40.690813 51.46527,25.331372 L 51.36,15.302744 50.596678,14.684999 C 49.687597,13.949292 48.864726,14.050709 44.71719,15.40963 32.192432,19.513313 20.778848,29.479338 15.359479,41.043968 12.792215,46.522365 11.797038,50.618102 11.647727,56.32 c -0.134172,5.123776 0.505241,8.568355 2.394414,12.898931 1.489219,3.413754 5.685311,8.909629 7.081189,9.274659 0.799666,0.209117 2.304095,-0.986204 3.373641,-2.680473 1.283619,-2.033386 1.287414,-2.600496 0.02964,-4.428989 C 21.442319,66.900365 20.052927,62.096864 20.030535,55.84 20.01426,51.292016 20.438226,48.926531 22.07199,44.44991 24.179496,38.67521 28.420386,32.779395 33.010438,29.242954 l 1.810442,-1.394867 0.234342,3.115957 c 0.33904,4.508052 -0.06513,20.384625 -0.633267,24.875956 -1.149635,9.088269 -2.600815,15.593318 -4.818645,21.6 -3.329613,9.017792 -6.714339,14.675024 -12.679124,21.191898 -3.042181,3.323762 -3.043753,3.308942 0.601736,5.671662 2.010855,1.30328 2.739105,1.60472 3.889587,1.60998 1.369545,0.006 1.515454,-0.0948 4.493416,-3.11354 z M 138.424,102.54488 c 4.88287,-1.00858 10.73277,-4.082918 15.37046,-8.077741 1.53433,-1.321641 2.66843,-2.106272 2.56833,-1.776921 -0.69771,2.295852 -1.50604,7.882462 -1.20687,8.341102 0.38601,0.59178 1.58026,1.03559 3.34465,1.24296 3.36069,0.39498 5.67924,-1.54778 8.0789,-6.769467 2.95897,-6.438759 3.97816,-8.459853 5.32228,-10.554272 3.7942,-5.912151 8.48613,-10.640563 12.64761,-12.745968 1.6314,-0.825367 3.61064,-1.130547 3.61064,-0.55673 0,0.158314 -0.52872,1.058314 -1.17492,2 -6.06759,8.841962 -7.89219,12.012909 -8.99495,15.632157 -0.92277,3.028522 -1.11286,4.999728 -0.71952,7.461536 0.67625,4.232554 2.51108,5.806194 6.72939,5.771464 4.06309,-0.0335 8.422,-1.84624 13.28,-5.522907 2.65867,-2.012151 7.7631,-7.201882 9.16183,-9.314928 2.09693,-3.167802 2.79631,-6.372528 1.53772,-7.046112 -0.79885,-0.42753 -0.76853,-0.448551 -4.61955,3.202355 -5.99753,5.685869 -8.96683,7.688592 -11.39935,7.688592 -3.08467,0 -2.19289,-3.367142 2.92392,-11.04 0.82158,-1.232 2.76164,-4.108688 4.31125,-6.392637 7.15181,-10.541017 7.31772,-14.912336 0.5865,-15.452653 -6.34322,-0.509174 -16.11019,4.060058 -23.18562,10.84682 -1.26378,1.212224 -2.32804,2.166793 -2.36501,2.121257 -0.037,-0.04553 0.36391,-1.162787 0.89085,-2.482787 1.49603,-3.747584 5.37446,-13.174854 5.85842,-14.24 0.2399,-0.528 1.43396,-3.336 2.65347,-6.24 3.08734,-7.351853 6.22935,-14.520003 9.32764,-21.28 3.1445,-6.8608 3.51793,-7.864716 3.51793,-9.457375 0,-1.521122 -0.59226,-2.129022 -2.32382,-2.38519 -1.52286,-0.225292 -7.10558,0.526441 -9.1561,1.232901 -1.87354,0.645488 -3.4582,1.798203 -4.02745,2.929664 -0.60851,1.209479 -1.51578,3.609361 -8.22633,21.76 -7.56708,20.467414 -9.62232,26.291539 -11.44415,32.430483 -0.86989,2.931235 -1.75419,5.905517 -1.9651,6.609517 -0.60354,2.01448 -6.92911,7.333632 -11.58861,9.744819 -0.8906,0.543856 -1.99402,1.140855 -2.73178,1.478039 -0.36196,0 0.19649,-0.73609 1.61734,-2.131805 2.56633,-2.520915 3.90418,-5.146855 4.46717,-8.768131 0.63823,-4.105236 -0.33288,-8.217418 -4.51435,-19.116052 -1.70298,-4.438684 -1.82741,-5.513126 -1.13705,-9.818732 0.65386,-4.077975 0.53805,-4.41889 -1.73205,-5.099031 -3.20911,-0.961472 -6.41671,-0.111856 -8.8809,2.352339 -1.3696,1.369597 -1.70775,1.94225 -1.99797,3.383584 -0.20987,1.04226 -0.24276,2.188279 -0.0824,2.870336 0.25488,1.08394 0.0933,1.395575 -3.56626,6.88 -8.80991,13.202858 -13.58845,18.840935 -21.66811,25.565639 -3.26673,2.718905 -4.96176,3.698995 -6.39727,3.698995 -0.75985,0 -1.05139,-0.186003 -1.294731,-0.826042 -0.602576,-1.584892 0.644391,-7.074771 2.791541,-12.290003 2.37232,-5.762163 6.74399,-13.892717 9.26948,-17.23968 0.81056,-1.074211 0.98281,-1.527165 0.74778,-1.966339 -0.32363,-0.604694 -1.75557,-1.229229 -2.5589,-1.116048 -0.264,0.03719 -1.416,0.168326 -2.56,0.291405 -2.79516,0.300723 -6.61751,1.264835 -8.473606,2.137302 -0.907562,0.426605 -1.90169,1.239264 -2.472807,2.021411 C 93.98439,66.077942 90.736381,74.08791 88.568915,82.272454 87.84663,84.999875 87.819629,85.042406 85.6,86.948899 80.366733,91.443872 77.89096,92.539862 77.065056,90.727197 76.232006,88.898858 77.997898,82.68631 81.660512,74.56 85.644646,65.72033 85.323456,66.629018 84.791306,65.70265 84.440182,65.091414 82.810397,64.196605 78.4,62.19361 69.958864,58.360038 68.553075,57.658598 68.399581,57.203738 c -0.218218,-0.64666 0.604105,-3.392362 1.868726,-6.239591 1.121434,-2.524861 1.148647,-2.669565 0.646202,-3.43639 -0.668327,-1.019994 -3.614186,-2.720826 -4.719306,-2.724755 -1.782141,-0.0063 -6.640819,4.428793 -8.650675,7.896563 -2.00673,3.462374 -1.816685,7.931539 0.469274,11.035539 0.628179,0.852979 0.627958,0.861738 -0.08826,3.52 -1.37687,5.110278 -3.487084,9.686573 -6.144988,13.326259 -0.730439,1.00025 -3.319879,3.850215 -5.754314,6.333255 C 43.367421,89.626522 41.6,91.680637 41.6,92.058835 c 0,0.722957 1.114682,1.849107 2.136512,2.158496 1.25481,0.379927 2.983834,-0.714995 6.145478,-3.891689 C 55.475712,84.705296 60.184928,77.76112 63.06911,70.88 c 0.663927,-1.584 1.419501,-2.923962 1.679053,-2.977693 0.662999,-0.137251 5.331837,1.916167 5.331837,2.345015 0,0.194096 -0.366845,1.113334 -0.815213,2.042752 -3.380185,7.00679 -5.937437,16.263616 -6.019593,21.789926 -0.05574,3.749187 0.223526,5.139802 1.285657,6.40207 1.304237,1.55 2.540845,2.04422 5.069149,2.02594 4.091245,-0.0296 9.437136,-2.04096 14.266736,-5.367824 1.42136,-0.979104 2.624752,-1.780186 2.674205,-1.780186 0.04945,0 0.176281,0.729245 0.281843,1.620544 0.266032,2.246224 1.375507,4.100696 2.933792,4.903776 2.71567,1.39956 8.107978,0.53363 12.803424,-2.056045 3.50042,-1.930589 7.11946,-5.026429 14.57405,-12.467097 6.96257,-6.949572 11.26169,-12.027124 15.83403,-18.701066 l 2.28313,-3.332522 0.41632,1.624413 c 0.22898,0.893424 0.81437,2.502717 1.30088,3.576205 3.16479,6.983213 2.97916,11.397312 -0.68466,16.279946 -1.70695,2.27479 -4.79501,5.031846 -5.63596,5.031846 -1.54344,0 -3.25354,-0.899843 -4.99339,-2.627488 -2.25385,-2.238038 -2.92319,-2.326634 -4.98144,-0.659331 -2.4955,2.021497 -4.81439,4.301225 -5.49456,5.401763 l -0.64913,1.05032 0.64301,1.260394 c 1.2671,2.483721 3.63401,4.247472 7.37676,5.496942 3.69234,1.23263 11.76805,1.63059 15.87496,0.78228 z M 113.7746,51.059088 c 5.12747,-2.29856 6.94242,-7.658352 3.50808,-10.359805 -0.44555,-0.350477 -1.52843,-0.809555 -2.40639,-1.020173 -3.94113,-0.945465 -9.48305,2.052564 -10.58345,5.725357 -0.7372,2.460551 1.01397,5.768573 3.31303,6.258451 0.39277,0.08369 1.00213,0.216128 1.35413,0.294308 1.08388,0.240723 3.12239,-0.139549 4.8146,-0.898138 z" />
  </g>
</svg>
