<?xml version="1.0" encoding="UTF-8" standalone="no"?>
<!-- Created with Inkscape (http://www.inkscape.org/) -->

<svg
   version="1.1"
   id="svg824"
   width="339.87305"
   height="318.11148"
   viewBox="0 0 339.87305 318.11148"
   sodipodi:docname="silver-medal-2022.svg"
   inkscape:version="1.1 (c68e22c387, 2021-05-23)"
   xmlns:inkscape="http://www.inkscape.org/namespaces/inkscape"
   xmlns:sodipodi="http://sodipodi.sourceforge.net/DTD/sodipodi-0.dtd"
   xmlns="http://www.w3.org/2000/svg"
   xmlns:svg="http://www.w3.org/2000/svg">
  <defs
     id="defs828">
    <rect
       x="167.91512"
       y="257.80276"
       width="172.90886"
       height="63.046192"
       id="rect2970" />
  </defs>
  <sodipodi:namedview
     id="namedview826"
     pagecolor="#ffffff"
     bordercolor="#666666"
     borderopacity="1.0"
     inkscape:pageshadow="2"
     inkscape:pageopacity="0.0"
     inkscape:pagecheckerboard="0"
     showgrid="false"
     inkscape:zoom="1.602"
     inkscape:cx="188.82647"
     inkscape:cy="157.61548"
     inkscape:window-width="1920"
     inkscape:window-height="1009"
     inkscape:window-x="-8"
     inkscape:window-y="-8"
     inkscape:window-maximized="1"
     inkscape:current-layer="g830"
     fit-margin-top="0"
     fit-margin-left="0"
     fit-margin-right="0"
     fit-margin-bottom="0" />
  <g
     inkscape:groupmode="layer"
     inkscape:label="Image"
     id="g830"
     transform="translate(-46.88,-59.549408)">
    <path
       id="path936-9-85"
       style="fill:#909193;fill-opacity:1;stroke:none;stroke-width:0.437333"
       d="m 215.93275,59.549565 c -1.67198,-0.008 -3.00254,0.29032 -3.99023,0.89844 -0.96911,0.60821 -1.65106,1.4781 -2.04687,2.60937 -0.39573,1.1127 -0.59764,2.44925 -0.60547,4.00977 l -0.041,8.10937 c -0.007,1.4862 0.18001,2.79645 0.56445,3.93164 0.38454,1.11661 1.05863,1.99437 2.02149,2.63086 0.98144,0.63658 2.30849,0.9584 3.98047,0.9668 1.6534,0.008 2.93641,-0.27242 3.84961,-0.84375 0.91328,-0.58992 1.55896,-1.3854 1.93554,-2.38672 0.37668,-1.0199 0.5676,-2.19076 0.57422,-3.50977 l 0.01,-1.86719 -4.45899,-0.0215 -0.01,2.20117 c -0.003,0.53875 -0.0424,1.05056 -0.11914,1.5332 -0.0582,0.48274 -0.21889,0.87204 -0.48047,1.16797 -0.24291,0.27745 -0.66138,0.41314 -1.25586,0.41016 -0.53875,-0.003 -0.95593,-0.12419 -1.25195,-0.36719 -0.27736,-0.26148 -0.47095,-0.62484 -0.58008,-1.08984 -0.0905,-0.48348 -0.13403,-1.04219 -0.13086,-1.67383 l 0.0508,-10.2539 c 0.003,-0.57591 0.0425,-1.09648 0.11914,-1.56055 0.0767,-0.48264 0.255,-0.87213 0.53516,-1.16797 0.28015,-0.29584 0.72678,-0.44253 1.33984,-0.43945 0.61306,0.003 1.04123,0.15467 1.28125,0.45312 0.25869,0.27997 0.4134,0.65247 0.4668,1.11719 0.0535,0.44614 0.0788,0.92905 0.0762,1.44922 l -0.01,2.11719 4.45899,0.0234 0.01,-1.89453 c 0.007,-1.30043 -0.18317,-2.44507 -0.56836,-3.43164 -0.3666,-0.98647 -1.01328,-1.75151 -1.93945,-2.29492 -0.90759,-0.54332 -2.16891,-0.81806 -3.78516,-0.82617 z m -10.42382,0.39062 -3.85742,0.35547 -1.65235,6.67188 -3.25976,-6.22071 -4.32813,0.39844 5.23633,10.06836 -3.33594,12.42383 3.85742,-0.35352 1.92969,-7.31445 3.59375,6.80664 4.27344,-0.39453 -5.50391,-10.54688 z m 21.57226,0.25977 -2.125,22.47265 9.84766,0.93164 0.29492,-3.10742 -5.27148,-0.49805 0.66601,-7.04687 4.02344,0.38086 0.30078,-3.19141 -4.02148,-0.38086 0.56445,-5.96484 5.21484,0.49414 0.29883,-3.16211 z m -37.69922,1.4043 -9.67773,1.76367 4.04687,22.20703 9.73243,-1.77344 -0.56055,-3.07031 -5.20898,0.94921 -1.26758,-6.96484 3.97461,-0.72461 -0.57422,-3.15234 -3.97461,0.72461 -1.07422,-5.89453 5.1543,-0.93945 z m 51.56446,0.11132 -3.85157,22.24219 9.74805,1.6875 0.53125,-3.07617 -5.2168,-0.90235 3.32032,-19.16601 z m 13.54492,2.54493 -5.5293,21.88476 9.5918,2.42187 0.76562,-3.02539 -5.13476,-1.29687 4.76367,-18.85937 z m 13.3164,3.56054 -7.17578,21.40234 9.37891,3.14453 0.99219,-2.95898 -5.01953,-1.68359 2.25,-6.71094 3.83007,1.28516 1.01954,-3.03907 -3.83008,-1.28515 1.90429,-5.67969 4.9668,1.66602 1.00977,-3.01172 z m -104.64453,0.37305 c -0.20446,0.008 -0.41173,0.0268 -0.62304,0.0547 -0.84525,0.11138 -1.73402,0.32501 -2.66602,0.64258 l -5.4082,1.84375 7.28125,21.36524 6.38281,-2.17578 c 1.01993,-0.34754 1.8746,-0.77532 2.56445,-1.28516 0.68386,-0.52742 1.20286,-1.13645 1.55664,-1.82617 0.35379,-0.68973 0.52735,-1.47622 0.52149,-2.35742 0.0117,-0.8872 -0.16379,-1.86677 -0.5293,-2.93946 -0.34753,-1.01993 -0.78547,-1.84168 -1.3125,-2.46679 -0.52703,-0.62512 -1.14686,-1.06267 -1.85937,-1.31055 -0.71252,-0.24788 -1.50266,-0.29134 -2.3711,-0.13281 0.62629,-0.35079 1.10795,-0.77962 1.44532,-1.28711 0.33737,-0.50749 0.52785,-1.10338 0.57031,-1.78516 0.0365,-0.69936 -0.0931,-1.48013 -0.38672,-2.3418 -0.38948,-1.14302 -0.87152,-2.0081 -1.44531,-2.59765 -0.5622,-0.61313 -1.21937,-1.01816 -1.97266,-1.21289 -0.55178,-0.15055 -1.13465,-0.21251 -1.74805,-0.1875 z m -0.76757,3.42968 c 0.51712,0.0201 0.94999,0.19675 1.29882,0.5293 0.36043,0.30897 0.65135,0.78881 0.87305,1.43945 0.2217,0.65065 0.3306,1.23106 0.32813,1.74219 0.009,0.48756 -0.14025,0.91301 -0.44922,1.27344 -0.31497,0.34284 -0.85128,0.64274 -1.60742,0.90039 l -1.08008,0.36719 -1.9336,-5.66992 0.79102,-0.26954 c 0.68581,-0.23368 1.27975,-0.33855 1.7793,-0.3125 z m 118.79687,0.85743 -9.00781,20.69726 3.60351,1.56641 4.98243,-11.44531 -0.38477,13.44726 2.81055,1.22461 9.00976,-20.69726 -3.47461,-1.51172 -4.69336,10.7832 0.0937,-12.78516 z m -132.13867,0.43554 -4.10156,1.95313 6.91406,14.51562 c 0.23967,0.50317 0.44283,1.01485 0.60742,1.53321 0.1646,0.51835 0.18315,0.99214 0.0586,1.42187 -0.10778,0.42174 -0.43675,0.7637 -0.99023,1.02734 -0.53671,0.25567 -1.01167,0.29713 -1.42383,0.12305 -0.39539,-0.18206 -0.75086,-0.49691 -1.0664,-0.94336 -0.29878,-0.45444 -0.56892,-0.93238 -0.8086,-1.43554 l -6.91406,-14.51563 -4.10156,1.95313 6.64062,13.9375 c 0.67908,1.42564 1.42544,2.56165 2.24024,3.4082 0.82357,0.82179 1.7913,1.29651 2.90234,1.42578 1.10305,0.1125 2.4257,-0.19859 3.96875,-0.93359 1.54305,-0.735 2.61884,-1.56676 3.22656,-2.49414 0.59974,-0.94416 0.83123,-1.98933 0.69532,-3.13868 -0.12713,-1.1741 -0.52991,-2.47474 -1.20899,-3.90039 z m 16.27734,7.24219 c 0.13993,0.004 0.27196,0.0193 0.39844,0.0449 0.51752,0.0788 0.96092,0.33915 1.32812,0.78321 0.36121,0.42646 0.68505,1.06217 0.97266,1.90625 0.3715,1.09026 0.43941,1.97902 0.20313,2.66796 -0.21871,0.68295 -0.87263,1.21053 -1.96289,1.58204 l -1.21485,0.41406 -2.30078,-6.75196 1.13477,-0.38671 c 0.54073,-0.18426 1.02163,-0.2713 1.4414,-0.25977 z m 133.62696,1.29492 c -1.14233,0.0647 -2.15992,0.49534 -3.05274,1.29492 -0.88376,0.78336 -1.70455,1.85791 -2.46484,3.22071 l -3.95117,7.08008 c -0.72409,1.2979 -1.19288,2.53707 -1.4043,3.71679 -0.20237,1.1635 -0.034,2.25703 0.50195,3.279295 0.55213,1.03132 1.55744,1.95493 3.01758,2.76953 1.44392,0.80555 2.70375,1.17858 3.7793,1.11914 1.0846,-0.0757 2.03246,-0.46118 2.8457,-1.15625 0.82229,-0.71129 1.55464,-1.64303 2.19727,-2.794915 l 0.91015,-1.63086 -3.89258,-2.17188 -1.07422,1.92188 c -0.26248,0.47049 -0.54354,0.89954 -0.84374,1.28516 -0.284,0.39466 -0.61048,0.658145 -0.98243,0.791005 -0.34667,0.12569 -0.77966,0.0435 -1.29883,-0.246085 -0.47049,-0.26248 -0.778,-0.57201 -0.91992,-0.92774 -0.11664,-0.3629 -0.1094,-0.77447 0.0195,-1.23437 0.15421,-0.46708 0.38367,-0.97571 0.69141,-1.52735 l 4.99805,-8.95703 c 0.28058,-0.50293 0.56625,-0.93725 0.85742,-1.30664 0.30022,-0.38561 0.64307,-0.64181 1.03125,-0.76562 0.38817,-0.12382 0.85133,-0.035 1.38672,0.26367 0.53538,0.29869 0.83625,0.63643 0.90234,1.01367 0.0914,0.37007 0.0467,0.77038 -0.13086,1.20313 -0.16855,0.41652 -0.37938,0.85237 -0.63281,1.30664 l -1.03125,1.84961 3.89453,2.17187 0.92188,-1.6543 c 0.63357,-1.13566 1.02114,-2.22936 1.16015,-3.27929 0.15523,-1.04089 -0.0431,-2.02227 -0.59179,-2.94531 -0.53249,-0.914 -1.50455,-1.76529 -2.91602,-2.55274 -1.46014,-0.8146 -2.76919,-1.1924 -3.92773,-1.13672 z m -169.69727,1.75196 -3.92773,2.39062 11.72851,19.285155 8.45313,-5.140625 -1.62305,-2.66601 -4.52344,2.75 z m 88.9043,5.12304 A 139.82411,139.82411 0 0 0 104.37611,147.05346 141.84729,141.84729 0 0 0 72.70815,235.81323 141.84729,141.84729 0 0 0 214.5558,377.66088 141.84729,141.84729 0 0 0 354.32729,259.75659 139.82411,139.82411 0 0 0 357.9894,228.15307 139.82411,139.82411 0 0 0 218.16518,88.328855 Z m 94.18554,0.21875 -12.72265,18.644525 8.17187,5.57618 1.75781,-2.57813 -4.37304,-2.98437 3.99023,-5.84571 3.33789,2.27735 1.80469,-2.64844 -3.33789,-2.277335 3.37695,-4.94922 4.32813,2.95312 1.79101,-2.62305 z m -192.19531,1.70703 c -0.25547,-0.0111 -0.51668,-8.7e-4 -0.7832,0.0312 -1.05127,0.11733 -2.22264,0.66237 -3.51367,1.63477 -1.33555,1.00593 -2.21126,2.04878 -2.62891,3.13086 -0.40281,1.0709 -0.419,2.17648 -0.0488,3.3164 0.35899,1.1251 1.00645,2.312075 1.94531,3.558595 l 4.87891,6.47656 c 0.89416,1.18716 1.83861,2.11662 2.83203,2.78711 0.98225,0.65565 2.0495,0.94385 3.20117,0.86719 1.16651,-0.0878 2.41641,-0.6347 3.75196,-1.64063 1.32071,-0.99475 2.17208,-1.99425 2.55273,-3.00195 0.36947,-1.02254 0.40052,-2.0474 0.0937,-3.07227 -0.31794,-1.03971 -0.87245,-2.08507 -1.66601,-3.13867 l -1.125,-1.492175 -3.56055,2.681635 1.32422,1.75976 c 0.32413,0.43035 0.60274,0.86048 0.83398,1.29102 0.24609,0.41935 0.35314,0.82484 0.32422,1.21875 -0.0253,0.36789 -0.27514,0.73218 -0.75,1.08984 -0.43034,0.32413 -0.83602,0.47893 -1.21875,0.46484 -0.37907,-0.0401 -0.75263,-0.2117 -1.12109,-0.51562 -0.3648,-0.32994 -0.73717,-0.74741 -1.11719,-1.25195 l -6.16992,-8.191405 c -0.34649,-0.46002 -0.62954,-0.89876 -0.84961,-1.31445 -0.23125,-0.43054 -0.32501,-0.84882 -0.28125,-1.25391 0.0438,-0.40509 0.30912,-0.79131 0.79883,-1.16016 0.4897,-0.36884 0.92122,-0.50619 1.29297,-0.41406 0.3754,0.0661 0.72488,0.26606 1.04882,0.60352 0.31277,0.32261 0.6265,0.69191 0.93946,1.10742 l 1.27343,1.69141 3.5625,-2.68164 -1.14062,-1.51368 c -0.78239,-1.03876 -1.62529,-1.83299 -2.5293,-2.38476 -0.66688,-0.42222 -1.38399,-0.65033 -2.15039,-0.6836 z m 98.00977,6.17383 A 131.7238,131.7238 0 0 1 349.88783,228.15307 131.7238,131.7238 0 0 1 218.16518,359.87573 131.7238,131.7238 0 0 1 86.44057,228.15307 131.7238,131.7238 0 0 1 218.16518,96.428465 Z m 112.15039,5.373045 -15.19727,16.68945 3.40039,3.09571 6.58594,-7.23243 1.54492,1.40821 c 0.90658,0.82554 1.83446,1.42 2.78516,1.7832 0.96321,0.34947 1.95164,0.36892 2.96289,0.0586 1.02498,-0.29781 2.0817,-1.0452 3.16992,-2.24023 0.92561,-1.01647 1.55417,-2.02538 1.88867,-3.02734 0.34824,-0.98946 0.37617,-1.95805 0.082,-2.9043 -0.28162,-0.95999 -0.92305,-1.89549 -1.92578,-2.8086 z m 1.22461,5.48633 1.17383,1.06836 c 0.56317,0.51284 0.88678,0.9841 0.97265,1.41406 0.0859,0.42996 0.008,0.84796 -0.23633,1.25391 -0.23029,0.41844 -0.57625,0.88239 -1.03906,1.39062 -0.48782,0.5357 -0.93684,0.93166 -1.3457,1.1875 -0.40886,0.25584 -0.82518,0.34119 -1.25,0.25586 -0.39858,-0.0866 -0.84535,-0.35439 -1.33985,-0.80469 l -1.19531,-1.08984 z m -233.60157,0.66992 -3.22265,3.27734 16.09179,15.83008 6.93555,-7.05273 -2.22461,-2.18946 -3.71289,3.77539 z m 245.39063,6.09765 -16.94141,14.91602 3.03907,3.45117 7.67578,-6.75781 1.06836,1.21289 -5.96289,8.70313 3.11132,3.53515 6.19922,-9.61719 c 0.71584,0.33506 1.39865,0.47675 2.04688,0.42579 0.67444,-0.0493 1.32508,-0.25048 1.95312,-0.60547 0.65427,-0.35333 1.3302,-0.83731 2.02735,-1.45118 1.15725,-1.01901 1.86646,-2.04125 2.1289,-3.06445 0.27472,-1.00926 0.17651,-2.0345 -0.29687,-3.07812 -0.44717,-1.04196 -1.17491,-2.13598 -2.18164,-3.2793 z m -162.10742,3.41407 -0.0547,30.42969 H 168.589 l -4.00977,28.06835 c 0,0 11.5018,-3.82834 16.36914,-4.66601 v 6.7539 c 1.86754,12.13565 38.86523,27.79297 38.86523,27.79297 0,0 36.9977,-15.6573 38.86524,-27.79297 v -6.7539 c 4.86733,0.83767 11.64453,4.7207 11.64453,4.7207 l 4.23047,-28.12304 h -16.09375 l -0.0566,-30.42969 c -22.45562,9.75918 -38.58985,0.93164 -38.58985,0.93164 0,0 -16.13618,8.82754 -38.59179,-0.93164 z m -92.26367,0.32031 -3.22461,3.95117 14.71875,17.66211 2.73242,-3.3457 -3.29688,-3.80664 2.25586,-2.76172 4.35352,2.50976 2.69726,-3.30273 z m 255.0664,1.7793 1.03125,1.16992 c 0.68753,0.7808 0.94618,1.4954 0.77344,2.14258 -0.14652,0.64884 -0.60982,1.31638 -1.39063,2.0039 -0.54377,0.47882 -1.06522,0.81576 -1.56445,1.00782 -0.47301,0.19372 -0.94261,0.20991 -1.40625,0.0488 -0.46363,-0.16108 -0.94055,-0.52041 -1.43164,-1.07812 l -0.88476,-1.00391 z m -124.5,1.51172 c 0,0 15.53977,7.89143 36.23828,0.0664 v 26.41797 l -4.67187,2.95703 h 20.16601 l -3.3125,21.24219 -11.92382,-4.05664 c -6.99577,2.84204 -9.93946,-3.28516 -9.93946,-3.28516 -1.10968,2.0104 -2.75957,3.16774 -4.52734,3.64649 l 11.38672,14.16015 -4.39453,4.06446 -9.94336,-17.95899 c 0.007,-0.0215 0.0232,-0.0411 0.0312,-0.0625 -2.52277,-0.30071 -4.81996,-1.79066 -5.66992,-3.98437 -0.97749,1.72206 -2.19932,2.8307 -3.51368,3.4707 l 6.6836,26.72266 -7.63477,3.95507 -2.45117,-30.01562 c -2.59449,-0.17625 -5.09628,-1.75039 -6.52344,-3.98828 -0.52336,1.57498 -3.20844,3.55139 -6.1875,3.8418 l -0.73047,8.95507 h 5.3418 l 1.72656,-5.07422 1.62696,5.07422 h 5.3457 l -4.33399,3.04493 1.70704,5.25585 -4.48829,-3.29296 -4.21484,3.0625 1.60742,-4.92579 -4.32031,-3.13671 -1.72656,21.14843 -7.63282,-3.95703 6.67188,-26.66797 c -1.3179,-0.58252 -2.55208,-1.66479 -3.5332,-3.4414 -1.33258,2.40368 -3.44733,3.80811 -5.6875,4.10937 l -9.86328,17.81445 -4.39454,-4.06445 11.27344,-14.01953 c -1.67196,-0.53323 -3.25471,-1.71177 -4.4668,-3.62305 -3.75937,5.95608 -10.21874,3.17188 -10.21874,3.17188 -4.57071,0.77833 -15.13672,4.06445 -15.13672,4.06445 l 3.09179,-21.25 h 17.08399 l -4.31446,-2.95703 v -26.41797 c 21.32034,7.82502 35.77344,-0.0664 35.77344,-0.0664 z m -62.49414,2.01562 a 121.75419,121.75419 0 0 0 -60.61914,105.05664 121.75419,121.75419 0 0 0 46.59766,95.66211 h 150.3125 a 121.75419,121.75419 0 0 0 46.59765,-95.66211 121.75419,121.75419 0 0 0 -54.07422,-101.19726 c 20.66928,20.65207 36.65516,51.51304 26.26563,94.64257 H 126.71596 c -11.05951,-45.91075 7.76267,-77.91596 30.31445,-98.50195 z m -65.27148,0.25195 7.92187,4.70508 -1.70898,2.09375 z m 130.12109,4.09375 c -3.38491,-0.0557 -6.81737,1.19452 -8.39453,3.92969 -0.86895,1.50695 -2.78193,7.52419 5.75976,9.47266 10.45838,2.38566 -0.3078,10.32659 -3.9414,2.84961 l -4.69141,2.51953 c 3.27007,6.7646 14.93613,4.69173 17.29297,0.74609 4.15728,-6.95978 -2.44631,-9.57531 -5.72266,-10.30078 -9.35578,-2.07163 -0.64486,-9.08298 3.29883,-2.78906 l 4.50391,-2.52539 c -1.3844,-2.4858 -4.72056,-3.84662 -8.10547,-3.90235 z m -30.59961,0.35938 -1.78711,15.71094 c -0.0342,5.61346 4.08743,7.22141 8.76758,7.11718 4.68014,-0.10422 9.02542,-1.68772 10.01758,-7.11718 l 1.98047,-15.59961 -5.82227,-0.0547 -1.95312,15.73437 c -0.42559,3.61142 -6.96233,4.70021 -7.14063,0 l 1.89649,-15.79101 z m 47.4707,0.0625 -10.05468,22.13672 h 5.42382 l 1.86915,-4.39453 h 8.00976 l 0.94141,4.39453 h 5.38281 l -4.77344,-22.13672 z m -158.4375,0.96094 -2.0957,3.1582 9.79883,6.50195 -12.57227,-2.32422 -1.77148,2.67188 18.80664,12.48047 2.17188,-3.27344 -10.4004,-6.90234 13.17579,2.72265 1.69335,-2.55273 z m 273.57422,1.34179 c -0.27853,0.022 -0.56157,0.0685 -0.84765,0.13672 -1.13378,0.28813 -2.33398,0.87006 -3.60157,1.74805 l -6.91796,4.79297 c -1.26759,0.87799 -2.24218,1.80276 -2.92579,2.77343 -0.65775,0.97539 -0.95589,2.02946 -0.89453,3.16211 0.0614,1.13265 0.56245,2.37712 1.50391,3.73633 0.95204,1.37449 1.94755,2.29045 2.98633,2.7461 1.04935,0.47091 2.13965,0.56156 3.27344,0.27343 1.15962,-0.28343 2.37304,-0.86419 3.64062,-1.74218 l 6.91992,-4.79102 c 1.26758,-0.87799 2.2208,-1.80083 2.86328,-2.76562 0.66833,-0.9601 0.96026,-2.00719 0.87305,-3.14454 -0.0614,-1.13265 -0.56945,-2.38723 -1.52148,-3.76171 -0.94147,-1.35922 -1.92377,-2.27206 -2.94727,-2.73829 -0.76763,-0.34966 -1.56869,-0.49184 -2.4043,-0.42578 z m -112.27148,1.54688 1.70508,10.19531 h -5.72461 z m 113.28711,2.67187 c 0.19797,-0.0241 0.38993,-0.0151 0.57617,0.0254 0.38775,0.0704 0.73929,0.33481 1.05664,0.79297 0.3385,0.48871 0.47275,0.9267 0.40234,1.31446 -0.0551,0.37717 -0.23909,0.73031 -0.55273,1.06054 -0.31364,0.33024 -0.68371,0.64327 -1.11133,0.93946 l -8.77344,6.07812 c -0.42761,0.29619 -0.86022,0.53847 -1.29492,0.72656 -0.41942,0.17752 -0.82123,0.23057 -1.20898,0.16016 -0.37248,-0.081 -0.72986,-0.36676 -1.06836,-0.85547 -0.32793,-0.47343 -0.46334,-0.89821 -0.4082,-1.27539 0.0704,-0.38775 0.26253,-0.74593 0.57617,-1.07617 0.33949,-0.32555 0.72277,-0.63741 1.15039,-0.9336 l 8.77344,-6.07617 c 0.42761,-0.29619 0.85206,-0.53342 1.27148,-0.71094 0.20971,-0.0888 0.41335,-0.14578 0.61133,-0.16992 z M 72.58315,145.29174 c -0.83439,0.0239 -1.61659,0.2595 -2.34571,0.70703 -0.97978,0.57158 -1.86392,1.59587 -2.65234,3.07032 -0.77966,1.45806 -1.14413,2.74762 -1.0918,3.87109 0.0523,1.12347 0.46147,2.13174 1.22656,3.02539 0.77386,0.87727 1.84141,1.68111 3.20118,2.4082 l 7.42187,3.9668 c 1.35977,0.7271 2.62705,1.17465 3.80274,1.33984 1.16806,0.14006 2.24092,-0.0769 3.2207,-0.64843 0.97978,-0.57158 1.86096,-1.58686 2.64062,-3.04492 0.78842,-1.47445 1.14684,-2.77598 1.07813,-3.90821 -0.06,-1.14861 -0.47615,-2.16179 -1.25,-3.03906 -0.78148,-0.90242 -1.85313,-1.71821 -3.21289,-2.44531 l -7.41992,-3.96875 c -1.35977,-0.7271 -2.6159,-1.15582 -3.76758,-1.28711 -0.28983,-0.0391 -0.57344,-0.0548 -0.85156,-0.0469 z m 291.24023,0.33985 c -0.29131,0.003 -0.58836,0.0293 -0.89258,0.0801 -1.21686,0.20322 -2.53865,0.68469 -3.96679,1.4414 l -6.67383,3.53516 c -1.37894,0.73062 -2.50615,1.53885 -3.38282,2.42383 -0.85154,0.89269 -1.35661,1.88417 -1.51367,2.97656 -0.14064,1.08369 0.14616,2.29842 0.85938,3.64453 0.46968,0.88646 1.04058,1.48813 1.71289,1.80469 0.67231,0.31656 1.38235,0.44588 2.1289,0.38672 l -1.66796,1.19921 1.41015,2.65821 10.24219,-5.42774 -2.97461,-5.61328 -2.46094,1.30469 1.0293,1.94531 -2.11719,1.1211 c -0.57456,0.30442 -1.12205,0.52176 -1.64258,0.65039 -0.49541,0.13634 -0.94885,0.13404 -1.35937,-0.006 -0.41052,-0.13991 -0.7499,-0.46377 -1.01953,-0.97266 -0.26964,-0.50889 -0.35621,-0.96741 -0.25781,-1.37695 0.10707,-0.39312 0.357,-0.75651 0.74804,-1.08985 0.39104,-0.33333 0.86569,-0.64763 1.42383,-0.94336 l 8.83984,-4.68554 c 0.49248,-0.26094 0.97004,-0.47038 1.43164,-0.63086 0.47803,-0.16918 0.92054,-0.2058 1.33008,-0.10742 0.40954,0.0984 0.7579,0.41921 1.04492,0.96093 0.27833,0.52531 0.36392,0.96482 0.25586,1.31641 -0.0993,0.36801 -0.33728,0.69345 -0.71289,0.97656 -0.35919,0.27441 -0.80086,0.5498 -1.32617,0.82813 l -1.4043,0.74414 2.10157,3.96484 1.15625,-0.61328 c 1.19836,-0.63494 2.13771,-1.36341 2.8164,-2.18555 0.67869,-0.82213 1.03394,-1.77773 1.06641,-2.86718 0.0412,-1.07304 -0.31555,-2.32377 -1.07227,-3.75196 -0.7828,-1.47743 -1.68399,-2.5038 -2.70312,-3.07812 -0.75782,-0.41843 -1.57528,-0.62299 -2.44922,-0.61328 z m -291.7832,3.93945 c 0.19943,10e-4 0.40846,0.0335 0.62695,0.0977 0.43699,0.12833 0.88503,0.31526 1.34375,0.56054 l 9.41211,5.03321 c 0.45872,0.24528 0.87056,0.51744 1.23633,0.81836 0.34938,0.29215 0.58097,0.62676 0.69531,1.0039 0.098,0.36839 0.007,0.8156 -0.27344,1.33985 -0.27156,0.50786 -0.5865,0.82221 -0.94726,0.94531 -0.37715,0.11434 -0.78567,0.1088 -1.22266,-0.0195 -0.44461,-0.15348 -0.89476,-0.35433 -1.35352,-0.59961 l -9.4121,-5.03125 c -0.45872,-0.24529 -0.86349,-0.51448 -1.2129,-0.80664 -0.34936,-0.29216 -0.57196,-0.62185 -0.66992,-0.99024 -0.11433,-0.37714 -0.0401,-0.81125 0.22266,-1.30273 0.28033,-0.52425 0.60918,-0.84465 0.98633,-0.95899 0.18038,-0.0616 0.36892,-0.0911 0.56836,-0.0898 z m 188.03125,3.35742 c -3.23406,-0.0264 -5.69085,2.18753 -6.35157,4.81641 -1.50023,5.96915 3.59109,7.67653 6.35157,6.35156 l -0.11719,1.04688 c 0,0 2.9513,0.87433 2.9707,0.75781 0.0194,-0.11652 1.61133,-7.70899 1.61133,-7.70899 l -5.16602,0.0781 -0.40624,1.70898 1.96093,-0.0195 -0.38867,2.27149 c -3.46608,2.35304 -4.06469,-2.22033 -3.70898,-3.98047 0.89947,-4.65369 4.72521,-4.4299 4.29101,-1.78711 h 3.4961 c 0.26675,-2.49597 -1.48406,-3.51016 -4.54297,-3.53516 z m -79.80664,0.0117 c -2.21362,-0.0266 -4.35287,0.58956 -5.125,2.65234 -1.07828,2.88067 1.41923,3.69854 2.69531,4.03907 2.14491,0.57238 2.51367,1.06623 2.36914,2.08008 -0.24272,1.70269 -3.20885,1.99201 -2.76367,-0.57422 l -3.4043,-0.0547 c -0.25161,4.10926 2.28633,3.94082 4.43164,3.98242 2.69493,0.0523 4.94885,-1.34417 5.22656,-4.14062 0.23441,-2.36035 -1.98436,-2.85293 -2.88672,-3.14649 -1.09778,-0.35713 -2.68762,-0.6431 -2.40429,-1.78516 0.35693,-1.43872 2.91722,-1.38915 2.44336,0.64063 h 3.18554 c 0.51927,-2.9778 -1.56904,-3.66686 -3.76757,-3.69336 z m 41.95703,0.125 -1.68946,7.94336 2.71875,0.0957 1.35938,-6.13476 0.87305,6.27148 2.9707,0.0391 3.63281,-6.11718 -1.3789,6.21484 3.04882,0.0762 1.82618,-8.33008 -5.03125,0.0195 -2.79688,5.16601 -0.54297,-5.18555 z m 20.23437,0.0195 -1.72851,8.81641 2.73828,0.19531 1.45703,-6.7793 2.11719,7.30274 3.88281,0.54297 1.98242,-10 -2.75781,-0.0195 -1.08789,6 -1.70899,-6 z m -35.40234,0.0195 -1.80469,8.44727 2.93164,-0.17383 1.30078,-6.33203 0.875,6.29297 3.06836,-0.17578 3.47461,-5.90235 -1.18359,5.90235 3.02929,-0.13477 1.6504,-7.9043 -4.99024,0.0586 c 0,0 -2.64151,4.71881 -2.79687,5.06836 -0.15536,0.34956 -0.52539,-5.12696 -0.52539,-5.12696 z m -21.38086,0.0195 0.27148,10.44727 3.12696,-0.48437 3.53515,-6.85547 0.60157,6.33007 c 0,0 3.49469,-0.4082 3.59179,-0.4082 0.0971,0 3.92383,-9.0293 3.92383,-9.0293 h -2.95312 c -0.0777,0 -2.09571,4.91211 -2.09571,4.91211 l -0.46679,-4.91211 h -3.70899 c 0,0 -2.4085,4.73884 -2.4668,4.83594 -0.0583,0.0971 -0.19337,-4.83594 -0.19335,-4.83594 z m 16.23437,0 c 0,0 -1.74635,8.60246 -1.78515,8.75782 -0.0388,0.15536 3.26172,-0.25196 3.26172,-0.25196 l 1.78711,-8.48632 z m 35.51954,0.0195 -1.82618,8.33007 3.24414,0.3125 1.86329,-8.62304 z m -174.63672,6.14843 -1.87891,4.16602 20.58008,9.27148 1.87695,-4.16601 z m 311.42187,1.27735 -21.07031,8.09375 1.64844,4.29297 9.54687,-3.66797 0.58008,1.50976 -8.61914,6.08594 1.68945,4.39648 9.15625,-6.85937 c 0.55461,0.56311 1.14406,0.9317 1.76953,1.10937 0.64948,0.18836 1.33067,0.22572 2.04297,0.11133 0.73631,-0.10371 1.53717,-0.32123 2.4043,-0.65429 1.43943,-0.55289 2.46056,-1.26282 3.0625,-2.13086 0.6086,-0.8507 0.87382,-1.84908 0.79297,-2.99219 -0.0569,-1.13243 -0.36003,-2.40995 -0.90625,-3.83203 z m -1.26562,5.41211 0.56054,1.45703 c 0.37304,0.97118 0.36557,1.73065 -0.0215,2.27734 -0.36305,0.55737 -1.03077,1.0215 -2.00195,1.39453 -0.67636,0.25979 -1.28155,0.39396 -1.81641,0.40039 -0.51086,0.0171 -0.95532,-0.13108 -1.33398,-0.44336 -0.37867,-0.31228 -0.70035,-0.81606 -0.9668,-1.50976 l -0.48047,-1.24805 z m -313.38672,0.47461 -4.17578,10.7539 3.19531,1.24219 1.26172,-3.24805 17.8457,6.92969 1.67383,-4.3125 -17.8457,-6.92969 1.24023,-3.19531 z m 202.83203,7.60742 a 2.4626229,2.4978031 0 0 0 -2.4375,2.49804 2.4626229,2.4978031 0 0 0 2.46289,2.49805 2.4626229,2.4978031 0 0 0 2.46289,-2.49805 2.4626229,2.4978031 0 0 0 -2.46289,-2.49804 2.4626229,2.4978031 0 0 0 -0.0254,0 z m 0.0156,0.42968 a 2.0414046,2.0705675 0 0 1 2.04102,2.07032 2.0414046,2.0705675 0 0 1 -2.04102,2.07031 2.0414046,2.0705675 0 0 1 -2.04296,-2.07031 2.0414046,2.0705675 0 0 1 2.04296,-2.07032 z m -0.90039,0.63282 v 2.875 h 0.58399 v -0.60156 -0.60352 c 0.33438,-0.004 0.70962,-0.071 0.69726,0.27148 v 0.9336 h 0.66211 c 0.005,-0.6266 0.0941,-1.33792 -0.44726,-1.41797 0.53683,-0.0874 0.51926,-1.42921 -0.15625,-1.45703 z m 0.58399,0.45117 c 0.55363,0 0.60203,0.13902 0.60156,0.38281 -4.7e-4,0.29181 -0.0719,0.3711 -0.60156,0.3711 z m 119.33008,5.90234 -22.95118,1.35938 1.07032,4.18555 5.01953,-0.39454 0.88476,3.45508 -4.60546,2.01367 1.05859,4.13086 20.78711,-9.81054 z m -327.79883,1.01172 -1.54101,4.86133 20.19531,10.99023 1.30468,-4.11718 -4.46679,-2.32227 1.07812,-3.40039 4.97266,0.72852 1.28711,-4.06446 z m 322.92773,2.88086 -8.49023,3.58399 -0.66992,-2.61914 z m -318.27538,1.25391 9.0996,1.45312 -0.81641,2.57617 z m -8.51954,8.54883 -0.90625,3.67968 11.41797,2.81641 -12.61914,2.05469 -0.76758,3.11133 21.91602,5.40234 0.9414,-3.81445 -12.12109,-2.98829 13.32031,-1.88086 0.73438,-2.97656 z m 335.06055,0.76171 -22.44141,2.46094 0.42578,3.34375 15.32617,-1.63867 -14.90625,4.92969 0.36133,2.8457 15.53906,0.91797 -15.13085,2.28906 0.42187,3.31836 22.3418,-3.23633 -0.59375,-4.67187 -14.50196,-1.16016 13.77344,-4.56054 z M 79.41711,214.46933 a 139.82411,139.82411 0 0 0 -1.07617,13.68359 139.82411,139.82411 0 0 0 139.82422,139.82422 139.82411,139.82411 0 0 0 96.67968,-38.87305 137.00258,137.00258 0 0 1 -100.28906,43.71289 137.00258,137.00258 0 0 1 -137.0039,-137.0039 137.00258,137.00258 0 0 1 1.86523,-21.34375 z m 75.70508,17.45703 c 2.48142,0 4.46622,0.42997 5.95508,1.28906 1.52702,0.85909 2.67203,1.99266 3.43554,3.39844 0.80169,1.36673 1.33629,2.8306 1.60352,4.39258 0.3054,1.52293 0.47745,2.98679 0.51562,4.39258 l -8.81836,1.11328 c -0.0382,-1.40579 -0.13441,-2.61558 -0.2871,-3.63086 -0.11453,-1.05434 -0.38085,-1.85565 -0.80079,-2.40235 -0.41993,-0.58574 -1.06922,-0.8789 -1.94726,-0.8789 -0.95439,0 -1.66103,0.41043 -2.11914,1.23047 -0.41994,0.82004 -0.62891,1.64089 -0.62891,2.46093 0,1.75723 0.39948,3.20155 1.20117,4.33399 0.83987,1.09338 1.92948,2.24454 3.26563,3.45508 l 3.83594,3.45703 c 2.02331,1.75723 3.72137,3.74878 5.0957,5.97461 1.4125,2.22582 2.11914,4.97765 2.11914,8.25781 0,2.22582 -0.49571,4.25647 -1.48828,6.0918 -0.99257,1.79627 -2.40585,3.22105 -4.23828,4.27539 -1.79426,1.05433 -3.93069,1.58203 -6.41211,1.58203 -2.90136,0 -5.32648,-0.5277 -7.27344,-1.58203 -1.94696,-1.05434 -3.41563,-2.67456 -4.4082,-4.86133 -0.99257,-2.22583 -1.54759,-5.09492 -1.66211,-8.60938 l 8.76172,-1.34765 c 0.0382,2.03057 0.21022,3.67033 0.51562,4.91992 0.34358,1.24958 0.80237,2.14862 1.375,2.69531 0.61081,0.54669 1.33592,0.82031 2.17578,0.82031 1.06892,0 1.75514,-0.37134 2.06055,-1.11328 0.34358,-0.74194 0.51562,-1.52371 0.51562,-2.34375 0,-1.95247 -0.45878,-3.59224 -1.375,-4.91992 -0.91621,-1.36673 -2.15549,-2.73288 -3.7207,-4.09961 l -4.00976,-3.57422 c -1.75609,-1.52293 -3.24518,-3.24087 -4.4668,-5.15429 -1.18345,-1.95248 -1.77344,-4.35447 -1.77344,-7.20508 0,-4.0221 1.16347,-7.08665 3.49219,-9.19531 2.32872,-2.14773 5.49741,-3.22266 9.50586,-3.22266 z m 17.46484,0.64453 h 10.25 v 47.44531 h -10.25 z m 17.17969,0 h 10.25 v 40.35742 h 10.65039 v 7.08789 h -20.90037 z m 19.8125,0 h 8.76172 l 4.98242,32.2168 4.63867,-32.2168 h 9.27539 l -8.47461,47.44531 h -10.82226 z m 32.29687,0 h 20.84375 v 7.14648 h -10.59375 v 11.77344 h 8.07422 v 7.26367 h -8.07422 v 14.17383 h 10.70899 v 7.08789 h -20.95899 z m 25.59766,0 h 12.76953 c 3.13041,0 5.84032,0.3518 8.13086,1.05469 2.29054,0.70289 4.06637,1.97326 5.32617,3.80859 1.29798,1.79628 1.94532,4.35267 1.94532,7.67188 0,1.95247 -0.15163,3.68996 -0.45704,5.21289 -0.3054,1.52293 -0.87888,2.85194 -1.71875,3.98437 -0.80169,1.09339 -1.96515,2.01001 -3.49218,2.75195 l 6.35547,22.96094 h -10.59375 l -5.09571,-21.26172 h -2.91992 v 21.26172 h -10.25 z m 10.25,7.0293 v 13.12109 h 2.86328 c 1.45068,0 2.5752,-0.25407 3.37696,-0.76172 0.80168,-0.54669 1.3567,-1.30892 1.6621,-2.28515 0.34359,-1.01529 0.51563,-2.22508 0.51563,-3.63086 0,-2.03058 -0.36451,-3.61171 -1.08984,-4.74414 -0.72534,-1.13244 -2.06086,-1.69922 -4.00782,-1.69922 z M 234.76672,288.733 c 1.47211,0 2.61575,0.26446 3.43359,0.79297 0.8342,0.51089 1.42409,1.23231 1.76758,2.16601 0.34349,0.9337 0.51563,2.00904 0.51563,3.22461 v 1.84961 h -4.29493 v -2.14062 c 0,-0.42281 -0.0232,-0.82727 -0.0723,-1.21485 -0.0327,-0.38757 -0.14747,-0.70453 -0.34375,-0.95117 -0.19628,-0.26425 -0.53151,-0.39648 -1.00586,-0.39648 -0.45799,0 -0.80226,0.13223 -1.03125,0.39648 -0.21264,0.26426 -0.35059,0.59872 -0.41602,1.00391 -0.0491,0.38757 -0.0742,0.80176 -0.0742,1.24219 v 10.06836 c 0,0.47565 0.0322,0.91512 0.0977,1.32031 0.0818,0.38757 0.22877,0.70453 0.44141,0.95117 0.22899,0.22902 0.55714,0.34375 0.98242,0.34375 0.45799,0 0.78419,-0.1225 0.98047,-0.36914 0.19628,-0.26426 0.32007,-0.59872 0.36914,-1.00391 0.0491,-0.40519 0.0723,-0.81943 0.0723,-1.24218 v -2.2461 h 4.29493 v 1.84961 c 0,1.21557 -0.17214,2.30646 -0.51563,3.27539 -0.32713,0.95132 -0.90799,1.7097 -1.74219,2.27344 -0.81784,0.54612 -1.97051,0.81836 -3.45898,0.81836 -1.50483,0 -2.69876,-0.28974 -3.58203,-0.8711 -0.86691,-0.59897 -1.48,-1.42735 -1.83985,-2.48437 -0.35985,-1.07464 -0.54101,-2.33471 -0.54101,-3.7793 v -7.71484 c 0,-1.47983 0.18116,-2.74962 0.54101,-3.80664 0.35985,-1.07464 0.97294,-1.90106 1.83985,-2.48242 0.88327,-0.58136 2.0772,-0.87305 3.58203,-0.87305 z m -78.41406,0.29102 h 4.70898 l 2.18555,12.44531 2.35351,-12.44531 h 4.53907 l 0.34375,21.40429 h -3.11524 l -0.36719,-14.24414 -2.30664,14.24414 h -2.77343 l -2.45313,-14.34961 -0.29492,14.34961 h -3.16406 z m 17.00195,0 h 8.93164 v 3.2246 h -4.53906 v 5.31055 h 3.45898 v 3.27735 h -3.45898 v 6.39453 h 4.58789 v 3.19726 h -8.98047 z m 10.9668,0 h 5.02929 c 1.73382,0 3.08378,0.23723 4.04883,0.71289 0.96505,0.45804 1.64455,1.18919 2.03711,2.19335 0.39256,0.98656 0.58789,2.27385 0.58789,3.85938 v 7.76758 c 0,1.60314 -0.19533,2.91571 -0.58789,3.9375 -0.39256,1.00417 -1.07206,1.74504 -2.03711,2.2207 -0.94869,0.47566 -2.28062,0.71289 -3.99804,0.71289 h -5.08008 z m 16.88086,0 h 5.00586 l 3.70312,21.40429 h -4.04687 l -0.66211,-4.51953 h -2.91993 l -0.6875,4.51953 h -4.14648 z m 10.72265,0 h 4.39063 v 18.20703 H 220.88 v 3.19726 h -8.95508 z m 30.96289,0 h 4.39063 v 18.20703 h 4.56445 v 3.19726 h -8.95508 z m 10.32813,0 h 4.34375 v 15.48437 c 0,0.44042 0.0322,0.88184 0.0976,1.32227 0.0654,0.44042 0.20533,0.80211 0.41797,1.08398 0.229,0.28187 0.57131,0.42188 1.0293,0.42188 0.47435,0 0.81861,-0.14001 1.03125,-0.42188 0.21264,-0.28187 0.34351,-0.64356 0.39258,-1.08398 0.0654,-0.44043 0.0976,-0.88185 0.0976,-1.32227 v -15.48437 h 4.36719 v 14.77148 c 0,1.49744 -0.17921,2.76529 -0.53906,3.80469 -0.34349,1.02178 -0.94046,1.80739 -1.79102,2.35351 -0.85055,0.52851 -2.03741,0.79102 -3.55859,0.79102 -1.52118,0 -2.71512,-0.26251 -3.58203,-0.79102 -0.85055,-0.54612 -1.44752,-1.33173 -1.79102,-2.35351 -0.34349,-1.0394 -0.51562,-2.30725 -0.51562,-3.80469 z m 14.57422,0 h 5.17773 c 0.85055,0 1.65189,0.07 2.4043,0.21093 0.76877,0.14094 1.44631,0.41512 2.03515,0.82031 0.58885,0.38759 1.04787,0.94955 1.375,1.68946 0.3435,0.72229 0.51563,1.6829 0.51563,2.88086 0,0.86323 -0.12379,1.59438 -0.36914,2.19336 -0.229,0.58136 -0.56423,1.04805 -1.00586,1.40039 -0.42528,0.35234 -0.93972,0.59152 -1.54492,0.71484 0.76877,0.1057 1.41408,0.37794 1.9375,0.81836 0.52342,0.42281 0.91602,0.9945 1.17773,1.7168 0.27807,0.72229 0.41797,1.5954 0.41797,2.61719 0,1.10986 -0.1399,2.07047 -0.41797,2.88085 -0.26171,0.79277 -0.64528,1.44419 -1.15234,1.95508 -0.50706,0.51089 -1.13626,0.89008 -1.88867,1.13672 -0.73606,0.24664 -1.58769,0.36914 -2.55274,0.36914 h -6.10937 z m 4.39257,3.16992 v 5.39258 h 0.85743 c 0.67063,0 1.17799,-0.10696 1.52148,-0.31836 0.34349,-0.22903 0.573,-0.55376 0.6875,-0.97657 0.13086,-0.4228 0.19727,-0.93422 0.19727,-1.5332 0,-0.56374 -0.0986,-1.03043 -0.29492,-1.40039 -0.17994,-0.38757 -0.45778,-0.67926 -0.83399,-0.87305 -0.35985,-0.19378 -0.81887,-0.29101 -1.375,-0.29101 z m -83.46874,0.13281 v 14.82422 h 0.6875 c 0.67062,0 1.15284,-0.105 1.44726,-0.31641 0.29442,-0.2114 0.47364,-0.52836 0.53906,-0.95117 0.0818,-0.42281 0.12305,-0.95173 0.12305,-1.58594 v -9.32812 c 0,-0.63421 -0.0483,-1.14563 -0.14648,-1.53321 -0.0818,-0.38757 -0.27004,-0.66953 -0.56446,-0.8457 -0.29442,-0.17617 -0.76955,-0.26367 -1.42383,-0.26367 z m 15.01562,2.4043 -1.05469,8.35156 h 2.10938 z m 68.45312,5.97265 v 6.42188 h 0.93165 c 0.96505,0 1.62843,-0.26446 1.98828,-0.79297 0.3762,-0.52851 0.56445,-1.30439 0.56445,-2.32617 0,-0.81038 -0.0825,-1.45208 -0.24609,-1.92774 -0.16357,-0.47566 -0.43434,-0.81984 -0.81055,-1.03125 -0.37621,-0.22902 -0.88162,-0.34375 -1.51953,-0.34375 z m -59.30859,29.08789 c -1.24312,0 -2.26492,0.26446 -3.06641,0.79297 -0.80148,0.52851 -1.39845,1.26744 -1.79101,2.21875 -0.37621,0.9337 -0.56445,2.02654 -0.56445,3.27735 v 9.69726 c 0,1.21557 0.20436,2.28118 0.61328,3.19727 0.40892,0.91608 1.01492,1.63946 1.8164,2.16797 0.80149,0.51089 1.79814,0.76562 2.99219,0.76562 1.17769,0 2.16727,-0.25473 2.96875,-0.76562 0.80148,-0.52851 1.40749,-1.25189 1.81641,-2.16797 0.40892,-0.9337 0.61328,-1.99931 0.61328,-3.19727 v -9.69726 c 0,-1.25081 -0.19533,-2.34365 -0.58789,-3.27735 -0.37621,-0.95131 -0.9661,-1.69024 -1.76758,-2.21875 -0.78513,-0.52851 -1.79985,-0.79297 -3.04297,-0.79297 z m -12.83203,0.0254 c -1.3249,0 -2.39505,0.29169 -3.21289,0.87305 -0.81784,0.56374 -1.41481,1.3474 -1.79102,2.35156 -0.3762,0.98655 -0.56445,2.11439 -0.56445,3.38282 v 1.13671 h 3.97461 v -1.05859 c 0,-0.54613 0.0413,-1.03811 0.12305,-1.47851 0.0981,-0.44043 0.27027,-0.79239 0.51562,-1.05665 0.24535,-0.26425 0.58767,-0.39648 1.0293,-0.39648 0.39256,0 0.70264,0.14973 0.93164,0.44922 0.22899,0.29949 0.34375,0.75645 0.34375,1.37305 0,0.61659 -0.10572,1.20774 -0.31836,1.77148 -0.19628,0.56374 -0.45802,1.11794 -0.78516,1.66406 -0.31078,0.54613 -0.64601,1.11005 -1.00586,1.69141 l -4.75976,7.875 v 3.11719 h 10.37891 v -3.4608 h -5.81446 l 3.63086,-5.83984 c 0.47435,-0.75753 0.9153,-1.48091 1.32422,-2.16797 0.42528,-0.70468 0.76051,-1.42611 1.00586,-2.16602 0.26171,-0.73991 0.39258,-1.54106 0.39258,-2.4043 0,-1.77931 -0.45707,-3.16188 -1.37305,-4.14843 -0.89962,-1.00417 -2.2425,-1.50782 -4.02539,-1.50782 z m 26.10547,0 c -1.3249,0 -2.39505,0.29169 -3.21289,0.87305 -0.81784,0.56374 -1.41481,1.3474 -1.79102,2.35156 -0.3762,0.98655 -0.56445,2.11439 -0.56445,3.38282 v 1.13671 h 3.97461 v -1.05859 c 0,-0.54613 0.0413,-1.03811 0.12305,-1.47851 0.0981,-0.44043 0.27027,-0.79239 0.51562,-1.05665 0.24535,-0.26425 0.58766,-0.39648 1.0293,-0.39648 0.39256,0 0.70264,0.14973 0.93164,0.44922 0.22899,0.29949 0.34375,0.75645 0.34375,1.37305 0,0.61659 -0.10572,1.20774 -0.31836,1.77148 -0.19628,0.56374 -0.45802,1.11794 -0.78516,1.66406 -0.31078,0.54613 -0.64601,1.11005 -1.00586,1.69141 l -4.75976,7.875 v 3.11719 h 10.3789 v -3.4608 h -5.81445 l 3.63086,-5.83984 c 0.47435,-0.75753 0.9153,-1.48091 1.32422,-2.16797 0.42528,-0.70468 0.76051,-1.42611 1.00586,-2.16602 0.26171,-0.73991 0.39258,-1.54106 0.39258,-2.4043 0,-1.77931 -0.45707,-3.16188 -1.37305,-4.14843 -0.89962,-1.00417 -2.2425,-1.50782 -4.02539,-1.50782 z m 12.61133,0 c -1.3249,0 -2.39505,0.29169 -3.21289,0.87305 -0.81784,0.56374 -1.41481,1.3474 -1.79102,2.35156 -0.37621,0.98655 -0.56445,2.11439 -0.56445,3.38282 v 1.13671 h 3.97461 v -1.05859 c 0,-0.54613 0.0413,-1.03811 0.12304,-1.47851 0.0981,-0.44043 0.26832,-0.79239 0.51368,-1.05665 0.24535,-0.26425 0.58961,-0.39648 1.03125,-0.39648 0.39256,0 0.70264,0.14973 0.93164,0.44922 0.22899,0.29949 0.34375,0.75645 0.34375,1.37305 0,0.61659 -0.10572,1.20774 -0.31836,1.77148 -0.19628,0.56374 -0.45802,1.11794 -0.78516,1.66406 -0.31078,0.54613 -0.64601,1.11005 -1.00586,1.69141 l -4.75976,7.875 v 3.11719 h 10.3789 v -3.4608 h -5.8164 l 3.63281,-5.83984 c 0.47435,-0.75753 0.9153,-1.48091 1.32422,-2.16797 0.42527,-0.70468 0.7605,-1.42611 1.00586,-2.16602 0.26171,-0.73991 0.39257,-1.54106 0.39257,-2.4043 0,-1.77931 -0.45901,-3.16188 -1.375,-4.14843 -0.89962,-1.00417 -2.24054,-1.50782 -4.02343,-1.50782 z m -25.88477,3.91211 c 0.40892,0 0.69581,0.14973 0.85938,0.44922 0.17992,0.28187 0.28564,0.61633 0.31836,1.00391 0.0327,0.36995 0.0488,0.70442 0.0488,1.0039 v 9.48633 c 0,0.26426 -0.0232,0.58122 -0.0723,0.95117 -0.0327,0.35234 -0.14039,0.6693 -0.32031,0.95118 -0.16357,0.26425 -0.44143,0.39648 -0.83399,0.39648 -0.37621,0 -0.65406,-0.13223 -0.83398,-0.39648 -0.16357,-0.28188 -0.26929,-0.59884 -0.31836,-0.95118 -0.0491,-0.36995 -0.0742,-0.68691 -0.0742,-0.95117 v -9.48633 c 0,-0.29948 0.0161,-0.63395 0.0488,-1.0039 0.0327,-0.38758 0.13135,-0.72204 0.29492,-1.00391 0.17992,-0.29949 0.47389,-0.44922 0.88281,-0.44922 z" />
    <path
       style="display:none;fill:none;stroke:#000000;stroke-width:1px;stroke-linecap:butt;stroke-linejoin:miter;stroke-opacity:1"
       d="M 102.21965,245.75632 C 143.82624,50.108623 382.01678,93.194321 397.4717,241.44033"
       id="path28202"
       sodipodi:nodetypes="cc" />
  </g>
</svg>
